<?xml version="1.0" encoding="utf-8"?>
<!-- Generator: Adobe Illustrator 22.0.1, SVG Export Plug-In . SVG Version: 6.00 Build 0)  -->
<svg version="1.1" id="Layer_1" xmlns="http://www.w3.org/2000/svg" xmlns:xlink="http://www.w3.org/1999/xlink" x="0px" y="0px"
	 viewBox="0 0 512 512" style="enable-background:new 0 0 512 512;" xml:space="preserve">
<style type="text/css">
	.st0{fill:#FFFFFF;}
</style>
<path class="st0" d="M504,256c0,137-111,248-248,248S8,393,8,256C8,119.1,119,8,256,8S504,119.1,504,256z M256,306
	c-25.4,0-46,20.6-46,46s20.6,46,46,46s46-20.6,46-46S281.4,306,256,306z M212.3,140.7l7.4,136c0.3,6.4,5.6,11.3,12,11.3h48.5
	c6.4,0,11.6-5,12-11.3l7.4-136c0.4-6.9-5.1-12.7-12-12.7h-63.4C217.4,128,212,133.8,212.3,140.7L212.3,140.7z"/>
</svg>
