<?xml version="1.0" encoding="UTF-8" ?>
<svg width="200px" height="200px" viewBox="0 0 200 200" version="1.1" xmlns="http://www.w3.org/2000/svg" xmlns:xlink="http://www.w3.org/1999/xlink">
    <!-- Generator: Sketch 49.2 (51160) - http://www.bohemiancoding.com/sketch -->
    <desc>Created with Sketch.</desc>
    <defs></defs>
    <g id="Page-1" stroke="none" stroke-width="1" fill="none" fill-rule="evenodd">
        <g id="001-library-1" fill-rule="nonzero">
            <circle id="Oval" fill="#27be89" cx="99.8046784" cy="99.8050682" r="99.8046784"></circle>
            <path d="M150.389474,73.8955166 L150.389474,140.757895 L117.22846,140.757895 C115.515789,140.757895 113.815595,141.401949 112.51501,142.702534 C111.214425,144.004678 110.556335,145.717349 110.556335,147.415984 L110.556335,150.751267 L105.45653,150.751267 L105.45653,73.9598441 L81.7750487,73.9598441 L95.322807,55.0421053 L112.502144,60.9274854 C110.54347,66.6452242 113.596881,72.8526316 119.31462,74.8230019 C125.031189,76.7805068 131.252632,73.7282651 133.210136,68.0105263 L150.389474,73.8955166 Z" id="Shape" fill="#95e9ca"></path>
            <rect id="Rectangle-path" fill="#FFFFFF" x="53.2315789" y="73.9536062" width="11.0378168" height="76.802729"></rect>
            <rect id="Rectangle-path" fill="#474F59" x="53.2315789" y="82.0705653" width="11.0378168" height="60.5649123"></rect>
            <polygon id="Shape" fill="#7A8693" points="64.2740741 98.3890838 64.2740741 111.176998 55.1177388 111.176998"></polygon>
            <rect id="Rectangle-path" fill="#353F49" x="64.268616" y="82.0705653" width="41.1847953" height="60.5649123"></rect>
            <path d="M105.4577,82.0725146 L105.4577,140.088109 L95.7220273,140.088109 C96.5719298,140.088109 97.4218324,139.766082 98.0658869,139.122417 C98.722807,138.464327 99.0444444,137.62846 99.0444444,136.778558 L99.0444444,128.201949 C99.0444444,127.352047 98.7224172,126.51501 98.0658869,125.859259 C97.4218324,125.215205 96.5719298,124.893567 95.7220273,124.893567 L92.0389864,124.893567 L92.0389864,111.176998 L64.2736842,111.176998 L64.2736842,98.3890838 L75.9668616,82.0725146 L105.4577,82.0725146 Z" id="Shape" fill="#6D7A89"></path>
            <rect id="Rectangle-path" fill="#D9D8D7" x="64.268616" y="73.9536062" width="41.1847953" height="8.11851852"></rect>
            <polygon id="Shape" fill="#E4E4E5" points="105.4577 73.9598441 105.4577 82.0729045 75.9672515 82.0729045 81.7754386 73.9598441"></polygon>
            <rect id="Rectangle-path" fill="#474F59" x="64.268616" y="142.639376" width="41.1847953" height="8.11695906"></rect>
            <rect id="Rectangle-path" fill="#FFFFFF" x="20.8576998" y="111.181287" width="80.3660819" height="13.711501"></rect>
            <rect id="Rectangle-path" fill="#F77B55" x="30.042885" y="111.181287" width="61.9996101" height="13.711501"></rect>
            <polygon id="Shape" fill="#F9A490" points="92.0393762 111.176998 92.0393762 124.892398 45.2916179 124.892398 55.1177388 111.176998"></polygon>
            <g id="Group" transform="translate(39.766082, 115.399610)" fill="#FFFFFF">
                <rect id="Rectangle-path" x="0.155555556" y="3.38791423" width="42.2374269" height="1.83118908"></rect>
                <rect id="Rectangle-path" x="0.155555556" y="0.0545808967" width="21.1189084" height="1.83118908"></rect>
            </g>
            <rect id="Rectangle-path" fill="#76D0DE" x="16.6280702" y="140.093567" width="88.8261209" height="10.6631579"></rect>
            <polygon id="Shape" fill="#9CDFEA" points="105.4577 140.088499 105.4577 150.751267 26.7734893 150.751267 34.4097466 140.088499"></polygon>
            <g id="Group" transform="translate(26.510721, 139.961014)" fill="#FFFFFF">
                <rect id="Rectangle-path" x="5.3411306" y="0.132553606" width="7.62261209" height="10.6631579"></rect>
                <rect id="Rectangle-path" x="0.269005848" y="0.132553606" width="2.54346979" height="10.6631579"></rect>
                <rect id="Rectangle-path" x="56.097076" y="0.132553606" width="7.61988304" height="10.6631579"></rect>
                <rect id="Rectangle-path" x="66.2491228" y="0.132553606" width="2.54346979" height="10.6631579"></rect>
            </g>
            <path d="M98.071345,125.859259 C97.4272904,125.214035 96.5773879,124.889669 95.7274854,124.889669 L23.0389864,124.889669 L23.0389864,126.823782 L95.7274854,126.823782 C96.094347,126.823782 96.4421053,126.966862 96.7009747,127.22807 C96.9649123,127.489669 97.1052632,127.837037 97.1052632,128.204288 L97.1052632,136.773489 C97.1052632,137.14308 96.9649123,137.492008 96.7009747,137.752047 C96.4421053,138.010916 96.094347,138.155166 95.7274854,138.155166 L23.0389864,138.155166 L23.0389864,140.092008 L95.7274854,140.092008 C96.5773879,140.092008 97.4272904,139.767641 98.071345,139.120858 C98.7192982,138.470565 99.0448343,137.621832 99.0448343,136.774659 L99.0448343,128.205458 C99.0448343,127.357115 98.7189084,126.509552 98.071345,125.859259 Z" id="Shape" fill="#353F49"></path>
            <path d="M99.0448343,128.201949 L99.0448343,136.778558 C99.0448343,137.62846 98.722807,138.465497 98.0662768,139.122417 C97.4222222,139.766472 96.5723197,140.088109 95.7224172,140.088109 L34.4097466,140.088109 L35.7875244,138.156335 L95.7216374,138.156335 C96.0951267,138.156335 96.442885,138.014815 96.7001949,137.755945 C96.9578947,137.48538 97.0994152,137.139181 97.0994152,136.777388 L97.0994152,128.20078 C97.0994152,127.840156 96.9578947,127.492398 96.7001949,127.222222 C96.4424951,126.964522 96.0947368,126.823002 95.7216374,126.823002 L43.9138402,126.823002 L45.2916179,124.891228 L95.7216374,124.891228 C96.57154,124.891228 97.4214425,125.213255 98.0654971,125.85692 C98.722807,126.51501 99.0448343,127.352047 99.0448343,128.201949 Z" id="Shape" fill="#6D7A89"></path>
            <path d="M24.9730994,138.155166 L24.9730994,126.823782 L95.7274854,126.823782 C96.094347,126.823782 96.4421053,126.966862 96.7009747,127.22807 C96.9649123,127.489669 97.1052632,127.837037 97.1052632,128.204288 L97.1052632,136.773489 C97.1052632,137.14308 96.9649123,137.492008 96.7009747,137.752047 C96.4421053,138.010916 96.094347,138.155166 95.7274854,138.155166 L24.9730994,138.155166 Z" id="Shape" fill="#FFFFFF"></path>
            <g id="Group" transform="translate(60.818713, 126.705653)" fill="#CCCBCA">
                <rect id="Rectangle-path" x="0.221832359" y="7.25146199" width="36.0619883" height="1"></rect>
                <path d="M0.223001949,0.754385965 L36.0674464,0.754385965 C36.014425,0.672124756 35.9536062,0.593762183 35.8818713,0.522417154 C35.6261209,0.265497076 35.2834308,0.122807018 34.9212476,0.119298246 L0.222612086,0.119298246 L0.222612086,0.754385965 L0.223001949,0.754385965 Z" id="Shape"></path>
                <rect id="Rectangle-path" x="0.221832359" y="2.49512671" width="36.0619883" height="1"></rect>
                <rect id="Rectangle-path" x="0.221832359" y="6.06237817" width="36.0619883" height="1"></rect>
                <path d="M0.223001949,1.94307992 L36.2865497,1.94307992 L36.2865497,1.49863548 C36.2865497,1.43430799 36.2768031,1.37192982 36.2682261,1.30916179 L0.223001949,1.30916179 L0.223001949,1.94307992 Z" id="Shape"></path>
                <rect id="Rectangle-path" x="0.221832359" y="4.87329435" width="36.0619883" height="1"></rect>
                <rect id="Rectangle-path" x="0.221832359" y="8.44054581" width="36.0619883" height="1"></rect>
                <path d="M0.223001949,11.4495127 L34.9083821,11.4495127 C35.2752437,11.4495127 35.6230019,11.3064327 35.8818713,11.0463938 C35.9532164,10.9758285 36.0140351,10.8978558 36.0670565,10.8159844 L0.223001949,10.8159844 L0.223001949,11.4495127 Z" id="Shape"></path>
                <rect id="Rectangle-path" x="0.221832359" y="3.68421053" width="36.0619883" height="1"></rect>
                <path d="M0.223001949,10.2623782 L36.2678363,10.2623782 C36.2768031,10.1980507 36.2865497,10.1337232 36.2865497,10.0678363 L36.2865497,9.62729045 L0.223001949,9.62729045 L0.223001949,10.2623782 Z" id="Shape"></path>
            </g>
            <g id="Group" transform="translate(60.818713, 127.095517)" fill="#F2F2F2">
                <path d="M0.223001949,0.919688109 L36.2682261,0.919688109 C36.2413255,0.721637427 36.1758285,0.532553606 36.0674464,0.364522417 L0.223001949,0.364522417 L0.223001949,0.919688109 Z" id="Shape"></path>
                <rect id="Rectangle-path" x="0.221832359" y="1.55165692" width="36.0619883" height="1"></rect>
                <rect id="Rectangle-path" x="0.221832359" y="2.74463938" width="36.0619883" height="1"></rect>
                <rect id="Rectangle-path" x="0.221832359" y="3.92982456" width="36.0619883" height="1"></rect>
                <rect id="Rectangle-path" x="0.221832359" y="5.11890838" width="36.0619883" height="1"></rect>
                <rect id="Rectangle-path" x="0.221832359" y="6.3079922" width="36.0619883" height="1"></rect>
                <rect id="Rectangle-path" x="0.221832359" y="7.49707602" width="36.0619883" height="1"></rect>
                <rect id="Rectangle-path" x="0.221832359" y="8.68615984" width="36.0619883" height="1"></rect>
                <path d="M0.223001949,10.4261209 L36.0670565,10.4261209 C36.1750487,10.2592593 36.2405458,10.0705653 36.2678363,9.87251462 L0.223001949,9.87251462 L0.223001949,10.4261209 Z" id="Shape"></path>
            </g>
            <polygon id="Shape" fill="#F9A490" points="88.2814815 135.14425 83.6066277 135.14425 83.6066277 145.673684 85.9415205 143.337622 88.2814815 145.673684"></polygon>
            <g id="Group" transform="translate(150.877193, 38.206628)" fill="#474F59">
                <rect id="Rectangle-path" transform="translate(23.700923, 77.341561) rotate(37.544838) translate(-23.700923, -77.341561) " x="21.7002798" y="43.9908734" width="4.00128716" height="66.7013751"></rect>
                <rect id="Rectangle-path" transform="translate(22.927657, 27.309093) rotate(-39.306741) translate(-22.927657, -27.309093) " x="20.9242546" y="-6.03877936" width="4.00680535" height="66.695745"></rect>
            </g>
            <g id="Group" transform="translate(110.331384, 84.600390)" fill="#232E38">
                <path d="M78.2307992,5.37699805 C78.0966862,8.41091618 80.4522417,10.982846 83.4877193,11.1153996 C86.5165692,11.2495127 89.0908382,8.89512671 89.2237817,5.86237817 C89.3578947,2.82846004 87.0023392,0.256530214 83.9707602,0.125146199 C80.9376218,-0.00857699805 78.3645224,2.34307992 78.2307992,5.37699805 Z" id="Shape"></path>
                <path d="M0.226120858,66.1547758 L58.580117,66.1547758 L58.580117,62.8194932 C58.580117,61.1130604 57.928655,59.4081871 56.6276803,58.1037037 C55.3243665,56.8015595 53.6194932,56.1512671 51.9118908,56.1512671 L6.89317739,56.1512671 C5.18830409,56.1512671 3.48031189,56.8015595 2.17738791,58.1037037 C0.876803119,59.4081871 0.224951267,61.1134503 0.224951267,62.8194932 L0.224951267,66.1547758 L0.226120858,66.1547758 Z" id="Shape"></path>
            </g>
            <path d="M150.389474,140.757895 L150.389474,150.751267 L110.557505,150.751267 L110.557505,147.415984 C110.557505,145.717349 111.215595,144.004678 112.516179,142.702534 C113.816764,141.401949 115.516959,140.757895 117.22963,140.757895 L150.389474,140.757895 Z" id="Shape" fill="#606F7D"></path>
            <path d="M151.665497,32.9520468 C154.538791,33.939961 156.072515,37.062768 155.0846,39.9411306 C154.096686,42.8155945 150.97115,44.3481481 148.095517,43.362963 L134.454191,38.6904483 L138.017544,28.2810916 L151.665497,32.9520468 Z" id="Shape" fill="#232E38"></path>
            <path d="M133.212476,68.0101365 C131.252242,73.7267057 125.02963,76.7750487 119.316959,74.8175439 C113.591423,72.8588694 110.548148,66.6401559 112.505653,60.9231969 C114.469396,55.2054581 120.688499,52.1532164 126.402339,54.1146199 C132.128265,56.0709552 135.168811,62.2908382 133.212476,68.0101365 Z" id="Shape" fill="#FFFFFF"></path>
            <polygon id="Shape" fill="#232E38" points="95.3243665 55.0366472 150.394542 73.8966862 144.135673 43.1376218 119.118908 34.5684211"></polygon>
            <rect id="Rectangle-path" fill="#474F59" transform="translate(133.755245, 32.634436) rotate(-161.095795) translate(-133.755245, -32.634436) " x="120.532486" y="26.0626293" width="26.4455182" height="13.1436136"></rect>
            <polygon id="Shape" fill="#232E38" points="130.644834 20.7040936 143.527875 25.1173489 142.330214 28.6292398 129.445614 24.2159844"></polygon>
            <polygon id="Shape" fill="#F2F2F2" points="16.6280702 160.878752 0 155.818713 16.6280702 150.755166"></polygon>
            <polygon id="Shape" fill="#CCCBCA" points="0 155.818713 16.6280702 160.878752 16.6280702 157.696686"></polygon>
            <rect id="Rectangle-path" fill="#F77B55" x="16.6280702" y="150.756335" width="166.350097" height="10.1220273"></rect>
            <rect id="Rectangle-path" fill="#EE643C" x="16.6280702" y="157.695906" width="166.350097" height="3.18206628"></rect>
            <polygon id="Shape" fill="#353F49" points="6.50721248 157.796881 0 155.818713 6.50721248 153.825341"></polygon>
            <polygon id="Shape" fill="#232E38" points="6.50721248 157.796881 0 155.818713 6.50721248 156.551657"></polygon>
            <rect id="Rectangle-path" fill="#F2F2F2" x="182.981287" y="150.756335" width="5.87134503" height="10.1220273"></rect>
            <rect id="Rectangle-path" fill="#CCCBCA" x="182.981287" y="157.695906" width="5.87134503" height="3.18206628"></rect>
            <path d="M194.545419,160.878752 C195.842105,160.878752 197.140351,160.384405 198.126706,159.397661 C199.116959,158.406238 199.607797,157.11423 199.607797,155.818713 C199.607797,154.523197 199.115789,153.22885 198.126706,152.242495 C197.138791,151.251072 195.842105,150.757505 194.545419,150.757505 L188.849513,150.757505 L188.849513,160.879532 L194.545419,160.879532 L194.545419,160.878752 Z" id="Shape" fill="#474F59"></path>
            <path d="M198.127875,152.241326 C197.555945,151.667057 196.865887,151.277973 196.151267,151.035867 C196.318519,151.556335 196.425731,152.092008 196.425731,152.635478 C196.425731,153.928265 195.931384,155.223782 194.947368,156.212865 C193.957115,157.203119 192.663938,157.695127 191.363353,157.695127 L188.852242,157.695127 L188.852242,160.877193 L194.548148,160.877193 C195.844834,160.877193 197.14308,160.382846 198.129435,159.396101 C199.119688,158.404678 199.610526,157.112671 199.610526,155.817154 C199.610526,154.521637 199.116959,153.22768 198.127875,152.241326 Z" id="Shape" fill="#232E38"></path>
        </g>
    </g>
</svg>