<?xml version="1.0" encoding="UTF-8" ?>
<svg width="200px" height="200px" viewBox="0 0 200 200" version="1.1" xmlns="http://www.w3.org/2000/svg" xmlns:xlink="http://www.w3.org/1999/xlink">
    <!-- Generator: Sketch 49.2 (51160) - http://www.bohemiancoding.com/sketch -->
    <desc>Created with Sketch.</desc>
    <defs></defs>
    <g id="Page-1" stroke="none" stroke-width="1" fill="none" fill-rule="evenodd">
        <g id="004-trophy" fill-rule="nonzero">
            <circle id="Oval" fill="#aecbf0" cx="100" cy="100" r="100"></circle>
            <path d="M118.650391,162.483984 L81.3511719,162.483984 C81.3511719,170.616406 74.7585938,177.208984 66.6261719,177.208984 L66.6261719,194.2875 C68.35625,194.9 70.1078125,195.466797 71.8804688,195.985156 L71.8804688,187.863281 C71.8804688,185.64375 73.6765625,183.846484 75.8933594,183.846484 C78.1152344,183.846484 79.9152344,185.64375 79.9152344,187.863281 L79.9152344,197.981641 C81.2433594,198.252344 82.5828125,198.491016 83.9292969,198.708594 L83.9292969,187.863281 C83.9292969,185.64375 85.7304688,183.846484 87.9511719,183.846484 C90.1707031,183.846484 91.9628906,185.64375 91.9640625,187.863281 L91.9640625,199.678125 C93.2976563,199.784375 94.6394531,199.859766 95.9871094,199.912891 L95.9871094,187.863281 C95.9871094,185.64375 97.7832031,183.846484 100.001172,183.846484 C102.216797,183.846484 104.016797,185.64375 104.017969,187.863281 L104.017969,199.912891 C105.363281,199.859766 106.702344,199.784375 108.033594,199.678516 L108.033594,187.863281 C108.033594,185.64375 109.830859,183.846484 112.049219,183.846484 C114.271094,183.846484 116.071094,185.64375 116.071094,187.863281 L116.071094,198.708203 C117.418359,198.490625 118.758984,198.251953 120.087891,197.980859 L120.087891,187.863281 C120.087891,185.64375 121.883984,183.846484 124.104688,183.846484 C126.320313,183.846484 128.122656,185.64375 128.123828,187.863281 L128.123828,195.983984 C129.895313,195.465625 131.646094,194.899219 133.375391,194.287109 L133.375391,177.207812 C133.375,177.207812 133.374609,177.207812 133.374219,177.207812 C125.242578,177.207812 118.650391,170.615625 118.650391,162.483984 Z" id="Shape" fill="#FFFFFF"></path>
            <g id="Group" transform="translate(71.875000, 183.593750)" fill="#CCCBCA">
                <path d="M4.01796875,0.252734375 C1.80117187,0.252734375 0.005078125,2.05 0.005078125,4.26953125 L0.005078125,12.3914062 C2.640625,13.1621094 5.31914063,13.8328125 8.03984375,14.3875 L8.03984375,4.26953125 C8.03984375,2.05 6.23984375,0.252734375 4.01796875,0.252734375 Z" id="Shape"></path>
                <path d="M16.0757812,0.252734375 C13.8550781,0.252734375 12.0539063,2.05 12.0539063,4.26953125 L12.0539063,15.1144531 C14.6992187,15.5417969 17.378125,15.86875 20.0886719,16.084375 L20.0886719,4.26953125 C20.0875,2.05 18.2953125,0.252734375 16.0757812,0.252734375 Z" id="Shape"></path>
                <path d="M28.1261719,0.252734375 C25.9082031,0.252734375 24.1121094,2.05 24.1121094,4.26953125 L24.1121094,16.3191406 C25.44375,16.371875 26.7804687,16.40625 28.125,16.40625 C29.4714844,16.40625 30.809375,16.371875 32.1429688,16.3191406 L32.1429688,4.26953125 C32.1417969,2.05 30.3417969,0.252734375 28.1261719,0.252734375 Z" id="Shape"></path>
                <path d="M40.1742187,0.252734375 C37.95625,0.252734375 36.1585938,2.05 36.1585938,4.26953125 L36.1585938,16.084375 C38.8699219,15.86875 41.5496094,15.5417969 44.1960938,15.1144531 L44.1960938,4.26953125 C44.1960937,2.05 42.3960937,0.252734375 40.1742187,0.252734375 Z" id="Shape"></path>
                <path d="M52.2296875,0.252734375 C50.0089844,0.252734375 48.2128906,2.05 48.2128906,4.26953125 L48.2128906,14.3871094 C50.934375,13.8320313 53.6128906,13.1613281 56.2488281,12.3902344 L56.2488281,4.26953125 C56.2476563,2.05 54.4449219,0.252734375 52.2296875,0.252734375 Z" id="Shape"></path>
            </g>
            <path d="M66.6269531,153.119922 C61.4554687,153.119922 57.2632812,157.312109 57.2632812,162.483984 C57.2632812,167.655469 61.4554687,171.847656 66.6269531,171.847656 C71.7984375,171.847656 75.990625,167.655469 75.990625,162.483984 C75.9910156,157.3125 71.7984375,153.119922 66.6269531,153.119922 Z M70.6324219,162.483984 C70.6324219,164.696094 68.8390625,166.489062 66.6273437,166.489062 C64.4152344,166.489062 62.6222656,164.695703 62.6222656,162.483984 C62.6222656,160.271875 64.415625,158.478906 66.6273437,158.478906 C68.8390625,158.478906 70.6324219,160.271875 70.6324219,162.483984 Z" id="Shape" fill="#FFFFFF"></path>
            <g id="Group" transform="translate(51.562500, 147.656250)" fill="#CCCBCA">
                <circle id="Oval" cx="15.0625" cy="14.828125" r="4.00507813"></circle>
                <path d="M81.6582031,0.1078125 L15.2679688,0.1078125 C15.2507813,0.107421875 15.2339844,0.106640625 15.2171875,0.106640625 L14.9097656,0.106640625 C6.8484375,0.189453125 0.33828125,6.746875 0.33828125,14.828125 C0.33828125,22.9605469 6.93085938,29.553125 15.0632813,29.553125 C23.1957031,29.553125 29.7882813,22.9605469 29.7882813,14.828125 L67.0875,14.828125 C67.0875,22.9597656 73.6796875,29.5519531 81.8113281,29.5519531 C81.8117187,29.5519531 81.8121094,29.5519531 81.8125,29.5519531 C89.94375,29.5511719 96.5351562,22.959375 96.5351562,14.828125 C96.5351562,6.73085938 89.9980469,0.1625 81.9140625,0.106640625 L81.7085937,0.106640625 C81.6917969,0.106640625 81.675,0.107421875 81.6582031,0.1078125 Z M24.4285156,14.8277344 C24.4285156,19.9992187 20.2363281,24.1914063 15.0648438,24.1914063 C9.89335937,24.1914063 5.70117188,19.9992187 5.70117188,14.8277344 C5.70117188,9.65625 9.89335937,5.46367188 15.0648438,5.46367188 C20.2363281,5.46367188 24.4285156,9.65625 24.4285156,14.8277344 Z M91.178125,14.8277344 C91.178125,19.9992187 86.9859375,24.1914063 81.8144531,24.1914063 C76.6429688,24.1914063 72.4507813,19.9992187 72.4507813,14.8277344 C72.4507813,9.65625 76.6429688,5.46367188 81.8144531,5.46367188 C86.9859375,5.46367188 91.178125,9.65625 91.178125,14.8277344 Z" id="Shape"></path>
            </g>
            <path d="M124.012891,162.483984 C124.012891,167.655469 128.205078,171.847656 133.376562,171.847656 C138.548047,171.847656 142.740234,167.655469 142.740234,162.483984 C142.740234,157.3125 138.548047,153.119922 133.376562,153.119922 C128.205078,153.119922 124.012891,157.3125 124.012891,162.483984 Z M137.382031,162.483984 C137.382031,164.696484 135.588281,166.490234 133.375391,166.490234 C131.1625,166.490234 129.36875,164.696484 129.36875,162.483984 C129.36875,160.271094 131.1625,158.477344 133.375391,158.477344 C135.588281,158.477344 137.382031,160.271094 137.382031,162.483984 Z" id="Shape" fill="#FFFFFF"></path>
            <circle id="Oval" fill="#CCCBCA" cx="133.375" cy="162.484375" r="4.00664062"></circle>
            <polygon id="Shape" fill="#FFFFFF" points="51.9007812 147.7625 66.4722656 147.7625 66.7792969 147.7625 133.271484 147.7625 133.476953 147.7625 148.099219 147.7625 148.099219 139.725 51.9007812 139.725"></polygon>
            <path d="M81.4695313,106.734375 L74.2269531,135.673828 L125.741797,135.673828 L118.508203,106.734375 L81.4695313,106.734375 Z M113.424609,127.335547 L86.5472656,127.335547 L86.5472656,115.067188 L113.424609,115.067188 L113.424609,127.335547 Z" id="Shape" fill="#474F59"></path>
            <rect id="Rectangle-path" fill="#FFDB79" x="86.546875" y="115.066406" width="26.8773438" height="12.2683594"></rect>
            <g id="Group" transform="translate(69.531250, 106.640625)" fill="#353F49">
                <polygon id="Shape" points="4.69570312 7.3296875 4.69570312 29.0328125 11.9382813 0.09375"></polygon>
                <polygon id="Shape" points="48.9769531 0.09375 56.2105469 29.0328125 56.2105469 7.3296875"></polygon>
                <polygon id="Shape" points="0.0765625 29.0328125 0.0765625 33.084375 60.8492187 33.084375 60.8492187 29.0328125 56.2105469 29.0328125 4.69570312 29.0328125"></polygon>
            </g>
            <g id="Group" transform="translate(61.718750, 32.421875)" fill="#474F59">
                <path d="M3.37421875,3.34726563 L9.90585938,3.34726563 C10.4769531,6.9171875 13.025,10.0304687 15.875,10.5917969 L15.875,7.5046875 C14.4050781,6.8140625 12.75,4.621875 12.75,1.86484375 L12.75,0.384765625 L0.382421875,0.384765625 L0.382421875,1.86484375 C0.382421875,17.2441406 8.71679688,24.4003906 14.2277344,29.134375 C14.8050781,29.6324219 15.3574219,30.1070313 15.8753906,30.56875 L15.8753906,26.6496094 C10.6933594,22.1957031 3.86210938,16.1078125 3.37421875,3.34726563 Z" id="Shape"></path>
                <path d="M63.8128906,1.86445312 C63.8128906,4.62070312 62.1570313,6.8125 60.6863281,7.50390625 L60.6863281,10.5914062 C63.5382812,10.0300781 66.0839844,6.91640625 66.6503906,3.346875 L73.1898437,3.346875 C72.696875,16.1066406 65.8691406,22.1941406 60.6867188,26.6484375 L60.6867188,30.5667969 C61.2050781,30.1054687 61.7582031,29.6316406 62.3371094,29.1339844 C67.8480469,24.3996094 76.1808594,17.24375 76.1808594,1.86445312 L76.1808594,0.384375 L63.8132813,0.384375 L63.8132813,1.86445312 L63.8128906,1.86445312 Z" id="Shape"></path>
            </g>
            <path d="M122.405078,43.0132813 L122.405078,39.9257812 L122.405078,29.4195312 L113.544531,29.4195312 L113.544531,49.6066406 L109.608984,45.6777344 L105.682422,49.6066406 L105.682422,29.4195312 L77.5933594,29.4195312 L77.5933594,39.9265625 L77.5933594,43.0136719 L77.5933594,59.071875 L77.5933594,62.9910156 L77.5933594,64.3242188 C77.5933594,70.0597656 79.7882813,75.7863281 84.1585937,80.1640625 C87.3039062,83.3148437 91.1574219,85.3226562 95.2074219,86.2039062 L104.789844,86.2039062 C108.839453,85.3222656 112.692188,83.3148437 115.8375,80.1640625 C120.210547,75.7871094 122.403906,70.059375 122.403906,64.3242187 L122.405078,64.3242187 L122.405078,62.9894531 L122.405078,59.0710937 L122.405078,43.0132813 Z" id="Shape" fill="#D9D8D7"></path>
            <g id="Group" transform="translate(75.000000, 23.828125)" fill="#474F59">
                <polygon id="Shape" points="47.4050781 5.59140625 49.7433594 5.59140625 49.7433594 0.38203125 38.5445312 0.38203125 38.5445312 5.59140625"></polygon>
                <polygon id="Shape" points="30.6824219 0.38203125 0.254296875 0.38203125 0.254296875 5.59140625 2.59335938 5.59140625 30.6824219 5.59140625"></polygon>
                <polygon id="Shape" points="13.7109375 79.6929688 13.7109375 82.90625 36.2890625 82.90625 36.2890625 79.6929688 13.7121094 79.6929688"></polygon>
            </g>
            <path d="M98.0953125,94.1046875 C98.0953125,99.2957031 93.9003906,103.521484 88.7121094,103.521484 L111.289062,103.521484 L111.290234,103.521484 C106.092969,103.521484 101.903125,99.2957031 101.903125,94.1046875 L101.903125,91.8027344 L98.0953125,91.8027344 L98.0953125,94.1046875 Z" id="Shape" fill="#D9D8D7"></path>
            <path d="M95.1742187,86.2039062 L95.1742187,88.8824219 C95.1742187,89.6320312 95.4644531,90.3792969 96.0335937,90.9519531 C96.6039062,91.5210937 97.3511719,91.8023437 98.0957031,91.8023437 L101.903516,91.8023437 C102.644141,91.8023437 103.392578,91.5210937 103.962891,90.9519531 C104.533203,90.3789062 104.825,89.6320312 104.825,88.8824219 L104.825,86.2039062 L104.823828,86.2039062 L104.790234,86.2039062 L95.2078125,86.2039062 L95.1742187,86.2039062 Z" id="Shape" fill="#474F59"></path>
            <polygon id="Shape" fill="#FF8E4F" points="105.682422 49.60625 109.608984 45.6773438 113.544531 49.60625 113.544531 29.4195312 113.544531 24.2101563 105.682422 24.2101563 105.682422 29.4195312"></polygon>
        </g>
    </g>
</svg>