<?xml version="1.0"?>
<svg xmlns="http://www.w3.org/2000/svg" xmlns:xlink="http://www.w3.org/1999/xlink" version="1.1" id="Layer_1" x="0px" y="0px" viewBox="0 0 511.909 511.909" style="enable-background:new 0 0 511.909 511.909;" xml:space="preserve" width="512px" height="512px"><g><g>
	<path d="M254.714,93.053c-34.003,0.474-66.018,14.127-90.147,38.448c-24.127,24.317-37.532,56.438-37.747,90.445   c-0.171,27.036,7.897,52.997,23.331,75.078c16.581,23.722,25.344,52.054,25.344,81.934v73.976h29.488v58.976h103.149v-58.976   h29.488v-73.976c0-29.537,8.935-58.115,25.838-82.646c14.941-21.683,22.839-47.109,22.839-73.531   c0-34.997-13.724-67.804-38.645-92.38C322.738,105.829,289.754,92.559,254.714,93.053z M307.62,422.934H205.495v-28.976H307.62   V422.934z M278.132,481.909h-43.149v-28.976h43.149V481.909z M338.755,279.289c-17.496,25.391-27.899,54.401-30.488,84.668h-103.4   c-2.538-30.53-12.819-59.357-30.128-84.121c-11.854-16.96-18.051-36.913-17.92-57.702c0.34-53.886,44.443-98.335,98.313-99.085   c26.923-0.374,52.303,9.822,71.457,28.71c19.158,18.894,29.709,44.116,29.709,71.02   C356.298,243.095,350.232,262.635,338.755,279.289z" data-original="#000000" class="active-path" data-old_color="#3c3d3b" fill="#3c3d3b"/>
	<rect x="241.557" width="30" height="60.004" data-original="#000000" class="active-path" data-old_color="#3c3d3b" fill="#3c3d3b"/>
	<rect x="64.108" y="102.061" transform="matrix(0.842 0.5395 -0.5395 0.842 78.0232 -32.2748)" width="60.004" height="30" data-original="#000000" class="active-path" data-old_color="#3c3d3b" fill="#3c3d3b"/>
	<rect x="64.773" y="270.806" transform="matrix(-0.4179 -0.9085 0.9085 -0.4179 -160.1707 498.9896)" width="30" height="60.004" data-original="#000000" class="active-path" data-old_color="#3c3d3b" fill="#3c3d3b"/>
	<rect x="402.8" y="87.059" transform="matrix(0.5395 0.842 -0.842 0.5395 290.9667 -297.8767)" width="30" height="60.004" data-original="#000000" class="active-path" data-old_color="#3c3d3b" fill="#3c3d3b"/>
	<rect x="417.136" y="270.806" transform="matrix(0.4179 -0.9085 0.9085 0.4179 -21.736 567.6919)" width="30" height="60.004" data-original="#000000" class="active-path" data-old_color="#3c3d3b" fill="#3c3d3b"/>
	<path d="M278.33,239.927c-4.979-3.771-7.892-5.284-13.425-8.05l-7.411-3.844c-1.224-0.672-2.865-1.8-4.762-3.104l-0.158-0.109   c-3.056-2.398-3.619-4.299-3.619-7.154c0-3.946,2.962-7.156,6.604-7.156c4.371,0,7.269,1.208,10.974,7.808l2.607,4.645   l18.058-11.698l-2.04-4.014c-4.268-8.398-10.299-13.935-17.969-16.509v-13.026h-21.051v12.942   c-11.57,4.078-19.34,15.05-19.34,27.975c0,8.647,2.899,15.427,8.921,20.779c5.196,4.475,9.284,6.978,17.414,10.672   c11.502,5.478,15.385,9.08,15.385,14.273c0,3.399-0.875,6.191-2.537,8.223c-2.22,2.606-5.093,3.768-9.316,3.768   c-6.801,0-11.835-2.882-15.913-17.226l-1.792-6.304l-19.125,11.576l0.713,3.459c2.888,14.006,12.721,24.855,25.591,28.653v12.774   h21.051v-12.86c5.678-1.626,10.612-4.711,14.699-9.193c5.83-6.315,8.786-14.103,8.786-23.146l-0.004-0.214   C290.216,253.329,286.401,245.938,278.33,239.927z" data-original="#000000" class="active-path" data-old_color="#3c3d3b" fill="#3c3d3b"/>
</g></g> </svg>
