<?xml version="1.0" encoding="UTF-8"?>
<svg width="1000px" height="617px" viewBox="0 0 1000 617" version="1.1" xmlns="http://www.w3.org/2000/svg" xmlns:xlink="http://www.w3.org/1999/xlink">
    <!-- Generator: Sketch 49.3 (51167) - http://www.bohemiancoding.com/sketch -->
    <desc>Created with Sketch.</desc>
    <defs></defs>
    <g id="Page-1" stroke="none" stroke-width="1" fill="none" fill-rule="evenodd">
        <g id="illustration-2" fill-rule="nonzero">
            <g id="Layer_5" transform="translate(28.403885, 400.036650)">
                <rect id="Rectangle-path" fill="#FFFFFF" transform="translate(189.861446, 107.830096) rotate(111.690000) translate(-189.861446, -107.830096) " x="188.57869" y="92.3710527" width="2.56551219" height="30.9180869"></rect>
                <rect id="Rectangle-path" fill="#CECECE" transform="translate(176.181124, 102.429944) rotate(-68.310000) translate(-176.181124, -102.429944) " x="174.898368" y="101.608064" width="2.56551219" height="1.64376031"></rect>
                <rect id="Rectangle-path" fill="#FFFFFF" transform="translate(171.773639, 100.650837) rotate(111.690000) translate(-171.773639, -100.650837) " x="167.792514" y="95.9843541" width="7.96225032" height="9.33296683" rx="1.9"></rect>
                <rect id="Rectangle-path" fill="#FFFFFF" transform="translate(158.440341, 95.404753) rotate(111.690000) translate(-158.440341, -95.404753) " x="151.55469" y="84.7899466" width="13.7713029" height="21.2296133" rx="6.88565146"></rect>
                <path d="M164.680227,105.537841 C164.390955,105.53813 164.104267,105.483404 163.835441,105.376581 L147.687374,98.9536375 C146.513792,98.4825321 145.940758,97.1522758 146.404618,95.9758109 L150.069635,86.7601246 C150.540741,85.5865425 151.870997,85.013509 153.047462,85.4773685 L169.195529,91.891149 C170.370627,92.3606983 170.944317,93.6924777 170.478285,94.8689756 L166.813267,104.086494 C166.466952,104.961758 165.621514,105.537005 164.680227,105.537841 Z M152.204508,86.0472787 C151.990727,86.0478126 151.779316,86.0920903 151.583288,86.1773868 C151.202992,86.3394185 150.903386,86.6469439 150.751329,87.0313359 L147.086311,96.2470222 C146.770453,97.047025 147.160247,97.9519031 147.958585,98.2719443 L164.106652,104.685725 C164.904097,104.997705 165.803931,104.608322 166.122412,103.813451 L169.787429,94.5959318 C170.099409,93.7984866 169.710026,92.8986528 168.915155,92.5801723 L152.767088,86.1663918 C152.588909,86.0910598 152.397928,86.0506241 152.204508,86.0472787 Z" id="Shape" fill="#E0E0E0"></path>
                <rect id="Rectangle-path" fill="#EDEDED" transform="translate(83.439694, 65.617247) rotate(-68.310000) translate(-83.439694, -65.617247) " x="42.0277462" y="-7.47419475" width="82.8238959" height="146.182884" rx="41.411948"></rect>
                <rect id="Rectangle-path" fill="#939393" transform="translate(83.670963, 65.684613) rotate(-68.310000) translate(-83.670963, -65.684613) " x="44.6183702" y="8.78521814" width="78.105186" height="113.798791"></rect>
                <path d="M146.635514,78.9353124 L138.590801,99.160711 C138.341518,99.7907048 138.64882,100.503644 139.277992,100.754994 C139.908001,101.005368 140.621707,100.697736 140.872274,100.067803 L148.916987,79.8424043 C149.16627,79.2124105 148.858968,78.4994714 148.229797,78.2481217 C147.599787,77.9977476 146.886081,78.3053793 146.635514,78.9353124 Z" id="Shape" fill="#9E9E9E"></path>
                <path d="M158.618288,50.8979293 L38.9279824,3.29851567 C34.4602849,1.53626222 29.4093865,3.72471154 27.6397288,8.1894814 L24.3412131,16.4687557 L149.188199,98.0722008 L163.443284,62.2026755 C164.302983,60.0637752 164.277581,57.6709275 163.372669,55.5507598 C162.467757,53.4305921 160.757497,51.7568614 158.618288,50.8979293 Z" id="Shape" fill="#020202" opacity="0.08"></path>
                <rect id="Rectangle-path" fill="#E0E0E0" transform="translate(159.723807, 95.852614) rotate(-68.310000) translate(-159.723807, -95.852614) " x="158.433721" y="91.1641403" width="2.58017226" height="9.37694704"></rect>
                <path d="M72.417079,171.218618 C75.2684625,166.179219 79.5638629,162.167858 83.7786329,158.583471 C86.0582738,156.646509 88.4826828,154.683892 91.1086678,152.966832 C91.3221618,149.557752 92.0454884,146.199936 93.2545355,143.005314 C95.3454279,137.359355 98.6970863,132.193513 101.698736,127.892615 C104.434671,123.967381 107.746014,119.57669 112.435404,117.155946 C117.058824,114.773685 122.996152,114.361371 129.153381,116.017959 C132.470222,116.908558 135.783397,118.462525 138.986623,119.96335 C141.002382,120.910757 142.913689,121.805021 144.810335,122.539857 C153.06762,125.74125 161.60711,129.052593 170.465457,130.361004 C177.315375,131.372549 187.30438,131.524647 195.992303,126.512736 C200.472787,123.927066 204.077332,120.311526 207.650724,116.35514 L202.035917,114.077332 L202.997984,111.695071 L209.4814,114.315558 L210.137438,113.582555 C213.556899,109.712296 217.100971,105.702767 221.284589,102.517867 C223.415796,100.894264 226.688657,98.7410665 230.494777,98.7850467 C234.68939,98.8308594 238.643944,101.729888 240.111783,105.832875 C241.484332,109.664651 240.604728,114.262415 237.87429,117.531611 C235.334433,120.57724 231.304746,122.429907 227.097306,122.488547 C222.963167,122.545355 219.034268,120.960235 215.585487,119.556533 L210.196078,117.375848 C206.382628,121.634598 202.334616,125.82188 197.28972,128.737402 C187.96225,134.121312 177.357522,133.974711 170.104453,132.904526 C160.962067,131.553967 152.285138,128.191314 143.899579,124.938611 C141.920469,124.17079 139.884552,123.216053 137.914605,122.292468 C134.810335,120.837456 131.601613,119.332967 128.50284,118.501008 C122.966832,117.011178 117.691039,117.344695 113.6302,119.439252 C109.461242,121.594283 106.498076,125.525014 103.818948,129.365952 C100.764156,133.74748 97.6617189,138.539491 95.677112,143.901411 C94.7768332,146.301026 94.1617758,148.798159 93.8446033,151.341396 C94.524464,150.974895 95.2189848,150.608393 95.9281657,150.287704 C99.4850651,148.638446 104.945941,146.93971 110.749496,148.204141 C116.137072,149.37878 120.656038,153.173905 122.264981,157.87429 C123.712585,162.258033 122.797556,167.078385 119.844237,170.626718 C115.929998,175.231812 108.753894,176.727139 102.779916,174.18545 C97.4967931,171.936962 93.2820231,166.684992 91.7848635,160.480117 C91.4375104,159.032807 91.2210133,157.557193 91.1379879,156.071101 C89.1405534,157.478468 87.254902,159.019608 85.4572109,160.544255 C81.4256918,163.974711 77.3153747,167.797325 74.6600696,172.488547 C71.8086861,177.527946 71.1068353,182.964999 72.7359355,187.407 C72.9906542,188.105186 73.3058457,188.785047 73.6375298,189.505223 C74.1542972,190.62855 74.6893898,191.788528 75.0137438,193.06029 C75.5634964,195.20799 75.4132307,198.127176 73.364486,199.879054 L71.6987356,197.927433 C72.8587136,196.93971 72.8733736,195.028404 72.532527,193.694338 C72.2668133,192.649808 71.7995235,191.64376 71.3120762,190.579073 C70.9748946,189.846069 70.623053,189.083746 70.3316841,188.290269 C68.7887117,184.075499 69.0177753,179.155213 70.9144218,174.385193 C71.3426339,173.29669 71.8446878,172.238703 72.417079,171.218618 Z M119.829577,158.698919 C118.506505,154.830493 114.724207,151.693238 110.196078,150.705516 C105.088877,149.593183 100.199743,151.126993 97.0020158,152.611325 C95.851547,153.147571 94.7319686,153.747739 93.6485248,154.409016 C93.6336821,156.247643 93.8416602,158.081295 94.2679128,159.869892 C95.5854865,165.30328 99.2303463,169.880887 103.780465,171.817849 C108.667766,173.899579 114.73337,172.669965 117.890782,168.960968 C118.618219,168.101772 119.200099,167.129289 119.613341,166.082096 C120.555395,163.723867 120.632001,161.10824 119.829577,158.698919 Z M237.696537,106.684992 C236.597031,103.621037 233.558732,101.370717 230.465457,101.335899 C228.171156,101.310244 225.74858,102.330951 222.840388,104.546454 C218.849185,107.586586 215.398571,111.491662 212.05974,115.268463 L212.002932,115.3326 L216.547554,117.165109 C219.780099,118.471688 223.445116,119.954187 227.062489,119.90471 C230.531428,119.857064 233.842771,118.34891 235.904343,115.87319 C236.57197,115.070915 237.108218,114.167891 237.493128,113.197728 C238.330585,111.097673 238.433205,108.750229 237.696537,106.684992 Z" id="Shape" fill="#FFFFFF"></path>
            </g>
            <g id="Layer_6" transform="translate(299.798424, 470.221734)">
                <path d="M144.650907,73.4231263 C144.650573,76.8872825 144.40009,80.3468929 143.901411,83.7749679 C138.8895,118.238959 109.221184,144.693055 73.3809786,144.693055 C72.3456111,144.693055 71.3230713,144.665567 70.3023639,144.623419 C32.3694338,143.016309 2.09638996,111.753711 2.09638996,73.4231263 C2.09638996,34.0553418 34.0131941,2.15319773 73.3809786,2.15319773 C112.748763,2.15319773 144.650907,34.0553418 144.650907,73.4231263 Z" id="Shape" fill="#E6E7E9"></path>
                <path d="M73.3809786,0.109950522 C32.950339,0.109950522 0.0531427524,32.9924867 0.0531427524,73.4231263 C0.0531427524,112.831226 30.8667766,145.006414 70.219901,146.666667 C70.9822247,146.694154 71.7463808,146.721642 72.5087044,146.721642 L70.425142,144.617922 L68.2719443,142.453729 C32.1330401,139.851567 4.13413964,109.910207 4.13413964,73.4176287 C4.13413964,35.2483049 35.1933297,4.19094741 73.375481,4.19094741 C111.557632,4.19094741 142.602162,35.2483049 142.602162,73.4176287 C142.604527,76.1997412 142.436231,78.9793791 142.098222,81.7408833 L143.930731,83.573392 L145.715595,85.3582555 C145.796225,84.9367784 145.8512,84.5134689 145.919003,84.0754994 C146.435982,80.5482491 146.695662,76.9880612 146.695987,73.4231263 C146.694154,32.9924867 113.809786,0.109950522 73.3809786,0.109950522 Z" id="Shape" fill="#FFFFFF"></path>
                <path d="M145.713762,85.3545904 C139.97801,120.432472 109.096573,146.743632 73.3809786,146.743632 C73.0804471,146.743632 72.7945758,146.743632 72.5087044,146.728972 L70.425142,144.617922 L68.2719443,142.453729 C68.9664651,142.506872 69.675646,142.54902 70.3829943,142.574675 C71.3780465,142.616822 72.3730988,142.64431 73.3809786,142.64431 C107.531611,142.64431 136.969031,117.210922 141.885651,83.4707715 C141.968114,82.8971963 142.048745,82.312626 142.10372,81.7408833 L143.936229,83.573392 L145.713762,85.3545904 Z" id="Shape" fill="#9E9E9E"></path>
                <path d="M142.112883,81.7463808 C142.057907,82.3181235 141.977277,82.9026938 141.894814,83.476269 C136.976361,117.216419 107.540773,142.649808 73.3901411,142.649808 C72.3822613,142.649808 71.3872091,142.62232 70.3921569,142.580172 C69.6848085,142.554517 68.9756276,142.512369 68.2811068,142.459227 L5.55250137,79.1295584 L106.85908,46.5878688 L142.112883,81.7463808 Z" id="Shape" fill="#B8B9BB"></path>
                <path d="M7.94026022,68.0410482 L31.6474253,68.0410482 C32.1797724,68.0410482 32.6113249,68.4726007 32.6113249,69.0049478 L32.6113249,79.0654206 C32.6113249,79.083889 32.6039883,79.101601 32.5909292,79.1146602 C32.57787,79.1277193 32.560158,79.1350559 32.5416896,79.1350559 L7.80282206,79.1350559 C6.35013361,79.1350559 4.9569435,78.5579777 3.92973764,77.5307718 C2.90253179,76.5035659 2.32545355,75.1103758 2.32545355,73.6576874 C2.32545338,70.5564187 4.83899172,68.04206 7.94026022,68.0410482 Z" id="Shape" fill="#FEFCFE"></path>
                <circle id="Oval" fill="#FEFCFE" transform="translate(73.374589, 73.421940) rotate(-45.000000) translate(-73.374589, -73.421940) " cx="73.374589" cy="73.42194" r="42.6974528"></circle>
                <path d="M108.607293,73.4231263 C108.607293,92.8880337 92.8330585,108.662269 73.3809786,108.662269 C53.9232248,108.665304 38.1470433,92.8943184 38.14367,73.4365647 C38.1402967,53.978811 53.911009,38.2023559 73.3687626,38.198645 C92.8265162,38.1949341 108.603245,53.9653727 108.607293,73.4231263 Z" id="Shape" fill="#42210B"></path>
                <path d="M108.607293,73.4231263 C108.607293,92.8880337 92.8330585,108.662269 73.3809786,108.662269 C62.7614267,108.673976 52.7063643,103.881874 46.0271211,95.6258017 C43.5019288,90.6835818 42.1903046,85.2109429 42.200843,79.6609859 C42.200843,60.208906 57.9750779,44.4218435 77.4253253,44.4218435 C88.0451758,44.4088113 98.1007801,49.2011721 104.779183,57.4583104 C107.30501,62.4003726 108.617264,67.8730196 108.607293,73.4231263 Z" id="Shape" fill="#6B3E1F"></path>
            </g>
            <g id="Layer_7" transform="translate(301.630933, 16.675829)">
                <path d="M216.054609,149.54004 L128.675096,225.490196 L1.50998717,79.1845336 L88.8913322,3.23621037 C91.4120278,1.04471615 94.700198,-0.0554099483 98.0321789,0.177949002 C101.36416,0.411307951 104.466885,1.95902747 106.657504,4.48048378 L113.525747,12.3767638 L113.807953,12.7029503 L120.307861,20.1795859 L120.590068,20.5039399 L126.80777,27.6507238 L127.089976,27.9769104 L133.307678,35.1236943 L133.589885,35.4498809 L139.805754,42.5966648 L140.08796,42.9228514 L217.302547,131.757376 C217.849727,132.385754 218.332848,133.067157 218.744732,133.791461 C218.818032,133.917904 218.8895,134.048012 218.957303,134.17812 C221.668809,139.352364 220.467148,145.711912 216.054609,149.54004 Z" id="Shape" fill="#FEFCFE"></path>
                <path d="M15.8053876,78.8876672 C16.9891882,80.2492212 17.0753161,82.1128825 15.9886384,83.0492945 C14.9019608,83.9857064 13.0786146,83.6411948 11.894814,82.2796408 C10.7110134,80.9180869 10.6248855,79.0544255 11.7115631,78.1180136 C12.7982408,77.1816016 14.621587,77.5261132 15.8053876,78.8876672 Z" id="Shape" fill="#1B1F21"></path>
                <path d="M29.1515485,94.2422577 C30.3353491,95.6038116 30.421477,97.467473 29.3347993,98.4038849 C28.2481217,99.3402969 26.4247755,98.9957852 25.2409749,97.6342313 C24.0571743,96.2726773 23.9710464,94.4090159 25.057724,93.472604 C26.1444017,92.536192 27.9677478,92.8807037 29.1515485,94.2422577 Z" id="Shape" fill="#1B1F21"></path>
                <path d="M41.7042331,109.180869 C42.8880337,110.542423 42.9741616,112.404251 41.887484,113.340663 C40.8008063,114.277075 38.9774601,113.932564 37.7936595,112.57101 C36.6098589,111.209456 36.5255635,109.345794 37.6104086,108.409382 C38.6952538,107.47297 40.522265,107.819315 41.7042331,109.180869 Z" id="Shape" fill="#1B1F21"></path>
                <path d="M55.6184717,124.038849 C56.8004398,125.400403 56.8865677,127.264065 55.8017226,128.200476 C54.7168774,129.136888 52.8916987,128.792377 51.7078981,127.430823 C50.5240975,126.069269 50.4398021,124.205607 51.5246472,123.269196 C52.6094924,122.332784 54.4383361,122.677295 55.6184717,124.038849 Z" id="Shape" fill="#1B1F21"></path>
                <path d="M68.418545,138.763057 C69.6023456,140.124611 69.6884735,141.988272 68.6109584,142.924684 C67.5334433,143.861096 65.7009346,143.516584 64.517134,142.15503 C63.3333333,140.793476 63.2490379,138.929815 64.3338831,137.993403 C65.4187282,137.056991 67.2365769,137.401503 68.418545,138.763057 Z" id="Shape" fill="#1B1F21"></path>
                <path d="M81.2167858,153.487264 C82.4005864,154.850651 82.4867143,156.712479 81.4000367,157.648891 C80.313359,158.585303 78.4900128,158.240792 77.3062122,156.879238 C76.1224116,155.517684 76.0381162,153.654022 77.1137988,152.71761 C78.1894814,151.781198 80.0329852,152.131208 81.2167858,153.487264 Z" id="Shape" fill="#1B1F21"></path>
                <path d="M94.0150266,168.213304 C95.1988272,169.574858 95.2849551,171.436687 94.1982774,172.373099 C93.1115998,173.309511 91.2882536,172.964999 90.104453,171.603445 C88.9206524,170.241891 88.8345245,168.37823 89.9212021,167.441818 C91.0078798,166.505406 92.8312259,166.85175 94.0150266,168.213304 Z" id="Shape" fill="#1B1F21"></path>
                <ellipse id="Oval" fill="#1B1F21" transform="translate(105.987836, 185.901557) rotate(-41.000000) translate(-105.987836, -185.901557) " cx="105.987836" cy="185.901557" rx="2.58383727" ry="3.26736302"></ellipse>
                <path d="M121.024372,199.287154 C122.208173,200.648708 122.294301,202.512369 121.207623,203.448781 C120.120946,204.385193 118.297599,204.038849 117.113799,202.677295 C115.929998,201.315741 115.84387,199.453912 116.921385,198.5175 C117.9989,197.581089 119.840572,197.9256 121.024372,199.287154 Z" id="Shape" fill="#1B1F21"></path>
                <path d="M14.5098039,78.8748397 L1.09950522,90.5314275 C0.841115504,90.7551719 0.450515788,90.7281493 0.225398571,90.4709547 C0.00165420889,90.212565 0.0286768308,89.8219653 0.285871358,89.5968481 L13.6980026,77.9402602 C13.9563923,77.7165159 14.346992,77.7435385 14.5721092,78.000733 C14.7953979,78.2596099 14.7675535,78.6502506 14.5098039,78.8748397 Z" id="Shape" fill="#475059"></path>
                <path d="M16.5090709,81.4201942 L3.09877222,93.0767821 C2.8403825,93.3005265 2.44978278,93.2735039 2.22466557,93.0163093 C2.00092121,92.7579196 2.02794383,92.3673199 2.28513835,92.1422027 L15.6972696,80.4801173 C15.9556593,80.2563729 16.346259,80.2833955 16.5713762,80.5405901 C16.6803466,80.6652328 16.7350548,80.8282172 16.7233569,80.9933641 C16.711659,81.158511 16.6345228,81.3121564 16.5090709,81.4201942 Z" id="Shape" fill="#475059"></path>
                <path d="M27.7643394,94.1872824 L14.3522082,105.84387 C14.0938185,106.067615 13.7032187,106.040592 13.4781015,105.783397 C13.2548128,105.524521 13.2826572,105.13388 13.5404068,104.909291 L26.9507055,93.252703 C27.2095824,93.0294142 27.6002231,93.0572587 27.8248122,93.3150082 C28.0483541,93.5727904 28.0213147,93.9628134 27.7643394,94.1872824 Z" id="Shape" fill="#475059"></path>
                <path d="M29.8240792,96.5512186 L16.411948,108.207806 C16.2881059,108.31542 16.1265319,108.369331 15.9628832,108.357642 C15.7992344,108.345953 15.6469633,108.269624 15.5396738,108.145501 C15.3161319,107.887719 15.3431713,107.497696 15.6001466,107.273227 L29.0122778,95.6166392 C29.2700599,95.3930973 29.660083,95.4201367 29.884552,95.677112 C30.1082963,95.9355017 30.0812737,96.3261014 29.8240792,96.5512186 Z" id="Shape" fill="#475059"></path>
                <path d="M40.320689,109.147883 L26.9103903,120.804471 C26.6520006,121.028216 26.2614009,121.001193 26.0362837,120.743999 C25.8125393,120.485609 25.8395619,120.095009 26.0967565,119.869892 L39.5088877,108.213304 C39.7672774,107.98956 40.1578771,108.016582 40.3829943,108.273777 C40.6052579,108.532993 40.577472,108.922813 40.320689,109.147883 Z" id="Shape" fill="#475059"></path>
                <path d="M42.3694338,111.50449 L28.9591351,123.161078 C28.7007453,123.384822 28.3101456,123.357799 28.0850284,123.100605 C27.861284,122.842215 27.8883067,122.451615 28.1455012,122.226498 L41.5576324,110.56991 C41.8160221,110.346166 42.2066218,110.373188 42.4317391,110.630383 C42.6540026,110.889599 42.6262167,111.279419 42.3694338,111.50449 Z" id="Shape" fill="#475059"></path>
                <path d="M54.2275976,123.994869 L40.8154664,135.651457 C40.5576842,135.874999 40.1676612,135.847959 39.9431922,135.590984 C39.7194479,135.332594 39.7464705,134.941995 40.003665,134.716877 L53.4194612,123.06029 C53.677851,122.836545 54.0684507,122.863568 54.2935679,123.120762 C54.5159501,123.380613 54.4864614,123.771339 54.2275976,123.994869 Z" id="Shape" fill="#475059"></path>
                <path d="M56.2763423,126.351475 L42.8642111,138.008063 C42.606429,138.231605 42.2164059,138.204566 41.991937,137.94759 C41.7681926,137.689201 41.7952152,137.298601 42.0524097,137.073484 L55.4627084,125.416896 C55.7210982,125.193151 56.1116979,125.220174 56.3368151,125.477369 C56.5605595,125.735758 56.5335368,126.126358 56.2763423,126.351475 Z" id="Shape" fill="#475059"></path>
                <path d="M67.0313359,138.715411 L53.6210372,150.371999 C53.3626475,150.595744 52.9720478,150.568721 52.7469305,150.311526 C52.5231862,150.053137 52.5502088,149.662537 52.8074033,149.43742 L66.2195345,137.780832 C66.4784114,137.557543 66.8690522,137.585388 67.0936412,137.843137 C67.2012549,137.966979 67.2551658,138.128553 67.2434766,138.292202 C67.2317874,138.455851 67.155459,138.608122 67.0313359,138.715411 Z" id="Shape" fill="#475059"></path>
                <path d="M69.0800806,141.07385 L55.6697819,152.730438 C55.4109051,152.953727 55.0202643,152.925882 54.7956753,152.668133 C54.6880616,152.544291 54.6341507,152.382717 54.6458399,152.219068 C54.6575291,152.055419 54.7338575,151.903148 54.8579806,151.795859 L68.2627817,140.139271 C68.5211715,139.915526 68.9117712,139.942549 69.1368884,140.199743 C69.3615489,140.457158 69.3361691,140.847679 69.0800806,141.07385 Z" id="Shape" fill="#475059"></path>
                <path d="M79.8497343,153.446949 L66.430273,165.103537 C66.1724909,165.327079 65.7824679,165.300039 65.5579989,165.043064 C65.3342545,164.784674 65.3612772,164.394075 65.6184717,164.168957 L79.0306029,152.512369 C79.288385,152.288828 79.6784081,152.315867 79.902877,152.572842 C80.1284601,152.82928 80.1047222,153.219728 79.8497343,153.446949 Z" id="Shape" fill="#475059"></path>
                <path d="M81.898479,155.796225 L68.4863478,167.454645 C68.2277374,167.676704 67.8384969,167.648901 67.6140737,167.39234 C67.3903293,167.13395 67.4173519,166.743351 67.6745465,166.518233 L81.0866777,154.861646 C81.2105197,154.754032 81.3720937,154.700121 81.5357425,154.71181 C81.6993912,154.723499 81.8516624,154.799828 81.9589518,154.923951 C82.1824937,155.181733 82.1554543,155.571756 81.898479,155.796225 Z" id="Shape" fill="#475059"></path>
                <path d="M92.6351475,168.167491 L79.2248488,179.824079 C78.9659719,180.047368 78.5753312,180.019523 78.3507422,179.761774 C78.2431285,179.637932 78.1892176,179.476358 78.2009068,179.312709 C78.212596,179.14906 78.2889244,178.996789 78.4130475,178.8895 L91.8233462,167.231079 C92.0825622,167.008816 92.4723826,167.036602 92.6974528,167.293385 C92.9207415,167.552262 92.8928971,167.942902 92.6351475,168.167491 Z" id="Shape" fill="#475059"></path>
                <path d="M94.6820597,170.524097 L81.2735935,182.18435 C81.0152038,182.408095 80.6246041,182.381072 80.3994869,182.123878 C80.1761982,181.865001 80.2040426,181.47436 80.4617922,181.249771 L93.8720909,169.593183 C94.1304806,169.369439 94.5210803,169.396461 94.7461975,169.653656 C94.9665754,169.912481 94.9379942,170.300369 94.6820597,170.524097 Z" id="Shape" fill="#475059"></path>
                <path d="M106.562214,184.20011 L93.151915,195.856698 C92.8930381,196.079987 92.5023974,196.052142 92.2778083,195.794393 C92.1701946,195.67055 92.1162837,195.508977 92.1279729,195.345328 C92.1396621,195.181679 92.2159905,195.029408 92.3401136,194.922118 L105.750412,183.265531 C106.008802,183.041786 106.399402,183.068809 106.624519,183.326003 C106.847808,183.58488 106.819963,183.975521 106.562214,184.20011 Z" id="Shape" fill="#475059"></path>
                <path d="M108.609126,186.547554 L95.2006597,198.204141 C94.94227,198.427886 94.5516703,198.400863 94.3265531,198.143669 C94.1032643,197.884792 94.1311088,197.494151 94.3888583,197.269562 L107.799157,185.612974 C108.057547,185.38923 108.448146,185.416252 108.673264,185.673447 C108.896098,185.932811 108.867432,186.323494 108.609126,186.547554 Z" id="Shape" fill="#475059"></path>
                <path d="M119.622503,199.252336 L106.212205,210.910757 C105.952988,211.13302 105.563168,211.105234 105.338098,210.848452 C105.114353,210.590062 105.141376,210.199462 105.398571,209.974345 L118.810702,198.317757 C119.068972,198.09467 119.459036,198.122532 119.682976,198.380062 C119.906518,198.637844 119.879478,199.027867 119.622503,199.252336 Z" id="Shape" fill="#475059"></path>
                <path d="M121.671248,201.608943 L108.260949,213.265531 C108.002072,213.488819 107.611432,213.460975 107.386843,213.203225 C107.163301,212.945443 107.19034,212.55542 107.447315,212.330951 L120.859447,200.674363 C121.117229,200.450821 121.507252,200.477861 121.731721,200.734836 C121.955465,200.993226 121.928442,201.383825 121.671248,201.608943 Z" id="Shape" fill="#475059"></path>
                <path d="M218.953638,134.194612 L122.418911,218.101521 L122.136705,217.777167 L218.741067,133.806121 C218.814367,133.934396 218.894997,134.064504 218.953638,134.194612 Z" id="Shape" fill="#1B1F21"></path>
            </g>
            <g id="Layer_4" transform="translate(19.241341, 0.000000)">
                <rect id="Rectangle-path" fill="#F9F9F7" transform="translate(90.850704, 91.407265) rotate(-137.560000) translate(-90.850704, -91.407265) " x="32.0170954" y="21.3449593" width="117.667216" height="140.124611"></rect>
                <rect id="Rectangle-path" fill="#F9F9F7" transform="translate(700.032003, 270.812427) rotate(66.940000) translate(-700.032003, -270.812427) " x="641.198395" y="200.750121" width="117.667216" height="140.124611"></rect>
                <path d="M157.454645,19.3677845 L143.368151,99.6060106 C143.280191,100.100788 143.857431,100.612058 144.650907,100.751329 L152.336449,102.10372 C153.131757,102.242991 153.848268,101.957119 153.934396,101.464174 L168.022723,21.2259483 C168.035511,21.1569001 168.035511,21.0860905 168.022723,21.0170423 L157.531611,19.1753711 C157.494942,19.2345353 157.468895,19.2996526 157.454645,19.3677845 Z" id="Shape" fill="#F4BA2E"></path>
                <path d="M149.215686,101.553967 L152.330951,102.10372 C153.12626,102.242991 153.842771,101.957119 153.928899,101.464174 L168.017226,21.2259483 C168.030014,21.1569001 168.030014,21.0860905 168.017226,21.0170423 L164.901961,20.4672897 C164.910106,20.5195059 164.910106,20.5726693 164.901961,20.6248855 C164.902862,20.641977 164.902862,20.6591042 164.901961,20.6761957 L150.811801,100.914422 C150.725673,101.407367 150.009163,101.693238 149.215686,101.553967 Z" id="Shape" fill="#FFDB92"></path>
                <path d="M161.170973,20.0219901 L147.089976,100.260216 C147.003848,100.753161 147.161444,101.192963 147.439985,101.240608 L150.148433,101.717061 C150.426975,101.766538 150.725673,101.407367 150.811801,100.914422 L164.900128,20.6761957 C164.901029,20.6591042 164.901029,20.641977 164.900128,20.6248855 C164.900128,20.5735752 164.912956,20.522265 164.918453,20.4727872 L161.224116,19.8240792 C161.202571,19.8889608 161.184827,19.9550432 161.170973,20.0219901 Z" id="Shape" fill="#FFCC5A"></path>
                <path d="M168.022723,21.0170423 C168.022723,21.0170423 166.417445,2.87520616 165.823713,2.74143302 C165.22998,2.60765989 157.527946,19.1735386 157.527946,19.1735386 L168.022723,21.0170423 Z" id="Shape" fill="#EDEDED"></path>
                <path d="M166.82976,9.02327286 C166.82976,9.02327286 166.168224,2.6094924 165.853033,2.6094924 C165.457211,2.6094924 162.737768,8.29026938 162.737768,8.29026938 L166.82976,9.02327286 Z" id="Shape" fill="#2D3538"></path>
                <path d="M481.944292,297.674546 C476.619141,295.091179 470.20731,297.292585 467.592084,302.602162 L435.142019,368.993953 C432.558652,374.319104 434.760058,380.730934 440.069635,383.346161 L532.19901,428.376397 C537.52403,430.96193 543.937425,428.759986 546.551219,423.448781 L579.003115,357.058824 C581.587307,351.733249 579.384752,345.320456 574.073667,342.706615 L481.944292,297.674546 Z" id="Shape" fill="#CECFD1"></path>
                <path d="M472.71028,399.299982 L434.090159,371.761041 C434.167125,370.747664 435.153014,368.944475 435.649624,367.94759 L451.200293,336.794942 C451.200293,336.794942 480.104453,297.045996 480.216236,296.908558 L517.168774,315.909841 L574.951439,354.551952 L574.196445,356.415613 L482.409749,403.958219 L472.71028,399.299982 Z" id="Shape" fill="#231F20" opacity="0.15"></path>
                <path d="M498.035551,296.532894 C493.285881,292.995586 486.57079,293.960266 483.008979,298.691589 L438.717244,357.841305 C435.178484,362.59023 436.142451,369.306058 440.874107,372.867876 L522.957669,434.333883 C527.706862,437.871591 534.42187,436.907742 537.98424,432.17702 L582.281473,373.014477 C585.821286,368.265819 584.857201,361.549171 580.124611,357.987905 L498.035551,296.532894 Z" id="Shape" fill="#F6F4F4"></path>
                <path d="M545.147517,420.262049 L525.391241,407.46564 C525.391241,407.46564 523.078615,405.26663 520.962067,407.84497 C518.84552,410.42331 511.750046,426.082096 511.750046,426.082096 L545.147517,420.262049 Z" id="Shape" fill="#231F20" opacity="0.2"></path>
                <path d="M546.210372,421.033535 L528.678761,408.315925 C528.678761,408.315925 526.366135,406.116914 524.249588,408.697086 C522.13304,411.277259 511.667583,426.030786 511.667583,426.030786 L546.210372,421.033535 Z" id="Shape" fill="#DEDEDE"></path>
                <path d="M496.175554,391.863661 C495.520487,391.36933 495.38931,390.437969 495.882353,389.781931 L529.891882,344.319223 C530.128663,344.004324 530.480923,343.796481 530.871053,343.741484 C531.261184,343.686488 531.657174,343.788851 531.971779,344.026022 C532.286798,344.263135 532.494682,344.615711 532.549672,345.006141 C532.604662,345.396571 532.502251,345.792851 532.264981,346.107752 L498.257284,391.57046 C497.7624,392.224588 496.831863,392.35565 496.175554,391.863661 Z" id="Shape" fill="#231F20" opacity="0.15"></path>
                <path d="M501.244273,374.964266 C500.929126,374.727179 500.721282,374.374425 500.666617,373.983862 C500.611952,373.593299 500.71496,373.197036 500.952905,372.882536 L525.094374,340.833791 C525.588706,340.178725 526.520067,340.047547 527.176104,340.54059 C527.491123,340.777703 527.699007,341.13028 527.753997,341.52071 C527.808987,341.91114 527.706575,342.307419 527.469305,342.62232 L503.326003,374.671065 C503.08889,374.986083 502.736314,375.193967 502.345884,375.248957 C501.955454,375.303947 501.559174,375.201536 501.244273,374.964266 Z" id="Shape" fill="#231F20" opacity="0.15"></path>
                <path d="M486.058274,384.509804 C485.743255,384.272691 485.535371,383.920114 485.480381,383.529684 C485.425391,383.139254 485.527802,382.742975 485.765072,382.428074 L519.774601,336.965366 C520.011715,336.650347 520.364291,336.442463 520.754721,336.387473 C521.145151,336.332483 521.541431,336.434894 521.856331,336.672164 C522.17135,336.909278 522.379234,337.261854 522.434224,337.652284 C522.489214,338.042714 522.386803,338.438994 522.149533,338.753894 L488.140004,384.216603 C487.90289,384.531621 487.550314,384.739505 487.159884,384.794495 C486.769454,384.849485 486.373174,384.747074 486.058274,384.509804 Z" id="Shape" fill="#231F20" opacity="0.15"></path>
                <path d="M493.540407,362.605827 C493.225672,362.368442 493.018149,362.015733 492.963504,361.625318 C492.90886,361.234902 493.011572,360.838772 493.249038,360.524097 L514.101154,332.842221 C514.338268,332.527203 514.690844,332.319318 515.081274,332.264328 C515.471704,332.209338 515.867984,332.31175 516.182884,332.54902 C516.837951,333.043351 516.969129,333.974712 516.476086,334.630749 L495.622137,362.319956 C495.385023,362.634974 495.032447,362.842859 494.642017,362.897849 C494.251587,362.952839 493.855307,362.850427 493.540407,362.613157 L493.540407,362.605827 Z" id="Shape" fill="#231F20" opacity="0.15"></path>
                <path d="M484.27341,363.978376 C483.958392,363.741263 483.750508,363.388687 483.695518,362.998257 C483.640528,362.607827 483.742939,362.211547 483.980209,361.896647 L508.781382,328.968298 C509.018468,328.65315 509.371222,328.445307 509.761786,328.390642 C510.152349,328.335976 510.548612,328.438984 510.863112,328.676929 C511.177727,328.913982 511.385209,329.266375 511.43986,329.65649 C511.494511,330.046606 511.391847,330.442447 511.15448,330.756826 L486.35514,363.679677 C486.118027,363.994696 485.76545,364.20258 485.375021,364.25757 C484.984591,364.31256 484.588311,364.210149 484.27341,363.972879 L484.27341,363.978376 Z" id="Shape" fill="#231F20" opacity="0.15"></path>
                <path d="M469.321972,372.345611 C468.666905,371.851279 468.535727,370.919919 469.02877,370.263881 L503.038299,324.79934 C503.275386,324.484193 503.62814,324.276349 504.018704,324.221684 C504.409267,324.167019 504.805529,324.270027 505.120029,324.507971 C505.434645,324.745025 505.642127,325.097417 505.696778,325.487533 C505.751428,325.877649 505.648765,326.273489 505.411398,326.587869 L471.403702,372.05241 C470.908818,372.706538 469.978281,372.8376 469.321972,372.345611 Z" id="Shape" fill="#231F20" opacity="0.15"></path>
                <path d="M464.11215,368.559648 C463.456516,368.064639 463.326088,367.131959 463.820781,366.476086 L497.828477,321.013377 C498.322809,320.35831 499.25417,320.227133 499.910207,320.720176 C500.565274,321.214508 500.696452,322.145869 500.203408,322.801906 L466.193879,368.266447 C465.699548,368.921514 464.768187,369.052691 464.11215,368.559648 Z" id="Shape" fill="#231F20" opacity="0.15"></path>
                <path d="M600.289536,389.939527 L583.677845,469.693971 C583.575224,470.185083 584.13414,470.714678 584.925783,470.879604 L592.56368,472.470222 C593.353491,472.635148 594.079164,472.373099 594.181785,471.881986 L610.793476,392.127543 C610.807248,392.059205 610.807248,391.988807 610.793476,391.920469 L600.366502,389.748946 C600.328647,389.806838 600.3025,389.871584 600.289536,389.939527 Z" id="Shape" fill="#2D3538"></path>
                <path d="M589.461242,471.823346 L592.56368,472.470222 C593.353491,472.635148 594.079164,472.373099 594.181785,471.881986 L610.793476,392.127543 C610.807248,392.059205 610.807248,391.988807 610.793476,391.920469 L607.689207,391.273594 C607.696453,391.325262 607.696453,391.377689 607.689207,391.429357 C607.690235,391.446445 607.690235,391.463579 607.689207,391.480667 L591.077515,471.235111 C590.974895,471.720726 590.251054,471.988272 589.461242,471.823346 Z" id="Shape" fill="#475059"></path>
                <path d="M603.989371,390.711013 L587.37768,470.463625 C587.27506,470.954737 587.419828,471.398204 587.696537,471.456844 L590.388492,472.017592 C590.667033,472.0744 590.974895,471.726223 591.077515,471.235111 L607.689207,391.480667 C607.690235,391.463579 607.690235,391.446445 607.689207,391.429357 C607.699519,391.379816 607.706256,391.329598 607.709364,391.279091 L604.033352,390.513102 C604.022357,390.57724 604.004032,390.643211 603.989371,390.711013 Z" id="Shape" fill="#3A4349"></path>
                <path d="M610.800806,391.922302 C610.800806,391.922302 609.769104,373.730988 609.175371,373.58622 C608.581638,373.441451 600.364669,389.747114 600.364669,389.747114 L610.800806,391.922302 Z" id="Shape" fill="#6B3E1F"></path>
                <path d="M609.987172,379.895547 C609.987172,379.895547 609.527213,373.465274 609.212021,373.448781 C608.818032,373.430456 605.913506,379.023273 605.913506,379.023273 L609.987172,379.895547 Z" id="Shape" fill="#F6F4F4"></path>
                <path d="M553.461609,379.587686 L600.408649,446.164559 C600.698186,446.573209 601.467839,446.531061 602.127543,446.061939 L608.50284,441.564962 C609.162544,441.099505 609.46674,440.390324 609.177204,439.981675 L562.228331,373.404801 C562.188838,373.347267 562.1384,373.298075 562.079897,373.260033 L553.375481,379.397105 C553.391283,379.465709 553.420559,379.530491 553.461609,379.587686 Z" id="Shape" fill="#252B2D"></path>
                <path d="M605.920836,443.391974 L608.51017,441.559465 C609.169874,441.094008 609.47407,440.384827 609.184534,439.976177 L562.235661,373.399304 C562.196168,373.34177 562.14573,373.292578 562.087227,373.254535 L559.49606,375.087044 C559.54,375.115281 559.579521,375.149862 559.613341,375.189665 C559.625348,375.202891 559.636373,375.216978 559.646326,375.231812 L606.593366,441.808686 C606.875573,442.217336 606.573209,442.926516 605.920836,443.391974 Z" id="Shape" fill="#414A51"></path>
                <path d="M556.549386,377.408833 L603.498259,443.985706 C603.787795,444.396188 604.209272,444.592267 604.440169,444.429174 L606.688657,442.844054 C606.919553,442.682793 606.871908,442.217336 606.586036,441.808686 L559.638996,375.231812 C559.629043,375.216978 559.618018,375.202891 559.606011,375.189665 C559.576279,375.148376 559.544475,375.108621 559.51072,375.070552 L556.443101,377.234744 C556.475465,377.29459 556.510942,377.352699 556.549386,377.408833 Z" id="Shape" fill="#323B3F"></path>
                <path d="M562.083562,373.2582 C562.083562,373.2582 548.085028,361.596115 547.573758,361.929632 C547.062489,362.263148 553.371816,379.40077 553.371816,379.40077 L562.083562,373.2582 Z" id="Shape" fill="#8E6040"></path>
                <path d="M552.739601,365.644127 C552.739601,365.644127 547.725857,361.590618 547.498626,361.810519 C547.216419,362.085395 549.321972,368.022723 549.321972,368.022723 L552.739601,365.644127 Z" id="Shape" fill="#323B3F"></path>
            </g>
            <g id="Layer_2" transform="translate(0.000000, 29.686641)">
                <path d="M758.785047,136.646509 C757.353857,141.181968 704.379696,191.62177 653.901411,234.663735 C601.57046,279.288987 470.100788,350.635881 470.100788,350.635881 C379.332967,386.937878 232.290636,404.284405 232.290636,404.284405 L139.061756,402.297966 L140.863112,244.25142 L382.69562,249.899212 C422.070735,224.269745 523.963716,197.648891 551.700568,186.782115 C556.234195,185.004581 558.797874,184.020524 558.797874,184.020524 C572.512369,172.264981 590.150266,171.572292 599.813084,166.190214 C612.950339,158.871175 625.728422,153.65219 636.846253,143.527579 C647.42899,133.890416 663.511087,128.512003 675.006414,121.354224 C692.002932,110.771486 703.604545,100.111783 710.276709,97.0588235 C712.490379,96.0436137 713.730988,95.5140187 713.730988,95.5140187 C760.731171,96.8022723 758.785047,136.646509 758.785047,136.646509 Z" id="Shape" fill="#3A4349"></path>
                <path d="M710.276709,97.049661 C663.095107,144.434671 493.771303,290.179586 493.771303,290.179586 L491.905809,227.264065 C496.439436,225.488364 562.151365,181.268096 562.151365,181.268096 C579.899212,171.922302 606.527396,157.287887 616.366135,151.581455 C635.435221,140.536925 667.110134,122.60033 680.687191,114.564779 L710.276709,97.049661 Z" id="Shape" fill="#1B1F21"></path>
                <path d="M825.605644,327.722192 L773.351658,318.629283 C773.351658,318.629283 642.609492,286.94704 591.662085,281.225948 C591.662085,281.225948 468.237127,265.71193 425.453546,262.01576 C425.453546,262.01576 188.253619,251.130658 153.677845,248.537658 L133.404801,150.362837 L225.675279,104.315558 C225.675279,104.315558 328.490013,122.01576 433.806121,142.358439 C517.535276,158.532161 602.845886,176.378963 639.329302,188.332417 L734.586769,219.983507 C744.848818,223.393806 789.369617,239.736119 800.839289,246.684992 C808.229797,251.161811 817.148616,250.381162 826.677662,264.277075 C826.677662,264.277075 845.539674,274.971596 857.647059,294.852483 C857.647059,294.852483 867.835807,292.310793 868.275609,299.224849 C868.715411,306.138904 850.240059,327.722192 825.605644,327.722192 Z" id="Shape" fill="#475059"></path>
                <path d="M880.109951,40.8979293 C880.109951,80.5919003 839.223016,97.6104086 818.141836,103.752978 C808.842355,106.448338 799.953996,110.39961 791.722558,115.497526 L765.691772,131.662085 C765.691772,131.662085 763.74748,93.7383178 721.935129,89.8497343 L794.015027,29.5601979 L809.879054,16.2836723 C821.478835,6.11508155 840.544255,-3.50742166 855.209822,1.28642111 C862.098222,3.5367418 868.742899,7.61040865 873.430456,14.7168774 C877.513286,20.8942642 880.109951,29.3531244 880.109951,40.8979293 Z" id="Shape" fill="#1B1F21"></path>
                <path d="M100.331684,412.418911 C100.331684,412.418911 149.521715,421.869159 151.702401,410.491112 C176.197544,282.605827 154.330218,96.6465091 154.330218,96.6465091 L90.3555067,101.553967 L100.331684,412.418911 Z" id="Shape" fill="#512D10"></path>
                <path d="M826.663002,264.28074 C713.806121,204.299065 429.54004,158.085028 429.54004,158.085028 L433.796958,142.354774 C517.526113,158.528496 602.836723,176.375298 639.320139,188.328752 L734.577607,219.979842 C744.839655,223.390141 788.391057,237.636064 800.355507,243.694338 C811.083013,249.129558 824.117647,258.905992 826.663002,264.28074 Z" id="Shape" fill="#2D3538"></path>
                <rect id="Rectangle-path" fill="#EAEAEA" transform="translate(276.342313, 254.276159) rotate(90.000000) translate(-276.342313, -254.276159) " x="135.027488" y="155.529595" width="282.62965" height="197.493128" rx="73.87"></rect>
                <rect id="Rectangle-path" fill="#B2B2B2" transform="translate(312.156863, 253.663185) rotate(90.000000) translate(-312.156863, -253.663185) " x="188.442368" y="203.010812" width="247.42899" height="101.304746" rx="27.92"></rect>
                <rect id="Rectangle-path" fill="#BFBFBF" transform="translate(219.449331, 254.549203) rotate(90.000000) translate(-219.449331, -254.549203) " x="173.368151" y="221.08851" width="92.1623603" height="66.9213854" rx="19.17"></rect>
                <rect id="Rectangle-path" fill="#FFFFFF" transform="translate(353.070368, 142.294301) rotate(90.000000) translate(-353.070368, -142.294301) " x="345.395822" y="137.603995" width="15.3490929" height="9.38061206" rx="4.69030603"></rect>
                <rect id="Rectangle-path" fill="#FFFFFF" transform="translate(353.070368, 159.494228) rotate(90.000000) translate(-353.070368, -159.494228) " x="345.395822" y="154.803922" width="15.3490929" height="9.38061206" rx="4.69030603"></rect>
                <rect id="Rectangle-path" fill="#FFFFFF" transform="translate(353.070368, 176.694154) rotate(90.000000) translate(-353.070368, -176.694154) " x="345.395822" y="172.003848" width="15.3490929" height="9.38061206" rx="4.69030603"></rect>
                <rect id="Rectangle-path" fill="#FFFFFF" transform="translate(353.072201, 193.894081) rotate(90.000000) translate(-353.072201, -193.894081) " x="345.397654" y="189.203775" width="15.3490929" height="9.38061206" rx="4.69030603"></rect>
                <rect id="Rectangle-path" fill="#FFFFFF" transform="translate(353.072201, 211.094008) rotate(90.000000) translate(-353.072201, -211.094008) " x="345.397654" y="206.403702" width="15.3490929" height="9.38061206" rx="4.69030603"></rect>
                <rect id="Rectangle-path" fill="#FFFFFF" transform="translate(353.070368, 228.292102) rotate(90.000000) translate(-353.070368, -228.292102) " x="345.395822" y="223.601796" width="15.3490929" height="9.38061206" rx="4.69030603"></rect>
                <rect id="Rectangle-path" fill="#FFFFFF" transform="translate(353.070368, 245.492029) rotate(90.000000) translate(-353.070368, -245.492029) " x="345.395822" y="240.801723" width="15.3490929" height="9.38061206" rx="4.69030603"></rect>
                <rect id="Rectangle-path" fill="#FFFFFF" transform="translate(353.070368, 262.691955) rotate(90.000000) translate(-353.070368, -262.691955) " x="345.395822" y="258.001649" width="15.3490929" height="9.38061206" rx="4.69030603"></rect>
                <rect id="Rectangle-path" fill="#FFFFFF" transform="translate(353.072201, 279.891882) rotate(90.000000) translate(-353.072201, -279.891882) " x="345.397654" y="275.201576" width="15.3490929" height="9.38061206" rx="4.69030603"></rect>
                <rect id="Rectangle-path" fill="#FFFFFF" transform="translate(353.072201, 297.091809) rotate(90.000000) translate(-353.072201, -297.091809) " x="345.397654" y="292.401503" width="15.3490929" height="9.38061206" rx="4.69030603"></rect>
                <rect id="Rectangle-path" fill="#FFFFFF" transform="translate(353.070368, 314.291735) rotate(90.000000) translate(-353.070368, -314.291735) " x="345.395822" y="309.601429" width="15.3490929" height="9.38061206" rx="4.69030603"></rect>
                <rect id="Rectangle-path" fill="#FFFFFF" transform="translate(353.070368, 331.489830) rotate(90.000000) translate(-353.070368, -331.489830) " x="345.395822" y="326.799524" width="15.3490929" height="9.38061206" rx="4.69030603"></rect>
                <rect id="Rectangle-path" fill="#FFFFFF" transform="translate(353.070368, 348.689756) rotate(90.000000) translate(-353.070368, -348.689756) " x="345.395822" y="343.99945" width="15.3490929" height="9.38061206" rx="4.69030603"></rect>
                <rect id="Rectangle-path" fill="#FFFFFF" transform="translate(353.070368, 365.889683) rotate(90.000000) translate(-353.070368, -365.889683) " x="345.395822" y="361.199377" width="15.3490929" height="9.38061206" rx="4.69030603"></rect>
                <rect id="Rectangle-path" fill="#FFFFFF" transform="translate(340.016493, 142.125710) rotate(90.000000) translate(-340.016493, -142.125710) " x="333.058457" y="135.167675" width="13.9160711" height="13.9160711" rx="3.14"></rect>
                <rect id="Rectangle-path" fill="#FFFFFF" transform="translate(323.899579, 167.366685) rotate(90.000000) translate(-323.899579, -167.366685) " x="316.941543" y="160.408649" width="13.9160711" height="13.9160711" rx="3.14"></rect>
                <rect id="Rectangle-path" fill="#FFFFFF" transform="translate(307.784497, 171.083013) rotate(90.000000) translate(-307.784497, -171.083013) " x="300.826461" y="164.124977" width="13.9160711" height="13.9160711" rx="3.14"></rect>
                <rect id="Rectangle-path" fill="#FFFFFF" transform="translate(291.667583, 179.747114) rotate(90.000000) translate(-291.667583, -179.747114) " x="284.709547" y="172.789078" width="13.9160711" height="13.9160711" rx="3.14"></rect>
                <rect id="Rectangle-path" fill="#FFFFFF" transform="translate(274.671065, 142.123878) rotate(90.000000) translate(-274.671065, -142.123878) " x="267.713029" y="134.278908" width="13.9160711" height="15.6899395" rx="3.34"></rect>
                <rect id="Rectangle-path" fill="#FFFFFF" transform="translate(274.671065, 159.076416) rotate(90.000000) translate(-274.671065, -159.076416) " x="267.713029" y="151.231446" width="13.9160711" height="15.6899395" rx="3.34"></rect>
                <rect id="Rectangle-path" fill="#FFFFFF" transform="translate(274.671065, 175.517684) rotate(90.000000) translate(-274.671065, -175.517684) " x="267.713029" y="167.672714" width="13.9160711" height="15.6899395" rx="3.34"></rect>
                <rect id="Rectangle-path" fill="#FFFFFF" transform="translate(274.671065, 194.209272) rotate(90.000000) translate(-274.671065, -194.209272) " x="265.598314" y="186.364303" width="18.1455012" height="15.6899395" rx="3.81"></rect>
                <rect id="Rectangle-path" fill="#FFFFFF" transform="translate(274.671065, 297.253069) rotate(90.000000) translate(-274.671065, -297.253069) " x="265.598314" y="289.4081" width="18.1455012" height="15.6899395" rx="3.81"></rect>
                <rect id="Rectangle-path" fill="#FFFFFF" transform="translate(274.672897, 316.331318) rotate(90.000000) translate(-274.672897, -316.331318) " x="267.80832" y="308.486348" width="13.7291552" height="15.6899395" rx="3.31"></rect>
                <rect id="Rectangle-path" fill="#FFFFFF" transform="translate(274.671065, 246.055525) rotate(90.000000) translate(-274.671065, -246.055525) " x="234.558365" y="238.210555" width="80.2253986" height="15.6899395" rx="7.84496976"></rect>
                <rect id="Rectangle-path" fill="#FFFFFF" transform="translate(291.667583, 196.325820) rotate(90.000000) translate(-291.667583, -196.325820) " x="284.709547" y="189.367784" width="13.9160711" height="13.9160711" rx="3.14"></rect>
                <rect id="Rectangle-path" fill="#FFFFFF" transform="translate(291.669415, 212.902694) rotate(90.000000) translate(-291.669415, -212.902694) " x="284.71138" y="205.944658" width="13.9160711" height="13.9160711" rx="3.14"></rect>
                <rect id="Rectangle-path" fill="#FFFFFF" transform="translate(291.669415, 229.479568) rotate(90.000000) translate(-291.669415, -229.479568) " x="284.71138" y="222.521532" width="13.9160711" height="13.9160711" rx="3.14"></rect>
                <rect id="Rectangle-path" fill="#FFFFFF" transform="translate(291.669415, 246.056441) rotate(90.000000) translate(-291.669415, -246.056441) " x="284.71138" y="239.098406" width="13.9160711" height="13.9160711" rx="3.14"></rect>
                <rect id="Rectangle-path" fill="#FFFFFF" transform="translate(291.669415, 262.633315) rotate(90.000000) translate(-291.669415, -262.633315) " x="284.71138" y="255.675279" width="13.9160711" height="13.9160711" rx="3.14"></rect>
                <rect id="Rectangle-path" fill="#FFFFFF" transform="translate(291.669415, 279.210189) rotate(90.000000) translate(-291.669415, -279.210189) " x="284.71138" y="272.252153" width="13.9160711" height="13.9160711" rx="3.14"></rect>
                <rect id="Rectangle-path" fill="#FFFFFF" transform="translate(291.667583, 295.787062) rotate(90.000000) translate(-291.667583, -295.787062) " x="284.709547" y="288.829027" width="13.9160711" height="13.9160711" rx="3.14"></rect>
                <rect id="Rectangle-path" fill="#FFFFFF" transform="translate(291.667583, 312.363936) rotate(90.000000) translate(-291.667583, -312.363936) " x="284.709547" y="305.405901" width="13.9160711" height="13.9160711" rx="3.14"></rect>
                <rect id="Rectangle-path" fill="#FFFFFF" transform="translate(270.629467, 332.702950) rotate(90.000000) translate(-270.629467, -332.702950) " x="263.543156" y="328.661352" width="14.1726223" height="8.0831959" rx="4.04159795"></rect>
                <rect id="Rectangle-path" fill="#FFFFFF" transform="translate(270.629467, 349.331134) rotate(90.000000) translate(-270.629467, -349.331134) " x="263.543156" y="345.289536" width="14.1726223" height="8.0831959" rx="4.04159795"></rect>
                <rect id="Rectangle-path" fill="#FFFFFF" transform="translate(279.691222, 349.331134) rotate(90.000000) translate(-279.691222, -349.331134) " x="272.604911" y="345.289536" width="14.1726223" height="8.0831959" rx="4.04159795"></rect>
                <rect id="Rectangle-path" fill="#FFFFFF" transform="translate(270.629467, 365.959318) rotate(90.000000) translate(-270.629467, -365.959318) " x="263.543156" y="361.91772" width="14.1726223" height="8.0831959" rx="4.04159795"></rect>
                <rect id="Rectangle-path" fill="#FFFFFF" transform="translate(307.784497, 187.813817) rotate(90.000000) translate(-307.784497, -187.813817) " x="300.826461" y="180.855782" width="13.9160711" height="13.9160711" rx="3.14"></rect>
                <rect id="Rectangle-path" fill="#FFFFFF" transform="translate(307.784497, 204.544622) rotate(90.000000) translate(-307.784497, -204.544622) " x="300.826461" y="197.586586" width="13.9160711" height="13.9160711" rx="3.14"></rect>
                <rect id="Rectangle-path" fill="#FFFFFF" transform="translate(307.784497, 221.275426) rotate(90.000000) translate(-307.784497, -221.275426) " x="300.826461" y="214.317391" width="13.9160711" height="13.9160711" rx="3.14"></rect>
                <rect id="Rectangle-path" fill="#FFFFFF" transform="translate(307.784497, 237.903610) rotate(90.000000) translate(-307.784497, -237.903610) " x="300.826461" y="230.945574" width="13.9160711" height="13.9160711" rx="3.14"></rect>
                <rect id="Rectangle-path" fill="#FFFFFF" transform="translate(307.786329, 254.634415) rotate(90.000000) translate(-307.786329, -254.634415) " x="300.828294" y="247.676379" width="13.9160711" height="13.9160711" rx="3.14"></rect>
                <rect id="Rectangle-path" fill="#FFFFFF" transform="translate(307.786329, 270.648708) rotate(90.000000) translate(-307.786329, -270.648708) " x="300.828294" y="263.690673" width="13.9160711" height="13.9160711" rx="3.14"></rect>
                <rect id="Rectangle-path" fill="#FFFFFF" transform="translate(307.784497, 287.225582) rotate(90.000000) translate(-307.784497, -287.225582) " x="300.826461" y="280.267546" width="13.9160711" height="13.9160711" rx="3.14"></rect>
                <rect id="Rectangle-path" fill="#FFFFFF" transform="translate(307.784497, 303.802456) rotate(90.000000) translate(-307.784497, -303.802456) " x="300.826461" y="296.84442" width="13.9160711" height="13.9160711" rx="3.14"></rect>
                <rect id="Rectangle-path" fill="#FFFFFF" transform="translate(307.784497, 320.276709) rotate(90.000000) translate(-307.784497, -320.276709) " x="300.826461" y="313.318673" width="13.9160711" height="13.9160711" rx="3.14"></rect>
                <rect id="Rectangle-path" fill="#FFFFFF" transform="translate(307.784497, 336.752795) rotate(90.000000) translate(-307.784497, -336.752795) " x="300.826461" y="329.794759" width="13.9160711" height="13.9160711" rx="3.14"></rect>
                <rect id="Rectangle-path" fill="#FFFFFF" transform="translate(291.669415, 328.779549) rotate(90.000000) translate(-291.669415, -328.779549) " x="284.71138" y="321.821514" width="13.9160711" height="13.9160711" rx="3.14"></rect>
                <rect id="Rectangle-path" fill="#FFFFFF" transform="translate(307.784497, 359.998167) rotate(90.000000) translate(-307.784497, -359.998167) " x="294.669232" y="353.040132" width="26.2305296" height="13.9160711" rx="4.31"></rect>
                <rect id="Rectangle-path" fill="#FFFFFF" transform="translate(291.669415, 355.675279) rotate(90.000000) translate(-291.669415, -355.675279) " x="274.231263" y="348.717244" width="34.8763057" height="13.9160711" rx="4.97"></rect>
                <rect id="Rectangle-path" fill="#FFFFFF" transform="translate(307.784497, 148.419461) rotate(90.000000) translate(-307.784497, -148.419461) " x="294.53271" y="141.461426" width="26.5035734" height="13.9160711" rx="4.33"></rect>
                <rect id="Rectangle-path" fill="#FFFFFF" transform="translate(291.669415, 152.580172) rotate(90.000000) translate(-291.669415, -152.580172) " x="273.983874" y="145.622137" width="35.371083" height="13.9160711" rx="5.01"></rect>
                <rect id="Rectangle-path" fill="#FFFFFF" transform="translate(323.901411, 184.011362) rotate(90.000000) translate(-323.901411, -184.011362) " x="316.943375" y="177.053326" width="13.9160711" height="13.9160711" rx="3.14"></rect>
                <rect id="Rectangle-path" fill="#FFFFFF" transform="translate(323.899579, 200.555250) rotate(90.000000) translate(-323.899579, -200.555250) " x="316.941543" y="193.597215" width="13.9160711" height="13.9160711" rx="3.14"></rect>
                <rect id="Rectangle-path" fill="#FFFFFF" transform="translate(323.901411, 217.199927) rotate(90.000000) translate(-323.901411, -217.199927) " x="316.943375" y="210.241891" width="13.9160711" height="13.9160711" rx="3.14"></rect>
                <rect id="Rectangle-path" fill="#FFFFFF" transform="translate(323.899579, 233.844603) rotate(90.000000) translate(-323.899579, -233.844603) " x="316.941543" y="226.886568" width="13.9160711" height="13.9160711" rx="3.14"></rect>
                <rect id="Rectangle-path" fill="#FFFFFF" transform="translate(323.901411, 250.388492) rotate(90.000000) translate(-323.901411, -250.388492) " x="316.943375" y="243.430456" width="13.9160711" height="13.9160711" rx="3.14"></rect>
                <rect id="Rectangle-path" fill="#FFFFFF" transform="translate(323.899579, 266.556716) rotate(90.000000) translate(-323.899579, -266.556716) " x="316.941543" y="259.598681" width="13.9160711" height="13.9160711" rx="3.14"></rect>
                <rect id="Rectangle-path" fill="#FFFFFF" transform="translate(323.899579, 283.338831) rotate(90.000000) translate(-323.899579, -283.338831) " x="316.941543" y="276.380795" width="13.9160711" height="13.9160711" rx="3.14"></rect>
                <rect id="Rectangle-path" fill="#FFFFFF" transform="translate(323.899579, 299.915705) rotate(90.000000) translate(-323.899579, -299.915705) " x="316.941543" y="292.957669" width="13.9160711" height="13.9160711" rx="3.14"></rect>
                <rect id="Rectangle-path" fill="#FFFFFF" transform="translate(323.899579, 316.219535) rotate(90.000000) translate(-323.899579, -316.219535) " x="316.941543" y="309.261499" width="13.9160711" height="13.9160711" rx="3.14"></rect>
                <rect id="Rectangle-path" fill="#FFFFFF" transform="translate(323.901411, 333.205058) rotate(90.000000) translate(-323.901411, -333.205058) " x="316.943375" y="326.247022" width="13.9160711" height="13.9160711" rx="3.14"></rect>
                <rect id="Rectangle-path" fill="#FFFFFF" transform="translate(323.901411, 349.441085) rotate(90.000000) translate(-323.901411, -349.441085) " x="316.943375" y="342.483049" width="13.9160711" height="13.9160711" rx="3.14"></rect>
                <rect id="Rectangle-path" fill="#FFFFFF" transform="translate(323.899579, 366.155397) rotate(90.000000) translate(-323.899579, -366.155397) " x="316.941543" y="359.197361" width="13.9160711" height="13.9160711" rx="3.14"></rect>
                <rect id="Rectangle-path" fill="#FFFFFF" transform="translate(340.016493, 159.008613) rotate(90.000000) translate(-340.016493, -159.008613) " x="333.058457" y="152.050577" width="13.9160711" height="13.9160711" rx="3.14"></rect>
                <rect id="Rectangle-path" fill="#FFFFFF" transform="translate(340.016493, 175.382078) rotate(90.000000) translate(-340.016493, -175.382078) " x="333.058457" y="168.424043" width="13.9160711" height="13.9160711" rx="3.14"></rect>
                <rect id="Rectangle-path" fill="#FFFFFF" transform="translate(340.016493, 192.164193) rotate(90.000000) translate(-340.016493, -192.164193) " x="333.058457" y="185.206157" width="13.9160711" height="13.9160711" rx="3.14"></rect>
                <rect id="Rectangle-path" fill="#FFFFFF" transform="translate(340.016493, 208.526663) rotate(90.000000) translate(-340.016493, -208.526663) " x="333.058457" y="201.568627" width="13.9160711" height="13.9160711" rx="3.14"></rect>
                <rect id="Rectangle-path" fill="#FFFFFF" transform="translate(340.016493, 225.402236) rotate(90.000000) translate(-340.016493, -225.402236) " x="333.058457" y="218.4442" width="13.9160711" height="13.9160711" rx="3.14"></rect>
                <rect id="Rectangle-path" fill="#FFFFFF" transform="translate(340.016493, 241.621770) rotate(90.000000) translate(-340.016493, -241.621770) " x="333.058457" y="234.663735" width="13.9160711" height="13.9160711" rx="3.14"></rect>
                <rect id="Rectangle-path" fill="#FFFFFF" transform="translate(340.016493, 258.471688) rotate(90.000000) translate(-340.016493, -258.471688) " x="333.058457" y="251.513652" width="13.9160711" height="13.9160711" rx="3.14"></rect>
                <rect id="Rectangle-path" fill="#FFFFFF" transform="translate(340.016493, 274.843321) rotate(90.000000) translate(-340.016493, -274.843321) " x="333.058457" y="267.885285" width="13.9160711" height="13.9160711" rx="3.14"></rect>
                <rect id="Rectangle-path" fill="#FFFFFF" transform="translate(340.016493, 291.660253) rotate(90.000000) translate(-340.016493, -291.660253) " x="333.058457" y="284.702217" width="13.9160711" height="13.9160711" rx="3.14"></rect>
                <rect id="Rectangle-path" fill="#FFFFFF" transform="translate(340.016493, 308.442368) rotate(90.000000) translate(-340.016493, -308.442368) " x="333.058457" y="301.484332" width="13.9160711" height="13.9160711" rx="3.14"></rect>
                <rect id="Rectangle-path" fill="#FFFFFF" transform="translate(340.016493, 325.052226) rotate(90.000000) translate(-340.016493, -325.052226) " x="333.058457" y="318.094191" width="13.9160711" height="13.9160711" rx="3.14"></rect>
                <rect id="Rectangle-path" fill="#FFFFFF" transform="translate(340.016493, 341.015210) rotate(90.000000) translate(-340.016493, -341.015210) " x="333.058457" y="334.057174" width="13.9160711" height="13.9160711" rx="3.14"></rect>
                <rect id="Rectangle-path" fill="#FFFFFF" transform="translate(340.016493, 361.779366) rotate(90.000000) translate(-340.016493, -361.779366) " x="328.871175" y="354.82133" width="22.2906359" height="13.9160711" rx="6.95803555"></rect>
                <path d="M314.351292,139.354041 L333.4442,139.354041 C334.327734,139.354041 335.04398,140.070287 335.04398,140.953821 L335.04398,151.672164 C335.04398,152.096452 334.875432,152.503363 334.575415,152.80338 C334.275399,153.103397 333.868488,153.271944 333.4442,153.271944 L314.351292,153.271944 C313.46877,153.271944 312.753344,152.556519 312.753344,151.673997 L312.753344,140.951988 C312.754354,140.069885 313.469188,139.355051 314.351292,139.354041 Z" id="Shape" fill="#FFFFFF" transform="translate(323.898662, 146.312992) rotate(90.000000) translate(-323.898662, -146.312992) "></path>
                <rect id="Rectangle-path" fill="#848484" transform="translate(373.946307, 253.856515) rotate(90.000000) translate(-373.946307, -253.856515) " x="262.063405" y="250.883269" width="223.765805" height="5.94649075" rx="2.97324537"></rect>
                <path d="M376.921385,387.751512 L376.921385,119.97068 C376.921385,117.509621 378.447865,115.206157 380.639546,114.357706 L489.703134,72.2796408 C490.819131,71.8490013 491.902144,72.5600147 491.902144,73.7218252 L491.902144,433.402969 C491.902144,434.742533 490.648708,435.563496 489.360454,435.072384 L380.848452,393.668682 C378.537658,392.785413 376.921385,390.357339 376.921385,387.751512 Z" id="Shape" fill="#EAEAEA"></path>
                <path d="M492.054242,435.803555 L491.905809,71.9516218 C491.905809,71.9516218 494.390691,73.8922485 495.526846,75.1328569 C496.663002,76.3734653 498.420377,79.5308778 498.420377,79.5308778 L498.420377,427.315375 C498.420377,427.315375 496.175554,430.859447 495.526846,431.691406 C494.878138,432.523364 492.054242,435.803555 492.054242,435.803555 Z" id="Shape" fill="#848484"></path>
                <polygon id="Shape" fill="#3F4D50" points="388.759392 387.242074 388.759392 121.425692 485.515851 86.6446766 485.515851 421.823346"></polygon>
                <path d="M260.188748,252.757926 L483.954554,252.757926 L483.954554,253.595382 C483.954554,254.346336 483.345786,254.955104 482.594832,254.955104 L261.542972,254.955104 C261.184296,254.955104 260.84031,254.81262 260.586687,254.558997 C260.333065,254.305375 260.190581,253.961389 260.190581,253.602712 L260.188748,252.757926 Z" id="Shape" fill="#BFBFBF" transform="translate(372.071651, 253.856515) rotate(90.000000) translate(-372.071651, -253.856515) "></path>
                <path d="M0.0219901045,455.31794 L0.0219901045,41.7573758 L44.3448781,48.3544072 L102.094557,71.361554 C102.094557,72.0304196 113.610042,90.6706982 123.785963,125.024739 C133.071285,156.37713 141.244273,200.819131 138.535826,256.633682 C138.535826,256.633682 142.321789,314.691222 109.193696,420.560748 L0.0219901045,455.31794 Z" id="Shape" fill="#6B3E1F"></path>
                <path d="M160.896097,363.969214 L164.518966,363.029137 C164.518966,363.029137 164.205607,352.897196 168.455195,348.702584 C168.455195,348.702584 202.814733,312.944841 208.995785,307.548103 C208.995785,307.548103 220.820964,304.845153 219.186366,317.161444 C219.186366,317.161444 219.719626,319.391607 217.128459,322.591167 L204.269745,336.921385 L262.842221,319.585853 C264.732951,319.015082 266.742171,318.961924 268.660436,319.431922 C271.165476,320.064138 274.024189,321.731721 275.105369,325.937328 C275.105369,325.937328 275.759575,328.211472 274.189115,331.105003 C272.833058,333.591717 270.465457,334.420011 267.751512,335.235477 L221.938794,350.870442 L274.211105,336.404618 C277.113799,335.554334 282.473887,334.489646 284.982591,336.177387 C287.126626,337.615906 288.929815,340.852117 288.916987,344.231263 C288.916987,344.231263 288.475353,350.09529 281.440352,352.844054 L231.412864,368.42954 L272.779916,358.011728 C276.107752,357.095474 284.123145,355.327103 286.545721,358.669599 C287.194429,359.565695 287.570093,360.886934 287.81565,362.167858 C287.81565,362.167858 289.893714,366.565879 283.888583,370.45263 C282.849551,371.12516 279.719626,372.296133 278.533993,372.65164 L233.577057,387.401503 L264.399853,379.409932 C267.601246,378.48085 271.460509,378.477185 273.489097,381.123328 C274.207657,382.03769 274.673954,383.124452 274.841488,384.275243 C274.841488,384.275243 276.490746,390.98589 268.138171,393.679677 L213.142752,408.101521 L200.551585,410.698186 C197.208018,411.39758 193.778141,411.58909 190.377497,411.266264 C187.995235,411.033535 185.387576,410.516767 182.981492,409.47407 C182.981492,409.47407 178.130841,407.593916 177.685542,406.312992 L173.018142,407.778999 L160.896097,363.969214 Z" id="Shape" fill="#020202" opacity="0.26"></path>
                <path d="M161.170973,365.818215 L164.79201,364.878138 C164.79201,364.878138 164.480484,354.746198 168.730071,350.551585 C168.730071,350.551585 203.087777,314.793843 209.268829,309.397105 C209.268829,309.397105 221.09584,306.692322 219.461242,319.010445 C219.461242,319.010445 219.99267,321.240608 217.401503,324.438336 L204.542789,338.770387 L263.117097,321.434854 C265.007053,320.863165 267.015932,320.81 268.93348,321.280924 C271.438519,321.913139 274.299065,323.580722 275.378413,327.784497 C275.378413,327.784497 276.034451,330.05864 274.462159,332.952172 C273.106102,335.440718 270.738501,336.269012 268.026388,337.084479 L222.213671,352.719443 L274.485981,338.253619 C277.388675,337.403335 282.748763,336.338648 285.2593,338.026388 C287.401503,339.464907 289.204691,342.699285 289.191864,346.078431 C289.191864,346.078431 288.750229,351.942459 281.715228,354.691222 L231.687741,370.276709 L273.054792,359.857064 C276.382628,358.94081 284.399853,357.174272 286.820597,360.516767 C287.471138,361.411032 287.846802,362.734103 288.092358,364.015027 C288.092358,364.015027 290.170423,368.413047 284.165292,372.299798 C283.12626,372.972329 279.996335,374.143302 278.810702,374.498809 L233.857431,389.257834 L264.678395,381.268096 C267.879787,380.339014 271.739051,380.335349 273.76947,382.981492 C274.488402,383.895633 274.954743,384.982499 275.121862,386.133407 C275.121862,386.133407 276.760125,392.842221 268.418545,395.537841 L213.421294,409.959685 L200.830126,412.55635 C197.486784,413.257357 194.056754,413.449493 190.656038,413.12626 C188.273777,412.893531 185.666117,412.374931 183.260033,411.334066 C183.260033,411.334066 178.409382,409.453912 177.964083,408.172989 L173.296683,409.638996 L161.170973,365.818215 Z" id="Shape" fill="#EDBE85"></path>
                <rect id="Rectangle-path" fill="#FFFFFF" transform="translate(167.147774, 387.491505) rotate(-16.970000) translate(-167.147774, -387.491505) " x="163.928973" y="358.233671" width="6.43760308" height="58.5156679"></rect>
                <path d="M173.851933,416.520066 L165.902511,418.522998 C165.902511,418.522998 98.5761407,437.524281 42.3639362,451.57779 C24.1121495,456.144402 8.55231812,459.730621 0,461.354224 L0.0201575957,386.78578 C28.0813634,385.561664 118.163826,366.578706 118.163826,366.578706 L155.504856,357.075316 L159.536375,369.974345 L173.851933,416.520066 Z" id="Shape" fill="#6B3E1F"></path>
                <path d="M150.551585,415.385743 C151.20107,416.159594 151.320414,417.248499 150.853961,418.144656 C150.387509,419.040813 149.42713,419.567719 148.42069,419.479656 C147.414251,419.391592 146.559974,418.705904 146.256246,417.742356 C145.952517,416.778808 146.259158,415.727176 147.033168,415.077882 C147.540399,414.651746 148.196237,414.444748 148.856192,414.502494 C149.516147,414.56024 150.12607,414.877992 150.551585,415.385743 Z" id="Shape" fill="#FFFFFF"></path>
                <path d="M142.776251,417.674546 C143.425736,418.448397 143.54508,419.537302 143.078627,420.433459 C142.612174,421.329617 141.651796,421.856523 140.645356,421.768459 C139.638916,421.680396 138.78464,420.994707 138.480911,420.031159 C138.177183,419.067611 138.483824,418.01598 139.257834,417.366685 C139.765065,416.940549 140.420903,416.733552 141.080858,416.791298 C141.740813,416.849044 142.350735,417.166795 142.776251,417.674546 Z" id="Shape" fill="#FFFFFF"></path>
                <circle id="Oval" fill="#FFFFFF" transform="translate(132.979080, 421.382778) rotate(-32.500000) translate(-132.979080, -421.382778) " cx="132.97908" cy="421.382778" r="2.49770936"></circle>
                <path d="M259.439252,326.477918 L262.213671,335.864028 C262.327286,336.248802 262.591108,336.571588 262.945573,336.75951 C263.300038,336.947431 263.715258,336.984643 264.097489,336.862745 L269.201026,335.239142 C269.201026,335.239142 273.172073,333.708998 272.296133,328.380062 C272.296133,328.380062 271.394539,323.945391 267.033168,323.124427 C267.033168,323.124427 265.262965,322.924684 262.101887,324.143302 L260.45263,324.621587 C260.071498,324.732482 259.750284,324.990711 259.560089,325.339115 C259.369895,325.687518 259.326407,326.09736 259.439252,326.477918 Z" id="Shape" fill="#FFF2E6"></path>
                <path d="M273.263698,343.030969 L275.919003,352.010262 C276.026054,352.379219 276.277298,352.689456 276.61595,352.870852 C276.954601,353.052247 277.352072,353.08949 277.718527,352.974162 L282.602162,351.422027 C282.602162,351.422027 286.404618,349.95602 285.565329,344.856148 C285.565329,344.856148 284.702217,340.610225 280.527763,339.825912 C280.527763,339.825912 278.832692,339.633498 275.809053,340.800806 L274.231263,341.258933 C273.867671,341.365161 273.561301,341.611715 273.379771,341.944175 C273.198241,342.276636 273.156478,342.66767 273.263698,343.030969 Z" id="Shape" fill="#FFF2E6"></path>
                <path d="M274.905626,363.161078 L276.840755,370.991387 C276.919606,371.312207 277.12442,371.587713 277.408919,371.755654 C277.693417,371.923594 278.03359,371.969795 278.352575,371.883819 L282.613157,370.738501 C282.613157,370.738501 285.940993,369.626168 285.416896,365.20799 C285.416896,365.20799 284.841488,361.522815 281.280924,360.685358 C281.280924,360.685358 279.831409,360.454462 277.185267,361.339564 L275.810885,361.671248 C275.492838,361.748028 275.218505,361.948398 275.048605,362.228011 C274.878705,362.507624 274.827249,362.84342 274.905626,363.161078 Z" id="Shape" fill="#FFF2E6"></path>
                <path d="M262.197178,385.451713 L264.090159,393.109767 C264.167722,393.423293 264.368182,393.692419 264.646371,393.856506 C264.924561,394.020594 265.257077,394.065837 265.568994,393.982041 L269.736119,392.860546 C269.736119,392.860546 272.988822,391.773868 272.484882,387.452813 C272.484882,387.452813 271.922302,383.848268 268.440535,383.029137 C268.440535,383.029137 267.022173,382.803738 264.434671,383.668682 L263.08961,383.994869 C262.777234,384.068283 262.507175,384.263539 262.339557,384.537167 C262.171938,384.810795 262.120674,385.14008 262.197178,385.451713 Z" id="Shape" fill="#FFF2E6"></path>
                <path d="M205.737585,316.175554 L210.168591,320.166758 C210.546088,320.507605 211.191131,320.373832 211.597948,319.868059 L214.201942,316.635514 C214.201942,316.635514 216.148067,313.967381 214.055342,311.383544 C214.055342,311.383544 212.210005,309.310977 209.336632,310.833791 C209.336632,310.833791 208.209639,311.528312 206.659337,313.650357 L205.805388,314.669232 C205.393073,315.165842 205.363753,315.838373 205.737585,316.175554 Z" id="Shape" fill="#FFF2E6"></path>
                <path d="M188.803372,139.120396 L192.233828,140.009163 C192.233828,140.009163 191.936962,149.606011 195.962983,153.578889 C195.962983,153.578889 228.504673,187.447315 234.359538,192.558182 C234.359538,192.558182 245.559831,195.123694 244.011362,183.452446 C244.011362,183.452446 244.517134,181.341396 242.061572,178.310427 L229.890049,164.737035 L285.367418,181.156313 C287.15794,181.697705 289.060996,181.748335 290.877772,181.302914 C293.260033,180.703683 295.959318,179.124061 296.981858,175.142019 C296.981858,175.142019 297.601246,172.986989 296.107752,170.247389 C294.824995,167.890782 292.582005,167.106469 290.012828,166.334983 L246.619021,151.524647 L296.127909,165.228147 C298.876672,166.032619 303.952721,167.040498 306.331318,165.442551 C308.359905,164.079164 310.067803,161.01521 310.054975,157.81565 C310.054975,157.81565 309.637163,152.264981 302.974162,149.657321 L255.590984,134.905626 L294.771853,144.773685 C297.923768,145.636797 305.515851,147.315375 307.810152,144.150632 C308.425875,143.302181 308.781382,142.048745 309.01411,140.835624 C309.01411,140.835624 310.982225,136.666667 305.294118,132.988822 C304.31006,132.352941 301.345061,131.244273 300.223566,130.905259 L257.641561,116.936045 L286.835257,124.504306 C289.868059,125.383911 293.522082,125.387576 295.448048,122.880704 C296.130018,122.015361 296.572401,120.985873 296.730804,119.895547 C296.730804,119.895547 298.282939,113.540407 290.381162,110.987722 L238.286604,97.3208723 L226.360638,94.8598131 C223.194353,94.1957654 219.945883,94.0141279 216.725307,94.3210555 C214.474986,94.5409566 211.997434,95.0320689 209.719626,96.0179586 C209.719626,96.0179586 205.125527,97.799157 204.70405,99.0122778 L200.284039,97.6140737 L188.803372,139.120396 Z" id="Shape" fill="#020202" opacity="0.26"></path>
                <path d="M190.333517,138.259117 L193.763973,139.149716 C193.763973,139.149716 193.468939,148.746564 197.493128,152.71028 C197.493128,152.71028 230.03665,186.576874 235.889683,191.687741 C235.889683,191.687741 247.091809,194.253253 245.543339,182.583837 C245.543339,182.583837 246.047279,180.470955 243.591717,177.441818 L231.414697,163.868426 L286.890233,180.287704 C288.68092,180.828492 290.583974,180.878489 292.400586,180.432472 C294.782848,179.835074 297.482133,178.253619 298.506505,174.27341 C298.506505,174.27341 299.125893,172.11838 297.632399,169.37878 C296.349643,167.022173 294.104819,166.236027 291.535642,165.464541 L248.141836,150.665201 L297.650724,164.366868 C300.399487,165.173172 305.477369,166.179219 307.854132,164.583104 C309.884552,163.219718 311.59245,160.155763 311.579623,156.954371 C311.579623,156.954371 311.161811,151.405534 304.498809,148.797874 L257.122961,134.035184 L296.301997,143.905076 C299.453912,144.768188 307.047828,146.446766 309.342129,143.280191 C309.95602,142.433572 310.311526,141.180136 310.544255,139.967015 C310.544255,139.967015 312.512369,135.798058 306.826095,132.120213 C305.840205,131.4825 302.877039,130.373832 301.753711,130.03665 L259.173539,116.067436 L288.365402,123.635697 C291.398204,124.515301 295.054059,124.517134 296.978193,122.012095 C297.659865,121.146574 298.102212,120.117169 298.260949,119.026938 C298.260949,119.026938 299.814917,112.671798 291.913139,110.119113 L239.818582,96.4595932 L227.892615,94.0003665 C224.725688,93.3365799 221.476747,93.1543328 218.255452,93.4597764 C216.006964,93.68151 213.529412,94.1707898 211.251603,95.158512 C211.251603,95.158512 206.655672,96.9397105 206.236027,98.1509987 L201.814184,96.7546271 L190.333517,138.259117 Z" id="Shape" fill="#EDBE85"></path>
                <rect id="Rectangle-path" fill="#FFFFFF" transform="translate(194.489295, 118.332013) rotate(15.620000) translate(-194.489295, -118.332013) " x="191.270493" y="89.0741788" width="6.43760308" height="58.5156679"></rect>
                <path d="M183.038299,146.247022 L169.910207,142.917354 L125.046729,131.535642 L125.046729,131.423859 C122.786635,130.910757 120.492334,130.393989 118.163826,129.873557 C77.9365952,120.872274 28.0795309,110.888767 0.0219901045,109.664651 L0,32.0175921 C8.55231812,33.6411948 24.5702767,36.9910207 42.7707532,41.7573758 C76.5640462,50.6102254 118.484515,64.9624336 150.348177,74.0663368 L201.291919,86.9891882 L183.038299,146.247022 Z" id="Shape" fill="#6B3E1F"></path>
                <path d="M180.778816,94.8213304 C181.428301,94.0474797 181.547645,92.9585747 181.081192,92.0624175 C180.61474,91.1662602 179.654361,90.6393541 178.647922,90.7274176 C177.641482,90.8154811 176.787205,91.5011695 176.483477,92.4647176 C176.179748,93.4282657 176.486389,94.4798971 177.260399,95.1291919 C178.317052,96.0155871 179.892161,95.8777651 180.778816,94.8213304 Z" id="Shape" fill="#FFFFFF"></path>
                <path d="M173.010812,92.532527 C173.660297,91.7586764 173.779641,90.6697713 173.313188,89.7736141 C172.846735,88.8774569 171.886357,88.3505508 170.879917,88.4386142 C169.873478,88.5266777 169.019201,89.2123661 168.715472,90.1759142 C168.411744,91.1394623 168.718385,92.1910937 169.492395,92.8403885 C170.549048,93.7267837 172.124157,93.5889617 173.010812,92.532527 Z" id="Shape" fill="#FFFFFF"></path>
                <path d="M165.103537,90.3994869 C165.753022,89.6256362 165.872366,88.5367312 165.405913,87.640574 C164.93946,86.7444167 163.979082,86.2175106 162.972642,86.3055741 C161.966202,86.3936376 161.111926,87.079326 160.808197,88.0428741 C160.504469,89.0064221 160.81111,90.0580536 161.58512,90.7073484 C162.092351,91.1334844 162.748189,91.3404817 163.408144,91.2827356 C164.068099,91.2249896 164.678021,90.9072383 165.103537,90.3994869 Z" id="Shape" fill="#FFFFFF"></path>
                <path d="M283.399304,175.521349 L286.027121,166.630016 C286.134808,166.265509 286.384815,165.959762 286.720677,165.781831 C287.056538,165.6039 287.449924,165.568794 287.811985,165.684442 L292.64431,167.221917 C292.64431,167.221917 296.40645,168.671431 295.576324,173.71816 C295.576324,173.71816 294.724207,177.91827 290.5919,178.695254 C290.5919,178.695254 288.915155,178.878505 285.920836,177.731354 L284.361371,177.278725 C284.000167,177.174148 283.695554,176.929894 283.514981,176.600049 C283.334409,176.270203 283.292777,175.881982 283.399304,175.521349 Z" id="Shape" fill="#FFF2E6"></path>
                <path d="M296.496243,159.842404 L299.012278,151.332234 C299.115769,150.983724 299.35504,150.691461 299.676258,150.521202 C299.997476,150.350943 300.373662,150.316987 300.720176,150.426975 L305.345428,151.892981 C305.345428,151.892981 308.946307,153.280191 308.150999,158.110684 C308.150999,158.110684 307.335532,162.131208 303.386476,162.875206 C303.386476,162.875206 301.783031,163.058457 298.916987,161.958952 L297.423493,161.524647 C297.076557,161.425902 296.783446,161.192651 296.60932,160.876747 C296.435194,160.560843 296.394485,160.188468 296.496243,159.842404 Z" id="Shape" fill="#FFF2E6"></path>
                <path d="M298.059373,140.769654 L299.891882,133.353491 C299.966386,133.049306 300.160539,132.788082 300.430325,132.629039 C300.700112,132.469996 301.02268,132.426606 301.324904,132.508704 L305.356423,133.59355 C305.356423,133.59355 308.506505,134.647242 308.011728,138.830859 C308.011728,138.830859 307.461975,142.312626 304.093824,143.115265 C304.093824,143.115265 302.721275,143.333333 300.214404,142.495877 L298.91149,142.180685 C298.611102,142.107029 298.352396,141.916817 298.192512,141.652063 C298.032627,141.387308 297.984721,141.069795 298.059373,140.769654 Z" id="Shape" fill="#FFF2E6"></path>
                <path d="M286.016126,119.664651 L287.80832,112.411581 C287.881129,112.114354 288.070759,111.859064 288.334284,111.703501 C288.59781,111.547939 288.912946,111.505258 289.208356,111.58512 L293.15558,112.646143 C293.15558,112.646143 296.23786,113.676012 295.752245,117.777167 C295.752245,117.777167 295.218985,121.191131 291.920469,121.966282 C291.920469,121.966282 290.579073,122.180685 288.127176,121.361554 L286.84442,121.053693 C286.549575,120.980669 286.296161,120.792801 286.14059,120.531911 C285.98502,120.271021 285.940206,119.958763 286.016126,119.664651 Z" id="Shape" fill="#FFF2E6"></path>
                <path d="M232.539857,185.277625 L236.736302,181.49716 C237.102804,181.174638 237.705699,181.301081 238.090526,181.779366 L240.557083,184.843321 C240.557083,184.843321 242.400586,187.368518 240.417812,189.814917 C240.417812,189.814917 238.671431,191.779366 235.948323,190.331684 C235.948323,190.331684 234.881803,189.673813 233.413964,187.663551 L232.603995,186.699652 C232.213671,186.234195 232.186183,185.596482 232.539857,185.277625 Z" id="Shape" fill="#FFF2E6"></path>
                <path d="M183.038299,146.247022 C180.326187,145.299615 175.798058,144.174455 169.910207,142.917354 L125.046729,131.535642 L125.046729,131.423859 C122.786635,130.910757 120.492334,130.393989 118.163826,129.873557 C77.9365952,120.872274 28.0795309,110.888767 0.0219901045,109.664651 L0.0219901045,84.1927799 L134.698552,117.467473 C134.698552,117.467473 147.892615,121.213121 164.77002,123.771303 C181.572292,126.316658 193.582555,112.019425 193.582555,112.019425 L183.038299,146.247022 Z" id="Shape" fill="#42210B"></path>
                <path d="M163.857431,383.760308 C163.857431,383.760308 156.344145,378.411215 145.623969,377.108301 C134.903793,375.805388 122.167858,378.697086 122.167858,378.697086 L0.0201575957,407.216419 L0.0201575957,386.78578 C28.0813634,385.561664 118.163826,366.578706 118.163826,366.578706 L155.504856,357.075316 L163.857431,383.760308 Z" id="Shape" fill="#42210B"></path>
                <path d="M710.276709,97.0478285 L719.97068,87.5847535 C723.849508,83.7969686 729.703753,82.8860139 734.550119,85.3161078 C744.680227,90.4013194 761.359721,100.864944 769.835074,117.724024 C772.838207,123.708714 770.931923,130.992599 765.382078,134.738868 L755.88052,141.152648 C755.88052,141.152648 748.838189,113.884918 710.276709,97.0478285 Z" id="Shape" fill="#E2E2E2"></path>
                <path d="M999.774601,279.109401 C999.44475,283.982041 998.013561,288.504673 995.984973,292.589335 C995.924501,292.713945 995.86586,292.833058 995.801723,292.955837 C988.819864,306.712479 968.537658,313.391974 953.142752,314.396188 L946.761957,314.964266 L945.132857,315.109034 L838.942642,324.570277 C865.759575,292.253986 840.318857,264.062672 840.318857,264.062672 L870.153931,257.086311 C879.57903,254.87084 888.657889,251.380109 897.139454,246.710647 C916.380795,236.142569 957.330035,219.265164 985.398571,247.331867 C986.072934,248.008674 986.72042,248.680594 987.34103,249.347627 C992.699285,255.129192 996.069269,260.729338 997.942093,266.060106 C999.441516,270.238135 1000.06528,274.679988 999.774601,279.109401 Z" id="Shape" fill="#1B1F21"></path>
                <path d="M825.605644,327.720359 L839.151548,327.557266 C844.571909,327.49265 849.354799,323.997461 851.062855,318.85285 C854.628917,308.094191 859.025105,288.902327 853.09694,270.98589 C850.989196,264.630959 844.49081,260.829054 837.91827,262.105553 L826.490746,263.938061 C826.490746,263.938061 840.4453,288.132674 825.605644,327.720359 Z" id="Shape" fill="#E2E2E2"></path>
                <path d="M829.825912,79.1662085 C829.825912,79.1662085 823.632032,70.5754077 816.23786,62.4372366 C811.084845,56.7674546 800.885102,47.3117097 800.885102,47.3117097 C799.91937,46.2506872 799.737951,44.8286604 800.48195,44.1542972 L801.158146,43.5404068 C801.900312,42.8642111 803.173905,43.3241708 804.262415,44.2422577 C804.262415,44.2422577 811.009712,49.9340297 819.598681,59.3842771 C828.794209,69.5070552 833.205058,76.0967565 833.205058,76.0967565 C834.179952,77.5847535 834.350376,78.5798058 833.60821,79.2560015 L832.932014,79.8698919 C832.188015,80.5442551 830.791644,80.2290636 829.825912,79.1662085 Z" id="Shape" fill="#E2E2E2"></path>
                <path d="M838.482683,71.5631299 C838.482683,71.5631299 832.286971,62.9723291 824.892798,54.834158 C819.741616,49.1625435 809.54004,39.7086311 809.54004,39.7086311 C808.576141,38.6476086 808.394722,37.2255818 809.136888,36.5493861 L809.813084,35.9354957 C810.557083,35.2611325 811.828844,35.7210922 812.919186,36.639179 C812.919186,36.639179 819.666483,42.319956 828.253619,51.7811985 C837.45098,61.9039765 841.861829,68.4936778 841.861829,68.4936778 C842.836723,69.9816749 843.007147,70.9767271 842.263148,71.6510903 L841.588785,72.2649808 C840.848452,72.9411765 839.446582,72.6241525 838.482683,71.5631299 Z" id="Shape" fill="#E2E2E2"></path>
                <path d="M847.445483,64.3320506 C847.445483,64.3320506 841.251603,55.7412498 833.857431,47.6030786 C828.704416,41.9332967 818.50284,32.4775518 818.50284,32.4775518 C817.538941,31.4165292 817.357522,29.9945025 818.101521,29.3201393 L818.777717,28.7062489 C819.519883,28.0300531 820.793476,28.4900128 821.881986,29.4080997 C821.881986,29.4080997 828.629283,35.0998717 837.216419,44.5501191 C846.41378,54.6728972 850.824629,61.2625985 850.824629,61.2625985 C851.799524,62.7505956 851.969947,63.7456478 851.227781,64.4218435 L850.551585,65.0357339 C849.805754,65.7100971 848.409382,65.3949056 847.445483,64.3320506 Z" id="Shape" fill="#E2E2E2"></path>
                <path d="M931.53381,300.822796 C931.53381,300.822796 931.47517,290.232729 930.177753,279.312809 C929.272494,271.704233 926.454096,258.085028 926.454096,258.085028 C926.283672,256.661169 926.961701,255.398571 927.958585,255.279458 L928.87484,255.17134 C929.871724,255.054059 930.641378,256.166392 930.996885,257.553601 C930.996885,257.553601 933.186733,266.104086 934.694887,278.785047 C936.309327,292.365769 936.076599,300.291369 936.076599,300.291369 C936.006964,302.070735 935.568994,302.979659 934.570277,303.09694 L933.665017,303.205058 C932.657138,303.313176 931.702401,302.248488 931.53381,300.822796 Z" id="Shape" fill="#E2E2E2"></path>
                <path d="M942.996152,299.648158 C942.996152,299.648158 942.937511,289.056258 941.640095,278.138171 C940.734836,270.529595 937.914605,256.91039 937.914605,256.91039 C937.746014,255.484699 938.424043,254.2221 939.420927,254.104819 L940.328019,253.996701 C941.324904,253.877588 942.092725,254.989921 942.448232,256.378963 C942.448232,256.378963 944.647242,264.929448 946.148067,277.610409 C947.762507,291.191131 947.529778,299.116731 947.529778,299.116731 C947.460143,300.894264 947.022173,301.803189 946.023456,301.922302 L945.116364,302.03042 C944.11948,302.1477 943.164743,301.079348 942.996152,299.648158 Z" id="Shape" fill="#E2E2E2"></path>
                <path d="M954.489646,298.968298 C954.489646,298.968298 954.431006,288.37823 953.13359,277.45831 C952.228331,269.849734 949.409932,256.23053 949.409932,256.23053 C949.239509,254.80667 949.917537,253.544072 950.914422,253.424959 L951.821514,253.316841 C952.818398,253.197728 953.588052,254.311893 953.943559,255.699102 C953.943559,255.699102 956.142569,264.249588 957.641561,276.930548 C959.256001,290.51127 959.023273,298.43687 959.023273,298.43687 C958.953638,300.214404 958.515668,301.12516 957.518783,301.242441 L956.611691,301.350559 C955.614807,301.462342 954.66007,300.393989 954.489646,298.968298 Z" id="Shape" fill="#E2E2E2"></path>
                <path d="M873.437786,14.7168774 C848.303097,2.83122595 794.015027,29.5601979 794.015027,29.5601979 L809.879054,16.2836723 C821.478835,6.11508155 840.544255,-3.50742166 855.209822,1.28642111 C862.105553,3.5367418 868.750229,7.61040865 873.437786,14.7168774 Z" id="Shape" fill="#31373A"></path>
                <path d="M999.774601,279.109401 C999.314642,285.308778 997.317207,289.818582 995.984973,292.589335 C995.924501,292.713945 995.86586,292.833058 995.801723,292.955837 C988.819864,306.712479 968.537658,313.391974 953.142752,314.396188 L946.761957,314.964266 C981.559465,310.967565 986.794942,250.619388 987.335532,249.360454 C992.693788,255.142019 996.063771,260.742166 997.936595,266.072934 C999.436137,270.246557 1000.06175,274.683873 999.774601,279.109401 Z" id="Shape" fill="#31373A"></path>
            </g>
        </g>
    </g>
</svg>