<svg xmlns="http://www.w3.org/2000/svg" xmlns:xlink="http://www.w3.org/1999/xlink" viewBox="0 0 640 407"><defs><linearGradient id="a" x1="464.23" y1="-193.68" x2="446.36" y2="-214.93" gradientTransform="translate(775.77 59.74) rotate(180)" gradientUnits="userSpaceOnUse"><stop offset="0" stop-color="#febbba"/><stop offset="1" stop-color="#ff928e"/></linearGradient><linearGradient id="b" x1="443.4" y1="-213.03" x2="479.13" y2="-164.15" xlink:href="#a"/><linearGradient id="c" x1="421.54" y1="-172.52" x2="422.86" y2="-160.67" xlink:href="#a"/><linearGradient id="d" x1="428.56" y1="-162.19" x2="422.76" y2="-143.05" xlink:href="#a"/><linearGradient id="e" x1="422.55" y1="-164.01" x2="416.75" y2="-144.88" xlink:href="#a"/><clipPath id="f"><rect x="348.01" y="220.74" width="2.42" height="1.45" rx="0.63" transform="translate(-16.7 28.85) rotate(-4.62)" fill="none"/></clipPath></defs><path d="M658.49,407H419.72v-.13c-4.39,0-110.64-.24-120.6-.24-.4-10.54-1.33-19.65-8.65-28.21-6.69-7.81-16-12.91-25.76-16.27-35.85-12.39-73.48-2.43-109.39,4.06C118.11,372.94,77,373.06,42.67,355,22.75,344.48,5.94,326.35,1.4,304.29-5.2,272.2,12.52,242,34.64,220.21c25-24.67,53.81-39,87.16-48.46,15.87-4.5,32.55-11.74,40.27-26.32,10.36-19.54-2.24-30.38-15.49-42.43-5.16-4.7-9.54-11.45-8.09-18.28,3.39-15.89,27.38-23.76,39.14-32.6,17.8-13.37,39.2-30.46,46.48-52.12H820.49V407Z" fill="#c8e0ff"/><path d="M213.68,102.82l33.66-10.65.29-.13h0a1.35,1.35,0,0,0,.89-1.7h0L236.87,53.51a1.35,1.35,0,0,0-1.7-.89h0l-.32.1-31.58,10-2.08.66a6.59,6.59,0,0,0-4.3,8.27h0a.31.31,0,0,0,.06.13c1,3.21,10.27,32.64,11.54,36.49a1,1,0,0,0,.06.23,6.58,6.58,0,0,0,7.87,4.41l.21,0L250.8,102a1.35,1.35,0,0,0,.89-1.7h0l-1.55-4.9a1.37,1.37,0,0,0-2.61.82l1.14,3.6L216,110.19a3.87,3.87,0,0,1-4.79-2.36v-.11l-.09-.26A3.87,3.87,0,0,1,213.68,102.82Zm-9.61-33.45a1.37,1.37,0,0,1,2.61-.82L215.05,95a1.37,1.37,0,0,1-2.61.82Z" fill="#eb7500"/><path d="M232.68,69.82l-.75-2.39a5,5,0,0,0-6.27-3.28h0l.75,2.39a2.51,2.51,0,0,1,3.15,1.64h0l.75,2.38a5,5,0,0,0,2.79,3.07,5,5,0,0,0-.52,4.11l.76,2.39a2.49,2.49,0,0,1-1.61,3.13h0l.75,2.39a5,5,0,0,0,3.28-6.27v0L235,77a2.52,2.52,0,0,1,1.64-3.15l-.76-2.39A2.51,2.51,0,0,1,232.68,69.82Z" fill="#fff"/><path d="M218.34,74.36,217.59,72a2.51,2.51,0,0,1,1.63-3.15l-.75-2.39a5,5,0,0,0-3.28,6.27v0l.75,2.39a2.51,2.51,0,0,1-1.63,3.15l.76,2.39h0a2.49,2.49,0,0,1,3.13,1.61v0l.76,2.39A5,5,0,0,0,225.25,88h0l-.75-2.39a2.51,2.51,0,0,1-3.15-1.63l-.76-2.39a5,5,0,0,0-2.78-3.07A4.93,4.93,0,0,0,218.34,74.36Z" fill="#fff"/><path d="M21.49,286.33,59.23,280a2,2,0,0,0,.33-.09h0a1.47,1.47,0,0,0,1.21-1.69h0l-7-41.27a1.47,1.47,0,0,0-1.69-1.21h0l-.36.06-35.41,6-2.33.39a7.17,7.17,0,0,0-5.86,8.24v.14c.6,3.59,6.12,36.58,6.9,40.91v.25a7.15,7.15,0,0,0,7.79,5.92H23l38.32-6.46a1.48,1.48,0,0,0,1.21-1.71h0l-.92-5.49a1.48,1.48,0,1,0-2.92.49h0l.68,4-36.64,6.18A4.17,4.17,0,0,1,18,291.35v-.12a.75.75,0,0,0-.05-.29A4.18,4.18,0,0,1,21.49,286.33ZM16.21,249a1.48,1.48,0,0,1,2.92-.49h0l5,29.66a1.48,1.48,0,1,1-2.92.49Z" fill="#27be89"/><path d="M29,255.51l18.76-2.95-3,4.07a1.09,1.09,0,0,0,1.64,1.44.88.88,0,0,0,.12-.17l2.69-3.7,1.8-2.48a1.07,1.07,0,0,0-.23-1.5h0l-6.18-4.51a1,1,0,0,0-.82-.2,1.08,1.08,0,0,0-.46,2l4.08,3-18.82,3a1.08,1.08,0,1,0,.39,2.13Z" fill="#fff"/><path d="M48.21,262.91l-18.72,2.94,3-4.06a1.08,1.08,0,1,0-1.75-1.28l-2.69,3.71-1.8,2.48a1.07,1.07,0,0,0,.23,1.5h0l6.18,4.51a1.09,1.09,0,0,0,1.44-1.64.88.88,0,0,0-.17-.12l-4.07-3,18.82-3a1.08,1.08,0,0,0-.39-2.13Z" fill="#fff"/><path d="M366.39,22.5c5.52,7.3,10.58,15.18,13.31,24,1.48,5,2.36,10.69.25,15.68-2.73,7.94-8.19,14.65-14.29,20.28A29.56,29.56,0,0,1,362.44,70a24.11,24.11,0,0,1,.51-5.62,88.33,88.33,0,0,1,4.29-15.06,69.68,69.68,0,0,0-7.32,14.43,16.2,16.2,0,0,0-1.11,5.92,37.17,37.17,0,0,0,3.24,12.76,26,26,0,0,1-11.39-12.49A17.64,17.64,0,0,1,349,63.18c0-4.88,2-9.49,4.42-13.62,4.35-9,8.64-18,13-27h0" fill="#9fc2ef"/><path d="M403.81,85.74A123.34,123.34,0,0,1,431,93.93c-10.2,8.89-20.43,17.72-30.61,26.63-5,5.26-11.31,10.09-18.76,10.89a34.32,34.32,0,0,1-26.42-10.87,47.83,47.83,0,0,0,17.69-.24,21.25,21.25,0,0,0,6.92-3.35,91.18,91.18,0,0,0,16.28-14.81,113.62,113.62,0,0,1-18.53,11.18,29.68,29.68,0,0,1-6.31,2.32,38.71,38.71,0,0,1-17.43.19c5.19-10,12-19.59,21.44-26a22.8,22.8,0,0,1,10-4.25,54,54,0,0,1,18.55.09h0" fill="#9fc2ef"/><path d="M324.81,49.55A132.09,132.09,0,0,1,340.29,68a62.77,62.77,0,0,1,8.78,18.13c1.16,4.39,1.76,9.14.42,13.57-2.36,11.14-8.68,21-16,29.58a39.48,39.48,0,0,1-6.6-17.91c-.33-8.82,1.33-17.58,3.3-26.14a98.65,98.65,0,0,0-4.58,10.5,58.81,58.81,0,0,0-3.52,13.68,21.2,21.2,0,0,0,1.05,8.14,53.35,53.35,0,0,0,5.5,12.23,34.42,34.42,0,0,1-17-14c-.8-1.25-1.44-2.6-2.11-3.92a22.56,22.56,0,0,1-1.8-6.64,38.34,38.34,0,0,1,4-17.76c4.37-12.63,8.66-25.28,13-37.92h0" fill="#9fc2ef"/><path d="M79.86,291.93a5.56,5.56,0,0,0,5.55,5.54H385.12a5.55,5.55,0,0,0,5.54-5.54l2.5-172.23c0-3-3.59-9-10.17-8.55L90.08,103.57a14,14,0,0,0-14.33,13.66v.63Z" fill="#183f78"/><path d="M85.34,286.62a5.27,5.27,0,0,0,5.24,5.25H377.89a5.26,5.26,0,0,0,5.25-5.25l2.35-156.36c-.28-9.41-8.53-12.79-13.53-12.59L91.23,110.14a9.81,9.81,0,0,0-10.07,9.54v.51Z" fill="#fff"/><rect x="55.55" y="296.63" width="353.35" height="15.13" rx="2.62" fill="#183f78"/><path d="M341.09,272.81H118.31a13.49,13.49,0,0,1-13.5-13.48V151.11a13.51,13.51,0,0,1,13.52-13.5h.2l222.78,3.61a13.51,13.51,0,0,1,13.29,13.5V259.31a13.49,13.49,0,0,1-13.5,13.5Z" fill="#c8e0ff"/><path d="M111.07,81.86l8.8,18a9.38,9.38,0,0,1,.2,7.79c-2.68,6.29-9.89,18.09-28.21,26.82-18.6,8.87-30.68,5.53-36.1,2.87a10,10,0,0,1-4.54-4.51l-9.5-19.05Z" fill="#3175b9"/><path d="M64.81,65.15l57.68,5.19a3.72,3.72,0,0,1,2.56,6c-9.14,11.31-29.82,37.54-36.84,51.84a3.73,3.73,0,0,1-4.12,2L24.37,117.5a3.73,3.73,0,0,1-2.87-4.42,3.77,3.77,0,0,1,.71-1.53c9-11.44,32-40.17,40.17-45.82A3.73,3.73,0,0,1,64.81,65.15Z" fill="#3175b9"/><path d="M71.25,93.24S45.49,117.1,44,121.74s6.59,22.94,6.59,22.94c-1.6,17.06,1,34.78,10.46,42.54,0,0,5.63-23.08-.32-31.27s-8.27-11.56-8.27-11.56-7.53-19.72-6.89-22.85C45.57,121.52,74,94,71.25,93.24Z" fill="#3175b9"/><path d="M116,76.79,93.12,109.67l-5.73,8.21L86,119.94l-.72,1a5.39,5.39,0,0,1-.78.87,5.3,5.3,0,0,1-4.34,1.3l-19.84-2.79a.29.29,0,0,0-.15.56h.06L80,123.83a6.07,6.07,0,0,0,5.85-2.44l.73-1,1.45-2,5.79-8.17L117,77.52a.6.6,0,1,0-1-.68Z" fill="#fff" opacity="0.63" style="isolation:isolate"/><path d="M54.55,154.11l.07,0,.08.06.16.13.31.3c.21.2.4.42.61.63l.55.69c.18.24.35.48.52.73a7.39,7.39,0,0,1,.47.76l.46.77.39.81a8.67,8.67,0,0,1,.38.82l.34.84a8.64,8.64,0,0,1,.31.85c.18.58.37,1.16.54,1.74l.42,1.77a2.42,2.42,0,0,0,.1.45l.08.45.14.9c.23,1.2.29,2.42.42,3.64v3.67c0,1.22-.07,2.45-.13,3.67l-.34,3.67h0a.21.21,0,1,0,.41.05l.43-3.69c.1-1.23.16-2.47.24-3.7v-3.72c-.09-1.24-.12-2.48-.32-3.71l-.13-.93-.06-.46a2.34,2.34,0,0,0-.09-.46l-.38-1.84c-.17-.6-.35-1.2-.52-1.8a7.16,7.16,0,0,0-.3-.89l-.33-.89a9.28,9.28,0,0,0-.37-.86l-.39-.86c-.15-.29-.31-.56-.46-.84a8.45,8.45,0,0,0-.49-.82c-.17-.26-.34-.53-.53-.79l-.58-.76c-.22-.24-.42-.49-.66-.72l-.35-.35-.19-.17-.1-.08-.12-.09a.57.57,0,0,0-.81.1h0a.59.59,0,0,0,.11.83h0Z" fill="#fff" opacity="0.63" style="isolation:isolate"/><path d="M55.06,161.82l.21,1.14.23,1.28.44,2.59.87,5.17,1.7,10.35a.31.31,0,0,0,.36.27.32.32,0,0,0,.28-.36l-1.44-10.4-.74-5.2-.37-2.59-.2-1.3-.11-.66v-.33a2,2,0,0,0-.11-.45.58.58,0,0,0-.75-.34.59.59,0,0,0-.37.6Z" fill="#fff" opacity="0.63" style="isolation:isolate"/><path d="M394.36,221.87s14.23,7.88,15.4,21.22.1,68.7-28.43,82.32-66.29,10.49-80.74,9-22.47-11.31-24.26-18.08-4.68-32,10.52-40.08S318,255.67,334,243.54,377.3,211.63,394.36,221.87Z" fill="#27be89"/><path d="M291.34,280.85s3.84.2,4.31,8.1c0,0-8.91,8-20.93,9.88-.91.14,1.26-6.16,1.58-7C277.85,287.74,282.73,285.13,291.34,280.85Z" fill="#683103"/><path d="M334.58,271.56h-8.09s-24.87-27.47-41.18-30.24c0,0-11.36,14.49.6,41.57a4,4,0,0,0,5.26,2.07l.4-.2a3.29,3.29,0,0,0,1.29-1.54l-1-23.13s21.22,18.56,24.9,22.14S339.22,283.63,334.58,271.56Z" fill="#212121"/><path d="M256.24,329.22A30.52,30.52,0,0,1,272.86,322l2.64,1.62a28.47,28.47,0,0,1-4.76,5.11c-2.83,1.64-7.19,3.86-10.81,4.35S255.89,331.37,256.24,329.22Z" fill="#683103"/><path d="M334.28,277.42l-37.94.41s-21.67,17.93-25.6,45.27c0,0-.65,2,3.26,2.35a75.21,75.21,0,0,0,21.65-23.71c10.47-18.55,31.22-10.2,31.22-10.2,6.82-4.92,16.46-5.92,23.71-7.56Z" fill="#212121"/><path d="M333.39,246.85s-4.09,20.47-24.1,28.57l-7.12-.84-1.68,2.68,16.7.53A45.64,45.64,0,0,0,339,256.74C339.28,256.23,343.49,247.63,333.39,246.85Z" fill="url(#a)"/><path d="M331.2,277.08s4.64-12.62,5.64-24.89a53.33,53.33,0,0,0-5.52-4.18,1.53,1.53,0,0,1-.6-2c1.56-3.24,11-15.94,11.71-16.12,3.85-1,19.62-8.45,30.72,6.74,4.77,6.52-.94,26.59-22.57,47.37l-4.46.86Z" fill="#eb7500"/><path d="M349.1,255s-12.91,15.28-29.41,17.51c0,0-4.26-3.89-7.43-2.5s-7.52,7.52-7.52,7.52h21.18s20-.71,30-12.86C355.16,260.38,352.75,257.84,349.1,255Z" fill="url(#b)"/><path d="M356.63,219.18l2.82,9.42a1,1,0,0,1-.4,1.16,10.52,10.52,0,0,1-9.79,1,1.54,1.54,0,0,1-1-1.32l-.67-8.2Z" fill="url(#c)"/><path d="M340.09,211.56s1.39,9.76,5.14,12.76,11.06.74,13.53-6.62l-4.92-12.58Z" fill="url(#d)"/><path d="M354.39,213.26a.48.48,0,0,1-.61-.3.19.19,0,0,1,0-.08,12.7,12.7,0,0,0-1.15-3.9s.35-1.28-3.24.65-9,4.78-12.17,3.09-6.24-10,2-8.42a.48.48,0,0,0,.56-.38.57.57,0,0,0,0-.13c-.1-1.36,0-4.5,3.22-5.51,3-.94,1.38.59,2,1.4.19.24-.25-.82,4-.2,1.45.21,3.31-3.64,6.87-2.07,2.94,1.29,3.39,3.1,3.35,4.23a.48.48,0,0,0,.46.5.43.43,0,0,0,.22,0,2.89,2.89,0,0,1,3.73,1.1c1.92,2.4-.82,4.48-1.64,5a.5.5,0,0,0-.22.4c0,1.25-.2,6.69-2.93,9.76a.49.49,0,0,1-.69,0,.66.66,0,0,1-.12-.17l-2.1-5a.49.49,0,0,0-.6-.27Z" fill="#282828"/><path d="M354.35,214.28s1.28-5.22,3.23-3.53-.51,5.43-2.74,6.14Z" fill="url(#e)"/><path d="M305.81,278.67,296.29,247a3.22,3.22,0,0,0-2.88-2.31l-12.85-.88a1.83,1.83,0,0,0-1.94,1.71,1.93,1.93,0,0,0,.1.72l10.64,30.29a2.64,2.64,0,0,0,2.24,1.77l12.65,1.4Z" fill="#6aade5"/><path d="M304.25,279.65h.06l27-1.36a1.21,1.21,0,0,0,.06-2.42h-.18l-27,1.36a1.21,1.21,0,0,0,.06,2.41Z" fill="#6aade5"/><path d="M336.84,252.4a.21.21,0,0,0,.22-.2h0c0-5.63,2.15-13.11,2.17-13.18a.21.21,0,1,0-.41-.12c0,.07-2.21,7.61-2.19,13.3A.21.21,0,0,0,336.84,252.4Z" fill="#aa5100"/><path d="M349.1,255.17a.23.23,0,0,0,.17-.08c0-.08,6-7.57,8-12.7a.22.22,0,1,0-.4-.16c-2,5.08-7.86,12.52-7.92,12.59a.22.22,0,0,0,0,.3h0A.17.17,0,0,0,349.1,255.17Z" fill="#aa5100"/><path d="M357.39,266.62l.16-.06c8.53-3.65,13.79-13.83,13.85-13.94a.21.21,0,0,0-.1-.28h0a.2.2,0,0,0-.27.08h0c-.06.1-5.19,10-13.48,13.66l-.88-1.24a.22.22,0,0,0-.3-.05.24.24,0,0,0,0,.3Z" fill="#aa5100"/><path d="M349.61,221.91c5.79-1,7.59-7.75,7.61-7.81l-.43-.12c0,.07-1.75,6.51-7.25,7.49Z" fill="#3175b9"/><rect x="348.01" y="220.74" width="2.42" height="1.45" rx="0.63" transform="translate(-16.7 28.85) rotate(-4.62)" fill="#3175b9"/><g clip-path="url(#f)"><polygon points="350.3 221.74 350.32 222.51 350.36 222.5 350.3 221.74" fill="#3175b9"/><polygon points="350.19 220.81 350.33 222.74 350.34 222.74 350.4 221.74 350.33 220.8 350.19 220.81" fill="#3175b9"/><polygon points="350.18 220.81 350.31 222.74 350.33 222.74 350.19 220.81 350.18 220.81" fill="#3175b9"/><polygon points="350.16 220.82 350.29 222.74 350.31 222.74 350.18 220.81 350.16 220.82" fill="#3175b9"/><polygon points="350.14 220.82 350.28 222.75 350.29 222.74 350.16 220.82 350.14 220.82" fill="#3175b9"/><polygon points="350.13 220.82 350.26 222.75 350.28 222.75 350.14 220.82 350.13 220.82" fill="#3175b9"/><polygon points="350.11 220.82 350.24 222.75 350.26 222.75 350.13 220.82 350.11 220.82" fill="#3175b9"/><polygon points="350.09 220.82 350.23 222.75 350.24 222.75 350.11 220.82 350.09 220.82" fill="#3175b9"/><polygon points="350.08 220.82 350.21 222.75 350.23 222.75 350.09 220.82 350.08 220.82" fill="#3175b9"/><polygon points="350.06 220.82 350.19 222.75 350.21 222.75 350.08 220.82 350.06 220.82" fill="#3175b9"/><polygon points="350.04 220.82 350.18 222.75 350.19 222.75 350.06 220.82 350.04 220.82" fill="#3175b9"/><polygon points="350.03 220.83 350.16 222.75 350.18 222.75 350.04 220.82 350.03 220.83" fill="#3175b9"/><polygon points="350.01 220.83 350.14 222.76 350.16 222.75 350.03 220.83 350.01 220.83" fill="#3175b9"/><polygon points="349.99 220.83 350.13 222.76 350.14 222.76 350.01 220.83 349.99 220.83" fill="#3175b9"/><polygon points="349.98 220.83 350.11 222.76 350.13 222.76 349.99 220.83 349.98 220.83" fill="#3175b9"/><polygon points="349.96 220.83 350.09 222.76 350.11 222.76 349.98 220.83 349.96 220.83" fill="#3175b9"/><polygon points="349.94 220.83 350.08 222.76 350.09 222.76 349.96 220.83 349.94 220.83" fill="#3175b9"/><polygon points="349.93 220.84 350.06 222.76 350.08 222.76 349.94 220.83 349.93 220.84" fill="#3175b9"/><polygon points="349.91 220.84 350.04 222.76 350.06 222.76 349.93 220.84 349.91 220.84" fill="#3175b9"/><polygon points="349.89 220.84 350.03 222.76 350.04 222.76 349.91 220.84 349.89 220.84" fill="#3175b9"/><polygon points="349.88 220.84 350.01 222.77 350.03 222.76 349.89 220.84 349.88 220.84" fill="#3175b9"/><polygon points="349.86 220.84 349.99 222.77 350.01 222.77 349.88 220.84 349.86 220.84" fill="#3175b9"/><polygon points="349.84 220.84 349.98 222.77 349.99 222.77 349.86 220.84 349.84 220.84" fill="#3175b9"/><polygon points="349.83 220.84 349.96 222.77 349.98 222.77 349.84 220.84 349.83 220.84" fill="#3175b9"/><polygon points="349.81 220.84 349.94 222.77 349.96 222.77 349.83 220.84 349.81 220.84" fill="#3175b9"/><polygon points="349.79 220.84 349.93 222.77 349.94 222.77 349.81 220.84 349.79 220.84" fill="#3175b9"/><polygon points="349.78 220.85 349.91 222.78 349.93 222.77 349.79 220.84 349.78 220.85" fill="#3175b9"/><polygon points="349.76 220.85 349.89 222.78 349.91 222.78 349.78 220.85 349.76 220.85" fill="#3175b9"/><polygon points="349.74 220.85 349.88 222.78 349.89 222.78 349.76 220.85 349.74 220.85" fill="#3175b9"/><polygon points="349.73 220.85 349.86 222.78 349.88 222.78 349.74 220.85 349.73 220.85" fill="#3175b9"/><polygon points="349.71 220.85 349.84 222.78 349.86 222.78 349.73 220.85 349.71 220.85" fill="#3175b9"/><polygon points="349.69 220.85 349.83 222.78 349.84 222.78 349.71 220.85 349.69 220.85" fill="#3175b9"/><polygon points="349.68 220.85 349.81 222.78 349.83 222.78 349.69 220.85 349.68 220.85" fill="#3175b9"/><polygon points="349.66 220.86 349.79 222.78 349.81 222.78 349.68 220.85 349.66 220.86" fill="#3175b9"/><polygon points="349.64 220.86 349.78 222.79 349.79 222.78 349.66 220.86 349.64 220.86" fill="#3175b9"/><polygon points="349.63 220.86 349.76 222.79 349.78 222.79 349.64 220.86 349.63 220.86" fill="#3175b9"/><polygon points="349.61 220.86 349.74 222.79 349.76 222.79 349.63 220.86 349.61 220.86" fill="#3175b9"/><polygon points="349.59 220.86 349.73 222.79 349.74 222.79 349.61 220.86 349.59 220.86" fill="#3175b9"/><polygon points="349.58 220.86 349.71 222.79 349.73 222.79 349.59 220.86 349.58 220.86" fill="#3175b9"/><polygon points="349.56 220.86 349.69 222.79 349.71 222.79 349.58 220.86 349.56 220.86" fill="#3175b9"/><polygon points="349.54 220.87 349.68 222.79 349.69 222.79 349.56 220.86 349.54 220.87" fill="#3175b9"/><polygon points="349.53 220.87 349.66 222.79 349.68 222.79 349.54 220.87 349.53 220.87" fill="#3175b9"/><polygon points="349.51 220.87 349.64 222.8 349.66 222.79 349.53 220.87 349.51 220.87" fill="#3175b9"/><polygon points="349.49 220.87 349.63 222.8 349.64 222.8 349.51 220.87 349.49 220.87" fill="#3175b9"/><polygon points="349.48 220.87 349.61 222.8 349.63 222.8 349.49 220.87 349.48 220.87" fill="#3175b9"/><polygon points="349.46 220.87 349.59 222.8 349.61 222.8 349.48 220.87 349.46 220.87" fill="#3175b9"/><polygon points="349.44 220.87 349.58 222.8 349.59 222.8 349.46 220.87 349.44 220.87" fill="#3175b9"/><polygon points="349.43 220.88 349.56 222.8 349.58 222.8 349.44 220.87 349.43 220.88" fill="#3175b9"/><polygon points="349.41 220.88 349.54 222.8 349.56 222.8 349.43 220.88 349.41 220.88" fill="#3175b9"/><polygon points="349.39 220.88 349.53 222.81 349.54 222.8 349.41 220.88 349.39 220.88" fill="#3175b9"/><polygon points="349.38 220.88 349.51 222.81 349.53 222.81 349.39 220.88 349.38 220.88" fill="#3175b9"/><polygon points="349.36 220.88 349.49 222.81 349.51 222.81 349.38 220.88 349.36 220.88" fill="#3175b9"/><polygon points="349.34 220.88 349.48 222.81 349.49 222.81 349.36 220.88 349.34 220.88" fill="#3175b9"/><polygon points="349.33 220.88 349.46 222.81 349.48 222.81 349.34 220.88 349.33 220.88" fill="#3175b9"/><polygon points="349.31 220.88 349.44 222.81 349.46 222.81 349.33 220.88 349.31 220.88" fill="#3175b9"/><polygon points="349.29 220.89 349.43 222.81 349.44 222.81 349.31 220.88 349.29 220.89" fill="#3175b9"/><polygon points="349.28 220.89 349.41 222.81 349.43 222.81 349.29 220.89 349.28 220.89" fill="#3175b9"/><polygon points="349.26 220.89 349.39 222.82 349.41 222.81 349.28 220.89 349.26 220.89" fill="#3175b9"/><polygon points="349.24 220.89 349.38 222.82 349.39 222.82 349.26 220.89 349.24 220.89" fill="#3175b9"/><polygon points="349.23 220.89 349.36 222.82 349.38 222.82 349.24 220.89 349.23 220.89" fill="#3175b9"/><polygon points="349.21 220.89 349.34 222.82 349.36 222.82 349.23 220.89 349.21 220.89" fill="#3175b9"/><polygon points="349.19 220.89 349.33 222.82 349.34 222.82 349.21 220.89 349.19 220.89" fill="#3175b9"/><polygon points="349.18 220.9 349.31 222.82 349.33 222.82 349.19 220.89 349.18 220.9" fill="#3175b9"/><polygon points="349.16 220.9 349.29 222.82 349.31 222.82 349.18 220.9 349.16 220.9" fill="#3175b9"/><polygon points="349.14 220.9 349.28 222.83 349.29 222.82 349.16 220.9 349.14 220.9" fill="#3175b9"/><polygon points="349.13 220.9 349.26 222.83 349.28 222.83 349.14 220.9 349.13 220.9" fill="#3175b9"/><polygon points="349.11 220.9 349.24 222.83 349.26 222.83 349.13 220.9 349.11 220.9" fill="#3175b9"/><polygon points="349.09 220.9 349.23 222.83 349.24 222.83 349.11 220.9 349.09 220.9" fill="#3175b9"/><polygon points="349.08 220.9 349.21 222.83 349.23 222.83 349.09 220.9 349.08 220.9" fill="#3175b9"/><polygon points="349.06 220.91 349.19 222.83 349.21 222.83 349.08 220.9 349.06 220.91" fill="#3175b9"/><polygon points="349.04 220.91 349.18 222.83 349.19 222.83 349.06 220.91 349.04 220.91" fill="#3175b9"/><polygon points="349.03 220.91 349.16 222.84 349.18 222.83 349.04 220.91 349.03 220.91" fill="#3175b9"/><polygon points="349.01 220.91 349.14 222.84 349.16 222.84 349.03 220.91 349.01 220.91" fill="#3175b9"/><polygon points="348.99 220.91 349.13 222.84 349.14 222.84 349.01 220.91 348.99 220.91" fill="#3175b9"/><polygon points="348.98 220.91 349.11 222.84 349.13 222.84 348.99 220.91 348.98 220.91" fill="#3175b9"/><polygon points="348.96 220.91 349.09 222.84 349.11 222.84 348.98 220.91 348.96 220.91" fill="#3175b9"/><polygon points="348.94 220.91 349.08 222.84 349.09 222.84 348.96 220.91 348.94 220.91" fill="#3175b9"/><polygon points="348.93 220.91 349.06 222.84 349.08 222.84 348.94 220.91 348.93 220.91" fill="#3175b9"/><polygon points="348.91 220.92 349.04 222.84 349.06 222.84 348.93 220.91 348.91 220.92" fill="#3175b9"/><polygon points="348.89 220.92 349.03 222.85 349.04 222.84 348.91 220.92 348.89 220.92" fill="#3175b9"/><polygon points="348.88 220.92 349.01 222.85 349.03 222.85 348.89 220.92 348.88 220.92" fill="#3175b9"/><polygon points="348.86 220.92 348.99 222.85 349.01 222.85 348.88 220.92 348.86 220.92" fill="#3175b9"/><polygon points="348.84 220.92 348.98 222.85 348.99 222.85 348.86 220.92 348.84 220.92" fill="#3175b9"/><polygon points="348.83 220.92 348.96 222.85 348.98 222.85 348.84 220.92 348.83 220.92" fill="#3175b9"/><polygon points="348.81 220.93 348.94 222.85 348.96 222.85 348.83 220.92 348.81 220.93" fill="#3175b9"/><polygon points="348.79 220.93 348.93 222.85 348.94 222.85 348.81 220.93 348.79 220.93" fill="#3175b9"/><polygon points="348.78 220.93 348.91 222.86 348.93 222.85 348.79 220.93 348.78 220.93" fill="#3175b9"/><polygon points="348.76 220.93 348.89 222.86 348.91 222.86 348.78 220.93 348.76 220.93" fill="#3175b9"/><polygon points="348.74 220.93 348.88 222.86 348.89 222.86 348.76 220.93 348.74 220.93" fill="#3175b9"/><polygon points="348.73 220.93 348.86 222.86 348.88 222.86 348.74 220.93 348.73 220.93" fill="#3175b9"/><polygon points="348.71 220.93 348.84 222.86 348.86 222.86 348.73 220.93 348.71 220.93" fill="#3175b9"/><polygon points="348.69 220.93 348.83 222.86 348.84 222.86 348.71 220.93 348.69 220.93" fill="#3175b9"/><polygon points="348.68 220.94 348.81 222.86 348.83 222.86 348.69 220.93 348.68 220.94" fill="#3175b9"/><polygon points="348.66 220.94 348.79 222.87 348.81 222.86 348.68 220.94 348.66 220.94" fill="#3175b9"/><polygon points="348.64 220.94 348.78 222.87 348.79 222.87 348.66 220.94 348.64 220.94" fill="#3175b9"/><polygon points="348.63 220.94 348.76 222.87 348.78 222.87 348.64 220.94 348.63 220.94" fill="#3175b9"/><polygon points="348.61 220.94 348.74 222.87 348.76 222.87 348.63 220.94 348.61 220.94" fill="#3175b9"/><polygon points="348.59 220.94 348.73 222.87 348.74 222.87 348.61 220.94 348.59 220.94" fill="#3175b9"/><polygon points="348.58 220.94 348.71 222.87 348.73 222.87 348.59 220.94 348.58 220.94" fill="#3175b9"/><polygon points="348.56 220.94 348.69 222.87 348.71 222.87 348.58 220.94 348.56 220.94" fill="#3175b9"/><polygon points="348.54 220.95 348.68 222.87 348.69 222.87 348.56 220.94 348.54 220.95" fill="#3175b9"/><polygon points="348.53 220.95 348.66 222.88 348.68 222.87 348.54 220.95 348.53 220.95" fill="#3175b9"/><polygon points="348.51 220.95 348.64 222.88 348.66 222.88 348.53 220.95 348.51 220.95" fill="#3175b9"/><polygon points="348.49 220.95 348.63 222.88 348.64 222.88 348.51 220.95 348.49 220.95" fill="#3175b9"/><polygon points="348.48 220.95 348.61 222.88 348.63 222.88 348.49 220.95 348.48 220.95" fill="#3175b9"/><polygon points="348.46 220.95 348.59 222.88 348.61 222.88 348.48 220.95 348.46 220.95" fill="#3175b9"/><polygon points="348.44 220.95 348.58 222.88 348.59 222.88 348.46 220.95 348.44 220.95" fill="#3175b9"/><polygon points="348.43 220.96 348.56 222.88 348.58 222.88 348.44 220.95 348.43 220.96" fill="#3175b9"/><polygon points="348.41 220.96 348.54 222.88 348.56 222.88 348.43 220.96 348.41 220.96" fill="#3175b9"/><polygon points="348.39 220.96 348.53 222.89 348.54 222.88 348.41 220.96 348.39 220.96" fill="#3175b9"/><polygon points="348.38 220.96 348.51 222.89 348.53 222.89 348.39 220.96 348.38 220.96" fill="#3175b9"/><polygon points="348.36 220.96 348.49 222.89 348.51 222.89 348.38 220.96 348.36 220.96" fill="#3175b9"/><polygon points="348.34 220.96 348.48 222.89 348.49 222.89 348.36 220.96 348.34 220.96" fill="#3175b9"/><polygon points="348.33 220.96 348.46 222.89 348.48 222.89 348.34 220.96 348.33 220.96" fill="#3175b9"/><polygon points="348.31 220.97 348.44 222.89 348.46 222.89 348.33 220.96 348.31 220.97" fill="#3175b9"/><polygon points="348.29 220.97 348.43 222.9 348.44 222.89 348.31 220.97 348.29 220.97" fill="#3175b9"/><polygon points="348.28 220.97 348.41 222.9 348.43 222.9 348.29 220.97 348.28 220.97" fill="#3175b9"/><polygon points="348.26 220.97 348.39 222.9 348.41 222.9 348.28 220.97 348.26 220.97" fill="#3175b9"/><polygon points="348.24 220.97 348.38 222.9 348.39 222.9 348.26 220.97 348.24 220.97" fill="#3175b9"/><polygon points="348.23 220.97 348.36 222.9 348.38 222.9 348.24 220.97 348.23 220.97" fill="#3175b9"/><polygon points="348.21 220.97 348.34 222.9 348.36 222.9 348.23 220.97 348.21 220.97" fill="#3175b9"/><polygon points="348.19 220.97 348.33 222.9 348.34 222.9 348.21 220.97 348.19 220.97" fill="#3175b9"/><polygon points="348.18 220.98 348.31 222.9 348.33 222.9 348.19 220.97 348.18 220.98" fill="#3175b9"/><polygon points="348.16 220.98 348.29 222.91 348.31 222.9 348.18 220.98 348.16 220.98" fill="#3175b9"/><polygon points="348.14 220.98 348.28 222.91 348.29 222.91 348.16 220.98 348.14 220.98" fill="#3175b9"/><polygon points="348.13 220.98 348.26 222.91 348.28 222.91 348.14 220.98 348.13 220.98" fill="#3175b9"/><polygon points="348.11 220.98 348.24 222.91 348.26 222.91 348.13 220.98 348.11 220.98" fill="#3175b9"/><polygon points="348.09 220.98 348.23 222.91 348.24 222.91 348.11 220.98 348.09 220.98" fill="#3175b9"/><polygon points="348.08 220.98 348.21 222.91 348.23 222.91 348.09 220.98 348.08 220.98" fill="#3175b9"/><polygon points="348.06 220.99 348.19 222.91 348.21 222.91 348.08 220.98 348.06 220.99" fill="#3175b9"/><polygon points="348.04 220.99 348.18 222.91 348.19 222.91 348.06 220.99 348.04 220.99" fill="#3175b9"/><polygon points="348.03 220.99 348.16 222.92 348.18 222.91 348.04 220.99 348.03 220.99" fill="#3175b9"/><polygon points="348.01 220.99 348.14 222.92 348.16 222.92 348.03 220.99 348.01 220.99" fill="#3175b9"/><polygon points="347.99 220.99 348.13 222.92 348.14 222.92 348.01 220.99 347.99 220.99" fill="#3175b9"/><polygon points="347.98 220.99 348.11 222.92 348.13 222.92 347.99 220.99 347.98 220.99" fill="#3175b9"/><polygon points="347.96 220.99 348.09 222.92 348.11 222.92 347.98 220.99 347.96 220.99" fill="#3175b9"/><polygon points="347.94 221 348.08 222.92 348.09 222.92 347.96 220.99 347.94 221" fill="#3175b9"/><polygon points="347.93 221 348.06 222.92 348.08 222.92 347.94 221 347.93 221" fill="#3175b9"/><polygon points="347.91 221 348.04 222.93 348.06 222.92 347.93 221 347.91 221" fill="#3175b9"/><polygon points="347.89 221 348.03 222.93 348.04 222.93 347.91 221 347.89 221" fill="#3175b9"/><polygon points="347.88 221 348.01 222.93 348.03 222.93 347.89 221 347.88 221" fill="#3175b9"/><polygon points="347.86 221 347.99 222.93 348.01 222.93 347.88 221 347.86 221" fill="#3175b9"/><polygon points="347.84 221 347.98 222.93 347.99 222.93 347.86 221 347.84 221" fill="#3175b9"/><polygon points="347.83 221 347.96 222.93 347.98 222.93 347.84 221 347.83 221" fill="#3175b9"/><polygon points="347.81 221.01 347.94 222.93 347.96 222.93 347.83 221 347.81 221.01" fill="#3175b9"/><polygon points="347.79 221.01 347.93 222.94 347.94 222.93 347.81 221.01 347.79 221.01" fill="#3175b9"/><polygon points="347.78 221.01 347.91 222.94 347.93 222.94 347.79 221.01 347.78 221.01" fill="#3175b9"/><polygon points="347.76 221.01 347.89 222.94 347.91 222.94 347.78 221.01 347.76 221.01" fill="#3175b9"/><polygon points="347.74 221.01 347.88 222.94 347.89 222.94 347.76 221.01 347.74 221.01" fill="#3175b9"/><polygon points="347.73 221.01 347.86 222.94 347.88 222.94 347.74 221.01 347.73 221.01" fill="#3175b9"/><polygon points="347.71 221.01 347.84 222.94 347.86 222.94 347.73 221.01 347.71 221.01" fill="#3175b9"/><polygon points="347.69 221.01 347.83 222.94 347.84 222.94 347.71 221.01 347.69 221.01" fill="#3175b9"/><polygon points="347.68 221.02 347.99 221.84 348.07 222.92 347.83 222.94 347.69 221.01 347.68 221.02" fill="#3175b9"/><polygon points="347.79 221.86 347.69 221.21 347.74 221.21 347.79 221.86" fill="#3175b9"/></g><path d="M355.26,207.74s-4.38-8.55-10.27-8a4.2,4.2,0,0,1,3.29-.73c1.89.4,7.31,3.77,8.45,8.64C355.69,208.25,355.26,207.74,355.26,207.74Z" fill="#3175b9"/><path d="M356.08,206.92c3.28-.17,3.91,3.88,3.91,3.88,1,2.81.49,4.44-.41,5.39a2.55,2.55,0,0,1-3.6.1,2.46,2.46,0,0,1-.67-1,14.93,14.93,0,0,0-.64-1.73C354.37,212.91,352.79,207.08,356.08,206.92Z" fill="#3175b9"/><path d="M356.05,208a1.45,1.45,0,0,1,1.76.44c3,3.84,1.4,7.24.29,7.59s-2.61-5.35-2.73-6.87A1.08,1.08,0,0,1,356.05,208Z" fill="#3175b9"/><path d="M184.89,340.89l24.72-5.11a.86.86,0,0,0,.21-.07h0a1,1,0,0,0,.76-1.16l-5.58-27a1,1,0,0,0-1.16-.76l-.23,0-23.12,4.76-1.53.32a4.71,4.71,0,0,0-3.67,5.56h0v.1c.48,2.35,4.91,24,5.52,26.8v.16a4.7,4.7,0,0,0,5.27,3.71h.15l25.1-5.19a1,1,0,0,0,.76-1.15l-.74-3.6a1,1,0,0,0-2,0,1,1,0,0,0,.09.43l.54,2.64-24,4.95a2.75,2.75,0,0,1-3.23-2V344A2.75,2.75,0,0,1,184.89,340.89Zm-4.4-24.49a1,1,0,1,1,1.91-.4l4,19.43a1,1,0,0,1-1.82.83,1.12,1.12,0,0,1-.09-.44Z" fill="#3175b9"/><path d="M198,318.74a.62.62,0,0,1,.2.85l-3.1,5a.62.62,0,0,1-.85.2l-2.38-1.48a.62.62,0,0,1-.2-.85.63.63,0,0,1,.86-.2l1.85,1.15L197.1,319A.62.62,0,0,1,198,318.74Zm4.88,1.44a7.92,7.92,0,1,1-9.52-5.91,7.92,7.92,0,0,1,9.52,5.91Zm-1.21.28a6.69,6.69,0,1,0-5,8h0a6.68,6.68,0,0,0,5-8v0Z" fill="#fff"/><path d="M191.84,172.68a11.71,11.71,0,0,1-1.36,5.71,9.09,9.09,0,0,1-3.87,3.82,12,12,0,0,1-5.82,1.37h-9V162.31h8.81Q191.84,162.31,191.84,172.68Zm-6.8,0a6.08,6.08,0,0,0-.63-2.81,4.57,4.57,0,0,0-1.8-1.92,5.3,5.3,0,0,0-2.75-.68h-1.65v11.22H180a4.57,4.57,0,0,0,3.66-1.56,6.27,6.27,0,0,0,1.37-4.2Z" fill="#434444"/><path d="M211.13,175.74a7.86,7.86,0,0,1-2.27,6.1,9.06,9.06,0,0,1-6.47,2.2,9.18,9.18,0,0,1-6.45-2.13,8.71,8.71,0,0,1-1.22-10.11,7,7,0,0,1,3.09-2.73,10.74,10.74,0,0,1,4.6-.94,10.36,10.36,0,0,1,4.68,1,7.32,7.32,0,0,1,3,2.76,7.57,7.57,0,0,1,1,3.86Zm-6.39,0c0-2-.79-3.08-2.38-3.08S200,173.72,200,175.9s.81,3.41,2.53,3.41,2.23-1.16,2.23-3.54Z" fill="#434444"/><path d="M224.18,183.35a5.77,5.77,0,0,1-1.42.4,11.58,11.58,0,0,1-2.35.18,5.67,5.67,0,0,1-4.12-1.44,5.54,5.54,0,0,1-1.49-4.15v-5.6h-2.4v-4.35h2.4v-3l6.22-1.72v4.71h3.16v4.36H221v4.55c0,1.34.53,2,1.57,2a4.1,4.1,0,0,0,1.59-.32Z" fill="#434444"/><path d="M238.82,183.58h-7.2l-6.86-21.27h6.86l3.23,13.1a13.49,13.49,0,0,1,.43,2.35h.16a21.61,21.61,0,0,1,.45-2.53l3.31-12.92h6.68Z" fill="#3276b8"/><path d="M260.14,183.58h-7.21l-6.85-21.27H253l3.24,13.1a14.49,14.49,0,0,1,.43,2.35h.25a14.44,14.44,0,0,1,.46-2.53l3.16-13H267Z" fill="#3276b8"/><path d="M288.79,183.58V167.32h-.18c-.33,1.67-.55,2.83-.73,3.46l-3.14,12.8h-6l-3.25-12.64c0-.31-.33-1.52-.71-3.62h-.17c.15,3.37.23,5.44.22,6.22v10.12H269.2V162.31h9.6l2.91,11.56a14.08,14.08,0,0,1,.28,1.44,13.35,13.35,0,0,0,.2,1.67h0a20.19,20.19,0,0,1,.51-3.19l2.73-11.48h9.43v21.27Z" fill="#3276b8"/><rect x="150.31" y="204.46" width="161.25" height="5.77" fill="#9fc2ef"/><rect x="150.31" y="217.29" width="71.25" height="5.77" fill="#9fc2ef"/><rect x="229.69" y="217.16" width="71.25" height="5.77" fill="#9fc2ef"/><rect x="150.31" y="230.27" width="161.25" height="5.77" fill="#9fc2ef"/><rect x="150.31" y="242.61" width="33.16" height="5.77" fill="#9fc2ef"/><rect x="191.02" y="242.61" width="33.16" height="5.77" fill="#27be89"/></svg>