<svg xmlns="http://www.w3.org/2000/svg" xmlns:xlink="http://www.w3.org/1999/xlink" width="820.488" height="407" viewBox="0 0 820.488 407"><defs><linearGradient id="a" x1="-41.033" y1="0.213" x2="-41.484" y2="0.899" gradientUnits="objectBoundingBox"><stop offset="0" stop-color="#febbba"/><stop offset="1" stop-color="#ff928e"/></linearGradient><linearGradient id="b" x1="-32.256" y1="0.791" x2="-31.558" y2="-1.379" xlink:href="#a"/><linearGradient id="c" x1="-143.999" y1="1.059" x2="-143.888" y2="0.1" xlink:href="#a"/><linearGradient id="d" x1="-91.111" y1="0.821" x2="-91.421" y2="-0.114" xlink:href="#a"/><linearGradient id="e" x1="-437.063" y1="2.059" x2="-438.536" y2="-0.894" xlink:href="#a"/><clipPath id="f"><rect width="2.42" height="1.45" rx="0.63" transform="translate(347.96 220.835) rotate(-4.62)" fill="#3175b9"/></clipPath></defs><g transform="translate(2016 -10425)"><g transform="translate(-2016.002 10425)"><path d="M2140,755.26H1901.23v-.13c-4.39,0-110.64-.24-120.6-.24-.4-10.54-1.33-19.65-8.65-28.21-6.69-7.81-16-12.91-25.76-16.27-35.85-12.39-73.48-2.43-109.39,4.06-37.21,6.73-78.35,6.85-112.65-11.23-19.92-10.5-36.73-28.63-41.27-50.69-6.6-32.09,11.12-62.28,33.24-84.08,25-24.67,53.81-39,87.16-48.46,15.87-4.5,32.55-11.74,40.27-26.32,10.36-19.54-2.24-30.38-15.49-42.43-5.16-4.7-9.54-11.45-8.09-18.28,3.39-15.89,27.38-23.76,39.14-32.6,17.8-13.37,39.2-30.46,46.48-52.12H2302v407Z" transform="translate(-1481.51 -348.26)" fill="#c8e0ff"/><path d="M1695.19,451.08l33.66-10.65.29-.13h0a1.36,1.36,0,0,0,.89-1.71l-11.65-36.82a1.36,1.36,0,0,0-1.71-.89l-.32.1-31.58,10-2.08.66a6.59,6.59,0,0,0-4.3,8.27.521.521,0,0,0,.06.13c1,3.21,10.27,32.64,11.54,36.49a1.557,1.557,0,0,0,.06.23,6.59,6.59,0,0,0,7.87,4.41l.21-.05,34.18-10.82a1.36,1.36,0,0,0,.89-1.71l-1.55-4.9a1.37,1.37,0,0,0-2.61.82l1.14,3.6-32.68,10.34a3.86,3.86,0,0,1-4.79-2.36v-.11l-.09-.26a3.87,3.87,0,0,1,2.57-4.64Zm-9.61-33.45a1.37,1.37,0,0,1,2.61-.82l8.37,26.46a1.37,1.37,0,0,1-2.61.82Z" transform="translate(-1481.51 -348.26)" fill="#eb7500"/><path d="M1714.19,418.08l-.75-2.39a5,5,0,0,0-6.29-3.27l.75,2.39a2.51,2.51,0,0,1,3.15,1.64l.75,2.38a5,5,0,0,0,2.79,3.07,5,5,0,0,0-.52,4.11l.76,2.39a2.49,2.49,0,0,1-1.63,3.14l.75,2.39a5,5,0,0,0,3.27-6.29l-.76-2.39a2.52,2.52,0,0,1,1.64-3.15l-.76-2.39a2.51,2.51,0,0,1-3.15-1.63Z" transform="translate(-1481.51 -348.26)" fill="#fff"/><path d="M1699.85,422.62l-.75-2.39a2.51,2.51,0,0,1,1.63-3.15l-.75-2.39a5,5,0,0,0-3.27,6.29l.75,2.39a2.51,2.51,0,0,1-1.63,3.15l.76,2.39h0a2.49,2.49,0,0,1,3.14,1.63l.76,2.39a5,5,0,0,0,6.29,3.27l-.75-2.39a2.51,2.51,0,0,1-3.15-1.63l-.76-2.39a5,5,0,0,0-2.78-3.07,4.93,4.93,0,0,0,.51-4.1Z" transform="translate(-1481.51 -348.26)" fill="#fff"/><path d="M1503,634.59l37.74-6.37a2,2,0,0,0,.33-.09h0a1.47,1.47,0,0,0,1.21-1.7l-7-41.27a1.47,1.47,0,0,0-1.7-1.21l-.36.06-35.41,6-2.33.39a7.17,7.17,0,0,0-5.86,8.24v.14c.6,3.59,6.12,36.58,6.9,40.91a2.162,2.162,0,0,0,0,.25,7.15,7.15,0,0,0,7.79,5.92h.22l38.32-6.46a1.48,1.48,0,0,0,1.21-1.71l-.92-5.49a1.48,1.48,0,1,0-2.92.49l.68,4-36.64,6.18a4.18,4.18,0,0,1-4.79-3.26.488.488,0,0,0,0-.12.749.749,0,0,0-.05-.29A4.18,4.18,0,0,1,1503,634.59Zm-5.28-37.35a1.48,1.48,0,0,1,2.92-.49l5,29.66a1.48,1.48,0,1,1-2.92.49Z" transform="translate(-1481.51 -348.26)" fill="#27be89"/><path d="M1510.49,603.77l18.76-2.95-3,4.07a1.09,1.09,0,1,0,1.76,1.27l2.69-3.7,1.8-2.48a1.07,1.07,0,0,0-.23-1.5l-6.18-4.51a1.05,1.05,0,0,0-.82-.2,1.08,1.08,0,0,0-.46,2l4.08,3-18.82,3a1.083,1.083,0,1,0,.39,2.13Z" transform="translate(-1481.51 -348.26)" fill="#fff"/><path d="M1529.72,611.17,1511,614.11l3-4.06a1.084,1.084,0,0,0-1.75-1.28l-2.69,3.71-1.8,2.48a1.07,1.07,0,0,0,.23,1.5l6.18,4.51a1.09,1.09,0,1,0,1.27-1.76l-4.07-3,18.82-3a1.083,1.083,0,1,0-.39-2.13Z" transform="translate(-1481.51 -348.26)" fill="#fff"/><path d="M1847.9,370.76c5.52,7.3,10.58,15.18,13.31,24,1.48,5,2.36,10.69.25,15.68-2.73,7.94-8.19,14.65-14.29,20.28a29.521,29.521,0,0,1-3.22-12.49,24.066,24.066,0,0,1,.51-5.62,88.316,88.316,0,0,1,4.29-15.06,69.68,69.68,0,0,0-7.32,14.43,16.2,16.2,0,0,0-1.11,5.92,37.112,37.112,0,0,0,3.24,12.76,26,26,0,0,1-11.39-12.49,17.6,17.6,0,0,1-1.66-6.73c0-4.88,2-9.49,4.42-13.62,4.35-9,8.64-18,13-27.05h0" transform="translate(-1481.51 -348.26)" fill="#9fc2ef"/><path d="M1885.32,434a123.339,123.339,0,0,1,27.23,8.19c-10.2,8.89-20.43,17.72-30.61,26.63-5,5.26-11.31,10.09-18.76,10.89a34.32,34.32,0,0,1-26.42-10.87,47.831,47.831,0,0,0,17.69-.24,21.25,21.25,0,0,0,6.92-3.35,91.178,91.178,0,0,0,16.28-14.81,113.617,113.617,0,0,1-18.53,11.18,29.677,29.677,0,0,1-6.31,2.32,38.709,38.709,0,0,1-17.43.19c5.19-10,12-19.59,21.44-26a22.84,22.84,0,0,1,10-4.25,54,54,0,0,1,18.55.09h0" transform="translate(-1481.51 -348.26)" fill="#9fc2ef"/><path d="M1806.32,397.81a132.085,132.085,0,0,1,15.48,18.47,62.772,62.772,0,0,1,8.78,18.13c1.16,4.39,1.76,9.14.42,13.57-2.36,11.14-8.68,21-16,29.58a39.479,39.479,0,0,1-6.6-17.91c-.33-8.82,1.33-17.58,3.3-26.14a99.765,99.765,0,0,0-4.58,10.5,58.81,58.81,0,0,0-3.52,13.68,21.2,21.2,0,0,0,1.05,8.14,52.913,52.913,0,0,0,5.5,12.23,34.4,34.4,0,0,1-17-14c-.8-1.25-1.44-2.6-2.11-3.92a22.563,22.563,0,0,1-1.8-6.64,38.381,38.381,0,0,1,4-17.76c4.37-12.63,8.66-25.28,13-37.92h0" transform="translate(-1481.51 -348.26)" fill="#9fc2ef"/><path d="M1561.37,640.19a5.56,5.56,0,0,0,5.55,5.54h299.71a5.55,5.55,0,0,0,5.54-5.54l2.5-172.23c0-3-3.59-9-10.17-8.55l-292.91-7.58a14,14,0,0,0-14.33,14.29Z" transform="translate(-1481.51 -348.26)" fill="#727272"/><path d="M1566.85,634.88a5.26,5.26,0,0,0,5.24,5.25H1859.4a5.26,5.26,0,0,0,5.25-5.25L1867,478.52c-.28-9.41-8.53-12.79-13.53-12.59l-280.73-7.53a9.81,9.81,0,0,0-10.07,10.05Z" transform="translate(-1481.51 -348.26)" fill="#fff"/><rect width="353.35" height="15.13" rx="2.62" transform="translate(408.9 311.76) rotate(180)" fill="#727272"/><path d="M0,0H353.35a0,0,0,0,1,0,0V4.945a2.62,2.62,0,0,1-2.62,2.62H2.62A2.62,2.62,0,0,1,0,4.945V0A0,0,0,0,1,0,0Z" transform="translate(408.9 304.195) rotate(180)" fill="#b7b7b7"/><path d="M1822.6,621.07H1599.82a13.49,13.49,0,0,1-13.5-13.5V499.37a13.51,13.51,0,0,1,13.72-13.5l222.78,3.61a13.51,13.51,0,0,1,13.29,13.5V607.57a13.5,13.5,0,0,1-13.51,13.5Z" transform="translate(-1481.51 -348.26)" fill="#c8e0ff"/><path d="M1592.58,430.12l8.8,18a9.38,9.38,0,0,1,.2,7.79c-2.68,6.29-9.89,18.09-28.21,26.82-18.6,8.87-30.68,5.53-36.1,2.87a10,10,0,0,1-4.54-4.51l-9.5-19.05Z" transform="translate(-1481.51 -348.26)" fill="#3175b9"/><path d="M1546.32,413.41,1604,418.6a3.72,3.72,0,0,1,2.56,6c-9.14,11.31-29.82,37.54-36.84,51.84a3.73,3.73,0,0,1-4.12,2l-59.72-12.68a3.73,3.73,0,0,1-2.16-5.95c9-11.44,32-40.17,40.17-45.82a3.7,3.7,0,0,1,2.43-.58Z" transform="translate(-1481.51 -348.26)" fill="#3175b9"/><path d="M1552.76,441.5S1527,465.36,1525.51,470s6.59,22.94,6.59,22.94c-1.6,17.06,1,34.78,10.46,42.54,0,0,5.63-23.08-.32-31.27s-8.27-11.56-8.27-11.56-7.53-19.72-6.89-22.85C1527.08,469.78,1555.46,442.21,1552.76,441.5Z" transform="translate(-1481.51 -348.26)" fill="#3175b9"/><path d="M1597.55,425.05l-22.92,32.88-5.73,8.21-1.43,2.06-.72,1a5.006,5.006,0,0,1-.78.87,5.28,5.28,0,0,1-4.34,1.3l-19.84-2.79a.29.29,0,1,0-.09.57l19.83,2.94a6.08,6.08,0,0,0,5.85-2.44l.73-1,1.45-2,5.79-8.17,23.17-32.7a.6.6,0,0,0-1-.68Z" transform="translate(-1481.51 -348.26)" fill="#fff" opacity="0.63"/><path d="M1536.06,502.37l.07.05.08.06.16.13.31.3c.21.2.4.42.61.63l.55.69c.18.24.35.48.52.73a7.4,7.4,0,0,1,.47.76l.46.77.39.81a8.631,8.631,0,0,1,.38.82l.34.84a8.682,8.682,0,0,1,.31.85c.18.58.37,1.16.54,1.74l.42,1.77a2.422,2.422,0,0,0,.1.45l.08.45.14.9c.23,1.2.29,2.42.42,3.64v3.67c0,1.22-.07,2.45-.13,3.67l-.34,3.67h0a.207.207,0,0,0,.41.05l.43-3.69c.1-1.23.16-2.47.24-3.7v-3.72c-.09-1.24-.12-2.48-.32-3.71l-.13-.93-.06-.46a2.349,2.349,0,0,0-.09-.46l-.38-1.84c-.17-.6-.35-1.2-.52-1.8a6.679,6.679,0,0,0-.3-.89l-.33-.89a8.215,8.215,0,0,0-.37-.86l-.39-.86c-.15-.29-.31-.56-.46-.84a7.729,7.729,0,0,0-.49-.82c-.17-.26-.34-.53-.53-.79l-.58-.76c-.22-.24-.42-.49-.66-.72l-.35-.35-.19-.17-.1-.08-.12-.09a.58.58,0,0,0-.82.11.59.59,0,0,0,.11.83h0Z" transform="translate(-1481.51 -348.26)" fill="#fff" opacity="0.63"/><path d="M1536.57,510.08l.21,1.14.23,1.28.44,2.59.87,5.17,1.7,10.35a.323.323,0,0,0,.64-.09l-1.44-10.4-.74-5.2-.37-2.59-.2-1.3-.11-.66v-.33a1.964,1.964,0,0,0-.11-.45.58.58,0,0,0-1.12.26Z" transform="translate(-1481.51 -348.26)" fill="#fff" opacity="0.63"/><path d="M1875.87,570.13s14.23,7.88,15.4,21.22.1,68.7-28.43,82.32-66.29,10.49-80.74,9-22.47-11.31-24.26-18.08-4.68-32,10.52-40.08,31.18-20.58,47.14-32.71S1858.81,559.89,1875.87,570.13Z" transform="translate(-1481.51 -348.26)" fill="#27be89"/><path d="M1772.85,629.11s3.84.2,4.31,8.1c0,0-8.91,8-20.93,9.88-.91.14,1.26-6.16,1.58-7C1759.36,636,1764.24,633.39,1772.85,629.11Z" transform="translate(-1481.51 -348.26)" fill="#683103"/><path d="M1816.09,619.82H1808s-24.87-27.47-41.18-30.24c0,0-11.36,14.49.6,41.57a4,4,0,0,0,5.66,1.87,3.27,3.27,0,0,0,1.29-1.54l-1-23.13s21.22,18.56,24.9,22.14S1820.73,631.89,1816.09,619.82Z" transform="translate(-1481.51 -348.26)" fill="#212121"/><path d="M1737.75,677.48a30.55,30.55,0,0,1,16.62-7.27l2.64,1.62a28.8,28.8,0,0,1-4.76,5.11c-2.83,1.64-7.19,3.86-10.81,4.35S1737.4,679.63,1737.75,677.48Z" transform="translate(-1481.51 -348.26)" fill="#683103"/><path d="M1815.79,625.68l-37.94.41s-21.67,17.93-25.6,45.27c0,0-.65,2,3.26,2.35A75.231,75.231,0,0,0,1777.16,650c10.47-18.55,31.22-10.2,31.22-10.2,6.82-4.92,16.46-5.92,23.71-7.56Z" transform="translate(-1481.51 -348.26)" fill="#212121"/><path d="M1814.9,595.11s-4.09,20.47-24.1,28.57l-7.12-.84-1.68,2.68,16.7.53A45.68,45.68,0,0,0,1820.54,605C1820.79,604.49,1825,595.89,1814.9,595.11Z" transform="translate(-1481.51 -348.26)" fill="url(#a)"/><path d="M1812.71,625.34s4.64-12.62,5.64-24.89a54,54,0,0,0-5.52-4.18,1.53,1.53,0,0,1-.6-2c1.56-3.24,11-15.94,11.71-16.12,3.85-1,19.62-8.45,30.72,6.74,4.77,6.52-.94,26.59-22.57,47.37l-4.46.86Z" transform="translate(-1481.51 -348.26)" fill="#eb7500"/><path d="M1830.61,603.22s-12.91,15.28-29.41,17.51c0,0-4.26-3.89-7.43-2.5s-7.52,7.52-7.52,7.52h21.18s20-.71,30-12.86C1836.67,608.64,1834.26,606.1,1830.61,603.22Z" transform="translate(-1481.51 -348.26)" fill="url(#b)"/><path d="M1838.14,567.44l2.82,9.42a1,1,0,0,1-.4,1.16,10.53,10.53,0,0,1-9.79,1,1.55,1.55,0,0,1-1-1.32l-.67-8.2Z" transform="translate(-1481.51 -348.26)" fill="url(#c)"/><path d="M1821.6,559.82s1.39,9.76,5.14,12.76,11.06.74,13.53-6.62l-4.92-12.58Z" transform="translate(-1481.51 -348.26)" fill="url(#d)"/><path d="M1835.9,561.52a.48.48,0,0,1-.63-.38,12.519,12.519,0,0,0-1.15-3.9s.35-1.28-3.24.65-9,4.78-12.17,3.09-6.24-10,2-8.42a.48.48,0,0,0,.57-.51c-.1-1.36,0-4.5,3.22-5.51,3-.94,1.38.59,2,1.4.19.24-.25-.82,4-.2,1.45.21,3.31-3.64,6.87-2.07,2.94,1.29,3.39,3.1,3.35,4.23a.48.48,0,0,0,.68.46,2.89,2.89,0,0,1,3.73,1.1c1.92,2.4-.82,4.48-1.64,5a.5.5,0,0,0-.22.4c0,1.25-.2,6.69-2.93,9.76a.49.49,0,0,1-.81-.14l-2.1-5a.49.49,0,0,0-.6-.27Z" transform="translate(-1481.51 -348.26)" fill="#282828"/><path d="M1835.86,562.54s1.28-5.22,3.23-3.53-.51,5.43-2.74,6.14Z" transform="translate(-1481.51 -348.26)" fill="url(#e)"/><path d="M1787.32,626.93l-9.52-31.72a3.24,3.24,0,0,0-2.88-2.31l-12.85-.88a1.83,1.83,0,0,0-1.84,2.43l10.64,30.29a2.64,2.64,0,0,0,2.24,1.77l12.65,1.4Z" transform="translate(-1481.51 -348.26)" fill="#6aade5"/><path d="M1785.76,627.91h.06l27-1.36a1.21,1.21,0,1,0-.12-2.41l-27,1.36a1.21,1.21,0,0,0,.06,2.41Z" transform="translate(-1481.51 -348.26)" fill="#6aade5"/><path d="M1818.35,600.66a.21.21,0,0,0,.22-.21c0-5.63,2.15-13.11,2.17-13.18a.22.22,0,0,0-.14-.27.23.23,0,0,0-.27.15c0,.07-2.21,7.61-2.19,13.3A.21.21,0,0,0,1818.35,600.66Z" transform="translate(-1481.51 -348.26)" fill="#aa5100"/><path d="M1830.61,603.43a.25.25,0,0,0,.17-.08c0-.08,6-7.57,8-12.7a.23.23,0,0,0-.12-.28.22.22,0,0,0-.28.12c-2,5.08-7.86,12.52-7.92,12.59a.21.21,0,0,0,0,.3A.19.19,0,0,0,1830.61,603.43Z" transform="translate(-1481.51 -348.26)" fill="#aa5100"/><path d="M1838.9,614.88l.16-.06c8.53-3.65,13.79-13.83,13.85-13.94a.21.21,0,0,0-.1-.28.2.2,0,0,0-.28.09c-.06.1-5.19,10-13.48,13.66l-.88-1.24a.22.22,0,0,0-.3-.05.23.23,0,0,0,0,.3Z" transform="translate(-1481.51 -348.26)" fill="#aa5100"/><path d="M1831.12,570.17c5.79-1,7.59-7.75,7.61-7.81l-.43-.12c0,.07-1.75,6.51-7.25,7.49Z" transform="translate(-1481.51 -348.26)" fill="#3175b9"/><rect width="2.42" height="1.45" rx="0.63" transform="translate(347.96 220.835) rotate(-4.62)" fill="#3175b9"/><g clip-path="url(#f)"><path d="M350.3,221.74l.02.77.04-.01Z" fill="#3175b9"/><path d="M350.19,220.81l.14,1.93h.01l.06-1-.07-.94Z" fill="#3175b9"/><path d="M350.18,220.81l.13,1.93h.02l-.14-1.93Z" fill="#3175b9"/><path d="M350.16,220.82l.13,1.92h.02l-.13-1.93Z" fill="#3175b9"/><path d="M350.14,220.82l.14,1.93.01-.01-.13-1.92Z" fill="#3175b9"/><path d="M350.13,220.82l.13,1.93h.02l-.14-1.93Z" fill="#3175b9"/><path d="M350.11,220.82l.13,1.93h.02l-.13-1.93Z" fill="#3175b9"/><path d="M350.09,220.82l.14,1.93h.01l-.13-1.93Z" fill="#3175b9"/><path d="M350.08,220.82l.13,1.93h.02l-.14-1.93Z" fill="#3175b9"/><path d="M350.06,220.82l.13,1.93h.02l-.13-1.93Z" fill="#3175b9"/><path d="M350.04,220.82l.14,1.93h.01l-.13-1.93Z" fill="#3175b9"/><path d="M350.03,220.83l.13,1.92h.02l-.14-1.93Z" fill="#3175b9"/><path d="M350.01,220.83l.13,1.93.02-.01-.13-1.92Z" fill="#3175b9"/><path d="M349.99,220.83l.14,1.93h.01l-.13-1.93Z" fill="#3175b9"/><path d="M349.98,220.83l.13,1.93h.02l-.14-1.93Z" fill="#3175b9"/><path d="M349.96,220.83l.13,1.93h.02l-.13-1.93Z" fill="#3175b9"/><path d="M349.94,220.83l.14,1.93h.01l-.13-1.93Z" fill="#3175b9"/><path d="M349.93,220.84l.13,1.92h.02l-.14-1.93Z" fill="#3175b9"/><path d="M349.91,220.84l.13,1.92h.02l-.13-1.92Z" fill="#3175b9"/><path d="M349.89,220.84l.14,1.92h.01l-.13-1.92Z" fill="#3175b9"/><path d="M349.88,220.84l.13,1.93.02-.01-.14-1.92Z" fill="#3175b9"/><path d="M349.86,220.84l.13,1.93h.02l-.13-1.93Z" fill="#3175b9"/><path d="M349.84,220.84l.14,1.93h.01l-.13-1.93Z" fill="#3175b9"/><path d="M349.83,220.84l.13,1.93h.02l-.14-1.93Z" fill="#3175b9"/><path d="M349.81,220.84l.13,1.93h.02l-.13-1.93Z" fill="#3175b9"/><path d="M349.79,220.84l.14,1.93h.01l-.13-1.93Z" fill="#3175b9"/><path d="M349.78,220.85l.13,1.93.02-.01-.14-1.93Z" fill="#3175b9"/><path d="M349.76,220.85l.13,1.93h.02l-.13-1.93Z" fill="#3175b9"/><path d="M349.74,220.85l.14,1.93h.01l-.13-1.93Z" fill="#3175b9"/><path d="M349.73,220.85l.13,1.93h.02l-.14-1.93Z" fill="#3175b9"/><path d="M349.71,220.85l.13,1.93h.02l-.13-1.93Z" fill="#3175b9"/><path d="M349.69,220.85l.14,1.93h.01l-.13-1.93Z" fill="#3175b9"/><path d="M349.68,220.85l.13,1.93h.02l-.14-1.93Z" fill="#3175b9"/><path d="M349.66,220.86l.13,1.92h.02l-.13-1.93Z" fill="#3175b9"/><path d="M349.64,220.86l.14,1.93.01-.01-.13-1.92Z" fill="#3175b9"/><path d="M349.63,220.86l.13,1.93h.02l-.14-1.93Z" fill="#3175b9"/><path d="M349.61,220.86l.13,1.93h.02l-.13-1.93Z" fill="#3175b9"/><path d="M349.59,220.86l.14,1.93h.01l-.13-1.93Z" fill="#3175b9"/><path d="M349.58,220.86l.13,1.93h.02l-.14-1.93Z" fill="#3175b9"/><path d="M349.56,220.86l.13,1.93h.02l-.13-1.93Z" fill="#3175b9"/><path d="M349.54,220.87l.14,1.92h.01l-.13-1.93Z" fill="#3175b9"/><path d="M349.53,220.87l.13,1.92h.02l-.14-1.92Z" fill="#3175b9"/><path d="M349.51,220.87l.13,1.93.02-.01-.13-1.92Z" fill="#3175b9"/><path d="M349.49,220.87l.14,1.93h.01l-.13-1.93Z" fill="#3175b9"/><path d="M349.48,220.87l.13,1.93h.02l-.14-1.93Z" fill="#3175b9"/><path d="M349.46,220.87l.13,1.93h.02l-.13-1.93Z" fill="#3175b9"/><path d="M349.44,220.87l.14,1.93h.01l-.13-1.93Z" fill="#3175b9"/><path d="M349.43,220.88l.13,1.92h.02l-.14-1.93Z" fill="#3175b9"/><path d="M349.41,220.88l.13,1.92h.02l-.13-1.92Z" fill="#3175b9"/><path d="M349.39,220.88l.14,1.93.01-.01-.13-1.92Z" fill="#3175b9"/><path d="M349.38,220.88l.13,1.93h.02l-.14-1.93Z" fill="#3175b9"/><path d="M349.36,220.88l.13,1.93h.02l-.13-1.93Z" fill="#3175b9"/><path d="M349.34,220.88l.14,1.93h.01l-.13-1.93Z" fill="#3175b9"/><path d="M349.33,220.88l.13,1.93h.02l-.14-1.93Z" fill="#3175b9"/><path d="M349.31,220.88l.13,1.93h.02l-.13-1.93Z" fill="#3175b9"/><path d="M349.29,220.89l.14,1.92h.01l-.13-1.93Z" fill="#3175b9"/><path d="M349.28,220.89l.13,1.92h.02l-.14-1.92Z" fill="#3175b9"/><path d="M349.26,220.89l.13,1.93.02-.01-.13-1.92Z" fill="#3175b9"/><path d="M349.24,220.89l.14,1.93h.01l-.13-1.93Z" fill="#3175b9"/><path d="M349.23,220.89l.13,1.93h.02l-.14-1.93Z" fill="#3175b9"/><path d="M349.21,220.89l.13,1.93h.02l-.13-1.93Z" fill="#3175b9"/><path d="M349.19,220.89l.14,1.93h.01l-.13-1.93Z" fill="#3175b9"/><path d="M349.18,220.9l.13,1.92h.02l-.14-1.93Z" fill="#3175b9"/><path d="M349.16,220.9l.13,1.92h.02l-.13-1.92Z" fill="#3175b9"/><path d="M349.14,220.9l.14,1.93.01-.01-.13-1.92Z" fill="#3175b9"/><path d="M349.13,220.9l.13,1.93h.02l-.14-1.93Z" fill="#3175b9"/><path d="M349.11,220.9l.13,1.93h.02l-.13-1.93Z" fill="#3175b9"/><path d="M349.09,220.9l.14,1.93h.01l-.13-1.93Z" fill="#3175b9"/><path d="M349.08,220.9l.13,1.93h.02l-.14-1.93Z" fill="#3175b9"/><path d="M349.06,220.91l.13,1.92h.02l-.13-1.93Z" fill="#3175b9"/><path d="M349.04,220.91l.14,1.92h.01l-.13-1.92Z" fill="#3175b9"/><path d="M349.03,220.91l.13,1.93.02-.01-.14-1.92Z" fill="#3175b9"/><path d="M349.01,220.91l.13,1.93h.02l-.13-1.93Z" fill="#3175b9"/><path d="M348.99,220.91l.14,1.93h.01l-.13-1.93Z" fill="#3175b9"/><path d="M348.98,220.91l.13,1.93h.02l-.14-1.93Z" fill="#3175b9"/><path d="M348.96,220.91l.13,1.93h.02l-.13-1.93Z" fill="#3175b9"/><path d="M348.94,220.91l.14,1.93h.01l-.13-1.93Z" fill="#3175b9"/><path d="M348.93,220.91l.13,1.93h.02l-.14-1.93Z" fill="#3175b9"/><path d="M348.91,220.92l.13,1.92h.02l-.13-1.93Z" fill="#3175b9"/><path d="M348.89,220.92l.14,1.93.01-.01-.13-1.92Z" fill="#3175b9"/><path d="M348.88,220.92l.13,1.93h.02l-.14-1.93Z" fill="#3175b9"/><path d="M348.86,220.92l.13,1.93h.02l-.13-1.93Z" fill="#3175b9"/><path d="M348.84,220.92l.14,1.93h.01l-.13-1.93Z" fill="#3175b9"/><path d="M348.83,220.92l.13,1.93h.02l-.14-1.93Z" fill="#3175b9"/><path d="M348.81,220.93l.13,1.92h.02l-.13-1.93Z" fill="#3175b9"/><path d="M348.79,220.93l.14,1.92h.01l-.13-1.92Z" fill="#3175b9"/><path d="M348.78,220.93l.13,1.93.02-.01-.14-1.92Z" fill="#3175b9"/><path d="M348.76,220.93l.13,1.93h.02l-.13-1.93Z" fill="#3175b9"/><path d="M348.74,220.93l.14,1.93h.01l-.13-1.93Z" fill="#3175b9"/><path d="M348.73,220.93l.13,1.93h.02l-.14-1.93Z" fill="#3175b9"/><path d="M348.71,220.93l.13,1.93h.02l-.13-1.93Z" fill="#3175b9"/><path d="M348.69,220.93l.14,1.93h.01l-.13-1.93Z" fill="#3175b9"/><path d="M348.68,220.94l.13,1.92h.02l-.14-1.93Z" fill="#3175b9"/><path d="M348.66,220.94l.13,1.93.02-.01-.13-1.92Z" fill="#3175b9"/><path d="M348.64,220.94l.14,1.93h.01l-.13-1.93Z" fill="#3175b9"/><path d="M348.63,220.94l.13,1.93h.02l-.14-1.93Z" fill="#3175b9"/><path d="M348.61,220.94l.13,1.93h.02l-.13-1.93Z" fill="#3175b9"/><path d="M348.59,220.94l.14,1.93h.01l-.13-1.93Z" fill="#3175b9"/><path d="M348.58,220.94l.13,1.93h.02l-.14-1.93Z" fill="#3175b9"/><path d="M348.56,220.94l.13,1.93h.02l-.13-1.93Z" fill="#3175b9"/><path d="M348.54,220.95l.14,1.92h.01l-.13-1.93Z" fill="#3175b9"/><path d="M348.53,220.95l.13,1.93.02-.01-.14-1.92Z" fill="#3175b9"/><path d="M348.51,220.95l.13,1.93h.02l-.13-1.93Z" fill="#3175b9"/><path d="M348.49,220.95l.14,1.93h.01l-.13-1.93Z" fill="#3175b9"/><path d="M348.48,220.95l.13,1.93h.02l-.14-1.93Z" fill="#3175b9"/><path d="M348.46,220.95l.13,1.93h.02l-.13-1.93Z" fill="#3175b9"/><path d="M348.44,220.95l.14,1.93h.01l-.13-1.93Z" fill="#3175b9"/><path d="M348.43,220.96l.13,1.92h.02l-.14-1.93Z" fill="#3175b9"/><path d="M348.41,220.96l.13,1.92h.02l-.13-1.92Z" fill="#3175b9"/><path d="M348.39,220.96l.14,1.93.01-.01-.13-1.92Z" fill="#3175b9"/><path d="M348.38,220.96l.13,1.93h.02l-.14-1.93Z" fill="#3175b9"/><path d="M348.36,220.96l.13,1.93h.02l-.13-1.93Z" fill="#3175b9"/><path d="M348.34,220.96l.14,1.93h.01l-.13-1.93Z" fill="#3175b9"/><path d="M348.33,220.96l.13,1.93h.02l-.14-1.93Z" fill="#3175b9"/><path d="M348.31,220.97l.13,1.92h.02l-.13-1.93Z" fill="#3175b9"/><path d="M348.29,220.97l.14,1.93.01-.01-.13-1.92Z" fill="#3175b9"/><path d="M348.28,220.97l.13,1.93h.02l-.14-1.93Z" fill="#3175b9"/><path d="M348.26,220.97l.13,1.93h.02l-.13-1.93Z" fill="#3175b9"/><path d="M348.24,220.97l.14,1.93h.01l-.13-1.93Z" fill="#3175b9"/><path d="M348.23,220.97l.13,1.93h.02l-.14-1.93Z" fill="#3175b9"/><path d="M348.21,220.97l.13,1.93h.02l-.13-1.93Z" fill="#3175b9"/><path d="M348.19,220.97l.14,1.93h.01l-.13-1.93Z" fill="#3175b9"/><path d="M348.18,220.98l.13,1.92h.02l-.14-1.93Z" fill="#3175b9"/><path d="M348.16,220.98l.13,1.93.02-.01-.13-1.92Z" fill="#3175b9"/><path d="M348.14,220.98l.14,1.93h.01l-.13-1.93Z" fill="#3175b9"/><path d="M348.13,220.98l.13,1.93h.02l-.14-1.93Z" fill="#3175b9"/><path d="M348.11,220.98l.13,1.93h.02l-.13-1.93Z" fill="#3175b9"/><path d="M348.09,220.98l.14,1.93h.01l-.13-1.93Z" fill="#3175b9"/><path d="M348.08,220.98l.13,1.93h.02l-.14-1.93Z" fill="#3175b9"/><path d="M348.06,220.99l.13,1.92h.02l-.13-1.93Z" fill="#3175b9"/><path d="M348.04,220.99l.14,1.92h.01l-.13-1.92Z" fill="#3175b9"/><path d="M348.03,220.99l.13,1.93.02-.01-.14-1.92Z" fill="#3175b9"/><path d="M348.01,220.99l.13,1.93h.02l-.13-1.93Z" fill="#3175b9"/><path d="M347.99,220.99l.14,1.93h.01l-.13-1.93Z" fill="#3175b9"/><path d="M347.98,220.99l.13,1.93h.02l-.14-1.93Z" fill="#3175b9"/><path d="M347.96,220.99l.13,1.93h.02l-.13-1.93Z" fill="#3175b9"/><path d="M347.94,221l.14,1.92h.01l-.13-1.93Z" fill="#3175b9"/><path d="M347.93,221l.13,1.92h.02l-.14-1.92Z" fill="#3175b9"/><path d="M347.91,221l.13,1.93.02-.01-.13-1.92Z" fill="#3175b9"/><path d="M347.89,221l.14,1.93h.01l-.13-1.93Z" fill="#3175b9"/><path d="M347.88,221l.13,1.93h.02l-.14-1.93Z" fill="#3175b9"/><path d="M347.86,221l.13,1.93h.02l-.13-1.93Z" fill="#3175b9"/><path d="M347.84,221l.14,1.93h.01l-.13-1.93Z" fill="#3175b9"/><path d="M347.83,221l.13,1.93h.02l-.14-1.93Z" fill="#3175b9"/><path d="M347.81,221.01l.13,1.92h.02l-.13-1.93Z" fill="#3175b9"/><path d="M347.79,221.01l.14,1.93.01-.01-.13-1.92Z" fill="#3175b9"/><path d="M347.78,221.01l.13,1.93h.02l-.14-1.93Z" fill="#3175b9"/><path d="M347.76,221.01l.13,1.93h.02l-.13-1.93Z" fill="#3175b9"/><path d="M347.74,221.01l.14,1.93h.01l-.13-1.93Z" fill="#3175b9"/><path d="M347.73,221.01l.13,1.93h.02l-.14-1.93Z" fill="#3175b9"/><path d="M347.71,221.01l.13,1.93h.02l-.13-1.93Z" fill="#3175b9"/><path d="M347.69,221.01l.14,1.93h.01l-.13-1.93Z" fill="#3175b9"/><path d="M347.68,221.02l.31.82.08,1.08-.24.02-.14-1.93Z" fill="#3175b9"/><path d="M347.79,221.86l-.1-.65h.05Z" fill="#3175b9"/></g><path d="M1836.77,556s-4.38-8.55-10.27-8a4.21,4.21,0,0,1,3.29-.73c1.89.4,7.31,3.77,8.45,8.64C1837.2,556.51,1836.77,556,1836.77,556Z" transform="translate(-1481.51 -348.26)" fill="#3175b9"/><path d="M1837.59,555.18c3.28-.17,3.91,3.88,3.91,3.88,1,2.81.49,4.44-.41,5.39a2.55,2.55,0,0,1-4.27-.94,16.028,16.028,0,0,0-.64-1.73C1835.88,561.17,1834.3,555.34,1837.59,555.18Z" transform="translate(-1481.51 -348.26)" fill="#3175b9"/><path d="M1837.56,556.25a1.46,1.46,0,0,1,1.76.44c3,3.84,1.4,7.24.29,7.59s-2.61-5.35-2.73-6.87a1.08,1.08,0,0,1,.68-1.16Z" transform="translate(-1481.51 -348.26)" fill="#3175b9"/><path d="M1666.4,689.15l24.72-5.11a.86.86,0,0,0,.21-.07h0a1,1,0,0,0,.76-1.16l-5.58-27a1,1,0,0,0-1.16-.76l-.23.05L1662,659.86l-1.53.32a4.71,4.71,0,0,0-3.67,5.56.975.975,0,0,0,0,.1c.48,2.35,4.91,24,5.52,26.8v.16a4.7,4.7,0,0,0,5.27,3.71h.15l25.1-5.19a1,1,0,0,0,.76-1.15l-.74-3.6a1,1,0,1,0-1.91.4l.54,2.64-24,4.95a2.76,2.76,0,0,1-3.23-2,.223.223,0,0,0,0-.08v-.19a2.75,2.75,0,0,1,2.14-3.14Zm-4.4-24.49a.976.976,0,1,1,1.91-.4l4,19.43a1,1,0,1,1-1.91.39Z" transform="translate(-1481.51 -348.26)" fill="#3175b9"/><path d="M1679.46,667a.62.62,0,0,1,.2.85l-3.1,5a.62.62,0,0,1-.85.2l-2.38-1.48a.62.62,0,0,1-.2-.85.63.63,0,0,1,.86-.2l1.85,1.15,2.77-4.46a.62.62,0,0,1,.85-.21Zm4.88,1.44a6.6,6.6,0,1,1,0-.03Zm-1.21.28a15.258,15.258,0,1,1,0-.03Z" transform="translate(-1481.51 -348.26)" fill="#fff"/><path d="M1673.35,520.94a11.68,11.68,0,0,1-1.36,5.71,9.091,9.091,0,0,1-3.87,3.82,12.049,12.049,0,0,1-5.82,1.37h-9V510.57h8.81Q1673.35,510.57,1673.35,520.94Zm-6.8,0a6.08,6.08,0,0,0-.63-2.81,4.57,4.57,0,0,0-1.8-1.92,5.3,5.3,0,0,0-2.75-.68h-1.65v11.22h1.8a4.56,4.56,0,0,0,3.66-1.56,6.27,6.27,0,0,0,1.37-4.2Z" transform="translate(-1481.51 -348.26)" fill="#434444"/><path d="M1692.64,524a7.86,7.86,0,0,1-2.27,6.1,9.06,9.06,0,0,1-6.47,2.2,9.17,9.17,0,0,1-6.45-2.13,8.71,8.71,0,0,1-1.22-10.11,7,7,0,0,1,3.09-2.73,10.71,10.71,0,0,1,4.6-.94,10.35,10.35,0,0,1,4.68,1,7.271,7.271,0,0,1,3,2.76,7.58,7.58,0,0,1,1,3.86Zm-6.39,0c0-2-.79-3.08-2.38-3.08s-2.38,1.06-2.38,3.24.81,3.41,2.53,3.41,2.23-1.16,2.23-3.54Z" transform="translate(-1481.51 -348.26)" fill="#434444"/><path d="M1705.69,531.61a5.771,5.771,0,0,1-1.42.4,11.526,11.526,0,0,1-2.35.18,5.67,5.67,0,0,1-4.12-1.44,5.521,5.521,0,0,1-1.49-4.15V521h-2.4v-4.35h2.4v-3l6.22-1.72v4.71h3.16V521h-3.16v4.55c0,1.34.53,2,1.57,2a4.1,4.1,0,0,0,1.59-.32Z" transform="translate(-1481.51 -348.26)" fill="#434444"/><path d="M1720.33,531.84h-7.2l-6.86-21.27h6.86l3.23,13.1a13.5,13.5,0,0,1,.43,2.35h.16a22.045,22.045,0,0,1,.45-2.53l3.31-12.92h6.68Z" transform="translate(-1481.51 -348.26)" fill="#3276b8"/><path d="M1741.65,531.84h-7.21l-6.85-21.27h6.9l3.24,13.1a14.485,14.485,0,0,1,.43,2.35h.25a14.614,14.614,0,0,1,.46-2.53l3.16-13h6.5Z" transform="translate(-1481.51 -348.26)" fill="#3276b8"/><path d="M1770.3,531.84V515.58h-.18c-.33,1.67-.55,2.83-.73,3.46l-3.14,12.8h-6L1757,519.2c0-.31-.33-1.52-.71-3.62h-.17q.23,5.05.22,6.22v10.12h-5.63V510.57h9.6l2.91,11.56a13.586,13.586,0,0,1,.28,1.44,13.376,13.376,0,0,0,.2,1.67h0a20.189,20.189,0,0,1,.51-3.19l2.73-11.48h9.43v21.27Z" transform="translate(-1481.51 -348.26)" fill="#3276b8"/><rect width="161.25" height="5.77" transform="translate(150.31 204.46)" fill="#9fc2ef"/><rect width="71.25" height="5.77" transform="translate(150.31 217.29)" fill="#9fc2ef"/><rect width="71.25" height="5.77" transform="translate(229.69 217.16)" fill="#9fc2ef"/><rect width="161.25" height="5.77" transform="translate(150.31 230.27)" fill="#9fc2ef"/><rect width="33.16" height="5.77" transform="translate(150.31 242.61)" fill="#9fc2ef"/><rect width="33.16" height="5.77" transform="translate(191.02 242.61)" fill="#27be89"/></g></g></svg>