<svg xmlns="http://www.w3.org/2000/svg" xmlns:xlink="http://www.w3.org/1999/xlink" width="658.488" height="407" viewBox="0 0 658.488 407"><defs><linearGradient id="a" x1="-4.095" y1="6.207" x2="-4.106" y2="6.185" gradientUnits="objectBoundingBox"><stop offset="0" stop-color="#febbba"/><stop offset="1" stop-color="#ff928e"/></linearGradient><linearGradient id="b" x1="-3.055" y1="8.538" x2="-3.041" y2="8.634" xlink:href="#a"/><linearGradient id="c" x1="-17.458" y1="17.737" x2="-17.449" y2="17.815" xlink:href="#a"/><linearGradient id="d" x1="-10.863" y1="13.614" x2="-10.88" y2="13.66" xlink:href="#a"/><linearGradient id="e" x1="-82.65" y1="64.011" x2="-83.023" y2="64.467" xlink:href="#a"/><clipPath id="f"><rect width="2.42" height="1.45" rx="0.63" transform="translate(347.96 220.84) rotate(-4.62)" fill="none"/></clipPath></defs><g transform="translate(-0.002)"><path d="M658.49,407H419.72v-.13c-4.39,0-110.64-.24-120.6-.24-.4-10.54-1.33-19.65-8.65-28.21-6.69-7.81-16-12.91-25.76-16.27-35.85-12.39-73.48-2.43-109.39,4.06C118.11,372.94,77,373.06,42.67,355,22.75,344.48,5.94,326.35,1.4,304.29-5.2,272.2,12.52,242,34.64,220.21c25-24.67,53.81-39,87.16-48.46,15.87-4.5,32.55-11.74,40.27-26.32,10.36-19.54-2.24-30.38-15.49-42.43-5.16-4.7-9.54-11.45-8.09-18.28,3.39-15.89,27.38-23.76,39.14-32.6,17.8-13.37,39.2-30.46,46.48-52.12H658.49V407Z" fill="#c8e0ff"/><path d="M213.68,102.82l33.66-10.65.29-.13h0a1.36,1.36,0,0,0,.89-1.7h0L236.87,53.51a1.36,1.36,0,0,0-1.71-.89h0l-.32.1-31.58,10-2.08.66a6.59,6.59,0,0,0-4.3,8.27h0a.31.31,0,0,0,.06.13c1,3.21,10.27,32.64,11.54,36.49a1,1,0,0,0,.06.23,6.58,6.58,0,0,0,7.87,4.41h.21L250.8,102a1.36,1.36,0,0,0,.89-1.7h0l-1.55-4.9a1.37,1.37,0,0,0-2.61.82l1.14,3.6L216,110.19a3.87,3.87,0,0,1-4.79-2.36v-.11l-.09-.26a3.86,3.86,0,0,1,2.57-4.64Zm-9.61-33.45a1.37,1.37,0,0,1,2.61-.82L215.05,95a1.37,1.37,0,0,1-2.61.82Z" fill="#eb7500"/><path d="M232.68,69.82l-.75-2.39a5,5,0,0,0-6.27-3.28h0l.75,2.39a2.51,2.51,0,0,1,3.15,1.64h0l.75,2.38a5,5,0,0,0,2.79,3.07,5,5,0,0,0-.52,4.11l.76,2.39a2.49,2.49,0,0,1-1.61,3.13h0l.75,2.39a5,5,0,0,0,3.28-6.27h0L235,77a2.52,2.52,0,0,1,1.64-3.15l-.76-2.39a2.51,2.51,0,0,1-3.15-1.63Z" fill="#fff"/><path d="M218.34,74.36,217.59,72a2.51,2.51,0,0,1,1.63-3.15l-.75-2.39a5,5,0,0,0-3.28,6.27h0l.75,2.39a2.51,2.51,0,0,1-1.63,3.15l.76,2.39h0a2.49,2.49,0,0,1,3.13,1.61h0l.76,2.39A5,5,0,0,0,225.24,88h0l-.75-2.39a2.51,2.51,0,0,1-3.15-1.63l-.76-2.39a5,5,0,0,0-2.78-3.07,4.93,4.93,0,0,0,.51-4.1Z" fill="#fff"/><path d="M21.49,286.33,59.23,280a2,2,0,0,0,.33-.09h0a1.47,1.47,0,0,0,1.21-1.69h0l-7-41.27a1.47,1.47,0,0,0-1.69-1.21h0l-.36.06-35.41,6-2.33.39a7.17,7.17,0,0,0-5.86,8.24v.14c.6,3.59,6.12,36.58,6.9,40.91a1,1,0,0,0,0,.25,7.15,7.15,0,0,0,7.79,5.92H23l38.32-6.46a1.48,1.48,0,0,0,1.21-1.71h0l-.92-5.49a1.48,1.48,0,0,0-2.92.49h0l.68,4-36.64,6.18A4.17,4.17,0,0,1,18,291.35v-.12a.93.93,0,0,0-.05-.29A4.17,4.17,0,0,1,21.49,286.33ZM16.21,249a1.48,1.48,0,0,1,2.92-.49h0l5,29.66a1.48,1.48,0,0,1-2.92.49Z" fill="#27be89"/><path d="M29,255.51l18.76-2.95-3,4.07a1.091,1.091,0,0,0,1.64,1.44l.12-.17,2.69-3.7,1.8-2.48a1.07,1.07,0,0,0-.23-1.5h0l-6.18-4.51a1.05,1.05,0,0,0-.82-.2,1.08,1.08,0,0,0-1,1.17,1.06,1.06,0,0,0,.52.83l4.08,3-18.82,3a1.083,1.083,0,1,0,.34,2.14H29Z" fill="#fff"/><path d="M48.21,262.91l-18.72,2.94,3-4.06a1.084,1.084,0,1,0-1.75-1.28l-2.69,3.71-1.8,2.48a1.08,1.08,0,0,0,.22,1.5h0l6.18,4.51a1.09,1.09,0,1,0,1.43-1.64.61.61,0,0,0-.16-.12l-4.07-3,18.82-3a1.083,1.083,0,1,0-.34-2.14h-.05Z" fill="#fff"/><path d="M366.39,22.5c5.52,7.3,10.58,15.18,13.31,24,1.48,5,2.36,10.69.25,15.68-2.73,7.94-8.19,14.65-14.29,20.28A29.56,29.56,0,0,1,362.44,70a24.11,24.11,0,0,1,.51-5.62,87.43,87.43,0,0,1,4.29-15.06,69.678,69.678,0,0,0-7.32,14.43,16,16,0,0,0-1.11,5.92,37.17,37.17,0,0,0,3.24,12.76,26,26,0,0,1-11.39-12.49A17.46,17.46,0,0,1,349,63.18c0-4.88,2-9.49,4.42-13.62,4.35-9,8.64-18,13-27h0" fill="#9fc2ef"/><path d="M403.81,85.74A123.34,123.34,0,0,1,431,93.93c-10.2,8.89-20.43,17.72-30.61,26.63-5,5.26-11.31,10.09-18.76,10.89a34.32,34.32,0,0,1-26.42-10.87,47.83,47.83,0,0,0,17.69-.24,21.35,21.35,0,0,0,6.92-3.35,91.181,91.181,0,0,0,16.28-14.81,113.619,113.619,0,0,1-18.53,11.18,29.679,29.679,0,0,1-6.31,2.32,38.71,38.71,0,0,1-17.43.19c5.19-10,12-19.59,21.44-26a22.8,22.8,0,0,1,10-4.25,54,54,0,0,1,18.55.09h0" fill="#9fc2ef"/><path d="M324.81,49.55A132.091,132.091,0,0,1,340.29,68a62.77,62.77,0,0,1,8.78,18.13c1.16,4.39,1.76,9.14.42,13.57-2.36,11.14-8.68,21-16,29.58a39.48,39.48,0,0,1-6.6-17.91c-.33-8.82,1.33-17.58,3.3-26.14a98.648,98.648,0,0,0-4.58,10.5,58.807,58.807,0,0,0-3.52,13.68,21,21,0,0,0,1.05,8.14,52.92,52.92,0,0,0,5.5,12.23,34.42,34.42,0,0,1-17-14c-.8-1.25-1.44-2.6-2.11-3.92a22.559,22.559,0,0,1-1.8-6.64,38.34,38.34,0,0,1,4-17.76c4.37-12.63,8.66-25.28,13-37.92h0" fill="#9fc2ef"/><path d="M79.86,291.93a5.56,5.56,0,0,0,5.55,5.54H385.12a5.55,5.55,0,0,0,5.54-5.54l2.5-172.23c0-3-3.59-9-10.17-8.55L90.08,103.57a14,14,0,0,0-14.33,13.66q0,.31,0,.63Z" fill="#727272"/><path d="M85.34,286.62a5.25,5.25,0,0,0,5.24,5.25H377.89a5.26,5.26,0,0,0,5.25-5.25l2.35-156.36c-.28-9.41-8.53-12.79-13.53-12.59L91.23,110.14a9.8,9.8,0,0,0-10.07,9.54,4.34,4.34,0,0,0,0,.51Z" fill="#fff"/><rect width="353.35" height="15.13" rx="2.62" transform="translate(55.55 296.63)" fill="#727272"/><path d="M408.9,304.2H55.55v-4.95a2.62,2.62,0,0,1,2.62-2.62H406.28a2.62,2.62,0,0,1,2.62,2.62Z" fill="#b7b7b7"/><path d="M341.09,272.81H118.31a13.48,13.48,0,0,1-13.5-13.48V151.11a13.5,13.5,0,0,1,13.52-13.5h.2l222.78,3.61a13.52,13.52,0,0,1,13.29,13.5V259.31a13.5,13.5,0,0,1-13.5,13.5Z" fill="#c8e0ff"/><path d="M111.07,81.86l8.8,18a9.41,9.41,0,0,1,.2,7.79c-2.68,6.29-9.89,18.09-28.21,26.82-18.6,8.87-30.68,5.53-36.1,2.87a10,10,0,0,1-4.54-4.51l-9.5-19.05Z" fill="#3175b9"/><path d="M64.81,65.15l57.68,5.19a3.71,3.71,0,0,1,3.33,4.07,3.63,3.63,0,0,1-.77,1.93c-9.14,11.31-29.82,37.54-36.84,51.84a3.74,3.74,0,0,1-4.12,2L24.37,117.5a3.74,3.74,0,0,1-2.88-4.42,3.79,3.79,0,0,1,.72-1.53c9-11.44,32-40.17,40.17-45.82a3.73,3.73,0,0,1,2.43-.58Z" fill="#3175b9"/><path d="M71.25,93.24S45.49,117.1,44,121.74s6.59,22.94,6.59,22.94c-1.6,17.06,1,34.78,10.46,42.54,0,0,5.63-23.08-.32-31.27s-8.27-11.56-8.27-11.56-7.53-19.72-6.89-22.85C45.57,121.52,74,94,71.25,93.24Z" fill="#3175b9"/><path d="M116,76.79,93.12,109.67l-5.73,8.21L86,119.94l-.72,1a5.39,5.39,0,0,1-.78.87,5.3,5.3,0,0,1-4.34,1.3l-19.84-2.79a.29.29,0,1,0-.15.56h.06L80,123.83a6.07,6.07,0,0,0,5.85-2.44l.73-1,1.45-2,5.79-8.17L117,77.52a.61.61,0,0,0-.16-.84.6.6,0,0,0-.84.16Z" fill="#fff" opacity="0.63"/><path d="M54.55,154.11h.07l.08.06.16.13.31.3c.21.2.4.42.61.63l.55.69c.18.24.35.48.52.73a7.387,7.387,0,0,1,.47.76l.46.77.39.81a8.672,8.672,0,0,1,.38.82l.34.84a8.639,8.639,0,0,1,.31.85c.18.58.37,1.16.54,1.74l.42,1.77a2.42,2.42,0,0,0,.1.45l.08.45.14.9c.23,1.2.29,2.42.42,3.64v3.67c0,1.22-.07,2.45-.13,3.67l-.34,3.67h0a.21.21,0,0,0,.19.22.22.22,0,0,0,.22-.17l.43-3.69c.1-1.23.16-2.47.24-3.7V170.4c-.09-1.24-.12-2.48-.32-3.71l-.13-.93L61,165.3a3.4,3.4,0,0,0-.09-.46L60.53,163c-.17-.6-.35-1.2-.52-1.8a7.158,7.158,0,0,0-.3-.89l-.33-.89a9.279,9.279,0,0,0-.37-.86l-.39-.86c-.15-.29-.31-.56-.46-.84a8.45,8.45,0,0,0-.49-.82c-.17-.26-.34-.53-.53-.79l-.58-.76c-.22-.24-.42-.49-.66-.72l-.35-.35-.19-.17-.1-.08-.12-.09a.59.59,0,0,0-.82.1h0a.59.59,0,0,0,.11.83h0Z" fill="#fff" opacity="0.63"/><path d="M55.06,161.82l.21,1.14.23,1.28.44,2.59.87,5.17,1.7,10.35a.31.31,0,0,0,.36.27.32.32,0,0,0,.28-.36l-1.44-10.4-.74-5.2-.37-2.59-.2-1.3-.11-.66v-.33a2.46,2.46,0,0,0-.11-.45.59.59,0,0,0-.75-.34.58.58,0,0,0-.37.6Z" fill="#fff" opacity="0.63"/><path d="M394.36,221.87s14.23,7.88,15.4,21.22.1,68.7-28.43,82.32-66.29,10.49-80.74,9-22.47-11.31-24.26-18.08-4.68-32,10.52-40.08S318,255.67,334,243.54,377.3,211.63,394.36,221.87Z" fill="#27be89"/><path d="M291.34,280.85s3.84.2,4.31,8.1c0,0-8.91,8-20.93,9.88-.91.14,1.26-6.16,1.58-7C277.85,287.74,282.73,285.13,291.34,280.85Z" fill="#683103"/><path d="M334.58,271.56h-8.09s-24.87-27.47-41.18-30.24c0,0-11.36,14.49.6,41.57a4,4,0,0,0,5.26,2.07l.4-.2a3.29,3.29,0,0,0,1.29-1.54l-1-23.13s21.22,18.56,24.9,22.14S339.22,283.63,334.58,271.56Z" fill="#212121"/><path d="M256.24,329.22A30.49,30.49,0,0,1,272.86,322l2.64,1.62a28.839,28.839,0,0,1-4.76,5.11c-2.83,1.64-7.19,3.86-10.81,4.35S255.89,331.37,256.24,329.22Z" fill="#683103"/><path d="M334.28,277.42l-37.94.41s-21.67,17.93-25.6,45.27c0,0-.65,2,3.26,2.35a75.21,75.21,0,0,0,21.65-23.71c10.47-18.55,31.22-10.2,31.22-10.2,6.82-4.92,16.46-5.92,23.71-7.56Z" fill="#212121"/><path d="M333.39,246.85s-4.09,20.47-24.1,28.57l-7.12-.84-1.68,2.68,16.7.53A45.68,45.68,0,0,0,339,256.74C339.28,256.23,343.49,247.63,333.39,246.85Z" fill="url(#a)"/><path d="M331.2,277.08s4.64-12.62,5.64-24.89a53.33,53.33,0,0,0-5.52-4.18,1.52,1.52,0,0,1-.6-2c1.56-3.24,11-15.94,11.71-16.12,3.85-1,19.62-8.45,30.72,6.74,4.77,6.52-.94,26.59-22.57,47.37l-4.46.86Z" fill="#eb7500"/><path d="M349.1,255s-12.91,15.28-29.41,17.51c0,0-4.26-3.89-7.43-2.5s-7.52,7.52-7.52,7.52h21.18s20-.71,30-12.86C355.16,260.38,352.75,257.84,349.1,255Z" fill="url(#b)"/><path d="M356.63,219.18l2.82,9.42a1,1,0,0,1-.4,1.16,10.52,10.52,0,0,1-9.79,1,1.54,1.54,0,0,1-1-1.32l-.67-8.2Z" fill="url(#c)"/><path d="M340.09,211.56s1.39,9.76,5.14,12.76,11.06.74,13.53-6.62l-4.92-12.58Z" fill="url(#d)"/><path d="M354.39,213.26a.48.48,0,0,1-.61-.3.19.19,0,0,1,0-.08,12.7,12.7,0,0,0-1.15-3.9s.35-1.28-3.24.65-9,4.78-12.17,3.09-6.24-10,2-8.42a.48.48,0,0,0,.56-.38.572.572,0,0,0,0-.13c-.1-1.36,0-4.5,3.22-5.51,3-.94,1.38.59,2,1.4.19.24-.25-.82,4-.2,1.45.21,3.31-3.64,6.87-2.07,2.94,1.29,3.39,3.1,3.35,4.23a.47.47,0,0,0,.45.5.45.45,0,0,0,.23,0,2.9,2.9,0,0,1,3.73,1.1c1.92,2.4-.82,4.48-1.64,5a.47.47,0,0,0-.22.4c0,1.25-.2,6.69-2.93,9.76a.49.49,0,0,1-.69,0,.38.38,0,0,1-.12-.17l-2.1-5a.49.49,0,0,0-.6-.27Z" fill="#282828"/><path d="M354.35,214.28s1.28-5.22,3.23-3.53-.51,5.43-2.74,6.14Z" fill="url(#e)"/><path d="M305.81,278.67,296.29,247a3.23,3.23,0,0,0-2.88-2.31l-12.85-.88a1.83,1.83,0,0,0-1.94,1.71,1.75,1.75,0,0,0,.1.72l10.64,30.29a2.63,2.63,0,0,0,2.24,1.77l12.65,1.4Z" fill="#6aade5"/><path d="M304.25,279.65h.06l27-1.36a1.21,1.21,0,1,0,.06-2.42h-.18l-27,1.36a1.21,1.21,0,0,0,.06,2.41Z" fill="#6aade5"/><path d="M336.84,252.4a.21.21,0,0,0,.22-.2h0c0-5.63,2.15-13.11,2.17-13.18a.214.214,0,0,0-.41-.12c0,.07-2.21,7.61-2.19,13.3a.21.21,0,0,0,.21.2Z" fill="#aa5100"/><path d="M349.1,255.17a.25.25,0,0,0,.17-.08c0-.08,6-7.57,8-12.7a.24.24,0,0,0-.12-.28.22.22,0,0,0-.28.12c-2,5.08-7.86,12.52-7.92,12.59a.22.22,0,0,0,0,.3h0a.17.17,0,0,0,.15.05Z" fill="#aa5100"/><path d="M357.39,266.62l.16-.06c8.53-3.65,13.79-13.83,13.85-13.94a.22.22,0,0,0-.1-.28h0a.2.2,0,0,0-.27.08h0c-.06.1-5.19,10-13.48,13.66l-.88-1.24a.2.2,0,1,0-.3.25Z" fill="#aa5100"/><path d="M349.61,221.91c5.79-1,7.59-7.75,7.61-7.81l-.43-.12c0,.07-1.75,6.51-7.25,7.49Z" fill="#3175b9"/><rect width="2.42" height="1.45" rx="0.63" transform="translate(347.96 220.84) rotate(-4.62)" fill="#3175b9"/><g clip-path="url(#f)"><path d="M350.3,221.74v.77h0Z" fill="#3175b9"/><path d="M350.19,220.81l.14,1.93h0l.06-1-.07-.94Z" fill="#3175b9"/><path d="M350.18,220.81l.13,1.93h0l-.14-1.93Z" fill="#3175b9"/><path d="M350.16,220.82l.13,1.92h0l-.13-1.93Z" fill="#3175b9"/><path d="M350.14,220.82l.14,1.93h0l-.13-1.92Z" fill="#3175b9"/><path d="M350.13,220.82l.13,1.93h0l-.14-1.93Z" fill="#3175b9"/><path d="M350.11,220.82l.13,1.93h0Z" fill="#3175b9"/><path d="M350.09,220.82l.14,1.93h0l-.13-1.93Z" fill="#3175b9"/><path d="M350.08,220.82l.13,1.93h0l-.14-1.93Z" fill="#3175b9"/><path d="M350.06,220.82l.13,1.93h0Z" fill="#3175b9"/><path d="M350,220.82l.14,1.93h0l-.13-1.93Z" fill="#3175b9"/><path d="M350,220.83l.13,1.92h0l-.14-1.93Z" fill="#3175b9"/><path d="M350,220.83l.13,1.93h0l-.13-1.92Z" fill="#3175b9"/><path d="M350,220.83l.14,1.93h0l-.13-1.93Z" fill="#3175b9"/><path d="M350,220.83l.13,1.93h0l-.14-1.93Z" fill="#3175b9"/><path d="M350,220.83l.13,1.93h0Z" fill="#3175b9"/><path d="M349.94,220.83l.14,1.93h0l-.13-1.93Z" fill="#3175b9"/><path d="M349.93,220.84l.13,1.92h0l-.14-1.93Z" fill="#3175b9"/><path d="M349.91,220.84l.13,1.92h0Z" fill="#3175b9"/><path d="M349.89,220.84l.14,1.92h0l-.13-1.92Z" fill="#3175b9"/><path d="M349.88,220.84l.13,1.93h0l-.14-1.92Z" fill="#3175b9"/><path d="M349.86,220.84l.13,1.93h0Z" fill="#3175b9"/><path d="M349.84,220.84l.14,1.93h0l-.13-1.93Z" fill="#3175b9"/><path d="M349.83,220.84l.13,1.93h0l-.14-1.93Z" fill="#3175b9"/><path d="M349.81,220.84l.13,1.93h0Z" fill="#3175b9"/><path d="M349.79,220.84l.14,1.93h0l-.13-1.93Z" fill="#3175b9"/><path d="M349.78,220.85l.13,1.93h0l-.14-1.93Z" fill="#3175b9"/><path d="M349.76,220.85l.13,1.93h0Z" fill="#3175b9"/><path d="M349.74,220.85l.14,1.93h0l-.13-1.93Z" fill="#3175b9"/><path d="M349.73,220.85l.13,1.93h0l-.14-1.93Z" fill="#3175b9"/><path d="M349.71,220.85l.13,1.93h0Z" fill="#3175b9"/><path d="M349.69,220.85l.14,1.93h0l-.13-1.93Z" fill="#3175b9"/><path d="M349.68,220.85l.13,1.93h0l-.14-1.93Z" fill="#3175b9"/><path d="M349.66,220.86l.13,1.92h0l-.13-1.93Z" fill="#3175b9"/><path d="M349.64,220.86l.14,1.93h0l-.13-1.92Z" fill="#3175b9"/><path d="M349.63,220.86l.13,1.93h0l-.14-1.93Z" fill="#3175b9"/><path d="M349.61,220.86l.13,1.93h0Z" fill="#3175b9"/><path d="M349.59,220.86l.14,1.93h0l-.13-1.93Z" fill="#3175b9"/><path d="M349.58,220.86l.13,1.93h0l-.14-1.93Z" fill="#3175b9"/><path d="M349.56,220.86l.13,1.93h0Z" fill="#3175b9"/><path d="M349.54,220.87l.14,1.92h0l-.13-1.93Z" fill="#3175b9"/><path d="M349.53,220.87l.13,1.92h0l-.14-1.92Z" fill="#3175b9"/><path d="M349.51,220.87l.13,1.93h0l-.13-1.92Z" fill="#3175b9"/><path d="M349.49,220.87l.14,1.93h0l-.13-1.93Z" fill="#3175b9"/><path d="M349.48,220.87l.13,1.93h0l-.14-1.93Z" fill="#3175b9"/><path d="M349.46,220.87l.13,1.93h0Z" fill="#3175b9"/><path d="M349.44,220.87l.14,1.93h0l-.13-1.93Z" fill="#3175b9"/><path d="M349.43,220.88l.13,1.92h0l-.14-1.93Z" fill="#3175b9"/><path d="M349.41,220.88l.13,1.92h0Z" fill="#3175b9"/><path d="M349.39,220.88l.14,1.93h0l-.13-1.92Z" fill="#3175b9"/><path d="M349.38,220.88l.13,1.93h0l-.14-1.93Z" fill="#3175b9"/><path d="M349.36,220.88l.13,1.93h0Z" fill="#3175b9"/><path d="M349.34,220.88l.14,1.93h0l-.13-1.93Z" fill="#3175b9"/><path d="M349.33,220.88l.13,1.93h0l-.14-1.93Z" fill="#3175b9"/><path d="M349.31,220.88l.13,1.93h0Z" fill="#3175b9"/><path d="M349.29,220.89l.14,1.92h0l-.13-1.93Z" fill="#3175b9"/><path d="M349.28,220.89l.13,1.92h0l-.14-1.92Z" fill="#3175b9"/><path d="M349.26,220.89l.13,1.93h0l-.13-1.92Z" fill="#3175b9"/><path d="M349.24,220.89l.14,1.93h0l-.13-1.93Z" fill="#3175b9"/><path d="M349.23,220.89l.13,1.93h0l-.14-1.93Z" fill="#3175b9"/><path d="M349.21,220.89l.13,1.93h0Z" fill="#3175b9"/><path d="M349.19,220.89l.14,1.93h0l-.13-1.93Z" fill="#3175b9"/><path d="M349.18,220.9l.13,1.92h0l-.14-1.93Z" fill="#3175b9"/><path d="M349.16,220.9l.13,1.92h0Z" fill="#3175b9"/><path d="M349.14,220.9l.14,1.93h0l-.13-1.92Z" fill="#3175b9"/><path d="M349.13,220.9l.13,1.93h0l-.14-1.93Z" fill="#3175b9"/><path d="M349.11,220.9l.13,1.93h0Z" fill="#3175b9"/><path d="M349.09,220.9l.14,1.93h0l-.13-1.93Z" fill="#3175b9"/><path d="M349.08,220.9l.13,1.93h0l-.14-1.93Z" fill="#3175b9"/><path d="M349.06,220.91l.13,1.92h0l-.13-1.93Z" fill="#3175b9"/><path d="M349,220.91l.14,1.92h0l-.13-1.92Z" fill="#3175b9"/><path d="M349,220.91l.13,1.93h0l-.14-1.92Z" fill="#3175b9"/><path d="M349,220.91l.13,1.93h0Z" fill="#3175b9"/><path d="M349,220.91l.14,1.93h0l-.13-1.93Z" fill="#3175b9"/><path d="M349,220.91l.13,1.93h0l-.14-1.93Z" fill="#3175b9"/><path d="M349,220.91l.13,1.93h0Z" fill="#3175b9"/><path d="M348.94,220.91l.14,1.93h0l-.13-1.93Z" fill="#3175b9"/><path d="M348.93,220.91l.13,1.93h0l-.14-1.93Z" fill="#3175b9"/><path d="M348.91,220.92l.13,1.92h0l-.13-1.93Z" fill="#3175b9"/><path d="M348.89,220.92l.14,1.93h0l-.13-1.92Z" fill="#3175b9"/><path d="M348.88,220.92l.13,1.93h0l-.14-1.93Z" fill="#3175b9"/><path d="M348.86,220.92l.13,1.93h0Z" fill="#3175b9"/><path d="M348.84,220.92l.14,1.93h0l-.13-1.93Z" fill="#3175b9"/><path d="M348.83,220.92l.13,1.93h0l-.14-1.93Z" fill="#3175b9"/><path d="M348.81,220.93l.13,1.92h0l-.13-1.93Z" fill="#3175b9"/><path d="M348.79,220.93l.14,1.92h0l-.13-1.92Z" fill="#3175b9"/><path d="M348.78,220.93l.13,1.93h0l-.14-1.92Z" fill="#3175b9"/><path d="M348.76,220.93l.13,1.93h0Z" fill="#3175b9"/><path d="M348.74,220.93l.14,1.93h0l-.13-1.93Z" fill="#3175b9"/><path d="M348.73,220.93l.13,1.93h0l-.14-1.93Z" fill="#3175b9"/><path d="M348.71,220.93l.13,1.93h0Z" fill="#3175b9"/><path d="M348.69,220.93l.14,1.93h0l-.13-1.93Z" fill="#3175b9"/><path d="M348.68,220.94l.13,1.92h0l-.14-1.93Z" fill="#3175b9"/><path d="M348.66,220.94l.13,1.93h0l-.13-1.92Z" fill="#3175b9"/><path d="M348.64,220.94l.14,1.93h0l-.13-1.93Z" fill="#3175b9"/><path d="M348.63,220.94l.13,1.93h0l-.14-1.93Z" fill="#3175b9"/><path d="M348.61,220.94l.13,1.93h0Z" fill="#3175b9"/><path d="M348.59,220.94l.14,1.93h0l-.13-1.93Z" fill="#3175b9"/><path d="M348.58,220.94l.13,1.93h0l-.14-1.93Z" fill="#3175b9"/><path d="M348.56,220.94l.13,1.93h0Z" fill="#3175b9"/><path d="M348.54,221l.14,1.92h0l-.13-1.93Z" fill="#3175b9"/><path d="M348.53,221l.13,1.93h0l-.14-1.92Z" fill="#3175b9"/><path d="M348.51,221l.13,1.93h0Z" fill="#3175b9"/><path d="M348.49,221l.14,1.93h0L348.5,221Z" fill="#3175b9"/><path d="M348.48,221l.13,1.93h0l-.14-1.93Z" fill="#3175b9"/><path d="M348.46,221l.13,1.93h0Z" fill="#3175b9"/><path d="M348.44,221l.14,1.93h0l-.13-1.93Z" fill="#3175b9"/><path d="M348.43,221l.13,1.92h0l-.14-1.93Z" fill="#3175b9"/><path d="M348.41,221l.13,1.92h0Z" fill="#3175b9"/><path d="M348.39,221l.14,1.93h0l-.13-1.92Z" fill="#3175b9"/><path d="M348.38,221l.13,1.93h0l-.14-1.93Z" fill="#3175b9"/><path d="M348.36,221l.13,1.93h0Z" fill="#3175b9"/><path d="M348.34,221l.14,1.93h0l-.13-1.93Z" fill="#3175b9"/><path d="M348.33,221l.13,1.93h0l-.14-1.93Z" fill="#3175b9"/><path d="M348.31,221l.13,1.92h0l-.13-1.93Z" fill="#3175b9"/><path d="M348.29,221l.14,1.93h0l-.13-1.92Z" fill="#3175b9"/><path d="M348.28,221l.13,1.93h0l-.14-1.93Z" fill="#3175b9"/><path d="M348.26,221l.13,1.93h0Z" fill="#3175b9"/><path d="M348.24,221l.14,1.93h0l-.13-1.93Z" fill="#3175b9"/><path d="M348.23,221l.13,1.93h0l-.14-1.93Z" fill="#3175b9"/><path d="M348.21,221l.13,1.93h0Z" fill="#3175b9"/><path d="M348.19,221l.14,1.93h0L348.2,221Z" fill="#3175b9"/><path d="M348.18,221l.13,1.92h0l-.14-1.93Z" fill="#3175b9"/><path d="M348.16,221l.13,1.93h0l-.13-1.92Z" fill="#3175b9"/><path d="M348.14,221l.14,1.93h0l-.13-1.93Z" fill="#3175b9"/><path d="M348.13,221l.13,1.93h0l-.14-1.93Z" fill="#3175b9"/><path d="M348.11,221l.13,1.93h0Z" fill="#3175b9"/><path d="M348.09,221l.14,1.93h0L348.1,221Z" fill="#3175b9"/><path d="M348.08,221l.13,1.93h0l-.14-1.93Z" fill="#3175b9"/><path d="M348.06,221l.13,1.92h0l-.13-1.93Z" fill="#3175b9"/><path d="M348,221l.14,1.92h0l-.13-1.92Z" fill="#3175b9"/><path d="M348,221l.13,1.93h0Z" fill="#3175b9"/><path d="M348,221l.13,1.93h0Z" fill="#3175b9"/><path d="M348,221l.14,1.93h0Z" fill="#3175b9"/><path d="M348,221l.13,1.93h0Z" fill="#3175b9"/><path d="M348,221l.13,1.93h0Z" fill="#3175b9"/><path d="M347.94,221l.14,1.92h0L348,221Z" fill="#3175b9"/><path d="M347.93,221l.13,1.92h0l-.14-1.92Z" fill="#3175b9"/><path d="M347.91,221l.13,1.93h0l-.13-1.92Z" fill="#3175b9"/><path d="M347.89,221l.14,1.93h0L347.9,221Z" fill="#3175b9"/><path d="M347.88,221l.13,1.93h0l-.14-1.93Z" fill="#3175b9"/><path d="M347.86,221l.13,1.93h0Z" fill="#3175b9"/><path d="M347.84,221l.14,1.93h0l-.13-1.93Z" fill="#3175b9"/><path d="M347.83,221l.13,1.93h0l-.14-1.93Z" fill="#3175b9"/><path d="M347.81,221l.13,1.92h0l-.13-1.93Z" fill="#3175b9"/><path d="M347.79,221l.14,1.93h0l-.13-1.92Z" fill="#3175b9"/><path d="M347.78,221l.13,1.93h0l-.14-1.93Z" fill="#3175b9"/><path d="M347.76,221l.13,1.93h0Z" fill="#3175b9"/><path d="M347.74,221l.14,1.93h0l-.13-1.93Z" fill="#3175b9"/><path d="M347.73,221l.13,1.93h0l-.14-1.93Z" fill="#3175b9"/><path d="M347.71,221l.13,1.93h0Z" fill="#3175b9"/><path d="M347.69,221l.14,1.93h0L347.7,221Z" fill="#3175b9"/><path d="M347.68,221l.31.82.08,1.08h-.24l-.14-1.93Z" fill="#3175b9"/><path d="M347.79,221.86l-.1-.65h.05Z" fill="#3175b9"/></g><path d="M355.26,207.74s-4.38-8.55-10.27-8a4.2,4.2,0,0,1,3.29-.73c1.89.4,7.31,3.77,8.45,8.64C355.69,208.25,355.26,207.74,355.26,207.74Z" fill="#3175b9"/><path d="M356.08,206.92c3.28-.17,3.91,3.88,3.91,3.88,1,2.81.49,4.44-.41,5.39a2.55,2.55,0,0,1-4.27-.94,16.993,16.993,0,0,0-.64-1.73C354.37,212.91,352.79,207.08,356.08,206.92Z" fill="#3175b9"/><path d="M356.05,208a1.46,1.46,0,0,1,1.76.44c3,3.84,1.4,7.24.29,7.59s-2.61-5.35-2.73-6.87A1.08,1.08,0,0,1,356.05,208Z" fill="#3175b9"/><path d="M184.89,340.89l24.72-5.11a.86.86,0,0,0,.21-.07h0a1,1,0,0,0,.76-1.16l-5.58-27a1,1,0,0,0-1.16-.76h-.23l-23.12,4.76-1.53.32a4.71,4.71,0,0,0-3.67,5.56h0v.1c.48,2.35,4.91,24,5.52,26.8v.16a4.7,4.7,0,0,0,5.27,3.71h.15l25.1-5.19a1,1,0,0,0,.76-1.15l-.74-3.6a1,1,0,1,0-1.91.43l.54,2.64-24,4.95a2.75,2.75,0,0,1-3.23-2V344a2.75,2.75,0,0,1,2.14-3.14Zm-4.4-24.49a1,1,0,1,1,1.9-.44h0l4,19.43a1,1,0,1,1-1.91.39Z" fill="#3175b9"/><path d="M198,318.74a.62.62,0,0,1,.2.85l-3.1,5a.62.62,0,0,1-.85.2l-2.38-1.48a.62.62,0,0,1-.2-.85.63.63,0,0,1,.86-.2l1.85,1.15L197.1,319a.62.62,0,0,1,.9-.26Zm4.88,1.44a6.59,6.59,0,1,1-1.923-4.673A6.6,6.6,0,0,1,202.88,320.18Zm-1.21.28a15.26,15.26,0,1,1-15.24-15.27A15.26,15.26,0,0,1,201.67,320.46Z" fill="#fff"/><rect width="71.25" height="5.77" transform="translate(150.31 217.29)" fill="#9fc2ef"/><rect width="71.25" height="5.77" transform="translate(229.69 217.16)" fill="#9fc2ef"/><rect width="161.25" height="5.77" transform="translate(150.31 230.27)" fill="#9fc2ef"/><rect width="33.16" height="5.77" transform="translate(150.31 242.61)" fill="#9fc2ef"/><rect width="33.16" height="5.77" transform="translate(191.02 242.61)" fill="#27be89"/><g transform="translate(-0.013 -15.772)"><g transform="translate(-51.416 1834.681)"><g transform="translate(165.575 -1689.965)"><path d="M796.3-1687.491a11.553,11.553,0,0,1,1.785-2.474c.555,1.406,1.063,2.829,1.653,4.22a2.431,2.431,0,0,1,.061,1.884,3.325,3.325,0,0,1-1.831,1.731,3.832,3.832,0,0,0,.568-2,7.881,7.881,0,0,0-.834-2.294,11.406,11.406,0,0,1,.365,2.427,3.836,3.836,0,0,1-.578,1.806,6.855,6.855,0,0,1-1.68-3.108,3.8,3.8,0,0,1,.491-2.2h0" transform="translate(-771.116 1689.965)" fill="#3773c2"/><path d="M930.4-1616.521a18.377,18.377,0,0,1,7.374-2.9c-.656,2.492-1.346,4.976-2,7.471a6.241,6.241,0,0,1-1.821,3.78,6.622,6.622,0,0,1-5.375,1.123,9.792,9.792,0,0,0,2.758-1.921,4.721,4.721,0,0,0,.878-1.591,18.339,18.339,0,0,0,.883-3.746,19.8,19.8,0,0,1-2.237,4.454,7.642,7.642,0,0,1-3,2.2,13.119,13.119,0,0,1,.634-6.492,5.355,5.355,0,0,1,1.9-2.379h0" transform="translate(-897.905 1622.182)" fill="#3773c2"/><path d="M540.237-1573.626a28.482,28.482,0,0,1,8.745,4.459,8.453,8.453,0,0,1,3.211,4.6,18.288,18.288,0,0,1-.187,8.877,10.519,10.519,0,0,1-3.452-3.066,8.584,8.584,0,0,1-.974-1.769,31.729,31.729,0,0,1-1.734-5.325,24.85,24.85,0,0,0,.707,5.745,5.835,5.835,0,0,0,.853,1.979,13.248,13.248,0,0,0,3.514,3.14,9.277,9.277,0,0,1-5.875-1.432,6.251,6.251,0,0,1-1.839-1.665,9.608,9.608,0,0,1-1.409-4.926c-.51-3.541-1.041-7.08-1.56-10.62h0" transform="translate(-525.575 1578.179)" fill="#3773c2"/><path d="M312.132-1539.4a18.266,18.266,0,0,1,4.345,2.053,6.5,6.5,0,0,1,2.356,2.571,10.223,10.223,0,0,1,.07,5.705,6.2,6.2,0,0,1-2.172-2.04,16.621,16.621,0,0,1-1.378-3.756,12.127,12.127,0,0,0,.663,3.96,6.54,6.54,0,0,0,2.252,2.23,5.3,5.3,0,0,1-4.121-1.409,5.143,5.143,0,0,1-1.133-3.273c-.281-2.015-.59-4.027-.882-6.041h0" transform="translate(-306.397 1545.292)" fill="#3773c2"/><path d="M1198.269-1520.375a10.106,10.106,0,0,1,3.554.214c-.783,1.006-1.583,2-2.363,3.007a3.467,3.467,0,0,1-1.642,1.489,3.15,3.15,0,0,1-2.71-.618,3.639,3.639,0,0,0,2.047-.587,8.4,8.4,0,0,0,1.484-1.856,11.949,11.949,0,0,1-1.739,1.481,3.714,3.714,0,0,1-1.98.52,7.023,7.023,0,0,1,1.677-2.9,3.027,3.027,0,0,1,1.67-.746h0" transform="translate(-1154.641 1527.089)" fill="#3773c2"/><path d="M925-1359.014a43.971,43.971,0,0,1,9.719-3.011c-1.25,4.674-2.522,9.343-3.763,14.018-.436,2.565-1.339,5.254-3.391,6.981a12.273,12.273,0,0,1-10.014,2.054,17.075,17.075,0,0,0,5.2-3.606,7.583,7.583,0,0,0,1.383-2.378,32.638,32.638,0,0,0,1.872-7.646,40.9,40.9,0,0,1-3.265,7.02,10.5,10.5,0,0,1-1.412,1.949,13.875,13.875,0,0,1-5.133,3.542,24.54,24.54,0,0,1,1.174-11.991,8.135,8.135,0,0,1,2.1-3.251,19.339,19.339,0,0,1,5.521-3.681h0" transform="translate(-886.592 1374.858)" fill="#3773c2"/><path d="M363-1156.158a47.253,47.253,0,0,1,8.284,2.389,22.461,22.461,0,0,1,6.23,3.625,9,9,0,0,1,2.837,3.944,24.5,24.5,0,0,1,1.166,11.977,14.145,14.145,0,0,1-5.541-4,35.891,35.891,0,0,1-4.243-8.417,35.1,35.1,0,0,0,.739,4.03,20.931,20.931,0,0,0,1.689,4.765,7.6,7.6,0,0,0,1.937,2.207,18.967,18.967,0,0,0,4.074,2.53,12.308,12.308,0,0,1-7.832-.769c-.488-.212-.945-.484-1.411-.74a8.157,8.157,0,0,1-1.862-1.612,13.761,13.761,0,0,1-2.349-6.08c-1.228-4.62-2.482-9.235-3.72-13.852h0" transform="translate(-355.27 1177.047)" fill="#3773c2"/><path d="M165.575-1041.419a7.434,7.434,0,0,1,4.76.18,6.173,6.173,0,0,1,2.146,3.249,3.658,3.658,0,0,1-2.09-.582A13.727,13.727,0,0,1,168.75-1040a8.115,8.115,0,0,0,1.551,1.911,3.748,3.748,0,0,0,1.99.537,3.222,3.222,0,0,1-2.3.7,2.345,2.345,0,0,1-1.623-.991c-.9-1.218-1.862-2.385-2.789-3.579h0" transform="translate(-165.575 1067.088)" fill="#3773c2"/><path d="M1355.814-997.222a3.072,3.072,0,0,1,1.751-.786,10.033,10.033,0,0,1,3.511.227c-.795,1.015-1.6,2.02-2.389,3.041a3.5,3.5,0,0,1-1.571,1.442,3.144,3.144,0,0,1-2.763-.609,3.743,3.743,0,0,0,2-.555,7.687,7.687,0,0,0,1.49-1.831,11.892,11.892,0,0,1-1.74,1.457,3.751,3.751,0,0,1-1.947.487,7.223,7.223,0,0,1,1.652-2.873h0" transform="translate(-1307.65 1025.153)" fill="#3773c2"/><path d="M242.648-803.263a18.838,18.838,0,0,1,8.43-1.294,13.76,13.76,0,0,0,2.349,6.08,24.155,24.155,0,0,1-3.8-2.574,17.029,17.029,0,0,0,3.52,3.487,5.1,5.1,0,0,0,2.137.7c.466.257.923.529,1.411.74a7.053,7.053,0,0,1-4.616,1.073,6.582,6.582,0,0,1-3.65-2.471c-1.92-1.922-3.863-3.82-5.786-5.74h0" transform="translate(-239.632 839.299)" fill="#3773c2"/><path d="M1192.511-766.249a4.659,4.659,0,0,1,1.866-.87,7.013,7.013,0,0,1,3.1.316,17.463,17.463,0,0,1,3.538,1.578c-1.54,1.079-3.095,2.137-4.634,3.22a4.715,4.715,0,0,1-2.9,1.3,4.757,4.757,0,0,1-3.516-2.019,5.749,5.749,0,0,0,2.89.172,10.909,10.909,0,0,0,3.129-2.077,14.768,14.768,0,0,1-3.387,1.428,5.568,5.568,0,0,1-2.74-.219,11.3,11.3,0,0,1,2.658-2.833h0" transform="translate(-1149.771 803.293)" fill="#3773c2"/><path d="M702.751-694.957q2.345-4.7,4.687-9.4a117.85,117.85,0,0,0,.471,11.877,58.92,58.92,0,0,0,1.579,9.591,16.427,16.427,0,0,0,2.595,5.812q-8.9,0-17.8.025a17.983,17.983,0,0,0,4.014-6.928,22.563,22.563,0,0,0,.584-10.975q1.935,0,3.872,0h0" transform="translate(-673.591 742.928)" fill="#3d3c3e"/><path d="M1291.308-469.043a4.6,4.6,0,0,0-.208-1.423,3.187,3.187,0,0,0-.6-1.1,2.694,2.694,0,0,0-.958-.711,3.058,3.058,0,0,0-1.271-.256h-1.48v7.019h1.48a3.012,3.012,0,0,0,1.29-.266,2.693,2.693,0,0,0,.958-.74,3.254,3.254,0,0,0,.589-1.119A4.745,4.745,0,0,0,1291.308-469.043Zm-8.214,6.754v-13.47h5.179a7.582,7.582,0,0,1,2.941.531,6.082,6.082,0,0,1,2.125,1.442,6.06,6.06,0,0,1,1.29,2.134,7.715,7.715,0,0,1,.436,2.608,7.609,7.609,0,0,1-.484,2.779,6.032,6.032,0,0,1-1.376,2.125,6.167,6.167,0,0,1-2.144,1.366,7.681,7.681,0,0,1-2.789.484h-5.179" transform="translate(-1239.363 523.273)" fill="#3d3c3e"/><path d="M1615.058-470.869a4.59,4.59,0,0,0,.189,1.318,3.44,3.44,0,0,0,.569,1.129,2.871,2.871,0,0,0,.958.8,2.927,2.927,0,0,0,1.375.3,2.9,2.9,0,0,0,1.385-.314,2.8,2.8,0,0,0,.958-.815,3.516,3.516,0,0,0,.551-1.148,4.847,4.847,0,0,0,.18-1.309,4.588,4.588,0,0,0-.189-1.318,3.261,3.261,0,0,0-.578-1.119,2.931,2.931,0,0,0-.968-.778,2.959,2.959,0,0,0-1.357-.294,2.927,2.927,0,0,0-1.375.3,2.833,2.833,0,0,0-.958.806,3.416,3.416,0,0,0-.56,1.138A4.72,4.72,0,0,0,1615.058-470.869Zm3.054,6.83a6.483,6.483,0,0,1-2.789-.588,6.9,6.9,0,0,1-2.144-1.546,6.991,6.991,0,0,1-1.385-2.191,6.774,6.774,0,0,1-.494-2.542,6.611,6.611,0,0,1,.512-2.561,6.8,6.8,0,0,1,1.432-2.172,6.989,6.989,0,0,1,2.182-1.5,6.733,6.733,0,0,1,2.76-.56,6.478,6.478,0,0,1,2.789.588,6.82,6.82,0,0,1,2.144,1.556,6.973,6.973,0,0,1,1.376,2.2,6.854,6.854,0,0,1,.484,2.523,6.547,6.547,0,0,1-.512,2.552,6.9,6.9,0,0,1-1.423,2.163,6.994,6.994,0,0,1-2.172,1.508,6.639,6.639,0,0,1-2.761.569" transform="translate(-1554.727 525.137)" fill="#3d3c3e"/><path d="M1982.5-472.533h-3.87v10.245h-3.7v-10.245h-3.889v-3.225H1982.5v3.225" transform="translate(-1900.387 523.273)" fill="#3d3c3e"/><path d="M2268.73-475.759l2.637,8.822,2.6-8.822h3.889l-4.951,13.47h-3.073l-5.009-13.47h3.908" transform="translate(-2182.675 523.273)" fill="#3773c2"/><path d="M2594.523-475.759l2.636,8.822,2.6-8.822h3.889l-4.952,13.47h-3.073l-5.009-13.47h3.908" transform="translate(-2495.718 523.273)" fill="#3773c2"/><path d="M2960.032-462.289v-7.1l-2.258,4.989H2955.8l-2.257-4.989v7.1h-3.7v-13.47h4.042l2.9,6.337,2.922-6.337h4.022v13.47h-3.7" transform="translate(-2840.888 523.273)" fill="#3773c2"/></g></g><text transform="translate(238.002 184.59)" fill="#3d3c3e" font-size="19" font-family="SegoeUI, Segoe UI"><tspan x="0" y="21" xml:space="preserve"> ACADEMY</tspan></text></g><rect width="161.25" height="5.77" transform="translate(150.31 204.643)" fill="#9fc2ef"/></g></svg>