<?xml version="1.0" encoding="UTF-8"?>
<svg width="78px" height="54px" viewBox="0 0 78 54" version="1.1" xmlns="http://www.w3.org/2000/svg" xmlns:xlink="http://www.w3.org/1999/xlink">
    <!-- Generator: Sketch 49.3 (51167) - http://www.bohemiancoding.com/sketch -->
    <title>Group 2</title>
    <desc>Created with Sketch.</desc>
    <defs></defs>
    <g id="Page-1" stroke="none" stroke-width="1" fill="none" fill-rule="evenodd">
        <g id="footer" transform="translate(-183.000000, -92.000000)" fill="#000000" fill-rule="nonzero">
            <g id="Group-5" transform="translate(0.000000, 82.701062)">
                <g id="Group-2" transform="translate(183.611533, 9.863429)">
                    <path d="M0.151745068,1.89681335 C0.455235205,5.76631259 0.758725341,9.63581184 1.06221548,13.5053111 C1.21396055,15.4021244 1.36570561,17.3748103 1.51745068,19.2716237 C1.59332322,20.030349 2.27617602,23.292868 1.74506829,23.8239757 C2.35204856,23.7481032 2.8831563,23.6722307 3.49013657,23.5963581 C3.64188164,23.8239757 3.79362671,24.0515933 3.86949924,24.2792109 C3.49013657,24.7344461 3.18664643,25.1896813 2.80728376,25.6449165 C2.8831563,25.6449165 2.95902883,25.6449165 3.03490137,25.6449165 C4.85584219,25.3414264 4.09711684,22.6100152 2.27617602,22.9135053 C2.20030349,22.9135053 2.12443096,22.9135053 2.04855842,22.9135053 C1.44157815,22.9893778 0.986342944,23.7481032 0.986342944,24.2792109 C0.986342944,25.1138088 1.21396055,25.6449165 1.97268589,26.1001517 C2.50379363,26.4036419 3.26251897,26.3277693 3.71775417,25.8725341 C5.76631259,23.5963581 4.24886191,19.1198786 4.09711684,16.3884674 C3.71775417,11.5326252 3.3383915,6.75265554 2.95902883,1.89681335 C2.80728376,0.0758725341 5.55111512e-17,0.0758725341 0.151745068,1.89681335 Z" id="Shape"></path>
                    <path d="M0.834597876,3.49013657 C3.26251897,8.19423369 5.76631259,12.8983308 8.19423369,17.6024279 C10.091047,21.2443096 11.7602428,24.7344461 15.0986343,27.2382398 C16.0091047,27.9210926 17.2989378,27.0106222 17.2230653,26.0242792 C17.0713202,19.1198786 16.4643399,12.2913505 15.4021244,5.46282246 C15.0986343,3.64188164 12.3672231,4.40060698 12.6707132,6.2215478 C13.6570561,12.8224583 14.1881639,19.3474962 14.339909,26.0242792 C15.0227618,25.6449165 15.7814871,25.1896813 16.4643399,24.8103187 C12.9742033,22.15478 11.2291351,17.3748103 9.25644917,13.5811836 C7.20789074,9.71168437 5.23520486,5.91805766 3.18664643,2.04855842 C2.42792109,0.455235205 -1.88737914e-15,1.89681335 0.834597876,3.49013657 Z" id="Shape"></path>
                    <path d="M29.8937785,16.9954476 C29.969651,14.491654 27.693475,12.5948407 25.1896813,12.7465857 C22.306525,12.9742033 20.4855842,15.8573596 20.1820941,18.5128983 C19.8027314,21.0925645 20.9408194,23.8998483 23.8998483,24.1274659 C27.3899848,24.3550835 29.0591806,21.0925645 30.1213961,18.3611533 C29.2109256,18.2094082 28.2245827,18.1335357 27.3141123,17.9817906 C27.3141123,21.6995448 28.831563,27.1623672 33.7632777,25.7966616 C35.508346,25.2655539 34.7496206,22.5341426 33.0045524,23.0652504 C30.1972686,23.8239757 30.1972686,19.6509863 30.1972686,17.9817906 C30.1972686,16.3125948 27.9210926,16.1608498 27.3899848,17.6024279 C26.9347496,18.7405159 26.4795144,20.2579666 25.3414264,20.9408194 C23.6722307,21.9271624 22.8376328,20.3338392 23.0652504,18.9681335 C23.2169954,18.0576631 23.5204856,16.9954476 24.2033384,16.3884674 C25.1138088,15.5538695 27.1623672,15.3262519 27.1623672,17.1471927 C26.9347496,18.8163885 29.8179059,18.8163885 29.8937785,16.9954476 Z" id="Shape"></path>
                    <path d="M33.9150228,9.86342944 C34.9772382,8.42185129 35.9635812,7.05614568 37.0257967,5.61456753 C37.4810319,5.00758725 37.1016692,4.02124431 36.4946889,3.64188164 C35.8118361,3.18664643 34.9772382,3.5660091 34.522003,4.17298938 C33.4597876,5.61456753 32.4734446,6.98027314 31.4112291,8.42185129 C30.9559939,9.02883156 31.3353566,10.0151745 31.9423369,10.3945372 C32.7010622,10.7738998 33.4597876,10.4704097 33.9150228,9.86342944 Z" id="Shape"></path>
                    <path d="M35.1289833,16.0849772 C36.4188164,18.892261 37.784522,21.7754173 39.0743551,24.5827011 C39.6054628,25.6449165 41.4264036,25.4172989 41.6540212,24.2792109 C42.2610015,21.016692 43.2473445,17.8300455 44.5371775,14.7192716 C45.2200303,13.0500759 42.4886191,12.2913505 41.8057663,13.9605463 C40.5159332,17.0713202 39.5295903,20.1820941 38.92261,23.5204856 C39.7572079,23.4446131 40.6676783,23.292868 41.5022762,23.2169954 C40.2124431,20.4097117 38.8467375,17.5265554 37.5569044,14.7192716 C36.7981791,12.9742033 34.370258,14.4157815 35.1289833,16.0849772 Z" id="Shape"></path>
                    <path d="M46.8133536,14.1122914 C44.3095599,15.7814871 43.5508346,19.1198786 44.8406677,21.7754173 C46.2822458,24.6585736 49.8482549,25.3414264 52.5037936,23.7481032 C55.0834598,22.15478 56.2215478,18.8163885 54.400607,16.2367223 C52.7314112,13.8088012 49.1654021,12.8983308 46.6616085,14.491654 C45.1441578,15.477997 46.585736,17.9817906 48.1031866,16.9195751 C50.9104704,15.0986343 54.400607,19.1957511 51.138088,21.2443096 C49.8482549,22.0789074 48.1790592,21.9271624 47.4203338,20.4855842 C46.8133536,19.1957511 47.0409712,17.3748103 48.2549317,16.616085 C49.7723824,15.5538695 48.4066768,13.0500759 46.8133536,14.1122914 Z" id="Shape"></path>
                    <path d="M59.4081942,13.8088012 C56.1456753,15.477997 53.0349014,20.1062215 54.8558422,23.8998483 C55.6145675,25.569044 57.4355083,26.2518968 59.1047041,25.4931715 C61.3050076,24.5827011 61.5326252,22.0030349 63.353566,20.7890744 C64.8710167,19.8027314 63.4294385,17.2989378 61.9119879,18.3611533 C61.0015175,18.9681335 60.3945372,19.7268589 59.7875569,20.6373293 C59.3323217,21.4719272 58.1942337,23.8239757 57.2837633,22.2306525 C56.8285281,21.3960546 57.5872534,19.5751138 58.0424886,18.8163885 C58.7253414,17.6783005 59.6358118,16.8437026 60.8497724,16.2367223 C62.4430956,15.4021244 61.0015175,12.9742033 59.4081942,13.8088012 Z" id="Shape"></path>
                    <path d="M60.2427921,5.38694992 C60.7738998,10.9256449 61.3050076,16.4643399 61.9119879,22.0030349 C62.0637329,23.8239757 64.9468892,23.8239757 64.7951442,22.0030349 C64.2640364,16.4643399 63.7329287,10.9256449 63.1259484,5.38694992 C62.8983308,3.64188164 60.091047,3.5660091 60.2427921,5.38694992 Z" id="Shape"></path>
                    <path d="M65.0227618,14.8710167 C66.8437026,17.9817906 69.1957511,20.7890744 72.0030349,23.1411229 C73.3687405,24.2792109 75.4172989,22.306525 74.0515933,21.0925645 C71.3960546,18.892261 69.2716237,16.3884674 67.5265554,13.4294385 C66.5402124,11.8361153 64.1122914,13.2776935 65.0227618,14.8710167 Z" id="Shape"></path>
                    <path d="M74.0515933,13.2776935 C71.9271624,26.2518968 67.9059181,38.6191199 61.9119879,50.3034901 C61.07739,51.8968134 63.5053111,53.3383915 64.339909,51.7450683 C70.4097117,39.8330804 74.5827011,27.1623672 76.7830046,14.0364188 C77.0864947,12.215478 74.2792109,11.4567527 74.0515933,13.2776935 Z" id="Shape"></path>
                </g>
            </g>
        </g>
    </g>
</svg>