<?xml version="1.0" encoding="UTF-8"?>
<svg width="150px" height="150px" viewBox="0 0 150 150" version="1.1" xmlns="http://www.w3.org/2000/svg" xmlns:xlink="http://www.w3.org/1999/xlink">
    <!-- Generator: Sketch 49.3 (51167) - http://www.bohemiancoding.com/sketch -->
    <title>checked</title>
    <desc>Created with Sketch.</desc>
    <defs></defs>
    <g id="Page-1" stroke="none" stroke-width="1" fill="none" fill-rule="evenodd">
        <g id="checked" fill="#FFFFFF" fill-rule="nonzero">
            <circle id="Oval" cx="74.8693069" cy="74.8693069" r="74.8693069"></circle>
        </g>
        <g id="close-cross" transform="translate(38.000000, 38.000000)" fill="#DD4536" fill-rule="nonzero">
            <path d="M50.1989259,37.4991019 L72.3690592,15.3304993 C75.8769803,11.8225362 75.8769803,6.13579212 72.3690592,2.62962519 C68.8647304,-0.876541732 63.174462,-0.876541732 59.6701333,2.62962519 L37.5,24.8018201 L15.3298667,2.62962519 C11.825538,-0.876541732 6.13526961,-0.876541732 2.63094083,2.62962519 C-0.876980278,6.13758831 -0.876980278,11.8243324 2.63094083,15.3304993 L24.7992779,37.4991019 L2.63094083,59.6677045 C-0.876980278,63.1756676 -0.876980278,68.8624117 2.63094083,72.3685786 C4.38220713,74.1234583 6.68310163,74.9982038 8.98040378,74.9982038 C11.2759098,74.9982038 13.5786004,74.1234583 15.3298667,72.3685786 L37.5,50.1999761 L59.6701333,72.3703748 C61.4231957,74.1252545 63.7222941,75 66.0195962,75 C68.3168984,75 70.6177929,74.1252545 72.3690592,72.3703748 C75.8769803,68.8624117 75.8769803,63.1756676 72.3690592,59.6695007 L50.1989259,37.4991019 Z" id="Shape"></path>
        </g>
    </g>
</svg>