<?xml version="1.0" encoding="utf-8"?>
<!-- Generator: Adobe Illustrator 22.0.1, SVG Export Plug-In . SVG Version: 6.00 Build 0)  -->
<svg version="1.1" id="Layer_1" xmlns="http://www.w3.org/2000/svg" xmlns:xlink="http://www.w3.org/1999/xlink" x="0px" y="0px"
	 viewBox="0 0 1194 755" style="enable-background:new 0 0 1194 755;" xml:space="preserve">
<style type="text/css">
	.st0{fill:#FFFFFF;}
	.st1{fill:#FFFFFE;}
	.st2{fill:#BBCE48;}
	.st3{fill:#A5B041;}
	.st4{fill:#A1A841;}
	.st5{fill:#95953D;}
	.st6{fill:#3F2B1C;}
	.st7{fill:#93412D;}
	.st8{fill:#729A40;}
	.st9{fill:#575C2F;}
	.st10{fill:#6F5228;}
	.st11{fill:#63813A;}
	.st12{fill:#B6573A;}
	.st13{fill:#CA856C;}
	.st14{fill:#43353D;}
	.st15{fill:#89833A;}
	.st16{fill:#797136;}
	.st17{fill:#B8A0C0;}
	.st18{fill:#843931;}
	.st19{fill:#AF8D56;}
	.st20{fill:#B75D41;}
	.st21{fill:#FBD894;}
	.st22{fill:#7A6640;}
	.st23{fill:#7D4430;}
	.st24{fill:#FEEDD0;}
	.st25{fill:#C8B380;}
	.st26{fill:#FCE3A1;}
	.st27{fill:#BF3A32;}
	.st28{fill:#E15A3F;}
	.st29{fill:#E05244;}
	.st30{fill:#DD4536;}
	.st31{fill:#D9C0BE;}
	.st32{fill:#D9B99B;}
	.st33{fill:#F7E2BD;}
	.st34{fill:#1C4D46;}
	.st35{fill:#D5A96E;}
	.st36{fill:#152D29;}
	.st37{fill:#BB6C53;}
	.st38{fill:#7E6E4E;}
	.st39{fill:#B1312B;}
	.st40{fill:#D2B67C;}
	.st41{fill:#944959;}
	.st42{fill:#BC9897;}
	.st43{fill:#9D7B83;}
	.st44{fill:#6F5261;}
	.st45{fill:#57351E;}
	.st46{fill:#302217;}
	.st47{fill:#D3AB8A;}
	.st48{fill:#91726A;}
	.st49{fill:#B692A6;}
	.st50{fill:#B03C33;}
	.st51{fill:#A3312F;}
	.st52{fill:#8B292C;}
	.st53{fill:#B58F81;}
	.st54{fill:#843D35;}
	.st55{fill:#9B6E72;}
	.st56{fill:#B08D97;}
	.st57{fill:#B8AB95;}
	.st58{fill:#802424;}
	.st59{fill:#876D7A;}
	.st60{fill:#AD3738;}
	.st61{fill:#858039;}
	.st62{fill:#83993C;}
	.st63{fill:#817A39;}
	.st64{fill:#C9B7CE;}
	.st65{fill:#776C34;}
	.st66{fill:#655731;}
	.st67{fill:#DEE79D;}
	.st68{fill:#D1D498;}
	.st69{fill:#DAA894;}
	.st70{fill:#E6C2B2;}
	.st71{fill:#C9C896;}
	.st72{fill:#BEBA93;}
	.st73{fill:#E6DBE4;}
	.st74{fill:#B9B290;}
	.st75{fill:#B0A88F;}
	.st76{fill:#E9EACA;}
	.st77{fill:#F1F4CD;}
	.st78{fill:#DFDEC6;}
	.st79{fill:#E5E6C8;}
	.st80{fill:#F6F0F3;}
	.st81{fill:#EFD3C5;}
	.st82{fill:#F5E0D5;}
	.st83{fill:#4B3D41;}
	.st84{fill:#1B1A19;}
	.st85{fill:#18695A;}
	.st86{fill:#45B6A1;}
	.st87{fill:#159D8F;}
	.st88{fill:#4F3D33;}
	.st89{fill:#26202A;}
	.st90{fill:#2E3131;}
	.st91{fill:#8B8E8D;}
	.st92{fill:#CDCECA;}
	.st93{fill:#9E2729;}
	.st94{fill:#7E2023;}
	.st95{fill:#D3482B;}
	.st96{fill:#CF7E2F;}
	.st97{fill:#F9C831;}
	.st98{fill:#ED9D33;}
	.st99{fill:#A0252F;}
	.st100{fill:#DE4547;}
	.st101{fill:#C1283E;}
	.st102{fill:#E8E9E5;}
</style>
<title>illustration-wrap</title>
<desc>Created with Sketch.</desc>
<g id="Page-1">
	<g id="illustration-wrap">
		<polygon id="background" class="st0" points="644,0 1194.6,0 1191,755 630.4,755 0.7,351.8 		"/>
		
			<g id="illustration" transform="translate(719.000000, 348.000000) scale(-1, 1) rotate(-1.000000) translate(-719.000000, -348.000000) translate(244.000000, 34.000000)">
			<polyline id="Fill-3" class="st1" points="458.4,590.6 385.9,632.1 383.4,630.6 379.4,632.9 389.7,638.7 393.7,636.4 
				390.5,634.7 463,593.1 458.4,590.6 			"/>
			<path id="Fill-7" class="st2" d="M333.2,434.6l312.2-180.3c2.5-1.4,5.8-2.2,9.2-2.2c3.4,0,6.7,0.8,9.2,2.3L691,270
				c1.5,0.9,3.8,1.4,6.1,1.4c2.3,0,4.6-0.5,6.1-1.4l41.6-24.1c1.1-0.6,1.6-1.3,1.6-1.7s-0.5-1-1.6-1.7l-290.3-162
				c-1.6-0.9-3.8-1.4-6.2-1.4c-2.4,0-4.7,0.5-6.2,1.4L6.9,325c-1.2,0.7-1.6,1.3-1.6,1.6c0,0.3,0.4,0.9,1.6,1.6l140,77.1
				c4.3,2.4,11.2,6.3,15.5,8.7l329.2,189.7c1.5,0.9,3.8,1.4,6.1,1.4c2.3,0,4.6-0.5,6.1-1.4l175.6-102.4c1.1-0.6,1.6-1.3,1.6-1.8
				c0-0.4-0.5-1.1-1.6-1.7l-34.2-19.6c-1.6-0.9-3.8-1.4-6.1-1.4c-2.4,0-4.6,0.5-6.2,1.4l-115.8,66.9c-2.5,1.4-5.8,2.2-9.2,2.2
				c-3.5,0-6.7-0.8-9.2-2.3l-165.5-96.2c-3-1.7-4.7-4.3-4.7-7.1C328.5,439,330.3,436.4,333.2,434.6"/>
			<path id="Fill-8" class="st3" d="M325.9,441.3c0,3.9,2.3,7.5,6.2,9.8l165.6,96.2c3,1.7,6.8,2.7,10.8,2.7c4,0,7.8-0.9,10.7-2.7
				L635,480.5c1.1-0.6,2.8-1,4.6-1c1.8,0,3.5,0.4,4.6,1l32.6,18.6l-174,101.5c-1.1,0.6-2.8,1-4.6,1c-1.8,0-3.5-0.4-4.5-1
				L164.3,410.9c-4.3-2.5-11.2-6.4-15.5-8.8l-138-76L444,82.7c1.1-0.6,2.9-1,4.7-1c1.8,0,3.6,0.4,4.7,1L742,243.7l-39.8,23.1
				c-1.1,0.6-2.8,1-4.5,1c-1.8,0-3.5-0.4-4.6-1L666,251.1c-3-1.7-6.8-2.7-10.8-2.7c-4,0-7.8,0.9-10.7,2.7L332.1,431.5
				C328.2,433.8,325.9,437.4,325.9,441.3 M335.2,436.9l312.3-180.4c2.1-1.2,4.9-1.8,7.6-1.8c2.8,0,5.6,0.6,7.7,1.8l27.1,15.7
				c2.1,1.2,4.9,1.8,7.7,1.8c2.8,0,5.6-0.6,7.7-1.8l41.6-24.1c4.2-2.4,4.2-6.4-0.1-8.8l-290.4-162c-2.1-1.2-4.9-1.8-7.7-1.8
				c-2.8,0-5.6,0.6-7.8,1.8L5.7,321.8c-4.2,2.4-4.2,6.3,0,8.6l140,77.1c4.3,2.4,11.2,6.3,15.4,8.7L490.5,606
				c2.1,1.2,4.9,1.8,7.6,1.8c2.8,0,5.6-0.6,7.7-1.9l175.7-102.4c4.2-2.5,4.2-6.4,0-8.9l-34.2-19.6c-2.1-1.2-4.9-1.8-7.6-1.8
				c-2.8,0-5.6,0.6-7.7,1.8L516.1,542c-2.1,1.2-4.9,1.8-7.6,1.8c-2.8,0-5.6-0.6-7.7-1.8l-165.6-96.2
				C331,443.3,331,439.3,335.2,436.9"/>
			<path id="Fill-9" class="st1" d="M333.9,448.1l165.6,96.3c2.4,1.4,5.7,2.2,9,2.2c3.4,0,6.5-0.8,9-2.2l115.8-66.9
				c1.6-0.9,4-1.5,6.4-1.5c2.4,0,4.7,0.5,6.3,1.5l34.2,19.6c1.2,0.7,1.8,1.5,1.8,2.1c0,0.7-0.7,1.5-1.8,2.1L504.5,603.7
				c-1.6,0.9-3.9,1.5-6.4,1.5c-2.4,0-4.7-0.5-6.3-1.5L162.5,414c-4.2-2.4-11.2-6.4-15.5-8.7L7,328.1c-1.1-0.6-1.8-1.4-1.8-2
				c0-0.6,0.7-1.4,1.8-2L442.2,79.5c1.6-0.9,4-1.5,6.5-1.5c2.4,0,4.8,0.5,6.4,1.4l290.5,162.1c1.1,0.6,1.8,1.4,1.8,2.1
				s-0.7,1.4-1.8,2.1L704,269.9c-1.6,0.9-3.9,1.5-6.3,1.5c-2.4,0-4.7-0.5-6.3-1.5l-27.1-15.7c-2.4-1.4-5.6-2.2-9-2.2
				c-3.4,0-6.5,0.8-9,2.2L333.9,434.6c-2.9,1.6-4.5,4.1-4.5,6.7C329.4,444,331,446.4,333.9,448.1 M336.6,439.2l312.3-180.4
				c1.6-0.9,3.9-1.5,6.3-1.5c2.4,0,4.7,0.5,6.4,1.5l27.1,15.7c2.4,1.4,5.6,2.2,9,2.2c3.4,0,6.6-0.8,9-2.2l41.6-24.2
				c2.9-1.7,4.5-4.1,4.5-6.7c0-2.6-1.7-5-4.6-6.7L457.7,74.9c-2.4-1.4-5.6-2.1-9-2.1c-3.4,0-6.6,0.8-9.1,2.1L4.3,319.5
				c-2.9,1.6-4.5,4-4.5,6.7c0,2.6,1.7,5,4.6,6.6l140,77.2c4.3,2.4,11.2,6.2,15.4,8.7l329.4,189.8c2.4,1.4,5.6,2.2,9,2.2
				c3.4,0,6.6-0.8,9-2.2l175.7-102.4c2.8-1.7,4.5-4.1,4.5-6.8c0-2.6-1.7-5.1-4.5-6.7l-34.2-19.6c-2.4-1.4-5.6-2.2-9-2.2
				c-3.4,0-6.6,0.8-9,2.2l-115.8,66.9c-1.6,0.9-3.9,1.5-6.3,1.5c-2.4,0-4.7-0.5-6.4-1.5l-165.6-96.3c-1.1-0.7-1.8-1.5-1.8-2.1
				C334.7,440.7,335.4,439.9,336.6,439.2"/>
			<path id="Fill-10" class="st4" d="M512,230.8l-16.2-9.3l6.9-1.9l9.3,2.1V230.8 M505.4,229.5l-11.4-3.3l2.8-1.6L505.4,229.5
				 M491.1,225.4l-4.6-1.3l6.3-1.7l1.8,1L491.1,225.4 M481.8,222.6l-23-13.5l5.4-3.1l25.3,14.5L481.8,222.6 M492.5,219.7l-45.5-26
				V193l13.1-6.5c0.1,0,0.1,0,0.2,0c0.4,0,0.9-0.2,1.1-0.6l50.5,30.1v3l-9-2.1c-0.1,0-0.2,0-0.3,0c-0.1,0-0.2,0-0.4,0L492.5,219.7
				 M456.7,207.8l-15.2-8.9l3.9-2.3c0,0,0.1,0,0.1,0c0.4,0,0.7-0.2,1-0.4c0.1-0.1,0.2-0.2,0.3-0.3l15.3,8.7L456.7,207.8
				 M439.4,197.7l-13-7.6l16.3,5.7L439.4,197.7 M444.4,192.1l-17.4-10l8.1-2.2l9.3,2.4V192.1 M439.6,191.8l-21.1-7.4l5.6-1.5
				L439.6,191.8"/>
			<path id="Fill-11" class="st5" d="M696.1,251.7l-27.8-16.3c0,0,0,0,0,0L696.1,251.7C696.1,251.7,696.1,251.7,696.1,251.7
				 M703.5,249.2l-31.1-18.2c4-2.8,10-4.6,16.7-4.6c2.6,0,5.1,0.3,7.4,0.8v16.5c0,1,1.7,1.8,3.8,1.8c2.1,0,3.8-0.8,3.8-1.8v-13.7
				c4.2,2.4,6.8,5.7,6.8,9.5C710.9,243.3,708.1,246.8,703.5,249.2"/>
			<path id="Fill-12" class="st6" d="M686.6,205.4c-0.1,0.7-0.2,1.4-0.2,2.2l0,3.5c0,6.4,5.2,11.6,11.6,11.6c1.7,0,3.2-0.4,4.7-1.1
				l-1.3-2.8c-1.1,0.5-2.3,0.8-3.5,0.8c-4.7,0-8.5-3.8-8.5-8.5l0-3.5c0-0.5,0-1.1,0.1-1.6L686.6,205.4"/>
			<path id="Fill-13" class="st7" d="M705.5,242.6v-40.9l-8.2,0v40.9c0,1,1.8,1.8,4.1,1.8C703.7,244.5,705.5,243.6,705.5,242.6"/>
			<path id="Fill-14" class="st8" d="M729.1,183.6c0-16.6-13.4-30-30-30c-16.6,0-30,13.4-30,30c0,16.6,13.4,30,30,30
				C715.7,213.6,729.1,200.2,729.1,183.6"/>
			<path id="Fill-15" class="st9" d="M669.2,183.6C669.2,183.6,669.2,183.6,669.2,183.6C669.2,183.6,669.2,183.6,669.2,183.6
				 M669.2,183.5C669.2,183.5,669.2,183.5,669.2,183.5C669.2,183.5,669.2,183.5,669.2,183.5 M669.2,183.4
				C669.2,183.4,669.2,183.4,669.2,183.4C669.2,183.4,669.2,183.4,669.2,183.4 M669.2,183.3C669.2,183.3,669.2,183.3,669.2,183.3
				C669.2,183.3,669.2,183.3,669.2,183.3 M669.2,183.2C669.2,183.2,669.2,183.2,669.2,183.2C669.2,183.2,669.2,183.2,669.2,183.2
				 M669.2,183.1C669.2,183.1,669.2,183.1,669.2,183.1C669.2,183.1,669.2,183.1,669.2,183.1 M669.2,183
				C669.2,183,669.2,183,669.2,183C669.2,183,669.2,183,669.2,183 M669.2,182.9C669.2,182.9,669.2,182.9,669.2,182.9
				C669.2,182.9,669.2,182.9,669.2,182.9 M669.2,182.8C669.2,182.8,669.2,182.8,669.2,182.8C669.2,182.8,669.2,182.8,669.2,182.8
				 M669.2,182.7C669.2,182.7,669.2,182.7,669.2,182.7C669.2,182.7,669.2,182.7,669.2,182.7"/>
			<path id="Fill-16" class="st10" d="M699.1,213.6C699.1,213.6,699.1,213.6,699.1,213.6C699.1,213.6,699.1,213.6,699.1,213.6
				 M699.2,213.6C699.2,213.6,699.2,213.6,699.2,213.6C699.2,213.6,699.2,213.6,699.2,213.6 M699.3,213.6
				C699.3,213.6,699.3,213.6,699.3,213.6C699.3,213.6,699.3,213.6,699.3,213.6 M699.3,213.6C699.3,213.6,699.3,213.6,699.3,213.6
				C699.3,213.6,699.3,213.6,699.3,213.6"/>
			<path id="Fill-17" class="st11" d="M699.1,213.6c-3,0-5.9-0.4-8.7-1.3c-1.1-0.3-2.2-0.7-3.2-1.2c-10.6-4.6-18-15.2-18-27.6
				c0,0,0,0,0-0.1c0,0,0,0,0,0c0,0,0,0,0-0.1c0,0,0,0,0,0c0,0,0-0.1,0-0.1c0,0,0,0,0,0c0,0,0,0,0-0.1c0,0,0,0,0,0c0-0.1,0-0.1,0-0.2
				c0,0,0,0,0,0c0,0,0,0,0-0.1c0,0,0,0,0,0c0-0.1,0-0.1,0-0.2c0,0,0,0,0,0c0,0,0,0,0-0.1c0,0,0,0,0,0c0-0.1,0-0.1,0-0.2c0,0,0,0,0,0
				c0,0,0-0.1,0-0.1c0,0,0,0,0,0c0.5-13.4,9.7-24.5,22-27.9c-7.6,5.4-12.6,14.4-12.6,24.5c0,16.6,13.4,30.1,29.9,30.1
				c2.7,0,5.4-0.4,7.9-1.1c-4.8,3.4-10.7,5.5-17,5.6c0,0,0,0,0,0c0,0,0,0-0.1,0c0,0,0,0,0,0c0,0,0,0-0.1,0c0,0,0,0,0,0
				C699.2,213.6,699.2,213.6,699.1,213.6C699.1,213.6,699.1,213.6,699.1,213.6C699.1,213.6,699.1,213.6,699.1,213.6"/>
			<path id="Fill-18" class="st8" d="M734.6,178.1c0-10-8.1-18.2-18.2-18.2c-10,0-18.2,8.1-18.2,18.2c0,10,8.1,18.2,18.2,18.2
				C726.4,196.3,734.6,188.2,734.6,178.1"/>
			<path id="Fill-19" class="st8" d="M695.5,184.5c12,0,21.8-9.8,21.8-21.8c0-12-9.8-21.8-21.8-21.8c-12,0-21.8,9.8-21.8,21.8
				C673.7,174.7,683.5,184.5,695.5,184.5"/>
			<path id="Fill-20" class="st8" d="M693.7,177.2c0-8.5-6.9-15.4-15.4-15.4c-8.5,0-15.4,6.9-15.4,15.4c0,8.5,6.9,15.4,15.4,15.4
				C686.8,192.7,693.7,185.8,693.7,177.2"/>
			<path id="Fill-21" class="st4" d="M326.9,341.7C326.9,341.6,326.9,341.6,326.9,341.7l0.2-1l16.9-9.1l0.1,0L326.9,341.7
				 M318,338.3l-9-1.8l1.1-3L318,338.3 M306.1,338.2l-0.2,0l-66.3-39.9l17.7,4.9c0.1,0,0.2,0,0.4,0c0.5,0,1-0.3,1.2-0.7l48.9,29.6
				l-1.8,5C305.8,337.4,305.9,337.8,306.1,338.2C306.1,338.2,306.1,338.2,306.1,338.2 M257.4,300.4l-15.9-4.4l5.2-14.3l13.2,7.8
				L257.4,300.4 M260.5,286.8l-2.6-1.6l2.8,1L260.5,286.8"/>
			<path id="Fill-22" class="st2" d="M830.4,363.8l-116,67.1c-1.1,0.6-1.6,1.3-1.6,1.7c0,0.4,0.5,1.1,1.6,1.7l33.9,19.4
				c1.6,0.9,3.9,1.4,6.2,1.4c2.3,0,4.6-0.5,6.1-1.4l182.2-102.6c1.2-0.7,1.6-1.3,1.6-1.6c0-0.3-0.4-0.9-1.6-1.6l-33.9-18.5
				c-4.3-2.3-11.3-6.1-15.6-8.4l-80.9-42.8c-1.5-0.8-3.7-1.3-5.9-1.3c-2.5,0-4.9,0.6-6.6,1.5l-42.5,24.7c-1.2,0.7-1.6,1.4-1.6,1.8
				c0,0.4,0.4,1.1,1.6,1.8l73,42.6c3,1.7,4.7,4.3,4.7,7.1C835.1,359.5,833.4,362.1,830.4,363.8"/>
			<path id="Fill-23" class="st3" d="M837.7,357.1c0-3.9-2.3-7.5-6.2-9.8L760,305.6l41-23.8c1.2-0.7,3.1-1.1,5-1.1
				c1.7,0,3.4,0.3,4.5,0.9l81,42.8c4.3,2.3,11.3,6,15.5,8.3l31.8,17.4L758.6,451.7c-1.1,0.6-2.8,1-4.6,1c-1.8,0-3.6-0.4-4.7-1
				l-32.2-18.5l114.4-66.2C835.5,364.6,837.7,361,837.7,357.1 M828.4,361.5l-116.1,67.2c-4.2,2.4-4.2,6.4,0,8.8l33.9,19.4
				c2.1,1.2,5,1.8,7.8,1.8c2.8,0,5.5-0.6,7.6-1.8l182.3-102.7c4.2-2.4,4.2-6.3-0.1-8.6L910,327.3c-4.3-2.3-11.3-6.1-15.6-8.4
				l-81-42.8c-2.1-1.1-4.7-1.6-7.4-1.6c-2.9,0-5.9,0.6-8.1,1.9l-42.5,24.7c-4.2,2.4-4.2,6.5,0,8.9l73.1,42.6
				C832.6,355.1,832.6,359.1,828.4,361.5"/>
			<path id="Fill-24" class="st1" d="M829.7,349.9l-73.1-42.4c-1.2-0.7-1.8-1.5-1.8-2.1c0-0.7,0.7-1.5,1.8-2.1l42.6-24.6
				c1.7-1,4.2-1.6,6.8-1.6c2.3,0,4.6,0.5,6.1,1.3l81,42.6c4.3,2.3,11.3,6,15.6,8.3l33.9,18.4c1.4,0.7,1.8,1.5,1.8,1.9
				c0,0.4-0.5,1.2-1.8,2L760.3,453.9c-1.6,0.9-3.9,1.4-6.3,1.4c-2.5,0-4.8-0.5-6.5-1.5l-33.9-19.4c-1.1-0.6-1.8-1.5-1.8-2.1
				c0-0.6,0.7-1.5,1.8-2.1l116.2-66.9c2.9-1.6,4.5-4.1,4.5-6.7C834.2,354.1,832.6,351.6,829.7,349.9 M827,358.8l-116.2,66.9
				c-2.9,1.6-4.5,4.1-4.5,6.7c0,2.6,1.7,5.1,4.5,6.7l33.9,19.4c2.5,1.4,5.7,2.2,9.1,2.2h0c3.3,0,6.5-0.7,8.9-2.1l182.4-102.3
				c2.9-1.6,4.5-4,4.5-6.6c0-2.6-1.7-5-4.6-6.6l-33.9-18.4c-4.3-2.3-11.3-6.1-15.7-8.4l-81-42.6c-2.4-1.2-5.4-1.9-8.6-1.9
				c-3.6,0-6.9,0.8-9.5,2.3l-42.6,24.6c-2.9,1.6-4.5,4.1-4.5,6.7c0,2.6,1.6,5.1,4.5,6.7l73.1,42.4c1.1,0.7,1.8,1.5,1.8,2.1
				C828.9,357.4,828.2,358.1,827,358.8"/>
			<path id="Fill-25" class="st1" d="M310.5,274.8l65.3,37.6l-30.4,17.7l-15.3-8.8l13.3-7.7l-34.6-20l-13.3,7.7l-15.3-8.8
				L310.5,274.8 M363.9,303.1l-37.1-21.4c10.4-1.9,21.9-0.3,29.7,4.2C364.3,290.4,367.1,297,363.9,303.1 M250.3,275.3l81.9-47.6
				l35.8,20.6c-13.6,8.5-13.1,21.9,1.2,30.2c14.4,8.3,37.4,8.5,52.1,0.6l35.8,20.6l-81.9,47.6l-27.6-15.9l32.6-18.9l-13.8-8
				c4.3-6.9,1.4-14.6-7.7-19.8c-9-5.2-22.4-6.9-34.3-4.4l-13.8-8L278,291.2L250.3,275.3 M399.7,264.1c0.6-0.9,0.2-2-1-2.7
				c-1.3-0.7-3.1-0.9-4.7-0.6l-21.7-12.5c13.5-7.2,34.6-7,47.8,0.6c13.2,7.6,13.6,19.8,1.2,27.6L399.7,264.1 M392.5,265
				c1.4,0.8,3.5,1,5.2,0.4l21.5,12.4c-13.5,7.2-34.6,7-47.8-0.6c-13.2-7.6-13.6-19.8-1.2-27.6l21.5,12.4
				C390.8,263,391.1,264.2,392.5,265 M416.4,178.9l27.6,15.9l-32.6,18.9l13.8,8c-4.3,6.9-1.4,14.6,7.7,19.8c9,5.2,22.4,6.9,34.3,4.4
				l13.8,8l32.6-18.9l27.6,15.9l-81.9,47.6l-35.8-20.6c13.6-8.5,13.1-21.9-1.2-30.2c-14.4-8.3-37.4-8.5-52.1-0.6l-35.8-20.6
				L416.4,178.9 M464.8,244.5c-10.4,1.9-21.9,0.3-29.7-4.2c-7.8-4.5-10.6-11.1-7.4-17.2L464.8,244.5 M446.2,196.1l15.3,8.8
				l-13.3,7.7l34.6,20l13.3-7.7l15.3,8.8L481,251.4l-65.3-37.6L446.2,196.1 M463.7,206.2l30.2,17.4l-11.1,6.4l-30.2-17.4
				L463.7,206.2 M327.9,320l-30.2-17.4l11.1-6.4l30.2,17.4L327.9,320 M327.9,322.5l47.3,27.3l170.4-98.9l-129.3-74.6l-170.4,98.9
				L327.9,322.5"/>
			<path id="Fill-26" class="st1" d="M337.3,300.9c1.8-1.1,1.8-2.8,0-3.9c-1.8-1.1-4.7-1.1-6.4,0c-1.8,1.1-1.8,2.8,0,3.9
				C332.6,302,335.5,302,337.3,300.9"/>
			<path id="Fill-27" class="st1" d="M460.8,229.1c1.8-1.1,1.8-2.8,0-3.9c-1.8-1.1-4.7-1.1-6.4,0c-1.8,1.1-1.8,2.8,0,3.9
				C456.1,230.2,459,230.2,460.8,229.1"/>
			<path id="Fill-28" class="st12" d="M255.3,245.6l102.8-59.8c20.7-12.1,48-18.7,76.8-18.7c31.8,0,63.1,7.9,87.9,22.3
				c24.2,14,37.5,31.4,37.5,49.1c0,16-11.1,31.2-31.3,43l-102.8,59.8c-20.7,12.1-48,18.7-76.9,18.7c-31.8,0-63.1-7.9-87.9-22.3
				c-24.2-14-37.5-31.4-37.5-49.1C223.9,272.6,235.1,257.3,255.3,245.6 M239.6,354.1c29,16.8,66,26.5,104.1,27.5c2,0,4,0.1,6,0.1
				c37,0,72.2-8.6,99.1-24.3l102.8-59.8c29-16.9,43.9-39.1,42.1-62.7c-1.8-22.7-19.2-44.7-48.9-61.9c-29-16.8-66-26.5-104.1-27.5
				c-2,0-4-0.1-6-0.1c-37,0-72.2,8.6-99.1,24.3l-102.8,59.8c-29,16.9-43.9,39.1-42.1,62.7C192.5,314.9,209.8,336.9,239.6,354.1"/>
			<path id="Fill-29" class="st1" d="M232.9,230.2l102.6-59.8c26.6-15.5,61.5-24.1,98.3-24.1c2,0,4,0,5.9,0.1
				c37.8,0.9,74.4,10.6,103.2,27.3c29.3,17,46.4,38.6,48.1,60.9c1.8,23-12.9,44.9-41.3,61.5l-102.6,59.8
				c-26.6,15.5-61.5,24.1-98.3,24.1c-2,0-4,0-5.9-0.1c-37.8-0.9-74.4-10.6-103.2-27.3c-29.3-17-46.4-38.6-48.1-60.9
				C189.7,268.6,204.4,246.8,232.9,230.2 M238.3,354.8c29.2,16.9,66.3,26.7,104.5,27.6c2,0,4,0.1,6,0.1c37.2,0,72.6-8.7,99.6-24.4
				L551,298.3c29.4-17.1,44.5-39.9,42.6-64c-1.8-23.2-19.4-45.5-49.4-63c-29.2-16.9-66.3-26.7-104.5-27.6c-2,0-4-0.1-6-0.1
				c-37.2,0-72.6,8.7-99.6,24.4l-102.6,59.8c-29.4,17.1-44.5,39.9-42.6,64C190.7,315,208.3,337.4,238.3,354.8"/>
			<path id="Fill-30" class="st1" d="M255.6,246.3l102.7-59.7c20.5-11.9,47.5-18.5,76.1-18.5v-1.3v1.3c31.6,0,62.5,7.8,87.1,22
				c23.7,13.7,36.8,30.7,36.8,47.9c0,15.5-10.9,30.3-30.6,41.8l-102.7,59.7c-20.5,11.9-47.5,18.5-76.1,18.5
				c-31.6,0-62.5-7.8-87.1-22c-23.7-13.7-36.8-30.7-36.8-47.9C225,272.7,235.8,257.8,255.6,246.3 M260.5,338.3
				c25,14.4,56.4,22.4,88.5,22.4c29,0,56.5-6.7,77.5-18.9l102.7-59.7c20.6-12,32-27.7,32-44.1c0-18.2-13.6-36-38.2-50.2
				c-25-14.4-56.4-22.4-88.5-22.4c-29,0-56.5,6.7-77.5,18.9L254.3,244c-20.6,12-32,27.7-32,44.1
				C222.3,306.3,235.9,324.1,260.5,338.3"/>
			<path id="Fill-31" class="st1" d="M349.5,382.5c-2,0-4,0-6-0.1c-3.8-0.1-7.7-0.3-11.5-0.5c-1.2-0.8-2.4-1.5-3.7-2.1
				c5,0.4,10.1,0.7,15.2,0.8c2,0,4,0.1,5.9,0.1c0,0,0,0,0,0c18.9,0,37.3-2.3,54.4-6.5l-5.4,3.1C382.9,380.8,366.4,382.5,349.5,382.5
				 M305.7,378.6c-24.4-4.4-47.3-12.5-66.7-23.7l0.9-1.5c20.2,11.7,44.2,19.9,69.8,24.2C308.4,377.8,307.1,378.1,305.7,378.6
				 M239.1,354.9c-8.7-5-16.3-10.4-22.8-16.2c0.3-0.5,0.6-1,0.9-1.6c6.5,5.7,14.1,11.2,22.8,16.2L239.1,354.9 M191.6,293.1
				c-0.4,0-0.7,0-1.1,0c-0.2,0-0.5,0-0.7,0c0-0.3,0-0.5-0.1-0.8c-0.1-1.3-0.2-2.7-0.2-4c0-11.3,3.8-22.2,11-32.3
				c7.2-10.1,17.9-19.3,31.6-27.3L335,168.9c27.1-15.7,62.4-24.4,99.5-24.4c2,0,4,0,6,0.1c38.2,0.9,75.3,10.7,104.5,27.6
				c14.9,8.6,26.8,18.5,35.2,29.1c5.5,6.9,9.4,14.1,11.8,21.5l-0.3-0.2l-1.4,0.8c-2.3-7.2-6.1-14.3-11.5-21.1
				c-8.2-10.4-19.9-20.1-34.7-28.7c-28.9-16.7-65.7-26.4-103.6-27.3c-2,0-4-0.1-5.9-0.1c0,0,0,0,0,0c-36.9,0-71.9,8.6-98.6,24.1
				l-102.8,59.8c-13.6,7.9-24.1,17-31.1,26.8c-7,9.8-10.7,20.4-10.7,31.2c0,1.3,0.1,2.6,0.2,3.8
				C191.6,292.5,191.6,292.8,191.6,293.1"/>
			<path id="Fill-32" class="st13" d="M348.9,375.3c-1.3,0-2.6,0-3.8,0c-36.1-0.6-71.2-9.8-99-25.8l0.4-0.8l0.4-0.8
				c27.4,15.9,62.3,25,98.1,25.6c1.3,0,2.5,0,3.8,0c0.6,0,1.3,0,1.9,0c23.6-0.2,46.4-4.2,66.2-11.5l2,1.2
				c-20.4,7.7-43.8,11.9-68.2,12.1C350.2,375.3,349.5,375.3,348.9,375.3 M246.1,349.4c-10.5-6.1-19.4-12.8-26.4-20
				c0.2-0.7,0.3-1.4,0.4-2.2c7,7.4,16.1,14.3,26.9,20.6l-0.4,0.8L246.1,349.4 M202.9,295.8c-0.6-0.3-1.3-0.6-1.9-0.8
				c-0.2-1.3-0.3-2.6-0.4-4c0-0.9-0.1-1.7-0.1-2.5c0-8.9,2.6-17.6,7.7-25.7c5-8.1,12.5-15.7,22.1-22.6c1.4-1.1,3.9-2.7,6.4-4.4
				c2.6-1.6,5.2-3.2,6.8-4.2l98.6-57.4c25-14.5,57.6-22.5,92-22.5c1.9,0,3.8,0,5.7,0.1c35.5,0.9,70,10,97.3,25.8
				c14,8.1,25,17.3,32.8,27.2c4.1,5.2,7.2,10.6,9.4,16.1l-2.5-1.5c-2-4.6-4.8-9.1-8.2-13.5c-7.5-9.6-18.4-18.7-32.3-26.7
				c-21.5-12.4-47.6-20.7-75.1-24l-1.1-0.6c-0.1-0.3-0.2-0.6-0.5-0.8c-0.2-0.2-0.5-0.3-0.8-0.3c-0.1,0-0.2,0-0.3,0l-4.2,0.9
				c-4.8-0.4-9.7-0.7-14.6-0.8c-1.9,0-3.7-0.1-5.6-0.1c0,0,0,0,0,0c-34.1,0-66.5,7.9-91.1,22.3l-98.6,57.4c-1.6,1-4.3,2.5-6.8,4.2
				c-2.5,1.6-5,3.2-6.3,4.3l0,0l0,0c-9.5,6.7-16.7,14.2-21.6,22.1c-4.9,7.9-7.4,16.2-7.4,24.8c0,0.8,0,1.6,0.1,2.4
				C202.5,292.6,202.6,294.2,202.9,295.8"/>
			<path id="Fill-33" class="st13" d="M348.7,368c-0.6,0-1.2,0-1.8,0c-34-0.3-67.3-8.9-93.7-24.1l0.4-0.8l0.4-0.8
				c26.1,15.1,59,23.5,92.8,23.9c0.6,0,1.2,0,1.8,0c1.2,0,2.4,0,3.7,0c23.1-0.4,45.2-4.7,64-12.5l1.9,1.1
				c-19.3,8.1-42.1,12.7-65.9,13.1C351.1,368,349.9,368,348.7,368 M253.2,343.9c-13.1-7.6-23.3-16.1-30.4-25.3
				c-7.1-9.2-11-18.9-11.3-28.8c0-0.4,0-0.8,0-1.2c0-8.5,2.7-16.9,8-24.7c5.2-7.8,12.9-15,22.8-21.4c0.2-0.2,0.5-0.4,0.9-0.6
				c0.4-0.3,0.9-0.6,1.5-0.9c1.1-0.7,2.5-1.6,3.9-2.4c2.8-1.7,5.6-3.4,6.5-3.9l94.6-55c22.9-13.3,53-20.7,84.7-20.7
				c1.8,0,3.6,0,5.3,0.1c1.4,0,2.9,0.1,4.3,0.2v1.8c-1.5-0.1-2.9-0.1-4.4-0.2c-1.8,0-3.5-0.1-5.3-0.1c0,0,0,0,0,0
				c-31.4,0-61.2,7.3-83.8,20.4l-94.6,55c-1.4,0.8-9.1,5.4-11.8,7.2c-0.4,0.3-0.7,0.5-0.8,0.6l0,0l0,0c-9.7,6.3-17.2,13.4-22.3,20.9
				c-5,7.5-7.7,15.5-7.7,23.7c0,0.4,0,0.8,0,1.2c0.3,9.5,4,18.9,10.9,27.8c6.9,8.9,17,17.4,29.9,24.8l-0.4,0.8L253.2,343.9
				 M565.9,221c-1.8-3.9-4.1-7.7-7-11.4c-6.9-8.9-17-17.4-29.9-24.8c-14.8-8.6-31.9-15-50.1-19l-4.8-2.8
				c20.3,3.9,39.4,10.8,55.8,20.3c13.1,7.6,23.3,16.1,30.4,25.3c2.9,3.8,5.3,7.7,7.1,11.6L565.9,221"/>
			<path id="Fill-34" class="st1" d="M348.4,359.8c-31.9,0-63.2-7.9-88.2-22.3c-12.1-7-21.6-14.9-28-23.4
				c-6.4-8.4-9.9-17.4-9.9-26.5l0-0.1c0-8.2,2.9-16.2,8.2-23.5c5.4-7.4,13.3-14.2,23.5-20.1l102.6-59.7
				c20.9-12.1,48.2-18.8,77.1-18.8c3.2,0,6.4,0.1,9.5,0.2v1.8c-3.2-0.2-6.4-0.2-9.5-0.2v-0.9v0.9c0,0,0,0,0,0
				c-28.6,0-55.7,6.6-76.2,18.5l-102.6,59.7c-10,5.8-17.7,12.5-22.9,19.6c-5.2,7.1-7.9,14.7-7.9,22.5v0c0,8.6,3.3,17.2,9.5,25.4
				c6.3,8.2,15.5,16,27.5,22.9c24.6,14.2,55.6,22.1,87.3,22.1V359.8 M348.4,359.8v-1.8c0,0,0,0,0,0c28.6,0,55.7-6.6,76.2-18.5
				l41.5-24.2l0,2L425.5,341C404.7,353.2,377.3,359.8,348.4,359.8 M555.9,225.4c-1.6-4.5-4-8.9-7.3-13.2c-6.3-8.2-15.5-16-27.5-22.9
				c-3.5-2-7.1-3.9-10.8-5.6l-11.5-6.8c8.2,3.1,15.9,6.7,23.1,10.9c12.1,7,21.6,14.9,28,23.4c3.3,4.3,5.8,8.8,7.5,13.4L555.9,225.4"
				/>
			<path id="Fill-35" class="st14" d="M424.5,467.9l-19.4-7.2c2.3-3.8,3.8-8.1,4.3-12.7l22.1,13
				C428.8,462.9,426.5,465.3,424.5,467.9 M404.8,428.7c-5.4-8.4-14.7-13.9-25.4-13.9l65.3-37.7l24.6,14.3L404.8,428.7"/>
			<path id="Fill-36" class="st15" d="M347.1,423.4l-4.9-3.4c2.1-4,3.3-8.5,3.3-13.3l51.4-29.3c11-2.4,21.6-5.5,31.4-9.5l7.4,4.3
				L347.1,423.4"/>
			<polyline id="Fill-37" class="st16" points="350,426.1 346.7,423.9 435.8,372.5 439.4,374.6 350,426.1 			"/>
			<path id="Fill-38" class="st17" d="M354.6,428.9l-4.2-2.9l89.2-51.6l5.3,3.1l-65.1,37.7c0,0,0,0,0,0
				C369.2,415.2,359.9,420.6,354.6,428.9"/>
			<path id="Fill-39" class="st18" d="M404.9,372.5l15.6-9.1l0.1,0.1l0,0.4l0.3-0.2l3.9,2.3C418.5,368.5,411.8,370.7,404.9,372.5"/>
			<path id="Fill-40" class="st17" d="M396.7,377.1l1.3-0.7c10.5-2.2,20.6-5.2,30-8.8l0.5,0.3C418.5,371.7,407.9,374.8,396.7,377.1
				 M403.5,373.4l1.5-0.8c7.1-1.8,14-3.9,20.6-6.4l0.5,0.3C418.8,369.2,411.3,371.5,403.5,373.4"/>
			<path id="Fill-41" class="st17" d="M397.6,376.2l5.5-3c7.8-1.9,15.4-4.2,22.5-7l2,1.1C418.2,371,408.1,373.9,397.6,376.2"/>
			<polyline id="Fill-42" class="st19" points="505.7,493.5 399.4,431.6 399.5,442.3 505.7,504.3 505.7,493.5 			"/>
			<polyline id="Fill-43" class="st20" points="755.4,349.4 649.1,287.2 399.4,431.1 505.8,493.4 755.4,349.4 			"/>
			<polyline id="Fill-44" class="st21" points="755.4,349.8 505.7,493.5 505.7,504.3 755.4,360.6 755.4,349.8 			"/>
			<path id="Fill-45" class="st22" d="M442,457l-33.5-19.9c0,0,0,0,0,0L442,457C442.1,457,442.1,457,442,457"/>
			<path id="Fill-46" class="st23" d="M505.7,482.5l-28.2-6.3c-4-11.9-15.3-20.4-28.6-20.4c-2.4,0-4.7,0.3-6.9,0.8l-33.6-19.6
				c-0.8-2.8-2-5.4-3.6-7.9l11.3-6.5L505.7,482.5"/>
			<polyline id="Fill-47" class="st24" points="740,277.2 649.2,224.5 597.4,254.4 688.2,307.1 740,277.2 			"/>
			<polyline id="Fill-48" class="st25" points="557.4,354.2 466.6,301.7 466.7,330 557.5,382.5 557.4,354.2 			"/>
			<polyline id="Fill-49" class="st24" points="597.6,226.3 466.6,301.8 557.3,354.4 688.2,278.9 597.6,226.3 			"/>
			<polyline id="Fill-50" class="st24" points="557.5,383.5 466.7,330.8 414.9,360.7 505.7,413.4 557.5,383.5 			"/>
			<polyline id="Fill-51" class="st25" points="505.5,412.6 414.9,359.8 415.1,429.7 505.7,482.5 505.5,412.6 			"/>
			<polyline id="Fill-52" class="st26" points="505.9,482.5 629.6,410.9 628.8,386.6 652.4,397.7 740,347 739.8,277.2 688.2,307 
				688.1,278.6 557.2,354.3 557.3,382.7 505.7,412.6 505.9,482.5 			"/>
			<polyline id="Fill-53" class="st25" points="650.6,365.3 631,365.3 631,387.3 652.8,398 652.7,384.1 650.6,365.3 			"/>
			<polyline id="Fill-54" class="st27" points="563.8,343.5 473,290.8 473,298.9 563.8,351.7 563.8,343.5 			"/>
			<polyline id="Fill-55" class="st28" points="591.4,222.7 473,290.9 563.5,343.5 681.9,275.2 591.4,222.7 			"/>
			<polyline id="Fill-56" class="st29" points="681,274.4 562.9,342.6 562.9,350.7 681,282.3 681,274.4 			"/>
			<polyline id="Fill-57" class="st28" points="466.2,322.6 414.9,352.7 420.7,356.2 472.1,326.1 466.2,322.6 			"/>
			<polyline id="Fill-58" class="st30" points="473,326.2 421.2,356.2 421.2,364.4 473,334.4 473,326.2 			"/>
			<polyline id="Fill-59" class="st25" points="581.9,316.1 491.2,263.5 491.2,280 582,332.6 581.9,316.1 			"/>
			<polyline id="Fill-60" class="st24" points="573,216.3 491.2,263.6 581.8,316.2 663.7,269 573,216.3 			"/>
			<polyline id="Fill-61" class="st26" points="662.8,269 581.1,316.1 581.1,332.6 662.8,285.4 662.8,269 			"/>
			<path id="Fill-62" class="st31" d="M611.5,299c0-0.1,0-0.2,0-0.2l-8.7-5l20.2-11.6c1-0.3,1.9-0.5,2.7-0.5c3.1,0,5.4,2.1,6.2,5.5
				L611.5,299"/>
			<path id="Fill-63" class="st32" d="M617.7,309c-3.4,0-5.8-2.7-5.8-7.4c0-0.7,0.2-2.1,0.3-2.6l20.4-11.8c0.2,0.7,0.2,1.5,0.2,2.3
				c0,6.6-4.6,14.7-10.4,18C620.7,308.5,619.1,309,617.7,309"/>
			<polyline id="Fill-64" class="st1" points="571.2,388.9 574.5,387 584.5,381.3 585.6,380.6 585.6,379.3 585.5,355.3 572.2,362.9 
				571.1,363.6 571.2,388.9 			"/>
			<polyline id="Fill-65" class="st1" points="590.2,378 593.6,376.1 604.7,369.7 604.6,344.4 601.3,346.3 591.3,352 590.2,352.7 
				590.2,378 			"/>
			<polyline id="Fill-66" class="st1" points="609.3,367.1 622.6,359.5 623.8,358.8 623.7,333.5 609.2,341.8 609.3,367.1 			"/>
			<polyline id="Fill-67" class="st1" points="628.4,356.2 631.7,354.3 641.7,348.6 642.8,347.9 642.8,322.6 629.4,330.2 
				628.3,330.9 628.4,356.2 			"/>
			<polyline id="Fill-68" class="st1" points="645.6,346.2 649,344.3 659,338.6 660.1,337.9 660,312.6 656.7,314.5 646.7,320.2 
				645.6,320.9 645.6,346.2 			"/>
			<polyline id="Fill-69" class="st1" points="664.7,335.3 668.1,333.4 679.2,327 679.2,325.8 679.1,301.7 665.8,309.3 664.6,310 
				664.7,335.3 			"/>
			<polyline id="Fill-70" class="st1" points="516.7,462.5 520,460.6 530,454.9 531.1,454.2 531,428.9 527.7,430.8 517.7,436.5 
				516.6,437.1 516.7,462.5 			"/>
			<polyline id="Fill-71" class="st1" points="535.7,451.6 539.1,449.7 550.2,443.3 550.2,442 550.1,418 536.8,425.6 535.7,426.2 
				535.7,427.5 535.7,451.6 			"/>
			<polyline id="Fill-72" class="st1" points="553.9,440.7 557.3,438.8 568.4,432.4 568.3,407.1 564.9,409 554.9,414.7 553.8,415.3 
				553.8,416.6 553.9,440.7 			"/>
			<polyline id="Fill-73" class="st1" points="571.2,429.8 574.5,427.9 585.6,421.5 585.6,420.2 585.5,396.2 572.2,403.8 
				571.1,404.4 571.2,429.8 			"/>
			<polyline id="Fill-74" class="st1" points="664.7,378 678,370.4 679.2,369.7 679.1,344.4 665.8,352 664.6,352.7 664.7,378 			"/>
			<polyline id="Fill-75" class="st1" points="682.9,367.1 696.2,359.5 697.3,358.8 697.3,357.5 697.3,333.5 693.9,335.4 
				683.9,341.1 682.8,341.8 682.8,343 682.9,367.1 			"/>
			<polyline id="Fill-76" class="st33" points="700.1,356.2 703.5,354.3 714.6,347.9 714.6,346.6 714.5,322.6 711.1,324.5 
				701.2,330.2 700,330.9 700.1,356.2 			"/>
			<polyline id="Fill-77" class="st33" points="719.2,345.3 732.5,337.7 733.7,337 733.6,335.7 733.6,311.7 730.2,313.6 719.1,320 
				719.2,345.3 			"/>
			<polyline id="Fill-78" class="st34" points="584.6,354.4 572.9,361.4 573,384.4 584.7,377.3 584.6,354.4 			"/>
			<path id="Fill-79" class="st35" d="M583.3,356.4l0.1,20.2l-10,5.7l-0.1-20.2L583.3,356.4z M571.2,386.2l14.5-8.3l0-1.3l-0.1-24.1
				l-3.4,1.9l-10,5.7l-1.1,0.6L571.2,386.2z"/>
			<polyline id="Fill-80" class="st34" points="602.8,343.5 591.1,350.5 591.1,373.5 602.9,366.4 602.8,343.5 			"/>
			<path id="Fill-81" class="st35" d="M602.4,345.5l0.1,20.2l-10,5.7l-0.1-20.2L602.4,345.5z M590.2,375.3l3.4-1.9l11.1-6.3l0-1.3
				l-0.1-24.1l-3.4,1.9l-10,5.7l-1.1,0.6L590.2,375.3z"/>
			<polyline id="Fill-82" class="st34" points="621.9,332.6 610.1,339.6 610.2,362.6 621.9,355.5 621.9,332.6 			"/>
			<path id="Fill-83" class="st35" d="M621.5,334.6l0.1,20.2l-10,5.7l-0.1-20.2L621.5,334.6z M609.3,364.4l13.3-7.6l1.1-0.6
				l-0.1-25.3l-3.4,1.9l-11.1,6.3l0,1.3L609.3,364.4z"/>
			<polyline id="Fill-84" class="st34" points="640.9,321.7 629.2,328.7 629.3,351.7 641,344.6 640.9,321.7 			"/>
			<path id="Fill-85" class="st35" d="M640.5,323.7l0.1,20.2l-10,5.7l-0.1-20.2L640.5,323.7z M628.4,353.5l14.5-8.3l0-1.3l-0.1-24.1
				l-3.4,1.9l-10,5.7l-1.1,0.6L628.4,353.5z"/>
			<polyline id="Fill-86" class="st34" points="658.2,311.7 646.5,318.7 646.5,341.7 658.3,334.6 658.2,311.7 			"/>
			<path id="Fill-87" class="st35" d="M657.8,313.7l0.1,20.2l-10,5.7l-0.1-20.2L657.8,313.7z M645.6,343.5l3.4-1.9l10-5.7l1.1-0.6
				l-0.1-25.3l-3.4,1.9l-10,5.7l-1.1,0.6L645.6,343.5z"/>
			<polyline id="Fill-88" class="st34" points="677.3,300.8 665.5,307.8 665.6,330.8 677.3,323.7 677.3,300.8 			"/>
			<path id="Fill-89" class="st35" d="M676.9,302.8l0.1,20.2l-10,5.7l-0.1-20.2L676.9,302.8z M664.7,332.6l14.5-8.3l0-1.3l-0.1-24.1
				l-13.3,7.6l-1.1,0.6L664.7,332.6z"/>
			<polyline id="Fill-90" class="st34" points="529.2,427.1 517.5,434.1 517.6,457 529.3,450 529.2,427.1 			"/>
			<path id="Fill-91" class="st35" d="M528.8,429.1l0.1,20.2l-10,5.7l-0.1-20.2L528.8,429.1z M516.7,458.8l13.3-7.6l1.1-0.6
				l-0.1-25.3l-13.3,7.6l-1.1,0.6L516.7,458.8z"/>
			<polyline id="Fill-92" class="st34" points="548.3,417.1 536.6,424.1 536.6,447 548.4,440 548.3,417.1 			"/>
			<path id="Fill-93" class="st35" d="M547.9,418.2l0.1,20.2l-10,5.7l-0.1-20.2L547.9,418.2z M535.7,447.9l14.5-8.3l0-1.3l-0.1-24.1
				l-14.5,8.3L535.7,447.9z"/>
			<polyline id="Fill-94" class="st34" points="567.4,406.2 555.6,413.2 555.7,436.1 567.4,429.1 567.4,406.2 			"/>
			<path id="Fill-95" class="st35" d="M566,408.2l0.1,20.2l-10,5.7l-0.1-20.2L566,408.2z M553.9,438l14.5-8.3l-0.1-25.3l-13.3,7.6
				l-1.1,0.6l0,1.3L553.9,438z"/>
			<polyline id="Fill-96" class="st34" points="584.6,395.3 572.9,402.3 573,425.2 584.7,418.2 584.6,395.3 			"/>
			<path id="Fill-97" class="st35" d="M583.3,397.3l0.1,20.2l-10,5.7l-0.1-20.2L583.3,397.3z M571.2,427.1l3.4-1.9l11.1-6.3l0-1.3
				l-0.1-24.1l-13.3,7.6l-1.1,0.6L571.2,427.1z"/>
			<polyline id="Fill-98" class="st36" points="481.2,422.5 481.2,444.8 492.9,451.6 493,429.3 481.2,422.5 			"/>
			<path id="Fill-99" class="st37" d="M482.1,424.6l10,5.7l-0.1,20.1l-10-5.7L482.1,424.6z M493.8,453.4l0.1-23.1l0-1l-0.9-0.5
				l-10-5.7l-2.7-1.5l-0.1,23.1l0,1l0.9,0.5L493.8,453.4z"/>
			<polyline id="Fill-100" class="st36" points="462.1,412.5 462.1,434.8 473.8,441.6 473.9,419.3 462.1,412.5 			"/>
			<path id="Fill-101" class="st37" d="M463,413.7l10,5.7l-0.1,20.1l-10-5.7V413.7z M474.7,442.5l0.1-24.1l-0.9-0.5l-10-5.7
				l-2.7-1.5v24.1l0.9,0.5l10,5.7L474.7,442.5z"/>
			<polyline id="Fill-102" class="st36" points="444.9,401.6 444.8,423.9 456.6,430.7 456.6,408.4 444.9,401.6 			"/>
			<path id="Fill-103" class="st37" d="M445.8,402.8l10,5.7l-0.1,20.1l-10-5.7L445.8,402.8z M457.5,431.6l0.1-24.1l-0.9-0.5
				l-12.7-7.2l-0.1,24.1l0.9,0.5l10,5.7L457.5,431.6z"/>
			<polyline id="Fill-104" class="st36" points="425.8,390.7 425.8,413 437.5,419.8 437.6,397.5 425.8,390.7 			"/>
			<path id="Fill-105" class="st37" d="M426.7,391.9l10,5.7l-0.1,20.1l-10-5.7L426.7,391.9z M438.4,420.7l0.1-24.1l-10.9-6.2
				l-2.7-1.5l-0.1,24.1l0.9,0.5L438.4,420.7z"/>
			<polyline id="Fill-106" class="st34" points="677.3,343.5 665.5,350.5 665.6,373.5 677.3,366.4 677.3,343.5 			"/>
			<path id="Fill-107" class="st35" d="M676.9,344.6l0.1,20.2l-10,5.7l-0.1-20.2L676.9,344.6z M664.7,374.4l3.4-1.9l10-5.7l1.1-0.6
				l-0.1-25.3l-13.3,7.6l-1.1,0.6L664.7,374.4z"/>
			<polyline id="Fill-108" class="st34" points="696.4,332.6 684.6,339.6 684.7,362.6 696.4,355.5 696.4,332.6 			"/>
			<path id="Fill-109" class="st35" d="M695,333.7l0.1,20.2l-10,5.7l-0.1-20.2L695,333.7z M682.9,363.5l14.5-8.3l0-1.3l-0.1-24.1
				l-14.5,8.3l0,1.3L682.9,363.5z"/>
			<polyline id="Fill-110" class="st34" points="712.7,321.7 701,328.7 701,351.7 712.8,344.6 712.7,321.7 			"/>
			<path id="Fill-111" class="st35" d="M712.3,323.7l0.1,20.2l-10,5.7l-0.1-20.2L712.3,323.7z M700.1,353.5l3.4-1.9l10-5.7l1.1-0.6
				l0-1.3l-0.1-24.1l-3.4,1.9l-10,5.7l-1.1,0.6L700.1,353.5z"/>
			<polyline id="Fill-112" class="st34" points="731.8,310.8 720,317.8 720.1,340.8 731.8,333.7 731.8,310.8 			"/>
			<path id="Fill-113" class="st35" d="M731.3,312.8l0.1,20.2l-10,5.7l-0.1-20.2L731.3,312.8z M719.2,342.6l13.3-7.6l1.1-0.6
				l-0.1-25.3l-3.4,1.9l-10,5.7l-1.1,0.6L719.2,342.6z"/>
			<polyline id="Fill-114" class="st38" points="505.7,405.2 505.7,413.4 512,409.9 512,401.6 505.7,405.2 			"/>
			<polyline id="Fill-115" class="st28" points="512,401.7 427.1,352.6 421.2,356.1 506.1,405.3 512,401.7 			"/>
			<polyline id="Fill-116" class="st27" points="421.2,356.1 414.9,352.6 414.9,360.8 421.2,364.4 421.2,356.1 			"/>
			<polyline id="Fill-117" class="st39" points="421.2,364.4 505.7,413.4 505.7,405.3 503.8,404.2 499.8,401.8 499.8,401.8 
				421.2,356.2 421.2,364.4 			"/>
			<polyline id="Fill-118" class="st28" points="550.7,371.6 499.3,401.7 505.2,405.3 556.5,375.2 550.7,371.6 			"/>
			<polyline id="Fill-119" class="st30" points="557.4,375.3 505.7,405.3 505.7,413.4 557.5,383.4 557.4,375.3 			"/>
			<polyline id="Fill-120" class="st28" points="649.6,217.2 615.6,236.5 621.5,239.9 655.5,220.7 649.6,217.2 			"/>
			<polyline id="Fill-121" class="st30" points="655.5,220.8 621.9,240.4 629.1,244.5 655.5,229 655.5,220.8 			"/>
			<polyline id="Fill-122" class="st38" points="733.7,272.5 733.7,280.8 740,277.3 740,269 733.7,272.5 			"/>
			<polyline id="Fill-123" class="st39" points="733.7,273.5 649.2,224.5 649.2,232.6 733.6,281.7 733.7,273.5 			"/>
			<polyline id="Fill-124" class="st28" points="740,270 655.4,220.8 649.2,224.2 734.1,273.5 740,270 			"/>
			<polyline id="Fill-125" class="st28" points="688.3,292.9 688.2,299.9 740,269.8 734.1,266.3 688.3,292.9 			"/>
			<polyline id="Fill-126" class="st30" points="740,269 688.2,299 688.3,307.1 740,277.2 740,269 			"/>
			<polyline id="Fill-127" class="st40" points="651.5,356.2 646.5,358.8 651.5,361.6 656.5,359.1 651.5,356.2 			"/>
			<polyline id="Fill-128" class="st38" points="650.9,361.7 646.5,358.9 646.6,402.4 651,405.3 650.9,361.7 			"/>
			<polyline id="Fill-129" class="st33" points="656.3,358.9 651.9,361.4 652,405.3 656.5,402.7 656.3,358.9 			"/>
			<polyline id="Fill-130" class="st41" points="631.9,406.2 631.9,388 646.7,394.9 646.8,402.1 649.2,403.5 649.2,403.5 
				631.9,406.2 			"/>
			<polyline id="Fill-131" class="st42" points="647.4,395.3 631.9,388.5 631.9,388 647.4,395.1 647.4,395.3 			"/>
			<polyline id="Fill-132" class="st43" points="647.4,395.3 631.9,387.7 631.9,375.9 647.3,367.1 647.4,395.3 			"/>
			<polyline id="Fill-133" class="st42" points="643.7,363.5 646.5,361.6 646.5,362.7 643.7,363.5 			"/>
			<path id="Fill-134" class="st44" d="M649.2,404.3l-2.6-1.4l0-7.3v-0.2l-0.1-27.8l2.6-1.4L649.2,404.3 M646.5,363.2l0-1.1l2.6-1.4
				l0,1.9L646.5,363.2"/>
			<polyline id="Fill-135" class="st45" points="644.2,357.1 626.5,367 631.4,369.8 649.2,359.9 644.2,357.1 			"/>
			<polyline id="Fill-136" class="st45" points="626.2,368 609.2,377.9 614,380.7 631,370.8 626.2,368 			"/>
			<polyline id="Fill-137" class="st46" points="613.7,379.9 609.2,377.1 609.3,420.6 613.8,423.4 613.7,379.9 			"/>
			<polyline id="Fill-138" class="st34" points="630.1,372.5 615.6,381.3 615.7,422.5 630.1,413.7 630.1,372.5 			"/>
			<path id="Fill-139" class="st35" d="M629.7,413l-12.7,7.5l-0.1-38.4l12.8-7.4L629.7,413z M631.9,370.7l-17.3,10l0.1,43.6
				l17.1-10.1L631.9,370.7z"/>
			<polyline id="Fill-140" class="st40" points="611.5,378.9 606.5,381.5 611.5,384.4 616.5,381.8 611.5,378.9 			"/>
			<polyline id="Fill-141" class="st47" points="606.5,380.7 606.5,424.2 611,427.1 611,383.5 606.5,380.7 			"/>
			<polyline id="Fill-142" class="st33" points="611,384.1 611,428 615.6,425.4 615.6,381.6 611,384.1 			"/>
			<polyline id="Fill-143" class="st28" points="649,354.4 625.6,358.6 635.8,364.4 659.2,360.2 649,354.4 			"/>
			<polyline id="Fill-144" class="st27" points="625.3,358 601.1,381.4 611.3,387.1 635.6,363.7 625.3,358 			"/>
			<polyline id="Fill-145" class="st33" points="611.9,388 660.1,359.8 636.4,365.5 611.9,388 			"/>
			<polyline id="Fill-146" class="st18" points="443.3,336.2 443,336.2 466.6,322.6 466.6,322.6 443.3,336.2 			"/>
			<path id="Fill-147" class="st48" d="M544.2,375.3l-71.6-41.5l0-7l78.6,44.6l-5.4,3.1l-0.2,0L544.2,375.3 M466.6,322.6
				L466.6,322.6L466.6,322.6L466.6,322.6"/>
			<polyline id="Fill-148" class="st49" points="541.1,377.1 453.9,344.6 472.3,333.9 472.3,333.5 543.8,375.5 543.3,375.8 
				541.1,377.1 			"/>
			<polyline id="Fill-149" class="st50" points="454.2,337.1 443.9,336.2 467.1,322.6 467.1,322.6 473,326.1 454.2,337.1 			"/>
			<polyline id="Fill-150" class="st51" points="454.4,345.3 454,345.1 454,337.3 453.9,337.3 473,326.2 473,326.9 473,334.5 
				454.4,345.3 			"/>
			<path id="Fill-151" class="st50" d="M542.1,377.1l-0.1,0l2.1-1.2L542.1,377.1 M557.5,375l-11.3-0.3l5.3-3L557.5,375"/>
			<polyline id="Fill-152" class="st15" points="473,290.8 473,290.8 473,290.8 			"/>
			<polyline id="Fill-153" class="st52" points="479.3,294.4 473,290.8 473,290.8 473,290.8 479.3,294.4 			"/>
			<polyline id="Fill-154" class="st50" points="582,332.6 524.5,320 479.3,293.9 473,290.3 491.2,279.9 491.3,279.9 491.3,279.9 
				582,332.6 			"/>
			<polyline id="Fill-155" class="st48" points="582,332.6 581.8,332.5 491.2,279.9 491.2,279.9 582,332.6 582,332.6 			"/>
			<polyline id="Fill-156" class="st53" points="581.1,332.6 581.1,332.6 581.1,332.6 581.1,332.6 			"/>
			<polyline id="Fill-157" class="st54" points="601.1,427.1 601.1,426.9 606.3,424 606.3,424 611,426.7 611,421.6 611,426.7 
				601.1,427.1 			"/>
			<polyline id="Fill-158" class="st53" points="601.1,427.1 601.1,381.6 606.5,384.5 606.5,424 601.1,427.1 			"/>
			<polyline id="Fill-159" class="st55" points="611,428 606.5,425.1 606.5,385.3 611,387.9 611,428 			"/>
			<polyline id="Fill-160" class="st56" points="611,427.1 611,387.1 611,427.1 			"/>
			<polyline id="Fill-161" class="st52" points="611,387.1 611,387.1 601.1,381.6 611,387 611,387.1 			"/>
			<polyline id="Fill-162" class="st29" points="652.7,364.1 660.1,359.8 636.4,364 611.9,388 619.6,383.5 636.4,367 652.7,364.1 
							"/>
			<polyline id="Fill-163" class="st57" points="572.6,227.2 508.4,264 581.4,306.2 645.6,269.4 572.6,227.2 			"/>
			<polyline id="Fill-164" class="st26" points="572.9,226.3 508.4,263.4 515.2,267.2 572.9,234.1 572.9,226.3 			"/>
			<polyline id="Fill-165" class="st49" points="716.9,275.3 643.7,234.9 643.8,234.8 649.1,231.7 649.1,231.8 720.9,273 
				716.9,275.3 			"/>
			<polyline id="Fill-166" class="st51" points="643.7,235.4 649.2,224.5 649.2,232.2 643.7,235.4 			"/>
			<polyline id="Fill-167" class="st58" points="720.4,273.5 649.2,232.4 649.2,232.4 649.2,224.9 649.4,224.5 727.3,269.6 
				720.4,273.5 			"/>
			<polyline id="Fill-168" class="st50" points="717.3,276.3 717.3,276.3 721.2,273.9 728,269.9 728.2,270 717.3,276.3 			"/>
			<path id="Fill-169" class="st49" d="M634.5,275.3L634.5,275.3l5.7-3.3L634.5,275.3 M637.1,264.1l-64.2-37.5v-0.3L637.1,264.1"/>
			<polyline id="Fill-170" class="st59" points="634.6,276.3 567.4,238 567.5,238 573,234.7 573,227.2 637.3,264.9 645.6,269.9 
				640.3,272.9 634.6,276.3 			"/>
			<polyline id="Fill-171" class="st53" points="567.4,237.2 572.9,226.3 572.9,234 567.4,237.2 			"/>
			<polyline id="Fill-172" class="st15" points="467.1,301.7 466.6,301.5 470.3,299.9 467.1,301.5 467.1,301.7 			"/>
			<polyline id="Fill-173" class="st48" points="526.6,337.1 466.6,302 466.6,301.7 526.6,337.1 			"/>
			<polyline id="Fill-174" class="st49" points="562.8,351.7 551.4,351.5 526.9,337.3 466.6,302.2 469.7,300.5 472.6,299 472.6,299 
				562.9,351.6 562.8,351.7 			"/>
			<path id="Fill-175" class="st53" d="M563.3,351.7L563.3,351.7L563.3,351.7L563.3,351.7 M563.2,351.7l-0.3,0l0.1-0.1L563.2,351.7"
				/>
			<polyline id="Fill-176" class="st52" points="563.8,351.7 563.8,351.7 563.6,351.6 473,299 473,299 473,299 563.8,351.6 
				563.8,351.7 			"/>
			<polyline id="Fill-177" class="st60" points="562.9,351.7 562.9,351.7 562.9,351.7 563,351.7 562.9,351.7 			"/>
			<path id="Fill-178" class="st28" d="M614.3,296.2c0.1-0.6,0.2-1.2,0.4-1.7c0.9-3.5,2.8-6.9,5.1-9.6c2.4-2.8,6.4-6.1,10.4-5.4
				c0.2,0,0.4,0.1,0.6,0.1c0.2,0.1,0.4,0.1,0.6,0.2c0.2,0.1,0.4,0.2,0.5,0.3l0.1,0l-0.8-0.5l-7.1-4.6c-0.2-0.1-0.3-0.2-0.5-0.3
				c-0.2-0.1-0.4-0.1-0.6-0.2c-0.2-0.1-0.4-0.1-0.6-0.1l0,0l0,0c-3.8-0.7-7.3,2.2-9.7,4.9c-2.5,2.8-4.5,6.3-5.5,10h0
				c-0.1,0.4-0.2,0.8-0.3,1.2c0-0.1,0-0.2,0,0c-0.1,0.3,0,0.1,0,0c-0.1,0.5-0.2,0.9-0.2,1.5L614.3,296.2"/>
			<path id="Fill-179" class="st1" d="M628.8,306.6c5.8-3.4,10.4-11.6,10.4-18.3c0-6.7-4.7-9.4-10.5-6c-5.8,3.4-10.4,11.6-10.4,18.3
				C618.3,307.3,623,310,628.8,306.6"/>
			<path id="Fill-180" class="st30" d="M614.2,295.6c-0.6,3.3-0.4,7.6,2.8,9.4l3.6,2.1c-3.8-2.2-3.4-7.8-2.4-11.4
				c0.9-3.4,2.8-6.7,5.1-9.4c2.4-2.8,6.4-6,10.4-5.3c0.2,0,0.4,0.1,0.6,0.1c0.2,0.1,0.4,0.1,0.6,0.2c0.2,0.1,0.4,0.2,0.5,0.3l0.1,0
				l-0.8-0.5l-2.8-1.6c-0.2-0.1-0.3-0.2-0.5-0.3c-0.2-0.1-0.4-0.1-0.6-0.2c-0.2-0.1-0.4-0.1-0.6-0.1l0,0h0c-3.9-0.6-7.6,2.2-10,4.8
				c-0.5,0.5-1,1.1-1.4,1.7l-7.8-4.4c-1.8,2.4-3.1,5.1-3.9,7.9h0c-0.1,0.4-0.2,0.8-0.3,1.2c0-0.1,0-0.2,0,0c-0.1,0.2,0,0.1,0,0
				c-0.1,0.4-0.2,0.9-0.2,1.4L614.2,295.6"/>
			<path id="Fill-181" class="st5" d="M312.7,469.7c-12.3,0-22.3-5.9-22.3-13.2c0-7.3,10-13.2,22.3-13.2c0.4,0,0.7,0,1.1,0l0,22.6
				c0,1,1.7,1.9,3.9,1.9c2.2,0,3.9-0.8,3.9-1.9l0-21.5c2.4,0.6,4.6,1.5,6.5,2.5c1.1,1.8,2.7,3.3,4.7,4.5l0.8,0.5
				c0.9,1.4,1.4,3,1.4,4.6C334.9,463.9,325,469.7,312.7,469.7"/>
			<path id="Fill-182" class="st61" d="M333.1,451.6l-0.8-0.4c-2-1.1-3.6-2.5-4.7-4.1C330.1,448.3,332,449.8,333.1,451.6"/>
			<path id="Fill-183" class="st7" d="M321.5,440.4c-1.2,0-2.4-0.3-3.5-0.8l-1.3,2.8c1.5,0.7,3.1,1,4.7,1c6.4,0,11.6-5.2,11.6-11.6
				l0-3.5c0-0.7-0.1-1.5-0.2-2.2l-3,0.5c0.1,0.5,0.1,1.1,0.1,1.6l0,3.5C330.1,436.6,326.2,440.4,321.5,440.4"/>
			<path id="Fill-184" class="st7" d="M321.3,465.2l0-40.9h-8.2l0,40.9c0,1,1.8,1.8,4.1,1.8C319.5,467,321.3,466.2,321.3,465.2"/>
			<path id="Fill-185" class="st8" d="M344.9,406.2c0-16.6-13.4-30-30-30c-16.6,0-30,13.4-30,30c0,16.6,13.4,30,30,30
				C331.5,436.1,344.9,422.7,344.9,406.2"/>
			<path id="Fill-186" class="st62" d="M285,406.1C285,406.1,285,406.1,285,406.1C285,406.1,285,406.1,285,406.1 M285,406.1
				C285,406.1,285,406.1,285,406.1C285,406.1,285,406.1,285,406.1 M285,405.9C285,405.9,285,405.9,285,405.9
				C285,405.9,285,405.9,285,405.9 M285,405.9C285,405.9,285,405.9,285,405.9C285,405.9,285,405.9,285,405.9 M285,405.7
				C285,405.7,285,405.7,285,405.7C285,405.7,285,405.7,285,405.7 M285,405.7C285,405.7,285,405.7,285,405.7
				C285,405.7,285,405.7,285,405.7 M285,405.5C285,405.5,285,405.5,285,405.5C285,405.5,285,405.5,285,405.5 M285,405.5
				C285,405.5,285,405.5,285,405.5C285,405.5,285,405.5,285,405.5 M285,405.3C285,405.3,285,405.3,285,405.3
				C285,405.3,285,405.3,285,405.3 M285,405.3C285,405.3,285,405.3,285,405.3C285,405.3,285,405.3,285,405.3"/>
			<path id="Fill-187" class="st10" d="M315,436.1C315,436.1,315,436.1,315,436.1C315,436.1,315,436.1,315,436.1 M315,436.1
				C315,436.1,315,436.1,315,436.1C315,436.1,315,436.1,315,436.1 M315.1,436.1C315.1,436.1,315.1,436.1,315.1,436.1
				C315.1,436.1,315.1,436.1,315.1,436.1 M315.2,436.1C315.2,436.1,315.2,436.1,315.2,436.1C315.2,436.1,315.2,436.1,315.2,436.1"/>
			<path id="Fill-188" class="st11" d="M314.9,436.1c-16.5,0-29.9-13.5-29.9-30.1c0,0,0,0,0-0.1c0,0,0,0,0,0c0,0,0,0,0-0.1
				c0,0,0,0,0,0c0,0,0-0.1,0-0.1c0,0,0,0,0,0c0,0,0,0,0-0.1c0,0,0,0,0,0c0,0,0-0.1,0-0.1c0,0,0,0,0,0c0,0,0,0,0-0.1c0,0,0,0,0,0
				c0-0.1,0-0.1,0-0.2c0,0,0,0,0,0c0,0,0,0,0-0.1c0,0,0,0,0,0c0-0.1,0-0.1,0-0.2c0,0,0,0,0,0c0,0,0-0.1,0-0.1c0,0,0,0,0,0
				c0.5-13.4,9.7-24.5,22-27.9c-7.6,5.4-12.6,14.4-12.6,24.5c0,16.6,13.4,30.1,29.9,30.1c2.7,0,5.4-0.4,7.9-1.1
				c-4.8,3.4-10.7,5.5-17,5.6c0,0,0,0,0,0c0,0,0,0-0.1,0c0,0,0,0,0,0c0,0,0,0-0.1,0c0,0,0,0,0,0C315,436.1,315,436.1,314.9,436.1
				C315,436.1,315,436.1,314.9,436.1C314.9,436.1,314.9,436.1,314.9,436.1"/>
			<path id="Fill-189" class="st8" d="M353.1,405.3c0-10-8.1-18.2-18.2-18.2s-18.2,8.1-18.2,18.2s8.1,18.2,18.2,18.2
				C345,423.4,353.1,415.3,353.1,405.3"/>
			<path id="Fill-190" class="st8" d="M329.5,387.5c0-10.3-8.3-18.6-18.6-18.6c-10.3,0-18.6,8.3-18.6,18.6
				c0,10.3,8.3,18.6,18.6,18.6C321.2,406.2,329.5,397.8,329.5,387.5"/>
			<path id="Fill-191" class="st8" d="M309.5,400.7c0-8.5-6.9-15.4-15.4-15.4c-8.5,0-15.4,6.9-15.4,15.4c0,8.5,6.9,15.4,15.4,15.4
				C302.6,416.2,309.5,409.2,309.5,400.7"/>
			<path id="Fill-192" class="st5" d="M187.4,385.3c-12.3,0-22.3-5.7-22.3-12.8c0-6.5,8.3-11.8,19.1-12.7c1.3,0.7,2.7,1.2,4.2,1.3
				v20.4c0,1,1.7,1.8,3.9,1.8c2.2,0,3.9-0.8,3.9-1.8v-20.8c7.9,2,13.4,6.5,13.4,11.7C209.6,379.5,199.6,385.3,187.4,385.3"/>
			<path id="Fill-193" class="st7" d="M178,343.5c-0.1,0.7-0.2,1.4-0.2,2.2l0,3.5c0,6.4,5.2,11.6,11.6,11.6c1.7,0,3.2-0.4,4.7-1.1
				l-1.3-2.8c-1.1,0.5-2.3,0.8-3.5,0.8c-4.7,0-8.5-3.8-8.6-8.5l0-3.5c0-0.5,0-1.1,0.1-1.6L178,343.5"/>
			<path id="Fill-194" class="st7" d="M196.9,381.6l0-40.9h-8.2l0,40.9c0,1,1.8,1.8,4.1,1.8C195.1,383.4,196.9,382.6,196.9,381.6"/>
			<path id="Fill-195" class="st8" d="M220.5,322.6c0-16.6-13.4-30-30-30s-30,13.4-30,30c0,16.6,13.4,30,30,30
				S220.5,339.1,220.5,322.6"/>
			<path id="Fill-196" class="st62" d="M160.6,321.7C160.6,321.7,160.6,321.7,160.6,321.7C160.6,321.7,160.6,321.7,160.6,321.7
				 M160.6,321.7C160.6,321.7,160.6,321.7,160.6,321.7C160.6,321.7,160.6,321.7,160.6,321.7 M160.6,321.5
				C160.6,321.5,160.6,321.5,160.6,321.5C160.6,321.5,160.6,321.5,160.6,321.5 M160.6,321.5C160.6,321.5,160.6,321.5,160.6,321.5
				C160.6,321.5,160.6,321.5,160.6,321.5 M160.6,321.4C160.6,321.4,160.6,321.4,160.6,321.4C160.6,321.4,160.6,321.4,160.6,321.4
				 M160.6,321.3C160.6,321.3,160.6,321.3,160.6,321.3C160.6,321.3,160.6,321.3,160.6,321.3 M160.6,321.2
				C160.6,321.2,160.6,321.2,160.6,321.2C160.6,321.2,160.6,321.2,160.6,321.2 M160.6,321.1C160.6,321.1,160.6,321.1,160.6,321.1
				C160.6,321.1,160.6,321.1,160.6,321.1 M160.6,321C160.6,321,160.6,321,160.6,321C160.6,321,160.6,321,160.6,321 M160.6,320.9
				C160.6,320.9,160.6,320.9,160.6,320.9C160.6,320.9,160.6,320.9,160.6,320.9 M160.6,320.8L160.6,320.8
				C160.6,320.8,160.6,320.8,160.6,320.8"/>
			<path id="Fill-197" class="st10" d="M190.5,352.6C190.5,352.6,190.5,352.6,190.5,352.6C190.5,352.6,190.5,352.6,190.5,352.6
				 M190.6,352.6C190.6,352.6,190.6,352.6,190.6,352.6C190.6,352.6,190.6,352.6,190.6,352.6 M190.7,352.6
				C190.7,352.6,190.7,352.6,190.7,352.6C190.7,352.6,190.7,352.6,190.7,352.6 M190.7,352.6C190.7,352.6,190.7,352.6,190.7,352.6
				C190.7,352.6,190.7,352.6,190.7,352.6"/>
			<path id="Fill-198" class="st11" d="M190.5,352.6c-3,0-5.9-0.5-8.7-1.3c-1.1-0.3-2.2-0.7-3.2-1.2c-10.6-4.6-18-15.2-18-27.6
				c0,0,0,0,0-0.1c0,0,0,0,0,0c0,0,0,0,0-0.1c0,0,0,0,0,0c0,0,0-0.1,0-0.1c0,0,0,0,0-0.1c0,0,0,0,0,0c0,0,0,0,0-0.1c0,0,0,0,0,0
				c0,0,0-0.1,0-0.1c0,0,0,0,0,0c0,0,0,0,0-0.1c0,0,0,0,0,0c0,0,0-0.1,0-0.1c0,0,0,0,0-0.1c0,0,0,0,0,0c0,0,0,0,0-0.1c0,0,0,0,0,0
				c0-0.1,0-0.1,0-0.2c0,0,0,0,0,0c0,0,0-0.1,0-0.1c0,0,0,0,0,0c0-0.1,0-0.2,0-0.2c0,0,0,0,0,0c0.6-13.3,9.7-24.3,22-27.6
				C175,299,170,307.9,170,318c0,16.6,13.4,30.1,29.9,30.1c2.7,0,5.4-0.4,7.9-1.1c-4.8,3.4-10.7,5.5-17,5.6c0,0,0,0,0,0
				c0,0,0,0-0.1,0c0,0,0,0,0,0c0,0,0,0-0.1,0c0,0,0,0,0,0C190.6,352.6,190.6,352.6,190.5,352.6C190.5,352.6,190.5,352.6,190.5,352.6
				C190.5,352.6,190.5,352.6,190.5,352.6"/>
			<path id="Fill-199" class="st8" d="M228.7,321.7c0-10-8.1-18.2-18.2-18.2c-10,0-18.2,8.1-18.2,18.2c0,10,8.1,18.2,18.2,18.2
				C220.5,339.8,228.7,331.7,228.7,321.7"/>
			<path id="Fill-200" class="st8" d="M204.2,304c0-10.3-8.3-18.6-18.6-18.6c-10.3,0-18.6,8.3-18.6,18.6c0,10.3,8.3,18.6,18.6,18.6
				C195.8,322.6,204.2,314.2,204.2,304"/>
			<path id="Fill-201" class="st8" d="M185.1,317.1c0-8.5-6.9-15.4-15.4-15.4c-8.5,0-15.4,6.9-15.4,15.4c0,8.5,6.9,15.4,15.4,15.4
				C178.2,332.6,185.1,325.7,185.1,317.1"/>
			<path id="Fill-202" class="st5" d="M442.6,119.1c-12.3,0-22.3-5.9-22.3-13.2c0-7.3,10-13.2,22.3-13.2c2.2,0,4.4,0.2,6.4,0.6
				l0,20.2c0,1,1.7,1.9,3.9,1.9c2.2,0,3.9-0.8,3.9-1.9l0-17.7c4.9,2.4,8,6.1,8,10.1C464.8,113.2,454.9,119.1,442.6,119.1"/>
			<path id="Fill-203" class="st6" d="M438.7,75.5c-0.1,0.7-0.2,1.4-0.2,2.2l0,3.5c0,6.4,5.2,11.6,11.6,11.6c1.7,0,3.2-0.4,4.7-1
				l-1.3-2.8c-1.1,0.5-2.3,0.8-3.5,0.8c-4.7,0-8.5-3.8-8.6-8.5l0-3.5c0-0.5,0-1.1,0.1-1.6L438.7,75.5"/>
			<path id="Fill-204" class="st7" d="M457.6,112.7l0-40.9l-8.2,0l0,40.9c0,1,1.8,1.8,4.1,1.8C455.7,114.6,457.6,113.7,457.6,112.7"
				/>
			<path id="Fill-205" class="st8" d="M480.3,53.7c0-16.6-13.4-30-30-30c-16.6,0-30,13.4-30,30c0,16.6,13.4,30,30,30
				S480.3,70.2,480.3,53.7"/>
			<path id="Fill-206" class="st9" d="M420.3,53.7C420.3,53.7,420.3,53.7,420.3,53.7C420.3,53.7,420.3,53.7,420.3,53.7 M420.3,53.7
				C420.3,53.7,420.3,53.7,420.3,53.7C420.3,53.7,420.3,53.7,420.3,53.7 M420.3,53.6C420.3,53.6,420.3,53.6,420.3,53.6
				C420.3,53.6,420.3,53.6,420.3,53.6 M420.3,53.5C420.3,53.5,420.3,53.5,420.3,53.5C420.3,53.5,420.3,53.5,420.3,53.5 M420.3,53.4
				C420.3,53.4,420.3,53.4,420.3,53.4C420.3,53.4,420.3,53.4,420.3,53.4 M420.3,53.3C420.3,53.3,420.3,53.3,420.3,53.3
				C420.3,53.3,420.3,53.3,420.3,53.3 M420.3,53.2C420.3,53.2,420.3,53.2,420.3,53.2C420.3,53.2,420.3,53.2,420.3,53.2 M420.3,53.1
				C420.3,53.1,420.3,53.1,420.3,53.1C420.3,53.1,420.3,53.1,420.3,53.1 M420.3,53C420.3,53,420.3,53,420.3,53
				C420.3,53,420.3,53,420.3,53 M420.3,53C420.3,53,420.3,53,420.3,53C420.3,53,420.3,53,420.3,53 M420.3,52.8L420.3,52.8
				L420.3,52.8"/>
			<path id="Fill-207" class="st10" d="M451.2,83.7C451.2,83.7,451.2,83.7,451.2,83.7C451.2,83.7,451.2,83.7,451.2,83.7 M451.3,83.7
				C451.3,83.7,451.3,83.7,451.3,83.7C451.3,83.7,451.3,83.7,451.3,83.7 M451.3,83.7C451.3,83.7,451.3,83.7,451.3,83.7
				C451.3,83.7,451.3,83.7,451.3,83.7 M451.4,83.7C451.4,83.7,451.4,83.7,451.4,83.7C451.4,83.7,451.4,83.7,451.4,83.7"/>
			<path id="Fill-208" class="st11" d="M450.2,83.7c-3,0-5.9-0.4-8.7-1.3c-1.1-0.3-2.2-0.7-3.2-1.2c-10.6-4.6-18-15.2-18-27.6
				c0,0,0,0,0-0.1c0,0,0,0,0,0c0,0,0,0,0-0.1c0,0,0,0,0,0c0,0,0-0.1,0-0.1c0,0,0,0,0,0c0,0,0,0,0-0.1c0,0,0,0,0,0c0-0.1,0-0.1,0-0.1
				c0,0,0,0,0,0c0,0,0,0,0-0.1c0,0,0,0,0,0c0-0.1,0-0.1,0-0.2c0,0,0,0,0,0c0,0,0,0,0-0.1c0,0,0,0,0,0c0-0.1,0-0.1,0-0.2c0,0,0,0,0,0
				c0,0,0-0.1,0-0.1c0,0,0,0,0,0c0-0.1,0-0.2,0-0.2v0c0.6-13.3,9.7-24.3,22-27.6c-7.6,5.4-12.6,14.4-12.6,24.5
				c0,16.6,13.4,30.1,29.9,30.1c2.7,0,5.4-0.4,7.9-1.1c-4.8,3.4-10.7,5.5-17,5.6c0,0,0,0,0,0c0,0,0,0-0.1,0c0,0,0,0,0,0
				c0,0,0,0-0.1,0c0,0,0,0,0,0C450.3,83.7,450.3,83.7,450.2,83.7C450.3,83.7,450.3,83.7,450.2,83.7
				C450.3,83.7,450.2,83.7,450.2,83.7"/>
			<path id="Fill-209" class="st8" d="M489.3,56.4c0-11-8.9-20-20-20c-11,0-20,8.9-20,20c0,11,8.9,20,20,20
				C480.4,76.4,489.3,67.5,489.3,56.4"/>
			<path id="Fill-210" class="st8" d="M470.3,30.1c0-10.5-8.5-19.1-19.1-19.1c-10.5,0-19.1,8.5-19.1,19.1c0,10.5,8.5,19.1,19.1,19.1
				C461.7,49.2,470.3,40.6,470.3,30.1"/>
			<path id="Fill-211" class="st8" d="M448.5,43.7c0-8.5-6.9-15.4-15.4-15.4c-8.5,0-15.4,6.9-15.4,15.4c0,8.5,6.9,15.4,15.4,15.4
				C441.6,59.1,448.5,52.2,448.5,43.7"/>
			<path id="Fill-212" class="st8" d="M457.6,60.5c0-8.3-6.7-15-15-15c-8.3,0-15,6.7-15,15c0,8.3,6.7,15,15,15
				C450.8,75.5,457.6,68.8,457.6,60.5"/>
			<path id="Fill-213" class="st8" d="M487.5,36.9c0-7.3-5.9-13.2-13.2-13.2c-7.3,0-13.2,5.9-13.2,13.2c0,7.3,5.9,13.2,13.2,13.2
				C481.6,50.1,487.5,44.2,487.5,36.9"/>
			<path id="Fill-214" class="st5" d="M374.4,507.9c-12.3,0-22.3-5.9-22.3-13.2c0-6.9,8.9-12.5,20.2-13.1c1.6,1.2,3.5,2,5.5,2.2
				l0,21.1c0,1,1.7,1.9,3.9,1.9c2.2,0,3.9-0.8,3.9-1.9l0-21.6c6.5,2.3,10.9,6.5,10.9,11.4C396.7,502,386.7,507.9,374.4,507.9"/>
			<path id="Fill-215" class="st7" d="M367.8,466.1c-0.1,0.7-0.2,1.4-0.2,2.2l0,3.5c0,6.4,5.2,11.6,11.6,11.6c1.7,0,3.2-0.4,4.7-1.1
				l-1.3-2.8c-1.1,0.5-2.3,0.8-3.5,0.8c-4.7,0-8.5-3.8-8.6-8.5l0-3.5c0-0.5,0-1.1,0.1-1.6L367.8,466.1"/>
			<path id="Fill-216" class="st7" d="M385.8,504.3l0-40.9h-8.2l0,40.9c0,1,1.8,1.8,4.1,1.8C384,506.1,385.8,505.3,385.8,504.3"/>
			<path id="Fill-217" class="st8" d="M409.4,445.2c0-16.6-13.4-30-30-30s-30,13.4-30,30c0,16.6,13.4,30,30,30
				C396,475.2,409.4,461.8,409.4,445.2"/>
			<path id="Fill-218" class="st9" d="M349.5,444.3C349.5,444.3,349.5,444.3,349.5,444.3C349.5,444.3,349.5,444.3,349.5,444.3
				 M349.5,444.2C349.5,444.2,349.5,444.2,349.5,444.2C349.5,444.2,349.5,444.2,349.5,444.2 M349.5,444.1
				C349.5,444.1,349.5,444.1,349.5,444.1C349.5,444.1,349.5,444.1,349.5,444.1 M349.5,444C349.5,444,349.5,444,349.5,444
				C349.5,444,349.5,444,349.5,444 M349.5,443.9C349.5,443.9,349.5,443.9,349.5,443.9C349.5,443.9,349.5,443.9,349.5,443.9
				 M349.5,443.8C349.5,443.8,349.5,443.8,349.5,443.8C349.5,443.8,349.5,443.8,349.5,443.8 M349.5,443.7
				C349.5,443.7,349.5,443.7,349.5,443.7C349.5,443.7,349.5,443.7,349.5,443.7 M349.5,443.6C349.5,443.6,349.5,443.6,349.5,443.6
				C349.5,443.6,349.5,443.6,349.5,443.6 M349.5,443.5C349.5,443.5,349.5,443.5,349.5,443.5C349.5,443.5,349.5,443.5,349.5,443.5
				 M349.5,443.4C349.5,443.4,349.5,443.4,349.5,443.4C349.5,443.4,349.5,443.4,349.5,443.4"/>
			<path id="Fill-219" class="st10" d="M379.4,475.2C379.4,475.2,379.5,475.2,379.4,475.2C379.5,475.2,379.4,475.2,379.4,475.2
				 M379.5,475.2C379.5,475.2,379.5,475.2,379.5,475.2C379.5,475.2,379.5,475.2,379.5,475.2 M379.6,475.2
				C379.6,475.2,379.6,475.2,379.6,475.2C379.6,475.2,379.6,475.2,379.6,475.2 M379.6,475.2C379.6,475.2,379.6,475.2,379.6,475.2
				C379.6,475.2,379.6,475.2,379.6,475.2"/>
			<path id="Fill-220" class="st11" d="M379.4,475.2c-3,0-5.9-0.4-8.7-1.3c-1.1-0.3-2.2-0.7-3.2-1.2c-10.6-4.6-18-15.2-18-27.6
				c0,0,0,0,0-0.1c0,0,0,0,0,0c0,0,0,0,0-0.1c0,0,0,0,0,0c0,0,0-0.1,0-0.1c0,0,0,0,0,0c0,0,0,0,0-0.1c0,0,0,0,0,0c0,0,0-0.1,0-0.1
				c0,0,0,0,0,0c0,0,0,0,0-0.1c0,0,0,0,0,0c0-0.1,0-0.1,0-0.2c0,0,0,0,0,0c0,0,0,0,0-0.1c0,0,0,0,0,0c0-0.1,0-0.1,0-0.2c0,0,0,0,0,0
				c0,0,0-0.1,0-0.1c0,0,0,0,0,0c0.5-13.4,9.7-24.5,22-27.9c-7.6,5.4-12.6,14.4-12.6,24.5c0,16.6,13.4,30.1,29.9,30.1
				c2.7,0,5.4-0.4,7.9-1.1c-4.8,3.4-10.7,5.5-17,5.6c0,0,0,0,0,0c0,0,0,0-0.1,0c0,0,0,0,0,0c0,0,0,0-0.1,0c0,0,0,0,0,0
				C379.5,475.2,379.5,475.2,379.4,475.2C379.4,475.2,379.4,475.2,379.4,475.2C379.4,475.2,379.4,475.2,379.4,475.2"/>
			<path id="Fill-221" class="st8" d="M416.7,434.3c0-10-8.1-18.2-18.2-18.2c-10,0-18.2,8.1-18.2,18.2c0,10,8.1,18.2,18.2,18.2
				C408.5,452.5,416.7,444.4,416.7,434.3"/>
			<path id="Fill-222" class="st8" d="M389.4,428.4c0-10.3-8.3-18.6-18.6-18.6c-10.3,0-18.6,8.3-18.6,18.6
				c0,10.3,8.3,18.6,18.6,18.6C381.1,447,389.4,438.7,389.4,428.4"/>
			<path id="Fill-223" class="st8" d="M374.9,441.6c0-8.5-6.9-15.4-15.4-15.4c-8.5,0-15.4,6.9-15.4,15.4c0,8.5,6.9,15.4,15.4,15.4
				C368,457,374.9,450.1,374.9,441.6"/>
			<path id="Fill-224" class="st63" d="M459.5,186.9c0,0-0.1,0-0.1,0l0.9-0.5l0,0C460.1,186.7,459.8,186.9,459.5,186.9"/>
			<path id="Fill-225" class="st5" d="M412.8,185.4c-0.3-0.2-0.5-0.4-0.6-0.8c-0.1-0.3,0-0.7,0.1-1c0,0,0,0.1,0,0.1
				C412,184.3,412.2,185,412.8,185.4L412.8,185.4 M415.4,183.5l-1.5-0.5c-0.1-0.1-0.3-0.1-0.4-0.1c-0.4,0-0.7,0.2-1,0.4
				c0.2-0.2,0.4-0.3,0.6-0.4l7.1-1.9l1.2,0.7L415.4,183.5 M424.4,180.9l-1.2-0.7l11-3c0.1,0,0.2,0,0.4,0c0.1,0,0.2,0,0.3,0l9,2.3
				v0.8l-9.1-2.5L424.4,180.9"/>
			<path id="Fill-226" class="st63" d="M418.3,184.5l-2.5-0.9l6-1.7l2,1.1L418.3,184.5 M443.9,182.5l-9.2-2.4l-8,2.1l-2.1-1.2
				l10.3-3l9,2.5V182.5"/>
			<polyline id="Fill-227" class="st64" points="423.6,182.7 421.6,181.5 420.3,180.8 423.3,180 426.7,181.9 423.6,182.7 			"/>
			<path id="Fill-228" class="st5" d="M412.1,183.8C412.1,183.8,412.1,183.8,412.1,183.8C412.1,183.8,412.1,183.8,412.1,183.8
				 M412.1,183.8C412.1,183.8,412.1,183.8,412.1,183.8C412.1,183.8,412.1,183.8,412.1,183.8 M412.3,183.6
				C412.3,183.6,412.3,183.6,412.3,183.6C412.3,183.6,412.3,183.6,412.3,183.6"/>
			<path id="Fill-229" class="st63" d="M485.8,224.5l-4.3-1.3l-0.3-0.2l7.7-2.2l3.2,1.9L485.8,224.5 M511.1,222.2l-9.2-2.2l-6.9,1.9
				l-3.2-1.9l9.7-2.7c0.1,0,0.2,0,0.4,0c0.1,0,0.2,0,0.3,0l9,2.1V222.2"/>
			<polyline id="Fill-230" class="st64" points="491.8,222.7 488.4,220.8 491.5,219.9 494.8,221.8 491.8,222.7 			"/>
			<path id="Fill-231" class="st5" d="M480.5,225.5c-0.1,0-0.1,0-0.2-0.1C480.3,225.4,480.4,225.4,480.5,225.5L480.5,225.5"/>
			<path id="Fill-232" class="st5" d="M443.5,548.8c-12.3,0-22.3-5.9-22.3-13.2c0-7.3,10-13.2,22.3-13.2c1.3,0,2.5,0.1,3.7,0.2l0,23
				c0,1,1.7,1.9,3.9,1.9c2.2,0,3.9-0.8,3.9-1.9v-21.3c6.5,2.3,10.8,6.5,10.8,11.3C465.7,542.9,455.8,548.8,443.5,548.8"/>
			<path id="Fill-233" class="st7" d="M454.8,544.2v-40.9h-8.2l0,40.9c0,1,1.8,1.8,4.1,1.8C453,546.1,454.8,545.2,454.8,544.2"/>
			<path id="Fill-234" class="st8" d="M478.4,485.2c0-16.6-13.4-30-30-30c-16.6,0-30,13.4-30,30c0,16.6,13.4,30,30,30
				C465,515.2,478.4,501.7,478.4,485.2"/>
			<path id="Fill-235" class="st10" d="M448.5,515.2C448.5,515.2,448.5,515.2,448.5,515.2C448.5,515.2,448.5,515.2,448.5,515.2
				 M448.5,515.2C448.5,515.2,448.5,515.2,448.5,515.2C448.5,515.2,448.5,515.2,448.5,515.2 M448.6,515.2
				C448.6,515.2,448.6,515.2,448.6,515.2C448.6,515.2,448.6,515.2,448.6,515.2 M448.7,515.2C448.7,515.2,448.7,515.2,448.7,515.2
				C448.7,515.2,448.7,515.2,448.7,515.2"/>
			<path id="Fill-236" class="st9" d="M418.5,485.1C418.5,485.1,418.5,485.1,418.5,485.1C418.5,485.1,418.5,485.1,418.5,485.1
				 M418.5,485C418.5,485,418.5,485,418.5,485C418.5,485,418.5,485,418.5,485 M418.5,484.9C418.5,484.9,418.5,484.9,418.5,484.9
				C418.5,484.9,418.5,484.9,418.5,484.9 M418.5,484.8C418.5,484.8,418.5,484.8,418.5,484.8C418.5,484.8,418.5,484.8,418.5,484.8
				 M418.5,484.7C418.5,484.7,418.5,484.7,418.5,484.7C418.5,484.7,418.5,484.7,418.5,484.7 M418.5,484.6
				C418.5,484.6,418.5,484.6,418.5,484.6C418.5,484.6,418.5,484.6,418.5,484.6 M418.5,484.5C418.5,484.5,418.5,484.5,418.5,484.5
				C418.5,484.5,418.5,484.5,418.5,484.5 M418.5,484.4C418.5,484.4,418.5,484.4,418.5,484.4C418.5,484.4,418.5,484.4,418.5,484.4
				 M418.5,484.3C418.5,484.3,418.5,484.3,418.5,484.3"/>
			<path id="Fill-237" class="st11" d="M448.4,515.2c-16.5,0-29.9-13.5-29.9-30.1c0,0,0,0,0-0.1c0,0,0,0,0,0c0,0,0,0,0-0.1
				c0,0,0,0,0,0c0-0.1,0-0.1,0-0.1c0,0,0,0,0,0c0,0,0,0,0-0.1c0,0,0,0,0,0c0,0,0-0.1,0-0.2c0,0,0,0,0,0c0,0,0,0,0-0.1c0,0,0,0,0,0
				c0-0.1,0-0.1,0-0.2c0,0,0,0,0,0c0,0,0-0.1,0-0.1c0,0,0,0,0,0c0-0.1,0-0.1,0-0.2c0,0,0,0,0,0c0.5-13.4,9.6-24.6,22-27.9
				c-7.6,5.4-12.6,14.4-12.6,24.5c0,16.6,13.4,30.1,29.9,30.1c2.7,0,5.4-0.4,7.9-1.1c-4.8,3.4-10.7,5.5-17,5.6c0,0,0,0,0,0
				c0,0,0,0-0.1,0c0,0,0,0,0,0c0,0,0,0-0.1,0c0,0,0,0,0,0C448.5,515.2,448.5,515.2,448.4,515.2C448.5,515.2,448.5,515.2,448.4,515.2
				C448.4,515.2,448.4,515.2,448.4,515.2"/>
			<path id="Fill-238" class="st8" d="M485.7,487c0-10-8.1-18.2-18.2-18.2c-10,0-18.2,8.1-18.2,18.2c0,10,8.1,18.2,18.2,18.2
				C477.6,505.2,485.7,497,485.7,487"/>
			<path id="Fill-239" class="st8" d="M462.1,470.2c0-10.3-8.3-18.6-18.6-18.6s-18.6,8.3-18.6,18.6c0,10.3,8.3,18.6,18.6,18.6
				C453.8,488.8,462.1,480.5,462.1,470.2"/>
			<path id="Fill-240" class="st8" d="M443.9,487c0-8.5-6.9-15.4-15.4-15.4c-8.5,0-15.4,6.9-15.4,15.4c0,8.5,6.9,15.4,15.4,15.4
				C437,502.5,443.9,495.5,443.9,487"/>
			<path id="Fill-241" class="st5" d="M807.7,314.4c-12.3,0-22.3-5.9-22.3-13.2c0-7.3,10-13.2,22.3-13.2c2.2,0,4.4,0.2,6.4,0.5v20.8
				c0,1,1.7,1.9,3.9,1.9c2.2,0,3.9-0.8,3.9-1.9v-18.3c4.9,2.4,8.1,6.1,8.1,10.2C829.9,308.5,820,314.4,807.7,314.4"/>
			<path id="Fill-242" class="st6" d="M803.8,270.8c-0.1,0.7-0.2,1.4-0.2,2.2l0,3.5c0,6.4,5.2,11.6,11.6,11.6c1.7,0,3.2-0.4,4.7-1.1
				l-1.3-2.8c-1.1,0.5-2.3,0.8-3.5,0.8c-4.7,0-8.5-3.8-8.6-8.5l0-3.5c0-0.5,0-1.1,0.1-1.6L803.8,270.8"/>
			<path id="Fill-243" class="st7" d="M821.7,309v-40.9h-8.2V309c0,1,1.8,1.8,4.1,1.8C819.9,310.8,821.7,310,821.7,309"/>
			<path id="Fill-244" class="st8" d="M845.4,249.9c0-16.6-13.4-30-30-30c-16.6,0-30,13.4-30,30s13.4,30,30,30
				C831.9,279.9,845.4,266.5,845.4,249.9"/>
			<path id="Fill-245" class="st9" d="M785.4,249.9C785.4,249.9,785.4,249.9,785.4,249.9C785.4,249.9,785.4,249.9,785.4,249.9
				 M785.4,249.8C785.4,249.8,785.4,249.8,785.4,249.8C785.4,249.8,785.4,249.8,785.4,249.8 M785.4,249.7
				C785.4,249.7,785.4,249.7,785.4,249.7C785.4,249.7,785.4,249.7,785.4,249.7 M785.4,249.6C785.4,249.6,785.4,249.6,785.4,249.6
				C785.4,249.6,785.4,249.6,785.4,249.6 M785.4,249.5C785.4,249.5,785.4,249.5,785.4,249.5C785.4,249.5,785.4,249.5,785.4,249.5
				 M785.4,249.4C785.4,249.4,785.4,249.4,785.4,249.4C785.4,249.4,785.4,249.4,785.4,249.4 M785.4,249.3
				C785.4,249.3,785.4,249.3,785.4,249.3C785.4,249.3,785.4,249.3,785.4,249.3 M785.4,249.2C785.4,249.2,785.4,249.2,785.4,249.2
				C785.4,249.2,785.4,249.2,785.4,249.2 M785.4,249.1L785.4,249.1C785.4,249.1,785.4,249.1,785.4,249.1 M785.4,249
				C785.4,249,785.4,249,785.4,249C785.4,249,785.4,249,785.4,249"/>
			<path id="Fill-246" class="st10" d="M815.4,279.9C815.4,279.9,815.4,279.9,815.4,279.9C815.4,279.9,815.4,279.9,815.4,279.9
				 M815.5,279.9C815.5,279.9,815.5,279.9,815.5,279.9C815.5,279.9,815.5,279.9,815.5,279.9 M815.5,279.9
				C815.5,279.9,815.5,279.9,815.5,279.9C815.5,279.9,815.5,279.9,815.5,279.9 M815.6,279.9C815.6,279.9,815.6,279.9,815.6,279.9
				C815.6,279.9,815.6,279.9,815.6,279.9"/>
			<path id="Fill-247" class="st11" d="M815.3,279.9c-3,0-5.9-0.4-8.7-1.3c-1.1-0.3-2.2-0.7-3.2-1.2c0,0,0,0-0.1,0
				c-2.2-1-4.2-2.2-6.1-3.6c-7.2-5.5-11.9-14.2-11.9-24c0,0,0-0.1,0-0.1c0,0,0,0,0,0c0,0,0,0,0-0.1c0,0,0,0,0,0c0,0,0-0.1,0-0.1
				c0,0,0,0,0,0c0,0,0,0,0-0.1c0,0,0,0,0,0c0,0,0-0.1,0-0.1c0,0,0,0,0,0c0,0,0,0,0-0.1c0,0,0,0,0,0c0-0.1,0-0.1,0-0.2c0,0,0,0,0,0
				c0,0,0,0,0-0.1c0,0,0,0,0,0c0-0.1,0-0.1,0-0.2c0,0,0,0,0,0c0,0,0-0.1,0-0.1c0,0,0,0,0,0c0.5-13.4,9.7-24.5,22-27.9
				c-7.6,5.4-12.6,14.4-12.6,24.5c0,16.6,13.4,30.1,29.9,30.1c2.7,0,5.4-0.4,7.9-1.1c-4.8,3.4-10.7,5.5-17,5.6c0,0,0,0,0,0
				c0,0,0,0-0.1,0c0,0,0,0,0,0c0,0,0,0-0.1,0c0,0,0,0,0,0C815.4,279.9,815.4,279.9,815.3,279.9C815.4,279.9,815.4,279.9,815.3,279.9
				C815.4,279.9,815.3,279.9,815.3,279.9"/>
			<path id="Fill-248" class="st8" d="M848.1,231.7c0-11-8.9-20-20-20c-11,0-20,8.9-20,20c0,11,8.9,20,20,20
				C839.1,251.7,848.1,242.8,848.1,231.7"/>
			<path id="Fill-249" class="st8" d="M829.9,237.6c0-11.8-9.6-21.3-21.3-21.3c-11.8,0-21.3,9.6-21.3,21.3
				c0,11.8,9.6,21.3,21.3,21.3C820.4,259,829.9,249.4,829.9,237.6"/>
			<path id="Fill-250" class="st8" d="M809.9,245.4c0-8.5-6.9-15.4-15.4-15.4c-8.5,0-15.4,6.9-15.4,15.4c0,8.5,6.9,15.4,15.4,15.4
				S809.9,253.9,809.9,245.4"/>
			<path id="Fill-251" class="st8" d="M819.9,226.3c0-8.5-6.9-15.4-15.4-15.4c-8.5,0-15.4,6.9-15.4,15.4c0,8.5,6.9,15.4,15.4,15.4
				C813,241.7,819.9,234.8,819.9,226.3"/>
			<path id="Fill-252" class="st8" d="M850.8,257.2c0-10-8.1-18.2-18.2-18.2c-10,0-18.2,8.1-18.2,18.2c0,10,8.1,18.2,18.2,18.2
				C842.7,275.3,850.8,267.2,850.8,257.2"/>
			<path id="Fill-253" class="st64" d="M345.3,331.7c-0.1,0-0.2,0-0.3,0C345.1,331.7,345.2,331.7,345.3,331.7c0.1,0,0.2,0,0.3-0.1
				C345.5,331.7,345.4,331.7,345.3,331.7 M345.6,331.6C345.6,331.6,345.6,331.6,345.6,331.6C345.6,331.6,345.6,331.6,345.6,331.6
				 M344.8,331.6l-0.8-0.3l0.2-0.1C344.4,331.3,344.6,331.5,344.8,331.6 M346.2,331.3C346.2,331.3,346.2,331.3,346.2,331.3
				C346.2,331.3,346.2,331.3,346.2,331.3 M346.2,331.3c0.1-0.1,0.2-0.3,0.3-0.5C346.4,331,346.3,331.2,346.2,331.3 M346.5,330.8
				C346.5,330.8,346.5,330.8,346.5,330.8S346.5,330.8,346.5,330.8 M346.7,330.2c0-0.1,0-0.2,0-0.3v0
				C346.8,330,346.7,330.1,346.7,330.2"/>
			<path id="Fill-254" class="st5" d="M260.2,285.3l-13.4-5c0-0.6-0.3-1.1-0.9-1.3l14.5,5L260.2,285.3"/>
			<path id="Fill-255" class="st63" d="M260.3,289.9l-13.5-8.1l0.6-1.6c0-0.1,0.1-0.3,0.1-0.4l13.9,5.3l-0.3,1.3l-2.8-1l2.7,1.6
				L260.3,289.9"/>
			<path id="Fill-256" class="st5" d="M245,279.4c0.2-0.3,0.5-0.4,0.9-0.5C245.6,279,245.2,279.2,245,279.4 M245.9,279L245.9,279
				L245.9,279"/>
			<path id="Fill-257" class="st5" d="M324,342.6l-17.3-3.9c-0.4-0.1-0.7-0.3-0.8-0.7l17.6,4.2L324,342.6"/>
			<path id="Fill-258" class="st63" d="M324,341.7l-18-3.8c0,0,0,0,0-0.1c-0.2-0.3-0.2-0.7-0.1-1.1l1.7-5l2.3,1.4l-1.1,3l8.9,1.8
				L324,341.7"/>
			<path id="Fill-259" class="st5" d="M239.9,298.1l-0.2-0.1c-0.4-0.1-0.7-0.3-0.8-0.7c-0.2-0.3-0.2-0.7-0.1-1.1l6.3-17
				c0-0.1,0.1-0.2,0.2-0.3c-0.1,0.1-0.1,0.1-0.1,0.2c-0.3,0.6-0.1,1.3,0.5,1.7l0.3,0.2l-7,16.5L239.9,298.1"/>
			<path id="Fill-260" class="st63" d="M257.5,303.5c-0.1,0-0.2,0-0.4,0l-17.6-4.9l-0.9-0.5l6.8-16.4l1.1,0.6l-5.1,14.1l15.8,4.4
				l0,0.1c-0.1,0.6,0.1,1.1,0.6,1.4l0.8,0.5C258.4,303.2,258,303.5,257.5,303.5"/>
			<path id="Fill-261" class="st5" d="M246.4,279.1L246.4,279.1c-0.1,0-0.3-0.1-0.4-0.1c0,0,0,0,0,0c0,0,0,0,0,0
				C246.1,279,246.2,279,246.4,279.1C246.4,279,246.4,279.1,246.4,279.1 M245.9,279C245.9,279,245.9,279,245.9,279
				C245.9,279,245.9,279,245.9,279"/>
			<path id="Fill-262" class="st65" d="M245.1,281.7l-0.3-0.2c-0.6-0.4-0.8-1.1-0.5-1.7c0-0.1,0.1-0.2,0.1-0.2
				c0.2-0.3,0.6-0.5,1-0.6c0,0,0,0,0,0h0c0,0,0,0,0,0c0.1,0,0.3,0,0.4,0.1l0,0c0.6,0.2,0.9,0.8,0.9,1.4l-1-0.4L245.1,281.7"/>
			<path id="Fill-263" class="st66" d="M246.2,281.7l-1.1-0.5l0.7-1.3l1.1,0.3c0,0.1,0,0.2-0.1,0.3L246.2,281.7"/>
			<path id="Fill-264" class="st67" d="M511.1,213.6l-48.9-29.7l-1-13.9c0.5,0.1,1.1,0.2,1.6,0.2l48.3,28.9V213.6"/>
			<path id="Fill-265" class="st1" d="M463,170.6c-0.6-0.1-1.2-0.1-1.8-0.2l0-0.4c0.2,0,0.5,0.1,0.7,0.1L463,170.6"/>
			<path id="Fill-266" class="st1" d="M461.7,169.4c-0.2,0-0.4-0.1-0.5-0.1l0-0.3L461.7,169.4"/>
			<polyline id="Fill-267" class="st67" points="526.6,221.8 513.9,214.4 513.9,198.4 524.6,195.4 526.6,221.8 			"/>
			<path id="Fill-268" class="st68" d="M446.7,192.7v-10l12.6,3.4c0,0,0.1,0,0.1,0L446.7,192.7"/>
			<path id="Fill-269" class="st67" d="M459.4,183.6l-12.7-3.5l0-12c3.9,0.3,7.8,0.6,11.7,1.2L459.4,183.6"/>
			<path id="Fill-270" class="st69" d="M457.6,167.2c-3.6-0.4-7.2-0.8-10.9-1v-5.3c0.2,0,0.3,0,0.5,0L457.6,167.2"/>
			<path id="Fill-271" class="st1" d="M458.5,169.1c-3.9-0.5-7.8-0.9-11.8-1.1v-0.4c4,0.2,7.9,0.6,11.8,1.1L458.5,169.1
				 M457.9,166.9c-3.7-0.4-7.5-0.8-11.2-1v-0.4c3.4,0.2,6.9,0.5,10.3,0.9L457.9,166.9"/>
			<path id="Fill-272" class="st70" d="M447.1,161.1c-0.1,0-0.3,0-0.4,0v-0.2L447.1,161.1"/>
			<path id="Fill-273" class="st1" d="M458.5,169.1c-3.9-0.5-7.8-0.8-11.8-1.1v-1.7c3.8,0.2,7.5,0.6,11.2,1l0.4,0.3L458.5,169.1"/>
			<path id="Fill-274" class="st67" d="M514.9,233.6l-1.1-0.7v0l11.9-7.5c0.1,0,0.1,0,0.2,0c0.1,0,0.1,0,0.2,0l0.6,0.4
				c0.2,0.1,0.4,0.2,0.7,0.2c0.2,0,0.5-0.1,0.7-0.2c0.1-0.1,0.2-0.1,0.2-0.2l0,0.1L514.9,233.6"/>
			<path id="Fill-275" class="st68" d="M513.9,232.7v-10l11.7,2.8c0,0,0.1,0,0.1,0L513.9,232.7"/>
			<path id="Fill-276" class="st1" d="M513.9,233.6c0.1-0.1,0.1-0.3,0.1-0.5v-0.5l0.8,0.5L513.9,233.6"/>
			<polyline id="Fill-277" class="st68" points="519.3,221.8 513.9,220.3 513.9,218.1 519.3,221.8 			"/>
			<path id="Fill-278" class="st67" d="M511.8,196.3l-41.5-24.5c16.4,3.1,31.9,8.4,45.7,15.6l8.8,5.2c0,0,0,0,0,0L511.8,196.3"/>
			<path id="Fill-279" class="st69" d="M497.5,176.3c-10.6-3.9-21.9-6.8-33.6-8.6l-2.8-1.7l-0.3-4c6.2,0.8,12.3,1.9,18.2,3.2
				L497.5,176.3 M474.3,162.4c-4.5-0.9-9-1.6-13.6-2.2l-0.4-5.7c0.3,0,0.7,0.1,1,0.1L474.3,162.4"/>
			<path id="Fill-280" class="st1" d="M516.6,187.2c-13.9-7.4-29.7-12.9-46.2-16.1l-1.1-0.7c14.8,2.8,29,7.4,41.9,13.5L516.6,187.2
				 M499.6,177.1c-11-4.2-22.6-7.3-34.7-9.2l-1-0.6c11.6,1.8,22.9,4.7,33.6,8.6L499.6,177.1"/>
			<path id="Fill-281" class="st70" d="M461.2,155.1c-0.3,0-0.6-0.1-0.8-0.1l0-0.3c0-0.1,0-0.1,0-0.2L461.2,155.1"/>
			<path id="Fill-282" class="st70" d="M478.4,164.5c-5.9-1.2-11.9-2.2-18-2.9l-0.1-1.7c4.5,0.5,9,1.2,13.4,2L478.4,164.5"/>
			<path id="Fill-283" class="st1" d="M511.1,183.6c-12.9-5.9-27.1-10.3-42-13l-4.3-2.5c12.1,1.9,23.8,4.9,34.8,8.8L511.1,183.6"/>
			<path id="Fill-284" class="st71" d="M460.3,184.5l-13.6-3.7V180l13.5,3.5l0.1,0.8C460.2,184.3,460.2,184.4,460.3,184.5"/>
			<path id="Fill-285" class="st72" d="M459.9,186.3c-0.1,0-0.1,0-0.2,0l-13.1-3.5v-1.9l13.4,3.8c0.1,0.3,0.3,0.6,0.6,0.7l0.5,0.3
				L459.9,186.3"/>
			<path id="Fill-286" class="st71" d="M525.8,225.5c-0.1,0-0.1,0-0.2,0l0.2-0.1l0.2,0.1C526,225.5,525.9,225.5,525.8,225.5"/>
			<path id="Fill-287" class="st72" d="M526.4,225.4c0,0-0.1,0-0.1,0l-12.4-2.8v-2.7l5.6,1.3l7.1,4.1L526.4,225.4"/>
			<path id="Fill-288" class="st5" d="M510.2,234.5l-20.4-6l0.9-0.5l20.3,5.8l0.2,0.1c0,0,0,0,0,0.1L510.2,234.5 M486.9,227.6
				l-6.6-2c0.1,0,0.2,0.1,0.4,0.1c0.1,0,0.2,0,0.4,0l0.9-0.2l5.9,1.7L486.9,227.6"/>
			<path id="Fill-289" class="st63" d="M511.1,233.6l-20.2-5.6l2.3-1.3l11.4,3.3L511.1,233.6 M488,227.1l-5.9-1.6l3.6-1l4.6,1.3
				L488,227.1"/>
			<path id="Fill-290" class="st64" d="M512.9,234.5c-0.1,0-0.3,0-0.4-0.1l-1.7-0.5l0.9-0.5c0.2,0.5,0.6,0.9,1.1,0.9v0l0,0
				c0,0,0.1,0,0.1,0c0.3,0,0.6-0.1,0.8-0.3C513.6,234.3,513.3,234.5,512.9,234.5 M511.8,233.3l-6.7-3.8l6.7,1.9v1.6
				C511.7,233.1,511.7,233.2,511.8,233.3 M490.4,228.1l-2.9-0.8l0.9-0.5l2.3-1.3l2.9,0.8l-2.3,1.3L490.4,228.1"/>
			<path id="Fill-291" class="st5" d="M480.3,225.4C480.2,225.4,480.2,225.4,480.3,225.4l-24.6-14.6l0.8-0.5l23.1,13.8
				c0,0.1,0,0.3,0,0.4C479.7,224.9,479.9,225.2,480.3,225.4 M453.5,209.5l-15.1-8.9l0.9-0.5l15,9L453.5,209.5 M436.2,199.3
				L413,185.5c0.2,0.1,0.4,0.2,0.6,0.2c0.1,0,0.2,0,0.4,0l0.9-0.2l22.3,13.3L436.2,199.3"/>
			<path id="Fill-292" class="st63" d="M479.6,224.5l-23.1-14l1.8-1.1l22.9,13.7l-0.5,0.2C480.1,223.4,479.7,223.9,479.6,224.5
				 M454.4,209.2l-15-9.1l1.7-1l15.1,9L454.4,209.2 M437.2,198.9l-22.3-13.5l3.2-0.9l21,7.5l4.8,2.8v0.1l-1.7,1l-16.2-5.8l12.9,7.7
				L437.2,198.9 M445.1,196.9c0,0-0.1,0-0.1,0l0.2-0.1c0,0,0,0,0,0c0.3,0,0.6-0.1,0.8-0.3C445.8,196.7,445.4,196.9,445.1,196.9"/>
			<path id="Fill-293" class="st64" d="M455.9,210.9l-2.1-1.3l2.6-1.5l2.1,1.3l-1.8,1.1L455.9,210.9 M438.8,200.5l-2.1-1.3l0.9-0.6
				l1.7-1l2.1,1.3l-1.7,1L438.8,200.5 M445.3,196.7c-0.1,0-0.2,0-0.3-0.1l-2.4-0.9l1.7-1v0.5c0,0.7,0.6,1.3,1.3,1.3L445.3,196.7
				 M444.2,194.6l-4.8-2.8l4.8,1.7V194.6"/>
			<path id="Fill-294" class="st5" d="M412.1,183.8L412.1,183.8L412.1,183.8 M412.1,183.8C412.1,183.8,412.1,183.8,412.1,183.8
				C412.1,183.8,412.1,183.8,412.1,183.8 M412.2,183.8c0-0.1,0.1-0.1,0.1-0.2C412.2,183.7,412.2,183.7,412.2,183.8 M412.3,183.6
				C412.3,183.6,412.3,183.6,412.3,183.6C412.3,183.6,412.3,183.6,412.3,183.6"/>
			<path id="Fill-295" class="st65" d="M413.6,185.4c-0.3,0-0.5-0.1-0.7-0.2l0,0c-0.7-0.4-0.9-1.1-0.6-1.7c0,0,0-0.1,0-0.1v0
				c0,0,0,0,0,0s0,0,0,0c0,0,0,0,0,0c0-0.1,0.1-0.2,0.2-0.2c0,0,0,0,0,0c0,0,0,0,0,0c0.3-0.3,0.7-0.5,1.1-0.5c0.2,0,0.3,0,0.5,0.1
				l1.7,0.5l-2.7,0.7l1.9,1.1l-1,0.2C413.9,185.4,413.7,185.4,413.6,185.4"/>
			<polyline id="Fill-296" class="st66" points="414.6,185.4 413,184.3 415.3,183.6 417.6,184.5 414.6,185.4 			"/>
			<path id="Fill-297" class="st65" d="M480.8,226.3c-0.1,0-0.3,0-0.4-0.1l0,0c-0.1,0-0.2-0.1-0.3-0.1c-0.3-0.2-0.6-0.6-0.7-1.1
				c0-0.2-0.1-0.4,0-0.6l1.3,1l1.4,0.5l-0.9,0.3C481,226.3,480.9,226.3,480.8,226.3"/>
			<path id="Fill-298" class="st66" d="M482,225.4l-1.3-0.4l-1.3-0.8c0-0.6,0.4-1.1,1-1.3l0.6-0.2l0.4,0.2l4.4,1.4L482,225.4"/>
			<path id="Fill-299" class="st64" d="M512,234.5L512,234.5C512.1,234.5,512.1,234.5,512,234.5L512,234.5"/>
			<path id="Fill-300" class="st1" d="M460,153.9c0-0.4-0.2-0.7-0.5-1c-0.3-0.2-0.7-0.3-1.1-0.2l-13.4,2.9c-0.7,0.2-1.2,0.9-1,1.6
				c0.2,0.7,0.9,1.2,1.6,1l11.9-2.6l2.1,28.4c0,0.4,0.3,0.8,0.6,1l67.1,40.1c0.2,0.1,0.5,0.2,0.7,0.2c0.2,0,0.5-0.1,0.7-0.2
				c0.4-0.3,0.7-0.7,0.6-1.2l-2.3-30.8c0-0.4-0.2-0.8-0.6-1c-0.3-0.2-0.7-0.3-1.1-0.2l-13.4,3.8c-0.7,0.2-1.1,0.9-0.9,1.6
				c0.2,0.7,0.9,1.1,1.7,0.9l11.8-3.4l1.9,26.6l-64.3-38.4L460,153.9"/>
			<path id="Fill-301" class="st1" d="M345.4,331.7c0.7,0,1.3-0.6,1.3-1.3l0-36.3c0-0.5-0.2-0.9-0.7-1.2l-67.3-40.1
				c-0.4-0.2-0.9-0.2-1.3,0c-0.4,0.2-0.7,0.7-0.7,1.2l0,37.3c0,0.7,0.6,1.3,1.3,1.3c0.7,0,1.3-0.6,1.3-1.3l0-34.9l64.6,38.5l0,35.5
				C344.1,331.1,344.7,331.7,345.4,331.7"/>
			<path id="Fill-302" class="st1" d="M278.6,254.9c0.5-0.5,0.4-1.4-0.1-1.9c-0.5-0.5-1.4-0.4-1.9,0.1l-11.7,13
				c-0.2,0.2-0.3,0.4-0.3,0.6l-7.7,34.2c-0.1,0.6,0.1,1.1,0.6,1.4l67,40.1c0.2,0.1,0.4,0.2,0.7,0.2c0.2,0,0.4,0,0.5-0.1
				c0.4-0.2,0.7-0.5,0.8-0.9l7.6-33.8l12.3-12.7c0.5-0.5,0.5-1.4,0-1.9c-0.5-0.5-1.4-0.5-1.9,0l-12.6,13c-0.2,0.2-0.3,0.4-0.3,0.6
				l-7.3,32.4l-64.6-38.7l7.4-32.9L278.6,254.9"/>
			<path id="Fill-303" class="st1" d="M512.5,235.4c0.7,0,1.3-0.6,1.3-1.3v-35.4c0-0.5-0.2-0.9-0.7-1.1l-67.3-40.1
				c-0.4-0.2-0.9-0.2-1.3,0c-0.4,0.2-0.7,0.7-0.7,1.2l0,37.3c0,0.7,0.6,1.3,1.3,1.3c0.7,0,1.3-0.6,1.3-1.3l0-34.9l64.6,38.5l0,34.6
				C511.2,234.8,511.8,235.4,512.5,235.4"/>
			<polyline id="Fill-304" class="st68" points="326.8,339.8 330,326.2 341.6,329.7 344,331 326.8,339.8 			"/>
			<polyline id="Fill-305" class="st1" points="343.4,331.7 341.3,329.9 344,331.1 343.4,331.7 			"/>
			<path id="Fill-306" class="st67" d="M344,328l-3.9-1.2l-9.2-5.3l0.2-1.1l12.1-7l-9.3-5.4l0.1-0.5l10-10.3L344,328 M330.6,323.8
				l-0.2-0.1l0,0L330.6,323.8 M331.8,317.5l1.6-7.3l5.5,3.2L331.8,317.5"/>
			<path id="Fill-307" class="st1" d="M340,327.1l-9.4-3l-0.2-0.1l0.5-2.3L340,327.1 M331.1,320.7l0.6-2.9l7-4.2l-5.4-3.2l0.5-2.3
				l9.2,5.5L331.1,320.7"/>
			<path id="Fill-308" class="st71" d="M344,329.9l-3.8-2.3l3.8,1.3V329.9 M337.6,328.5l-7.2-2.6l0.3-1.6l0.2,0.1L337.6,328.5"/>
			<polyline id="Fill-309" class="st72" points="341.3,329.9 330.4,326.4 330.6,325.3 337.8,327.8 341.3,329.9 			"/>
			<path id="Fill-310" class="st73" d="M343.8,331.7l-3.1-1l-3.6-2.2l-6.8-4.1l9.4,3.1l3.9,2.3v0.8c0,0.4,0.1,0.7,0.4,1L343.8,331.7
				"/>
			<path id="Fill-311" class="st68" d="M324.7,338.9l-13.7-8.2l3.3-9.3l13.4,4.2L324.7,338.9 M308.7,329.3l-48.2-29
				c2-1.1,5.6-3.1,9-5l42.4,25.1L308.7,329.3"/>
			<path id="Fill-312" class="st67" d="M327.8,322.6l-14.2-4.4l-40.4-23.9l3.5-1.9l51.1,29.5l0.1,0L327.8,322.6 M327.8,319.4
				L297.7,302l11-6.4l22.2,12.8l-2.4,10.5L327.8,319.4 M331.4,306.2l-22.7-13.1l-13.2,7.7l-15.2-8.8l30.1-17.5l32.6,19.3l-5.2,5.4
				c0.3-0.8-0.1-1.7-1.2-2.4c-0.9-0.5-2-0.7-3.1-0.7c-1.1,0-2.2,0.2-3.1,0.7c-1.7,1-1.7,2.6,0,3.6c0.9,0.5,2,0.7,3.1,0.7
				c1.1,0,2.2-0.2,3.1-0.7l-5,5.1C331.6,305.7,331.5,305.9,331.4,306.2L331.4,306.2 M279.5,290l0-31.8l1.7-1l27.1,16L279.5,290"/>
			<path id="Fill-313" class="st68" d="M272.6,294.4l-1.3-0.8c1.2-0.7,2.2-1.4,3.1-1.9l0.7,0.5l0.7,0.4L272.6,294.4"/>
			<path id="Fill-314" class="st1" d="M327.8,322.6L327.8,322.6l-51.3-29.8l-0.7-0.4l-0.8-0.5c0.2-0.1,0.3-0.2,0.5-0.3l2,0.7
				c0.1,0.1,0.3,0.1,0.4,0.1c0,0,0,0,0,0c0.5,0,0.9-0.3,1.2-0.7c0.1-0.2,0.1-0.3,0.2-0.5c0-0.1,0-0.1,0-0.2v-0.7l28.9-16.9l2.2,1.3
				l-30.2,17.6l15.3,8.9l13.2-7.7l22.7,13.2l-0.5,2.2l-22.2-12.9l-11,6.4l30.1,17.5l0.8-0.5L327.8,322.6 M279.3,258.3v-2l1.7,1
				L279.3,258.3"/>
			<path id="Fill-315" class="st1" d="M334.1,301.7c-1.2,0-2.3-0.3-3.2-0.8c-1.8-1.1-1.8-2.8,0-3.9c0.9-0.5,2-0.8,3.2-0.8
				c1.2,0,2.3,0.3,3.2,0.8c1.2,0.7,1.6,1.7,1.2,2.6l-1.2,1.3C336.4,301.4,335.2,301.7,334.1,301.7"/>
			<path id="Fill-316" class="st71" d="M327.3,324.4l-13.1-4.4c0.2-0.7-0.2-1.4-0.8-1.6c-0.1-0.1-0.3-0.1-0.4-0.1
				c-0.4,0-0.8,0.2-1.1,0.5l-40.5-23.6l1.6-0.9l40.5,24l14.2,4.5L327.3,324.4"/>
			<path id="Fill-317" class="st72" d="M327.4,325.3l-13.3-4.2l0.4-1.2c0,0,0-0.1,0-0.1l13.1,4.4L327.4,325.3 M311.7,320.1
				L269.5,295c0.9-0.5,1.8-1,2.7-1.5l1.4,0.8l-1.6,0.9l40.3,23.5c-0.1,0.1-0.1,0.2-0.2,0.3L311.7,320.1"/>
			<path id="Fill-318" class="st73" d="M278.3,292.6C278.3,292.6,278.3,292.6,278.3,292.6C278.3,292.6,278.3,292.6,278.3,292.6
				c0.5,0,0.9-0.3,1.1-0.8C279.2,292.3,278.7,292.6,278.3,292.6 M277.8,292.5l-1.9-0.9c0.4-0.3,0.8-0.6,1.1-0.8v0.2
				C277,291.7,277.4,292.3,277.8,292.5 M279.5,291.1c0-0.1,0-0.1,0-0.2v0C279.5,291,279.5,291.1,279.5,291.1"/>
			<polyline id="Fill-319" class="st72" points="310.9,330.8 308.6,329.4 311.7,320.8 312.6,321.3 312.9,321.4 314.1,321.8 
				310.9,330.8 			"/>
			<path id="Fill-320" class="st74" d="M314.9,320.8l-1.1-0.4l-1.5-0.9c0.3-0.4,0.7-0.6,1.2-0.6c0.2,0,0.3,0,0.5,0.1
				C314.7,319.3,315.1,320,314.9,320.8"/>
			<path id="Fill-321" class="st75" d="M313.6,321.7l-1.1-0.4l-0.3-0.1l-0.9-0.6l0.3-1.1c0-0.1,0.1-0.3,0.2-0.4l1.3,0.9l0.9,0.4
				c0,0,0,0.1,0,0.1L313.6,321.7"/>
			<path id="Fill-322" class="st1" d="M344.9,330.8c-0.2-0.2-0.4-0.6-0.4-0.9l0-32.7l1.3-1.4l-0.2,34.6L344.9,330.8 M343.7,294.2
				l-62.5-36.7l-1.7-1l0,34.6c0,0.1,0,0.1,0,0.2c0,0.2-0.1,0.3-0.2,0.5c-0.2,0.4-0.7,0.7-1.2,0.7c0,0,0,0,0,0c-0.2,0-0.3,0-0.4-0.1
				c-0.5-0.2-0.9-0.7-0.9-1.2V291c0.9-0.5,1.4-0.8,1.4-0.8l0-34.7l0.7-0.8c0.1-0.1,0.2-0.2,0.2-0.3l65.4,38.9L343.7,294.2"/>
			<path id="Fill-323" class="st1" d="M325.6,341.7l-66.9-40.2c0,0,0,0,0,0c0.1,0,0.7-0.3,1.7-0.8l64.4,38.8L332,307l0-0.1
				c0.1-0.2,0.2-0.5,0.3-0.6l11.4-11.8l0.8-0.8l1.4,0.8l0,1.6l-11.3,11.8l-0.1,0.5l-3.5,15.8l0,0l-0.3,1.6l-0.2,1.1l-3.1,14
				L325.6,341.7 M258.7,301.4l7.7-34.7l11.4-13.2l1.6,1c-0.1,0.1-0.1,0.2-0.2,0.3l-0.7,0.8v-1.3l-11.5,12.6L258.7,301.4"/>
			<path id="Fill-324" class="st76" d="M260.5,299.9L260.5,299.9l2.1-8.9l7.2,4.1C266.2,296.9,262.6,298.8,260.5,299.9 M272.4,293.5
				l-9.3-5.2l0.3-1.1l10.6,3.5l1.8,1C274.9,292.2,273.7,292.8,272.4,293.5"/>
			<path id="Fill-325" class="st1" d="M274.6,291.7l-1.4-0.9l1.8,0.7C274.9,291.5,274.8,291.6,274.6,291.7"/>
			<path id="Fill-326" class="st77" d="M276.8,289.9l-4.6-1.6l-8.1-4.8l3.4-15.7l3.7-4.2l5.6-3.3L276.8,289.9 M275.9,258.2l0.9-1
				v0.5L275.9,258.2"/>
			<path id="Fill-327" class="st1" d="M272,287.2l-8.8-2.9l0.4-1.8L272,287.2 M271,262.9l4.9-5.2l0.9-0.5v2.5L271,262.9"/>
			<path id="Fill-328" class="st78" d="M269.5,295.3l-7.2-4.4l0.6-2.9l9.4,5.7C271.4,294.3,270.5,294.8,269.5,295.3"/>
			<path id="Fill-329" class="st79" d="M276.8,290.8l-4.7-2.8l4.7,1.7V290.8 M268.7,288.5l-5.5-2.1l0.2-1L268.7,288.5"/>
			<polyline id="Fill-330" class="st78" points="273.2,290.8 263.2,287.4 263.4,286.2 268.7,288.2 273.2,290.8 			"/>
			<path id="Fill-331" class="st80" d="M275.6,291.7l-2.3-0.8l-10.1-6l0.1-0.5l8.8,3.1l4.8,2.8v0.7
				C276.5,291.2,276.1,291.4,275.6,291.7"/>
			<path id="Fill-332" class="st1" d="M276.8,290.8l0-33.9l0.9-1.5l0,34.7C277.8,290,277.4,290.3,276.8,290.8"/>
			<path id="Fill-333" class="st1" d="M258.7,301.7C258.7,301.7,258.7,301.7,258.7,301.7L267,267l11.6-12.6v1.4l-10.8,12l-3.9,17.4
				l-0.1,0.4l-3.4,15.2l0,0C259.4,301.4,258.8,301.7,258.7,301.7"/>
			<path id="Fill-334" class="st81" d="M457.6,164.5l-5.1-3.1c1.6,0.1,3.3,0.3,4.9,0.5L457.6,164.5 M457.2,160.2
				c-2.7-0.3-5.4-0.6-8.1-0.8l-1.5-0.9l9.4-2.1L457.2,160.2"/>
			<path id="Fill-335" class="st82" d="M457.6,161.8c-1.6-0.2-3.2-0.4-4.8-0.5l-3.4-2.2c2.7,0.2,5.4,0.5,8,0.8L457.6,161.8"/>
			<polyline id="Fill-336" class="st1" points="459.4,165.4 457.9,164.5 457.3,156.2 447.6,158.4 446.7,157.8 458.5,154.5 
				459.4,165.4 			"/>
			<path id="Fill-337" class="st1" d="M459.4,166.3c0,0-13.2-8.4-13.9-8.4l-0.7-0.2l1.8-0.5l2.5,1.5l10.1,5.8L459.4,166.3"/>
			<polyline id="Fill-338" class="st1" points="400.3,557 327.8,598.5 325.3,597 321.3,599.3 331.6,605.1 335.6,602.8 332.3,601.1 
				404.9,559.5 400.3,557 			"/>
			<polyline id="Fill-339" class="st1" points="342.2,524.3 269.7,565.8 267.2,564.3 263.2,566.6 273.5,572.4 277.4,570.1 
				274.2,568.4 346.7,526.8 342.2,524.3 			"/>
			<polyline id="Fill-340" class="st1" points="284.1,490.6 211.5,532.2 209,530.7 205.1,533 215.4,538.8 219.3,536.5 216.1,534.7 
				288.6,493.2 284.1,490.6 			"/>
			<polyline id="Fill-341" class="st1" points="228.7,458.8 156.1,500.4 153.6,498.9 149.7,501.2 160,507 163.9,504.7 160.7,503 
				233.2,461.4 228.7,458.8 			"/>
			<path id="Fill-342" class="st83" d="M372.8,627.8c-0.9,0-1.7-0.2-2.3-0.6l-37-22.9l2-1.2l-3.3-1.7l63.7-36.3l41.6,23.2
				c1.3,0.7,1.3,1.9,0,2.6L375,627.3C374.4,627.6,373.6,627.8,372.8,627.8"/>
			<path id="Fill-344" class="st84" d="M385.5,623.3l4.9-13l-0.5-2.2c-0.6-0.3-4.6-2-5.3-2c-3.3-0.1-6.2,3.6-6.8,8.1
				c-0.6,4.4,1.5,7.8,6,9L385.5,623.3"/>
			<path id="Fill-345" class="st84" d="M423.6,601.5l4.9-13l-0.5-2.2c-0.6-0.3-4.6-2-5.2-2c-3.3-0.1-6.2,3.6-6.8,8.1
				c-0.6,4.4,1.5,7.8,6,9L423.6,601.5"/>
			<polyline id="Fill-346" class="st85" points="346.8,595.4 344.9,608.3 371.5,624.2 419.4,582.4 346.8,595.4 			"/>
			<polyline id="Fill-347" class="st86" points="410.1,560.6 359.8,587.5 346.7,595.2 369.6,607.8 432.1,573.2 410.1,560.6 			"/>
			<polyline id="Fill-348" class="st85" points="361.5,575.1 359.5,587.4 383,600.6 401.2,576.6 361.5,575.1 			"/>
			<polyline id="Fill-349" class="st86" points="393,557 361.3,574.7 381.4,586 413,568.3 393,557 			"/>
			<polyline id="Fill-350" class="st87" points="371.2,624.2 436.7,586.6 432.1,573.3 417.8,580.9 413.3,568.8 381.6,586.7 
				383.1,600.5 369.5,607.9 371.2,624.2 			"/>
			<polyline id="Fill-351" class="st88" points="363.3,578.8 362.2,586.7 380.4,596.9 379.4,587.8 363.3,578.8 			"/>
			<polyline id="Fill-352" class="st88" points="411.4,572.4 400.3,578.6 402.5,588.8 414.9,581.6 411.4,572.4 			"/>
			<polyline id="Fill-353" class="st88" points="397.6,580.6 384.9,587.9 386,598.7 399.4,590.7 397.6,580.6 			"/>
			<polyline id="Fill-354" class="st89" points="370.8,620.1 345.2,605.1 344.3,605.4 344,608.9 370.2,625.1 371.3,624.4 
				370.8,620.1 			"/>
			<polyline id="Fill-355" class="st90" points="435.5,582.4 370.9,619.3 370.4,624.2 437.6,586 436.5,582.4 435.5,582.4 			"/>
			<path id="Fill-356" class="st90" d="M392,616.9c0.8-4.5-1-8.5-4.2-9c-3.1-0.5-6.4,2.8-7.2,7.3c-0.8,4.5,1,8.5,4.2,9
				C387.9,624.6,391.1,621.4,392,616.9"/>
			<path id="Fill-357" class="st91" d="M390.3,616.9c0.4-2.2-0.6-4.3-2.3-4.5c-1.7-0.3-3.4,1.3-3.8,3.6c-0.4,2.2,0.6,4.3,2.3,4.5
				C388.1,620.8,389.8,619.2,390.3,616.9"/>
			<path id="Fill-358" class="st90" d="M431,594.2c0.8-4.5-1-8.5-4.2-9c-3.1-0.5-6.4,2.8-7.2,7.3c-0.8,4.5,1,8.5,4.2,9
				C426.9,601.9,430.2,598.7,431,594.2"/>
			<path id="Fill-359" class="st91" d="M428.4,594.2c0.4-2.2-0.6-4.3-2.3-4.5c-1.7-0.3-3.4,1.3-3.8,3.6c-0.4,2.2,0.6,4.3,2.3,4.5
				C426.3,598.1,428,596.5,428.4,594.2"/>
			<path id="Fill-360" class="st92" d="M427.5,593.6c0.2-1.3-0.2-2.4-1.1-2.9l-1.1,2.4l-0.2-2.5c-0.9,0.2-1.8,1.2-2,2.4
				c-0.3,1.5,0.4,2.9,1.7,3.1C426,596.2,427.2,595.1,427.5,593.6"/>
			<path id="Fill-361" class="st92" d="M389.4,616.3c0.2-1.3-0.2-2.4-1.1-2.9l-1.1,2.4l-0.2-2.5c-0.9,0.2-1.8,1.2-2,2.4
				c-0.3,1.5,0.4,2.9,1.7,3.1C387.8,618.9,389.1,617.8,389.4,616.3"/>
			<polyline id="Fill-362" class="st93" points="371.3,610.8 371,610.5 369.5,611.3 365.3,608.7 364.9,608.9 365.3,611.8 
				370.2,615.1 371.3,610.8 			"/>
			<polyline id="Fill-363" class="st94" points="364.9,609.6 364.9,612.8 370.4,616 370,612.5 364.9,609.6 			"/>
			<polyline id="Fill-364" class="st95" points="371.9,611.5 370.4,612.4 370.7,616 372.2,614.9 371.9,611.5 			"/>
			<polyline id="Fill-365" class="st93" points="346.3,597.8 345.8,600.8 351.3,604.2 351.3,600.7 346.3,597.8 			"/>
			<polyline id="Fill-366" class="st94" points="346.3,597.8 345.8,600.8 351.3,604.2 351.3,600.7 346.3,597.8 			"/>
			<polyline id="Fill-367" class="st92" points="361.3,606.8 354.9,603.3 354.9,607 361.3,610.6 361.3,606.8 			"/>
			<path id="Fill-368" class="st83" d="M259.6,561.5c-0.8,0-1.7-0.2-2.3-0.6l-38.8-22.8l1.7-1l-3.3-1.7l63.9-36.6
				c0.4,0.1,0.8,0.2,1.1,0.4l43.1,23.2c1.3,0.7,1.3,1.9,0,2.6l-63.1,36C261.2,561.3,260.4,561.5,259.6,561.5"/>
			<path id="Fill-370" class="st84" d="M276.5,557l4.9-13l-0.5-2.2c-0.6-0.3-4.6-2-5.2-2c-3.3-0.1-6.2,3.6-6.8,8.1
				c-0.6,4.4,1.5,7.8,6,9L276.5,557"/>
			<path id="Fill-371" class="st84" d="M314.6,534.2l4.9-13L319,519c-0.6-0.3-4.6-2-5.3-2c-3.3-0.1-6.2,3.6-6.8,8.1
				c-0.6,4.4,1.5,7.8,6,9L314.6,534.2"/>
			<polyline id="Fill-372" class="st96" points="237.9,528.2 235.9,541.1 262.5,557 310.4,515.2 237.9,528.2 			"/>
			<polyline id="Fill-373" class="st97" points="301.1,493.4 250.8,520.2 237.8,528 260.7,540.6 323.1,506 301.1,493.4 			"/>
			<polyline id="Fill-374" class="st96" points="250.1,509.7 240.5,526.6 264,539.7 282.3,515.8 250.1,509.7 			"/>
			<polyline id="Fill-375" class="st97" points="284.1,489.7 250.5,509.2 270.4,520.6 304.1,501.1 284.1,489.7 			"/>
			<polyline id="Fill-376" class="st98" points="323.2,506.1 308.9,513.7 304.3,501.5 270.4,521.1 264.6,538.4 260.5,540.7 
				262.2,557 327.7,519.4 323.2,506.1 			"/>
			<polyline id="Fill-377" class="st88" points="302.4,506.1 291.3,512.3 293.5,522.4 305.9,515.3 302.4,506.1 			"/>
			<polyline id="Fill-378" class="st88" points="273.7,522 270.5,535.2 290.4,523.3 288.6,513.4 273.7,522 			"/>
			<polyline id="Fill-379" class="st89" points="261.8,552.9 236.2,537.9 235.3,538.2 235,541.7 261.3,557.9 262.3,557.2 
				261.8,552.9 			"/>
			<polyline id="Fill-380" class="st90" points="326.5,515.2 262,552.1 261.4,557 328.6,518.7 327.6,515.2 326.5,515.2 			"/>
			<path id="Fill-381" class="st90" d="M283,550.6c0.8-4.5-1-8.5-4.2-9c-3.2-0.5-6.4,2.8-7.2,7.3c-0.8,4.5,1,8.5,4.2,9
				C278.9,558.3,282.1,555,283,550.6"/>
			<path id="Fill-382" class="st91" d="M281.3,549.7c0.4-2.2-0.6-4.3-2.3-4.5c-1.7-0.3-3.4,1.3-3.8,3.6c-0.4,2.2,0.6,4.3,2.3,4.5
				C279.1,553.6,280.8,552,281.3,549.7"/>
			<path id="Fill-383" class="st90" d="M322,526.9c0.8-4.5-1-8.5-4.2-9c-3.1-0.5-6.4,2.8-7.2,7.3c-0.8,4.5,1,8.5,4.2,9
				C318,534.7,321.2,531.4,322,526.9"/>
			<path id="Fill-384" class="st91" d="M319.4,527c0.4-2.2-0.6-4.3-2.3-4.5c-1.7-0.3-3.4,1.3-3.8,3.6c-0.4,2.2,0.6,4.3,2.3,4.5
				C317.3,530.8,319,529.2,319.4,527"/>
			<path id="Fill-385" class="st92" d="M318.5,526.4c0.2-1.3-0.2-2.4-1.1-2.9l-1.1,2.4l-0.2-2.5c-0.9,0.2-1.8,1.2-2,2.4
				c-0.3,1.5,0.4,2.9,1.7,3.1C317,529,318.2,527.9,318.5,526.4"/>
			<path id="Fill-386" class="st92" d="M280.4,550c0.2-1.3-0.2-2.4-1.1-2.9l-1.1,2.4L278,547c-0.9,0.2-1.8,1.2-2,2.4
				c-0.3,1.5,0.5,2.9,1.7,3.1C278.9,552.6,280.1,551.5,280.4,550"/>
			<polyline id="Fill-387" class="st93" points="262.3,544.5 262,544.2 260.5,545 256.3,542.4 255.9,542.6 256.3,545.5 261.2,548.8 
				262.3,544.5 			"/>
			<polyline id="Fill-388" class="st94" points="255.9,542.4 255.9,545.5 261.4,548.8 261,545.2 255.9,542.4 			"/>
			<polyline id="Fill-389" class="st95" points="262.9,544.2 261.4,545.2 261.7,548.8 263.2,547.7 262.9,544.2 			"/>
			<polyline id="Fill-390" class="st93" points="237.3,531.5 236.9,534.5 242.3,537.9 242.3,534.4 237.3,531.5 			"/>
			<polyline id="Fill-391" class="st94" points="237.3,531.5 236.9,534.5 242.3,537.9 242.3,534.4 237.3,531.5 			"/>
			<polyline id="Fill-392" class="st1" points="245.9,537 245.9,540.6 252.3,544.2 252.3,540.5 245.9,537 			"/>
			<polyline id="Fill-393" class="st88" points="250.9,513.4 244.1,525.8 262.1,535.2 266.8,522 250.9,513.4 			"/>
			<path id="Fill-394" class="st83" d="M202.7,529.7c-0.8,0-1.7-0.2-2.3-0.6l-38.9-22.6l2.3-1.3l-3.3-1.7l63.1-36.4l44,23
				c1.3,0.7,1.3,1.8,0.1,2.6L205,529.2C204.4,529.5,203.5,529.7,202.7,529.7"/>
			<path id="Fill-396" class="st84" d="M219.3,519.7l4.9-13l-0.5-2.2c-0.6-0.3-4.6-2-5.2-2c-3.3-0.1-6.2,3.6-6.8,8.1
				c-0.6,4.4,1.5,7.8,6,9L219.3,519.7"/>
			<path id="Fill-397" class="st84" d="M257.4,497.9l4.9-13l-0.5-2.2c-0.6-0.3-4.6-2-5.2-2c-3.3-0.1-6.2,3.6-6.8,8.1
				c-0.6,4.4,1.5,7.8,6,9L257.4,497.9"/>
			<polyline id="Fill-398" class="st99" points="180.6,490.9 178.7,503.9 205.3,519.7 253.2,477.9 180.6,490.9 			"/>
			<polyline id="Fill-399" class="st100" points="243.9,457 193.6,483.9 180.5,491.6 203.4,504.3 265.9,469.6 243.9,457 			"/>
			<polyline id="Fill-400" class="st99" points="196.2,471.6 194.2,483.8 217.7,497 235.9,473.1 196.2,471.6 			"/>
			<polyline id="Fill-401" class="st100" points="227.7,453.4 196,471.2 216.1,482.5 247.8,464.7 227.7,453.4 			"/>
			<polyline id="Fill-402" class="st101" points="205.9,520.6 271.4,483 266.8,469.8 252.6,477.4 248,465.2 216.3,483.2 
				217.8,496.9 204.2,504.4 205.9,520.6 			"/>
			<polyline id="Fill-403" class="st88" points="197.1,474.3 196,482.2 214.1,492.5 213.2,483.4 197.1,474.3 			"/>
			<polyline id="Fill-404" class="st88" points="245.2,468.8 234.1,475.1 236.3,485.2 248.7,478.1 245.2,468.8 			"/>
			<polyline id="Fill-405" class="st88" points="232.3,476.1 219.6,483.4 220.7,494.3 234.1,486.2 232.3,476.1 			"/>
			<polyline id="Fill-406" class="st92" points="205.5,516.5 179.9,501.5 179,501.9 178.7,505.3 204.9,521.5 206,520.9 205.5,516.5 
							"/>
			<polyline id="Fill-407" class="st102" points="269.3,478.8 204.7,515.7 204.2,520.6 271.4,482.4 270.3,478.8 269.3,478.8 			"/>
			<path id="Fill-408" class="st90" d="M226.7,513.3c0.8-4.5-1-8.5-4.2-9c-3.2-0.5-6.4,2.8-7.2,7.3c-0.8,4.5,1,8.5,4.2,9
				C222.6,521.1,225.8,517.8,226.7,513.3"/>
			<path id="Fill-409" class="st91" d="M224,513.4c0.4-2.2-0.6-4.3-2.3-4.5c-1.7-0.3-3.4,1.3-3.8,3.6c-0.4,2.2,0.6,4.3,2.3,4.5
				C221.9,517.2,223.6,515.6,224,513.4"/>
			<path id="Fill-410" class="st90" d="M264.8,490.6c0.8-4.5-1-8.5-4.2-9c-3.1-0.5-6.4,2.8-7.2,7.3c-0.8,4.5,1,8.5,4.2,9
				C260.7,498.3,264,495.1,264.8,490.6"/>
			<path id="Fill-411" class="st91" d="M262.2,489.8c0.4-2.2-0.6-4.3-2.3-4.5c-1.7-0.3-3.4,1.3-3.8,3.6c-0.4,2.2,0.6,4.3,2.3,4.5
				C260.1,493.6,261.8,492,262.2,489.8"/>
			<path id="Fill-412" class="st92" d="M262.2,490c0.2-1.3-0.2-2.4-1.1-2.9l-1.1,2.4l-0.2-2.5c-0.9,0.2-1.8,1.2-2,2.4
				c-0.3,1.5,0.4,2.9,1.7,3.1C260.7,492.6,261.9,491.5,262.2,490"/>
			<path id="Fill-413" class="st92" d="M223.2,512.7c0.2-1.3-0.2-2.4-1.1-2.9l-1.1,2.4l-0.2-2.5c-0.9,0.2-1.8,1.2-2,2.4
				c-0.3,1.5,0.4,2.9,1.7,3.1C221.6,515.3,222.9,514.2,223.2,512.7"/>
			<polyline id="Fill-414" class="st93" points="206,507.2 205.7,507 204.2,507.8 200,505.2 199.6,505.4 200,508.3 204.9,511.5 
				206,507.2 			"/>
			<polyline id="Fill-415" class="st94" points="199.6,506.1 199.6,509.2 205.1,512.4 204.7,508.9 199.6,506.1 			"/>
			<polyline id="Fill-416" class="st95" points="205.7,507.9 204.2,508.9 204.5,512.4 206,511.3 205.7,507.9 			"/>
			<polyline id="Fill-417" class="st93" points="180.1,494.3 179.6,497.3 185.1,500.6 185.1,497.2 180.1,494.3 			"/>
			<polyline id="Fill-418" class="st94" points="180.1,494.3 179.6,497.3 185.1,500.6 185.1,497.2 180.1,494.3 			"/>
			<polyline id="Fill-419" class="st92" points="188.7,499.7 188.7,503.4 195.1,507 195.1,503.3 188.7,499.7 			"/>
		</g>
	</g>
</g>
</svg>
