<?xml version="1.0" encoding="UTF-8"?>
<svg width="134px" height="37px" viewBox="0 0 134 37" version="1.1" xmlns="http://www.w3.org/2000/svg" xmlns:xlink="http://www.w3.org/1999/xlink">
    <!-- Generator: Sketch 49.3 (51167) - http://www.bohemiancoding.com/sketch -->
    <title>Group</title>
    <desc>Created with Sketch.</desc>
    <defs></defs>
    <g id="Page-1" stroke="none" stroke-width="1" fill="none" fill-rule="evenodd">
        <g id="footer" transform="translate(0.000000, -86.000000)" fill="#000000" fill-rule="nonzero">
            <g id="Group-5" transform="translate(0.000000, 82.701062)">
                <g id="Group" transform="translate(0.000000, 4.552352)">
                    <path d="M6.676783,4.40060698 C7.05614568,12.1396055 7.05614568,19.9544765 6.82852807,27.693475 C6.75265554,29.5144158 9.63581184,29.5144158 9.71168437,27.693475 C9.93930197,19.9544765 9.86342944,12.1396055 9.5599393,4.40060698 C9.40819423,2.57966616 6.60091047,2.57966616 6.676783,4.40060698 Z" id="Shape"></path>
                    <path d="M2.20030349,5.15933232 C8.42185129,0.758725341 16.9954476,4.70409712 17.4506829,12.3672231 C17.6783005,16.2367223 16.1608498,20.1820941 14.5675266,23.6722307 C13.1259484,26.7830046 11.5326252,30.7283763 7.81487102,31.4871017 C5.9939302,31.8664643 6.75265554,34.5978756 8.57359636,34.2185129 C13.353566,33.23217 15.477997,28.6039454 17.2989378,24.5068285 C19.3474962,19.8786039 21.168437,14.7192716 19.9544765,9.63581184 C17.9817906,1.28983308 7.66312595,-2.27617602 0.758725341,2.65553869 C-0.682852807,3.79362671 0.758725341,6.2215478 2.20030349,5.15933232 Z" id="Shape"></path>
                    <path d="M22.15478,21.2443096 C20.8649469,23.4446131 21.3201821,26.3277693 23.2169954,28.0728376 C25.3414264,29.969651 28.4522003,29.4385432 30.1213961,27.3141123 C31.7905918,25.2655539 31.4871017,22.15478 29.1350531,20.7890744 C27.0106222,19.5751138 24.2792109,20.030349 22.9135053,22.0030349 C21.8512898,23.5204856 24.3550835,24.9620637 25.3414264,23.4446131 C26.4795144,21.7754173 29.6661608,23.8998483 27.693475,25.7966616 C25.6449165,27.7693475 23.4446131,24.7344461 24.5827011,22.7617602 C25.569044,21.0925645 23.0652504,19.6509863 22.15478,21.2443096 Z" id="Shape"></path>
                    <path d="M32.5493171,8.57359636 C32.7769347,15.5538695 33.0045524,22.4582701 33.23217,29.4385432 C33.3080425,31.2594841 36.1153263,31.2594841 36.1153263,29.4385432 C35.8877086,22.4582701 35.660091,15.5538695 35.4324734,8.57359636 C35.2807284,6.75265554 32.4734446,6.75265554 32.5493171,8.57359636 Z" id="Shape"></path>
                    <path d="M41.9575114,19.1957511 C39.2261002,20.3338392 36.646434,21.6236722 34.0667678,23.1411229 C33.3080425,23.5963581 33.1562974,24.7344461 33.7632777,25.3414264 C36.1911988,27.9210926 39.3778452,29.6661608 42.9438543,30.1972686 C44.7647951,30.5007587 45.5235205,27.7693475 43.7025797,27.4658574 C40.5918058,26.9347496 37.9362671,25.569044 35.8118361,23.292868 C35.7359636,24.0515933 35.5842185,24.8103187 35.508346,25.4931715 C37.784522,24.0515933 40.2124431,22.8376328 42.7162367,21.8512898 C44.3854325,21.2443096 43.6267071,18.5128983 41.9575114,19.1957511 Z" id="Shape"></path>
                    <path d="M44.1578149,22.6100152 C43.6267071,24.5827011 43.1714719,26.707132 44.0819423,28.6039454 C44.7647951,30.0455235 46.2063733,31.2594841 47.875569,31.1836115 C51.8968134,31.107739 53.6418816,25.7966616 53.262519,22.4582701 C53.0349014,20.6373293 50.6069803,20.6373293 50.3793627,22.4582701 C50,25.6449165 51.2898331,28.831563 53.7177542,30.8042489 C55.0834598,31.9423369 57.1320182,29.969651 55.7663126,28.7556904 C53.7936267,27.0864947 52.9590288,24.9620637 53.262519,22.3823976 C52.3520486,22.3823976 51.3657056,22.3823976 50.3793627,22.3823976 C50.6069803,24.2033384 50.3034901,26.2518968 48.861912,27.6176024 C47.5720789,28.831563 46.4339909,27.7693475 46.2822458,26.3277693 C46.1305008,25.2655539 46.5098634,24.2033384 46.8133536,23.2169954 C47.4203338,21.6236722 44.6889226,20.8649469 44.1578149,22.6100152 Z" id="Shape"></path>
                    <path d="M56.8285281,21.3960546 C57.9666161,23.8239757 58.7253414,26.2518968 59.1805766,28.831563 C60.091047,28.6039454 61.0015175,28.3004552 61.9119879,28.0728376 C61.4567527,26.8588771 61.2291351,25.7207891 61.3808801,24.430956 C61.5326252,23.5204856 62.2913505,20.6373293 63.353566,20.9408194 C65.3262519,21.4719272 64.5675266,27.0106222 64.4157815,28.3763278 C65.3262519,28.3763278 66.3125948,28.3763278 67.2989378,28.3763278 C67.2989378,27.0864947 67.4506829,25.8725341 67.9059181,24.7344461 C68.0576631,24.2792109 68.5128983,22.3823976 68.9681335,23.2169954 C69.2716237,23.7481032 68.892261,25.6449165 68.892261,26.2518968 C68.8163885,27.4658574 68.8163885,28.7556904 68.7405159,29.969651 C68.6646434,31.7905918 71.5477997,31.7905918 71.6236722,29.969651 C71.6995448,27.5417299 72.15478,24.8103187 71.7754173,22.3823976 C71.6236722,21.168437 70.9408194,19.8786039 69.6509863,19.5751138 C65.7056146,18.8163885 64.5675266,25.7207891 64.491654,28.3763278 C64.491654,30.2731411 67.1471927,30.1972686 67.3748103,28.3763278 C67.6783005,25.4931715 67.8300455,17.1471927 63.0500759,17.6783005 C61.1532625,17.9059181 59.7875569,20.1820941 59.1805766,21.7754173 C58.2701062,24.0515933 58.2701062,26.5553869 59.1805766,28.831563 C59.8634294,30.5007587 62.2913505,29.8937785 61.9119879,28.0728376 C61.3808801,25.2655539 60.4704097,22.5341426 59.2564492,19.9544765 C58.4977238,18.3611533 56.0698027,19.8027314 56.8285281,21.3960546 Z" id="Shape"></path>
                    <path d="M77.7693475,26.6312595 C78.6039454,25.1896813 80.5766313,24.8861912 81.4871017,23.3687405 C82.245827,22.0789074 82.1699545,20.4097117 80.9559939,19.4233687 C78.3763278,17.4506829 74.8103187,20.030349 73.5963581,22.3823976 C70.4097117,28.6039454 78.2245827,33.9150228 83.3080425,29.8937785 C84.7496206,28.7556904 82.7010622,26.7830046 81.2594841,27.84522 C78.6798179,29.8179059 74.6585736,27.2382398 75.8725341,24.0515933 C76.1760243,23.292868 76.6312595,22.6100152 77.3141123,22.15478 C77.693475,21.9271624 78.983308,21.2443096 78.983308,21.8512898 C78.983308,22.3823976 77.1623672,23.1411229 76.7830046,23.4446131 C76.1760243,23.8998483 75.6449165,24.430956 75.2655539,25.1138088 C74.430956,26.7830046 76.9347496,28.2245827 77.7693475,26.6312595 Z" id="Shape"></path>
                    <path d="M84.9772382,21.5477997 C85.4324734,23.4446131 85.5842185,25.4172989 85.3566009,27.3899848 C86.2670713,27.5417299 87.2534143,27.6176024 88.1638847,27.7693475 C88.0121396,26.1001517 87.4810319,22.6858877 89.8330804,22.306525 C91.8816388,22.0030349 91.6540212,26.8588771 91.5781487,28.0728376 C91.4264036,29.8937785 94.3095599,29.8937785 94.3854325,28.0728376 C94.6130501,24.9620637 94.0819423,19.1957511 89.7572079,19.4233687 C85.4324734,19.7268589 84.9013657,24.430956 85.2807284,27.7693475 C85.4324734,29.2109256 87.784522,29.8937785 88.0880121,28.1487102 C88.4673748,25.6449165 88.3915023,23.292868 87.7086495,20.7890744 C87.2534143,18.9681335 84.522003,19.7268589 84.9772382,21.5477997 Z" id="Shape"></path>
                    <path d="M97.4962064,5.46282246 C97.0409712,13.2018209 97.0409712,21.016692 97.4203338,28.7556904 C97.4962064,30.5766313 100.379363,30.5766313 100.30349,28.7556904 C99.9241275,21.016692 99.9241275,13.2018209 100.379363,5.46282246 C100.455235,3.64188164 97.5720789,3.64188164 97.4962064,5.46282246 Z" id="Shape"></path>
                    <path d="M94.6889226,18.7405159 C97.0409712,18.3611533 99.3930197,18.2852807 101.745068,18.5887709 C103.566009,18.8163885 103.566009,15.9332322 101.745068,15.7056146 C99.1654021,15.4021244 96.585736,15.477997 94.0060698,15.9332322 C92.1092564,16.3125948 92.8679818,19.0440061 94.6889226,18.7405159 Z" id="Shape"></path>
                    <path d="M112.291351,18.892261 C107.359636,14.5675266 101.365706,21.4719272 102.807284,26.707132 C103.414264,29.0591806 105.842185,30.3490137 108.042489,29.1350531 C110.7739,27.6176024 112.291351,23.8239757 112.898331,20.9408194 C111.98786,20.7132018 111.07739,20.4097117 110.16692,20.1820941 C109.635812,23.3687405 110.091047,26.4036419 111.68437,29.2109256 C112.594841,30.8042489 115.022762,29.3626707 114.112291,27.7693475 C112.898331,25.6449165 112.443096,23.292868 112.898331,20.9408194 C113.201821,19.1957511 110.546282,18.3611533 110.16692,20.1820941 C109.787557,21.8512898 109.256449,23.4446131 108.270106,24.8861912 C107.738998,25.7207891 106.145675,27.84522 105.538695,25.9484067 C104.77997,23.5963581 107.663126,18.5887709 110.242792,20.9408194 C111.68437,22.15478 113.657056,20.1062215 112.291351,18.892261 Z" id="Shape"></path>
                    <path d="M117.07132,18.5887709 C114.795144,19.7268589 114.036419,22.6858877 114.719272,24.9620637 C116.46434,31.4112291 124.658574,31.9423369 128.831563,27.6176024 C130.652504,25.7207891 131.942337,22.9893778 131.031866,20.3338392 C130.349014,18.2094082 128.14871,16.9195751 125.948407,17.8300455 C123.596358,18.8163885 122.685888,21.6236722 123.596358,23.8998483 C124.886191,27.1623672 128.376328,28.1487102 131.487102,28.831563 C133.308042,29.2109256 134.066768,26.4795144 132.245827,26.1001517 C131.411229,25.9484067 130.576631,25.7966616 129.742033,25.4931715 C129.286798,25.3414264 126.403642,24.2792109 126.479514,23.3687405 C127.086495,22.6858877 127.769347,22.0789074 128.376328,21.3960546 C128.528073,22.15478 128.4522,22.8376328 128.14871,23.4446131 C127.84522,24.3550835 127.162367,25.1896813 126.479514,25.8725341 C124.886191,27.3899848 122.610015,28.0728376 120.485584,27.3141123 C119.423369,26.9347496 118.512898,26.2518968 117.981791,25.2655539 C117.830046,24.8861912 117.602428,24.5068285 117.450683,24.1274659 C116.843703,22.5341426 117.526555,21.6236722 119.423369,21.5477997 C120.030349,23.3687405 122.76176,22.6100152 122.15478,20.8649469 C121.320182,18.8163885 119.271624,17.5265554 117.07132,18.5887709 Z" id="Shape"></path>
                </g>
            </g>
        </g>
    </g>
</svg>