<?xml version="1.0" encoding="UTF-8"?>
<svg width="319px" height="45px" viewBox="0 0 319 45" version="1.1" xmlns="http://www.w3.org/2000/svg" xmlns:xlink="http://www.w3.org/1999/xlink">
    <!-- Generator: Sketch 49.3 (51167) - http://www.bohemiancoding.com/sketch -->
    <title>Group 4</title>
    <desc>Created with Sketch.</desc>
    <defs></defs>
    <g id="Page-1" stroke="none" stroke-width="1" fill="none" fill-rule="evenodd">
        <g id="footer" transform="translate(-91.000000, 0.000000)" fill="#000000" fill-rule="nonzero">
            <g id="Group-4" transform="translate(91.047041, 0.000000)">
                <path d="M0.834597876,3.79362671 C4.17298938,15.5538695 6.37329287,27.5417299 7.51138088,39.6813354 C7.73899848,41.7298938 10.5462822,42.3368741 11.2291351,40.2124431 C14.4157815,30.1213961 17.2230653,19.8786039 19.7268589,9.5599393 C20.3338392,7.20789074 16.616085,6.14567527 16.0849772,8.57359636 C13.5811836,18.892261 10.6980273,29.0591806 7.58725341,39.2261002 C8.80121396,39.3778452 10.091047,39.5295903 11.3050076,39.7572079 C10.1669196,27.2382398 7.89074355,14.9468892 4.47647951,2.8831563 C3.79362671,0.455235205 0.151745068,1.44157815 0.834597876,3.79362671 Z" id="Shape"></path>
                <path d="M13.0500759,7.05614568 C16.2367223,16.76783 19.3474962,26.4795144 22.5341426,36.1911988 C23.0652504,37.8603945 25.7966616,38.1638847 26.1760243,36.1911988 C28.1487102,26.2518968 30.1213961,16.3125948 32.0182094,6.37329287 C32.4734446,4.02124431 28.831563,2.95902883 28.3763278,5.38694992 C26.4036419,15.3262519 24.430956,25.2655539 22.5341426,35.2048558 C23.7481032,35.2048558 24.9620637,35.2048558 26.1760243,35.2048558 C22.9893778,25.4931715 19.8786039,15.7814871 16.6919575,6.06980273 C15.9332322,3.79362671 12.2913505,4.77996965 13.0500759,7.05614568 Z" id="Shape"></path>
                <path d="M34.1426404,4.47647951 C37.6327769,15.2503794 40.5159332,26.1760243 42.9438543,37.1775417 C43.323217,38.9984825 46.2063733,38.9984825 46.585736,37.1775417 C48.2549317,29.4385432 49.8482549,21.6236722 51.5174507,13.8846737 C52.0485584,11.5326252 48.3308042,10.4704097 47.875569,12.8983308 C46.2063733,20.6373293 44.6130501,28.4522003 42.9438543,36.1911988 C44.1578149,36.1911988 45.3717754,36.1911988 46.585736,36.1911988 C44.2336874,25.1138088 41.2746586,14.2640364 37.784522,3.49013657 C37.0257967,1.13808801 33.383915,2.12443096 34.1426404,4.47647951 Z" id="Shape"></path>
                <path d="M45.447648,10.091047 C48.6342944,19.1198786 51.8968134,28.0728376 55.0834598,37.1016692 C55.6904401,38.8467375 58.1942337,38.9984825 58.7253414,37.1016692 C62.1396055,25.7207891 65.5538695,14.2640364 68.9681335,2.8831563 C69.6509863,0.531107739 66.0091047,-0.455235205 65.3262519,1.89681335 C61.9119879,13.2776935 58.4977238,24.7344461 55.0834598,36.1153263 C56.2974203,36.1153263 57.5113809,36.1153263 58.7253414,36.1153263 C55.538695,27.0864947 52.276176,18.1335357 49.0895296,9.1047041 C48.2549317,6.82852807 44.6130501,7.81487102 45.447648,10.091047 Z" id="Shape"></path>
                <path d="M67.5265554,4.62822458 C71.4719272,15.5538695 74.2033384,26.8588771 75.7966616,38.3156297 C76.1001517,40.3641882 78.831563,39.8330804 79.4385432,38.3156297 C82.9286798,29.4385432 85.2048558,20.3338392 86.4188164,10.9256449 C86.7223065,8.49772382 82.9286798,8.57359636 82.6251897,10.9256449 C81.4112291,19.9544765 79.1350531,28.831563 75.7966616,37.3292868 C77.0106222,37.3292868 78.2245827,37.3292868 79.4385432,37.3292868 C77.84522,25.7966616 75.1138088,14.5675266 71.168437,3.64188164 C70.3338392,1.36570561 66.6919575,2.35204856 67.5265554,4.62822458 Z" id="Shape"></path>
                <path d="M80.8801214,13.2018209 C82.9286798,22.15478 86.5705615,30.5007587 91.7298938,38.0880121 C92.6403642,39.3778452 94.7647951,39.3019727 95.2200303,37.6327769 C98.2549317,26.4036419 100.379363,14.9468892 101.745068,3.3383915 C102.048558,0.91047041 98.2549317,0.91047041 97.9514416,3.3383915 C96.6616085,14.5675266 94.461305,25.6449165 91.5781487,36.5705615 C92.7162367,36.4188164 93.8543247,36.2670713 95.0682853,36.1153263 C90.060698,28.7556904 86.5705615,20.7132018 84.5978756,12.0637329 C83.9908953,9.86342944 80.2731411,10.8497724 80.8801214,13.2018209 Z" id="Shape"></path>
                <path d="M105.311077,34.9772382 C105.538695,35.2048558 105.766313,35.4324734 105.918058,35.5842185 C106.60091,36.2670713 107.890744,36.3429439 108.573596,35.5842185 C109.256449,34.8254932 109.332322,33.6874052 108.573596,32.9286798 C108.345979,32.7010622 108.118361,32.4734446 107.966616,32.3216995 C107.283763,31.6388467 105.99393,31.5629742 105.311077,32.3216995 C104.628225,33.0045524 104.628225,34.2185129 105.311077,34.9772382 Z" id="Shape"></path>
                <path d="M116.691958,5.31107739 C117.450683,14.339909 118.740516,23.292868 120.485584,32.245827 C120.940819,34.6737481 124.582701,33.6115326 124.127466,31.2594841 C122.45827,22.6858877 121.24431,14.0364188 120.485584,5.31107739 C120.333839,2.8831563 116.540212,2.8831563 116.691958,5.31107739 Z" id="Shape"></path>
                <path d="M114.112291,6.676783 C122.76176,4.93171472 129.362671,11.7602428 129.666161,20.1062215 C129.969651,28.0728376 125.569044,35.1289833 121.5478,41.7298938 C120.257967,43.8543247 123.520486,45.7511381 124.810319,43.6267071 C129.969651,35.1289833 135.432473,25.4172989 132.701062,15.0986343 C130.349014,6.29742033 121.927162,1.28983308 113.050076,3.03490137 C110.698027,3.49013657 111.760243,7.13201821 114.112291,6.676783 Z" id="Shape"></path>
                <path d="M136.949924,11.6843703 C135.963581,15.7056146 135.280728,21.9271624 138.088012,25.4172989 C140.667678,28.6798179 144.91654,27.0106222 146.965099,24.1274659 C149.165402,21.016692 149.468892,16.0849772 147.116844,12.8983308 C144.840668,9.86342944 140.667678,9.3323217 137.708649,11.6843703 C135.811836,13.2018209 138.543247,15.8573596 140.364188,14.339909 C142.109256,12.8983308 144.157815,14.7951442 144.688923,16.4643399 C145.22003,18.2852807 144.764795,20.8649469 143.474962,22.306525 C141.047041,25.0379363 140.288316,21.168437 140.060698,19.1957511 C139.83308,16.9954476 140.060698,14.7951442 140.591806,12.5948407 C141.198786,10.3945372 137.556904,9.3323217 136.949924,11.6843703 Z" id="Shape"></path>
                <path d="M149.544765,9.25644917 C154.77997,10.1669196 159.939302,9.93930197 165.098634,8.49772382 C167.450683,7.81487102 166.46434,4.17298938 164.112291,4.85584219 C159.635812,6.14567527 155.159332,6.37329287 150.60698,5.61456753 C148.179059,5.15933232 147.116844,8.80121396 149.544765,9.25644917 Z" id="Shape"></path>
                <path d="M154.704097,8.49772382 C155.311077,14.5675266 155.918058,20.6373293 156.525038,26.707132 C156.752656,29.1350531 160.546282,29.1350531 160.318665,26.707132 C159.711684,20.6373293 159.104704,14.5675266 158.497724,8.49772382 C158.270106,6.06980273 154.47648,6.06980273 154.704097,8.49772382 Z" id="Shape"></path>
                <path d="M169.119879,7.05614568 C170.864947,14.8710167 173.141123,22.5341426 175.796662,30.0455235 C176.403642,31.7905918 178.907436,31.9423369 179.438543,30.0455235 C181.638847,22.306525 184.294385,14.6433991 187.329287,7.20789074 C188.239757,4.93171472 184.597876,3.94537178 183.687405,6.2215478 C180.652504,13.7329287 178.072838,21.3201821 175.796662,29.0591806 C177.010622,29.0591806 178.224583,29.0591806 179.438543,29.0591806 C176.783005,21.5477997 174.506829,13.8846737 172.76176,6.06980273 C172.230653,3.64188164 168.588771,4.62822458 169.119879,7.05614568 Z" id="Shape"></path>
                <path d="M187.481032,6.98027314 C190.060698,15.5538695 192.564492,24.0515933 195.144158,32.6251897 C195.675266,34.4461305 198.254932,34.370258 198.786039,32.6251897 C201.517451,24.2792109 204.324734,16.0091047 207.056146,7.66312595 C207.814871,5.31107739 204.172989,4.32473445 203.414264,6.676783 C200.682853,15.0227618 197.875569,23.292868 195.144158,31.6388467 C196.358118,31.6388467 197.572079,31.6388467 198.786039,31.6388467 C196.206373,23.0652504 193.70258,14.5675266 191.122914,5.9939302 C190.440061,3.64188164 186.798179,4.70409712 187.481032,6.98027314 Z" id="Shape"></path>
                <path d="M206.221548,7.66312595 C207.359636,15.629742 208.497724,23.5963581 209.635812,31.4871017 C210.015175,33.9150228 213.657056,32.8528073 213.277693,30.5007587 C212.139605,22.5341426 211.001517,14.5675266 209.863429,6.676783 C209.559939,4.24886191 205.918058,5.31107739 206.221548,7.66312595 Z" id="Shape"></path>
                <path d="M206.752656,8.34597876 C210.015175,11.6843703 212.898331,15.1745068 215.553869,19.0440061 C216.388467,20.3338392 217.981791,20.1820941 218.816388,19.0440061 C221.927162,14.7951442 224.810319,10.3945372 227.389985,5.76631259 C226.251897,5.61456753 225.113809,5.46282246 223.899848,5.31107739 C225.569044,14.2640364 227.23824,23.2169954 228.907436,32.1699545 C229.362671,34.5978756 233.004552,33.5356601 232.549317,31.1836115 C230.880121,22.2306525 229.210926,13.2776935 227.54173,4.32473445 C227.23824,2.65553869 224.810319,2.50379363 224.051593,3.86949924 C221.471927,8.49772382 218.588771,12.8983308 215.477997,17.1471927 C216.540212,17.1471927 217.6783,17.1471927 218.740516,17.1471927 C215.933232,13.0500759 212.822458,9.25644917 209.332322,5.69044006 C207.738998,3.86949924 205.08346,6.60091047 206.752656,8.34597876 Z" id="Shape"></path>
                <path d="M242.488619,32.3216995 C242.943854,32.3216995 243.323217,32.3216995 243.778452,32.3216995 C244.764795,32.3216995 245.751138,31.4871017 245.675266,30.4248862 C245.599393,29.3626707 244.840668,28.5280728 243.778452,28.5280728 C243.323217,28.5280728 242.943854,28.5280728 242.488619,28.5280728 C241.502276,28.5280728 240.515933,29.3626707 240.591806,30.4248862 C240.667678,31.4871017 241.426404,32.3216995 242.488619,32.3216995 Z" id="Shape"></path>
                <path d="M266.76783,12.1396055 C266.388467,7.43550835 263.960546,2.04855842 258.194234,4.24886191 C252.427921,6.4491654 250.455235,16.0849772 250.986343,21.4719272 C251.517451,26.6312595 255.08346,31.5629742 260.622155,31.7147193 C267.298938,31.8664643 272.989378,26.0242792 276.327769,20.7890744 C277.617602,18.7405159 274.355083,16.8437026 273.06525,18.892261 C269.954476,23.8239757 259.787557,33.3080425 255.538695,24.0515933 C253.945372,20.5614568 254.931715,16.2367223 256.145675,12.7465857 C256.752656,10.9256449 257.966616,7.28376328 260.622155,7.51138088 C262.746586,7.73899848 262.822458,10.4704097 262.974203,12.0637329 C263.201821,14.5675266 266.995448,14.5675266 266.76783,12.1396055 Z" id="Shape"></path>
                <path d="M276.251897,16.0091047 C276.176024,20.4855842 276.024279,29.8937785 282.549317,29.7420334 C287.936267,29.5902883 290.743551,22.9893778 291.805766,18.5128983 C292.867982,13.8846737 291.957511,8.64946889 287.177542,6.60091047 C281.487102,4.17298938 276.100152,8.04248862 272.913505,12.5189681 C271.471927,14.491654 274.810319,16.3884674 276.176024,14.4157815 C278.14871,11.6084977 281.411229,8.72534143 285.204856,9.86342944 C288.770865,11.0015175 288.846737,14.9468892 288.01214,17.9817906 C287.481032,19.8786039 286.267071,23.8239757 284.446131,25.0379363 C279.666161,28.3004552 280.045524,17.6783005 280.045524,16.0091047 C280.045524,13.5811836 276.251897,13.5811836 276.251897,16.0091047 Z" id="Shape"></path>
                <path d="M293.474962,4.70409712 C294.157815,13.1259484 294.840668,21.4719272 295.599393,29.8937785 C295.827011,32.3216995 299.620637,32.3216995 299.39302,29.8937785 C298.710167,21.4719272 298.027314,13.1259484 297.268589,4.70409712 C297.116844,2.27617602 293.323217,2.20030349 293.474962,4.70409712 Z" id="Shape"></path>
                <path d="M293.550835,5.9939302 C295.827011,10.6980273 298.558422,14.9468892 301.896813,18.9681335 C302.731411,19.9544765 304.324734,19.5751138 304.855842,18.5887709 C307.663126,13.9605463 310.16692,9.18057663 312.443096,4.24886191 C313.429439,2.04855842 310.16692,0.151745068 309.180577,2.35204856 C306.904401,7.28376328 304.324734,12.0637329 301.593323,16.6919575 C302.579666,16.5402124 303.566009,16.4643399 304.552352,16.3125948 C301.441578,12.5189681 298.937785,8.49772382 296.813354,4.09711684 C295.827011,1.89681335 292.564492,3.79362671 293.550835,5.9939302 Z" id="Shape"></path>
                <path d="M310.47041,2.80728376 C311.68437,12.6707132 312.898331,22.5341426 314.188164,32.3975721 C314.491654,34.8254932 318.285281,34.8254932 317.981791,32.3975721 C316.76783,22.5341426 315.553869,12.6707132 314.264036,2.80728376 C313.960546,0.379362671 310.16692,0.379362671 310.47041,2.80728376 Z" id="Shape"></path>
            </g>
        </g>
    </g>
</svg>