<?xml version="1.0" encoding="UTF-8"?>
<svg width="187px" height="50px" viewBox="0 0 187 50" version="1.1" xmlns="http://www.w3.org/2000/svg" xmlns:xlink="http://www.w3.org/1999/xlink">
    <!-- Generator: Sketch 49.3 (51167) - http://www.bohemiancoding.com/sketch -->
    <title>Group 3</title>
    <desc>Created with Sketch.</desc>
    <defs></defs>
    <g id="Page-1" stroke="none" stroke-width="1" fill="none" fill-rule="evenodd">
        <g id="footer" transform="translate(-313.000000, -81.000000)" fill="#000000" fill-rule="nonzero">
            <g id="Group-5" transform="translate(0.000000, 82.701062)">
                <g id="Group-3" transform="translate(312.594841, 0.000000)">
                    <path d="M0.682852807,1.82094082 C2.35204856,7.81487102 4.09711684,13.8846737 5.76631259,19.8786039 C7.13201821,24.7344461 8.27010622,29.5902883 11.1532625,33.7632777 C11.8361153,34.7496206 13.353566,34.6737481 13.7329287,33.4597876 C16.3884674,24.5827011 18.5128983,15.5538695 20.030349,6.37329287 C20.3338392,4.55235205 17.6024279,3.79362671 17.2989378,5.61456753 C15.7814871,14.7951442 13.7329287,23.8239757 11.0015175,32.7010622 C11.8361153,32.6251897 12.7465857,32.4734446 13.5811836,32.3975721 C10.5462822,28.0728376 9.48406677,22.7617602 8.04248862,17.754173 C6.4491654,12.215478 4.93171472,6.676783 3.3383915,1.13808801 C2.95902883,-0.682852807 0.151745068,0.0758725341 0.682852807,1.82094082 Z" id="Shape"></path>
                    <path d="M24.8103187,23.292868 C25.6449165,22.9893778 27.0864947,22.9893778 27.6176024,23.8239757 C28.3763278,25.0379363 26.4036419,26.707132 25.6449165,27.4658574 C24.5068285,28.6039454 21.8512898,29.8937785 21.7754173,31.7905918 C21.6236722,36.2670713 30.8801214,34.0667678 33.0804249,33.383915 C34.8254932,32.8528073 34.0667678,30.1213961 32.3216995,30.6525038 C30.6525038,31.1836115 28.983308,31.4871017 27.2382398,31.5629742 C26.3277693,31.5629742 25.4931715,31.5629742 24.5827011,31.4871017 C24.6585736,31.6388467 24.7344461,31.7905918 24.8103187,31.9423369 C25.1138088,31.7147193 25.4172989,31.4871017 25.7207891,31.2594841 C27.4658574,29.8937785 29.4385432,28.1487102 30.2731411,26.1001517 C31.8664643,22.2306525 27.3899848,19.4233687 23.9757208,20.6373293 C22.306525,21.168437 23.0652504,23.8998483 24.8103187,23.292868 Z" id="Shape"></path>
                    <path d="M23.7481032,28.7556904 C25.8725341,28.6039454 27.9969651,28.6039454 30.1213961,28.6798179 C31.9423369,28.7556904 31.9423369,25.9484067 30.1213961,25.7966616 C27.9969651,25.7207891 25.8725341,25.7207891 23.7481032,25.8725341 C21.9271624,26.0242792 21.9271624,28.9074355 23.7481032,28.7556904 Z" id="Shape"></path>
                    <path d="M36.7223065,23.1411229 C34.5978756,25.2655539 33.1562974,28.6039454 35.3566009,31.2594841 C37.4051593,33.6874052 41.198786,33.7632777 43.6267071,32.0182094 C45.7511381,30.4248862 46.6616085,27.6176024 44.9924127,25.4172989 C43.323217,23.2169954 40.1365706,22.4582701 37.6327769,23.292868 C35.8877086,23.8239757 36.646434,26.6312595 38.3915023,26.0242792 C40.4400607,25.3414264 44.9924127,27.1623672 42.2610015,29.5144158 C41.1229135,30.5007587 39.3019727,30.8042489 38.0121396,29.8179059 C36.1911988,28.4522003 37.5569044,26.3277693 38.7708649,25.1138088 C39.9848255,23.8998483 38.0121396,21.8512898 36.7223065,23.1411229 Z" id="Shape"></path>
                    <path d="M44.9924127,24.6585736 C45.9028832,27.2382398 46.8133536,29.8179059 47.723824,32.3216995 C48.5584219,31.9423369 49.4688923,31.5629742 50.3034901,31.2594841 C49.1654021,28.5280728 51.5933232,26.0242792 54.0212443,25.2655539 C55.7663126,24.7344461 55.0075873,22.0030349 53.262519,22.5341426 C48.861912,23.8239757 45.9028832,28.3004552 47.875569,32.7010622 C48.4825493,34.1426404 50.9863429,33.1562974 50.4552352,31.6388467 C49.5447648,29.0591806 48.6342944,26.4795144 47.723824,23.9757208 C47.1168437,22.2306525 44.3854325,22.9135053 44.9924127,24.6585736 Z" id="Shape"></path>
                    <path d="M58.6494689,23.8239757 C55.538695,24.9620637 52.3520486,27.9210926 54.0212443,31.5629742 C55.6145675,34.9772382 60.2427921,35.3566009 63.0500759,33.23217 C65.5538695,31.3353566 66.3125948,27.693475 64.0364188,25.3414264 C61.7602428,23.0652504 58.0424886,22.7617602 55.3110774,24.2033384 C53.7177542,25.0379363 55.1593323,27.5417299 56.7526555,26.6312595 C59.1047041,25.3414264 64.5675266,27.0864947 61.9878604,30.3490137 C60.9256449,31.7147193 58.3459788,32.3216995 57.0561457,30.8801214 C55.3110774,28.983308 57.814871,27.1623672 59.4840668,26.5553869 C61.07739,25.9484067 60.3186646,23.2169954 58.6494689,23.8239757 Z" id="Shape"></path>
                    <path d="M63.5053111,25.1138088 C65.4021244,26.9347496 66.4643399,29.1350531 67.2989378,31.5629742 C67.6024279,32.3975721 67.8300455,33.383915 68.6646434,33.7632777 C69.4233687,34.1426404 70.3338392,33.9150228 70.8649469,33.3080425 C71.2443096,32.7769347 71.3960546,32.1699545 71.0925645,31.5629742 C71.0925645,31.4871017 71.016692,31.4112291 71.016692,31.4112291 C70.1062215,29.8179059 67.6783005,31.2594841 68.5887709,32.8528073 C68.5887709,32.9286798 68.6646434,33.0045524 68.6646434,33.0045524 C68.7405159,32.3975721 68.8163885,31.8664643 68.892261,31.2594841 C68.9681335,31.1836115 69.0440061,31.1836115 69.0440061,31.107739 C69.4233687,31.1836115 69.8027314,31.1836115 70.1062215,31.2594841 C69.8786039,31.107739 69.6509863,29.5902883 69.4992413,29.2867982 C69.1957511,28.5280728 68.892261,27.7693475 68.5128983,27.0106222 C67.754173,25.4931715 66.76783,24.2033384 65.5538695,23.0652504 C64.1881639,21.7754173 62.1396055,23.8239757 63.5053111,25.1138088 Z" id="Shape"></path>
                    <path d="M70.6373293,33.9908953 C72.8376328,31.4112291 74.5827011,28.6039454 75.8725341,25.4931715 C76.5553869,23.8239757 73.8239757,23.0652504 73.1411229,24.7344461 C72.0789074,27.3899848 70.5614568,29.8179059 68.6646434,32.0182094 C67.4506829,33.3080425 69.4233687,35.3566009 70.6373293,33.9908953 Z" id="Shape"></path>
                    <path d="M77.5417299,30.5007587 C80.0455235,29.969651 85.3566009,28.0728376 85.3566009,24.8103187 C85.3566009,21.168437 80.1972686,23.0652504 78.7556904,24.5068285 C76.6312595,26.5553869 74.3550835,30.4248862 76.707132,33.0804249 C79.3626707,36.0394537 83.7632777,35.1289833 87.1016692,34.1426404 C88.8467375,33.6115326 88.0880121,30.8801214 86.3429439,31.4112291 C84.4461305,31.9423369 82.3975721,32.6251897 80.5007587,32.0940819 C79.5144158,31.7905918 78.7556904,31.4112291 78.6798179,30.3490137 C78.6039454,29.2867982 79.3626707,28.2245827 80.0455235,27.3899848 C80.5007587,26.7830046 81.0318665,26.1760243 81.7147193,25.8725341 C81.8664643,25.7966616 83.0045524,25.569044 83.0045524,25.569044 C82.8528073,25.2655539 82.7010622,25.0379363 82.5493171,24.7344461 C82.3975721,24.8861912 82.245827,25.0379363 82.0940819,25.1896813 C81.2594841,25.6449165 80.5766313,26.4036419 79.6661608,26.8588771 C78.7556904,27.3141123 77.7693475,27.5417299 76.7830046,27.7693475 C75.0379363,28.0728376 75.7966616,30.8042489 77.5417299,30.5007587 Z" id="Shape"></path>
                    <path d="M76.5553869,16.9195751 C77.4658574,18.1335357 78.3004552,19.3474962 79.2109256,20.5614568 C79.6661608,21.168437 80.4248862,21.4719272 81.1836115,21.0925645 C81.7905918,20.7132018 82.1699545,19.8027314 81.7147193,19.1198786 C80.8042489,17.9059181 79.969651,16.6919575 79.0591806,15.477997 C78.6039454,14.8710167 77.84522,14.5675266 77.0864947,14.9468892 C76.4036419,15.3262519 76.1001517,16.3125948 76.5553869,16.9195751 Z" id="Shape"></path>
                    <path d="M109.028832,21.3960546 C103.414264,17.754173 96.8133536,27.84522 98.7860395,32.7769347 C100,35.8877086 103.490137,33.9908953 105.159332,32.3975721 C107.587253,30.1972686 108.801214,26.9347496 109.863429,23.8998483 C108.952959,23.7481032 107.966616,23.6722307 107.056146,23.5204856 C106.904401,27.1623672 107.283763,30.8042489 108.194234,34.370258 C108.649469,36.1153263 111.38088,35.3566009 110.925645,33.6115326 C110.015175,30.2731411 109.711684,26.9347496 109.863429,23.5204856 C109.939302,21.8512898 107.587253,21.6995448 107.056146,23.1411229 C106.525038,24.6585736 105.918058,26.1760243 105.159332,27.6176024 C104.552352,28.6798179 103.414264,30.8042489 102.124431,31.107739 C100.30349,31.5629742 102.200303,27.5417299 102.579666,26.7830046 C103.414264,25.2655539 105.538695,22.5341426 107.511381,23.8239757 C109.180577,24.8103187 110.546282,22.3823976 109.028832,21.3960546 Z" id="Shape"></path>
                    <path d="M112.139605,23.8239757 C112.367223,31.3353566 113.429439,38.6949924 115.250379,45.9028832 C115.705615,47.6479514 118.437026,46.9650986 117.981791,45.1441578 C116.919575,40.5918058 116.388467,35.9635812 116.616085,31.2594841 C116.691958,29.8937785 116.540212,25.3414264 117.450683,24.6585736 C118.588771,23.8239757 119.423369,24.430956 120.257967,25.2655539 C121.320182,26.1760243 121.775417,27.2382398 121.5478,28.5280728 C121.85129,30.5766313 120.485584,31.1836115 117.37481,30.3490137 C116.16085,28.983308 114.188164,30.9559939 115.326252,32.3975721 C117.6783,35.1289833 121.927162,34.7496206 123.748103,31.4871017 C125.720789,27.9210926 123.520486,23.4446131 120.106222,21.6236722 C110.546282,16.616085 114.264036,42.1092564 115.174507,45.7511381 C116.084977,45.5235205 116.995448,45.2200303 117.905918,44.9924127 C116.16085,37.9362671 115.174507,30.8801214 114.871017,23.5963581 C114.946889,22.0030349 112.063733,21.9271624 112.139605,23.8239757 Z" id="Shape"></path>
                    <path d="M125.189681,7.51138088 C126.024279,15.7814871 126.93475,24.0515933 128.072838,32.245827 C128.300455,34.0667678 131.031866,33.3080425 130.804249,31.4871017 C129.742033,23.5204856 128.75569,15.5538695 127.996965,7.51138088 C127.921093,5.69044006 125.037936,5.69044006 125.189681,7.51138088 Z" id="Shape"></path>
                    <path d="M131.562974,22.0030349 C131.638847,23.5204856 131.714719,25.0379363 131.866464,26.5553869 C132.018209,27.7693475 132.018209,29.3626707 132.473445,30.5007587 C133.156297,32.1699545 135.356601,32.7769347 136.722307,31.6388467 C138.088012,30.5007587 137.860395,28.1487102 136.342944,27.2382398 C134.749621,26.3277693 132.776935,27.3899848 132.3217,29.1350531 C131.866464,30.8801214 134.597876,31.6388467 135.053111,29.8937785 C135.280728,28.9074355 134.749621,27.3141123 134.597876,26.3277693 C134.446131,24.9620637 134.370258,23.5204856 134.294385,22.15478 C134.370258,20.1820941 131.487102,20.1820941 131.562974,22.0030349 Z" id="Shape"></path>
                    <path d="M134.14264,14.2640364 C134.370258,14.491654 134.597876,14.7192716 134.825493,14.9468892 C135.356601,15.477997 136.342944,15.477997 136.874052,14.9468892 C137.405159,14.339909 137.405159,13.5053111 136.874052,12.8983308 C136.646434,12.6707132 136.418816,12.4430956 136.191199,12.215478 C135.660091,11.6843703 134.673748,11.6843703 134.14264,12.215478 C133.687405,12.8224583 133.611533,13.7329287 134.14264,14.2640364 Z" id="Shape"></path>
                    <path d="M139.681335,7.43550835 C140.440061,11.9878604 140.895296,16.5402124 140.971168,21.168437 C141.047041,24.6585736 140.288316,28.4522003 141.350531,31.7905918 C141.881639,33.5356601 144.688923,32.7769347 144.081942,31.0318665 C142.867982,27.1623672 143.854325,22.306525 143.70258,18.2852807 C143.550835,14.339909 143.019727,10.4704097 142.336874,6.60091047 C142.109256,4.85584219 139.377845,5.69044006 139.681335,7.43550835 Z" id="Shape"></path>
                    <path d="M148.406677,20.030349 C146.054628,21.4719272 143.550835,22.0030349 140.743551,21.7754173 C140.743551,22.6858877 140.743551,23.6722307 140.743551,24.6585736 C142.640364,24.430956 143.854325,26.5553869 144.91654,27.84522 C146.054628,29.3626707 147.192716,30.8042489 148.330804,32.3216995 C149.39302,33.7632777 151.896813,32.3216995 150.758725,30.8801214 C149.08953,28.6798179 147.572079,26.4795144 145.827011,24.3550835 C144.537178,22.8376328 142.867982,21.5477997 140.819423,21.7754173 C138.998483,22.0030349 138.92261,24.5068285 140.819423,24.6585736 C144.081942,24.8861912 147.116844,24.2033384 149.924127,22.4582701 C151.441578,21.5477997 150,19.1198786 148.406677,20.030349 Z" id="Shape"></path>
                    <path d="M159.787557,24.2792109 C159.104704,21.6995448 156.069803,20.7132018 153.869499,22.0030349 C151.213961,23.5204856 150.379363,27.6176024 151.441578,30.3490137 C152.579666,33.1562974 156.069803,34.2943854 158.421851,32.1699545 C161.001517,29.8179059 161.98786,25.7966616 161.760243,22.4582701 C161.608498,20.6373293 159.028832,20.6373293 158.877086,22.4582701 C158.649469,26.0242792 159.559939,29.3626707 161.608498,32.3216995 C162.670713,33.8391502 165.098634,32.3975721 164.036419,30.8801214 C162.291351,28.3004552 161.532625,25.569044 161.68437,22.4582701 C160.7739,22.4582701 159.787557,22.4582701 158.801214,22.4582701 C158.952959,24.5827011 158.421851,30.1213961 155.538695,30.2731411 C153.566009,30.3490137 153.566009,27.693475 153.945372,26.3277693 C154.172989,25.4931715 156.29742,22.7617602 156.904401,25.0379363 C157.511381,26.7830046 160.242792,26.0242792 159.787557,24.2792109 Z" id="Shape"></path>
                    <path d="M172.913505,21.0925645 C166.919575,18.0576631 161.456753,24.5827011 164.567527,30.2731411 C168.209408,36.8740516 178.603945,35.4324734 182.549317,29.8937785 C184.066768,27.7693475 184.370258,24.7344461 182.62519,22.6858877 C181.031866,20.8649469 178.528073,20.8649469 177.010622,22.8376328 C172.382398,29.0591806 180.045524,35.9635812 186.267071,33.7632777 C188.01214,33.1562974 187.253414,30.4248862 185.508346,31.0318665 C182.701062,32.0182094 178.300455,30.5007587 178.831563,26.7830046 C178.4522,25.3414264 179.135053,24.8861912 180.880121,25.3414264 C180.576631,26.4795144 180.197269,27.5417299 179.893778,28.6798179 C179.362671,29.5144158 178.072838,30.1972686 177.23824,30.5766313 C174.810319,31.7905918 171.775417,32.3975721 169.271624,31.0318665 C168.133536,30.4248862 166.919575,29.1350531 166.616085,27.7693475 C165.933232,25.0379363 168.664643,22.0789074 171.471927,23.5204856 C173.141123,24.3550835 174.582701,21.9271624 172.913505,21.0925645 Z" id="Shape"></path>
                </g>
            </g>
        </g>
    </g>
</svg>