<?xml version="1.0" standalone="no"?>
<!DOCTYPE svg PUBLIC "-//W3C//DTD SVG 20010904//EN"
 "http://www.w3.org/TR/2001/REC-SVG-20010904/DTD/svg10.dtd">
<svg version="1.0" xmlns="http://www.w3.org/2000/svg"
 width="1697.000000pt" height="1697.000000pt" viewBox="0 0 1697.000000 1697.000000"
 preserveAspectRatio="xMidYMid meet">
<metadata>
Created by potrace 1.11, written by Peter Selinger 2001-2013
</metadata>
<g transform="translate(0.000000,1697.000000) scale(0.100000,-0.100000)"
fill="#000000" stroke="none">
<path d="M8534 16867 c-27 -29 -130 -151 -157 -187 -7 -8 -26 -33 -43 -55
-168 -217 -315 -516 -349 -715 -42 -237 89 -570 352 -899 l75 -93 29 52 c35
64 82 187 100 260 15 60 18 261 5 355 -4 33 -16 103 -26 155 -10 52 -21 106
-23 120 -3 14 -8 39 -12 55 -4 17 -9 39 -11 50 -7 32 25 -29 76 -145 43 -97
93 -233 106 -291 45 -196 29 -304 -85 -552 -17 -37 -31 -69 -31 -71 0 -9 107
48 165 87 115 78 197 168 269 295 61 108 81 218 64 346 -11 82 -23 116 -153
446 -62 157 -127 323 -145 370 -17 47 -35 94 -40 105 -5 11 -36 92 -70 179
-33 88 -62 161 -63 163 -2 1 -17 -12 -33 -30z"/>
<path d="M11790 16184 c-59 -14 -226 -52 -256 -59 -161 -36 -456 -124 -639
-190 -572 -207 -1017 -495 -1253 -812 -65 -86 -129 -216 -181 -364 -43 -124
-95 -315 -106 -389 -3 -25 -8 -52 -10 -60 -7 -23 -13 -68 -24 -160 -33 -273
-31 -618 4 -895 2 -16 4 -38 4 -47 1 -20 14 -17 121 34 276 131 559 376 722
624 111 169 210 351 287 529 24 55 54 123 67 150 12 28 45 106 73 175 28 68
55 128 59 132 5 5 3 -22 -4 -59 -7 -38 -25 -132 -39 -211 -15 -79 -42 -205
-62 -280 -39 -155 -38 -152 -46 -172 -3 -8 -24 -71 -46 -139 -82 -245 -161
-383 -294 -515 -71 -69 -294 -246 -312 -246 -4 0 -27 -13 -51 -30 -45 -30 -97
-60 -209 -120 -76 -40 -86 -50 -54 -51 24 -1 34 -2 99 -15 113 -22 389 -21
505 2 11 2 45 9 76 14 156 29 421 129 529 200 14 9 48 31 75 50 234 155 407
460 500 880 23 105 144 569 265 1020 36 134 39 144 44 168 4 15 38 143 136
507 12 44 23 87 26 95 2 8 11 42 20 75 9 33 18 67 19 75 2 8 9 31 14 50 6 19
7 37 3 41 -4 3 -32 0 -62 -7z"/>
<path d="M5429 15732 c-2 -14 11 -133 16 -142 1 -3 6 -32 9 -65 4 -33 11 -85
16 -115 6 -30 14 -89 20 -130 5 -41 12 -86 14 -100 3 -14 7 -43 10 -65 12 -93
27 -191 31 -205 2 -8 7 -42 10 -75 4 -33 10 -80 15 -105 5 -25 11 -72 15 -105
3 -33 8 -67 10 -75 3 -8 7 -31 9 -50 18 -127 37 -259 41 -280 2 -14 6 -45 10
-70 3 -25 8 -56 10 -70 2 -14 7 -43 10 -65 3 -23 7 -50 9 -60 4 -24 15 -97 21
-145 4 -35 32 -221 40 -270 2 -14 6 -45 10 -70 3 -25 8 -56 10 -70 2 -14 6
-41 9 -60 9 -72 19 -136 22 -155 2 -11 7 -40 10 -65 3 -25 7 -52 9 -60 2 -8 7
-51 10 -95 18 -227 35 -347 74 -520 59 -259 141 -458 274 -662 224 -346 819
-694 1327 -777 19 -3 46 -8 60 -11 126 -26 561 -38 575 -16 2 4 -13 18 -33 31
-253 169 -406 293 -592 480 -253 253 -345 393 -430 653 -35 105 -72 246 -94
352 -4 17 -9 41 -12 55 -9 44 -28 151 -48 278 -3 15 -8 54 -11 87 -4 33 -8 67
-10 75 -2 8 -7 53 -10 100 -9 127 -15 202 -20 230 -2 14 -7 101 -10 195 -4 93
-8 172 -10 175 -2 3 0 12 4 18 5 8 13 -10 20 -45 17 -77 96 -367 128 -468 14
-44 26 -84 28 -90 7 -31 19 -71 24 -80 3 -5 6 -14 7 -20 3 -15 108 -309 137
-385 88 -229 212 -485 291 -604 99 -148 337 -418 487 -551 136 -121 429 -319
446 -301 5 4 55 232 66 301 3 17 12 68 21 115 8 47 18 105 21 130 3 25 8 56
10 70 2 14 7 54 10 90 4 36 9 74 11 85 3 11 6 47 9 80 2 33 7 105 11 160 8
116 8 526 0 570 -3 17 -8 62 -11 100 -12 145 -39 311 -81 488 -2 9 -6 27 -9
38 -50 228 -124 403 -257 601 -121 182 -325 401 -537 578 -30 25 -59 50 -65
55 -22 20 -233 174 -306 222 -96 64 -270 173 -275 173 -3 0 -33 17 -67 38
-113 69 -382 209 -523 272 -27 12 -82 37 -120 55 -39 18 -82 36 -95 40 -14 4
-29 11 -35 15 -21 17 -368 153 -590 231 -77 27 -150 54 -162 59 -13 5 -24 6
-24 2z"/>
<path d="M3145 15372 c5 -33 29 -196 41 -282 2 -19 7 -50 10 -68 3 -17 7 -49
10 -69 2 -20 6 -48 8 -62 3 -14 7 -46 11 -71 8 -56 12 -78 24 -160 5 -36 13
-85 16 -110 3 -25 8 -56 10 -70 7 -39 13 -80 20 -140 4 -30 8 -57 10 -60 2 -3
6 -32 9 -65 4 -33 9 -67 11 -75 2 -8 6 -35 9 -59 3 -24 12 -92 20 -150 18
-125 23 -170 32 -254 10 -102 50 -269 87 -360 105 -264 295 -440 616 -571 73
-30 187 -62 251 -71 25 -3 53 -8 63 -11 27 -8 297 -13 297 -5 0 3 -23 22 -52
41 -28 19 -56 40 -62 45 -6 6 -36 29 -66 52 -162 125 -277 246 -356 378 -59
98 -130 341 -149 510 -4 33 -9 62 -10 65 -2 3 -6 41 -10 85 -4 44 -9 88 -11
98 -2 11 -6 74 -9 140 -4 67 -8 128 -11 135 -2 7 0 11 5 8 5 -3 11 -18 14 -33
17 -95 146 -498 202 -633 40 -96 123 -258 158 -310 103 -148 268 -313 407
-407 82 -55 120 -74 124 -61 7 22 36 172 40 203 2 17 9 59 15 95 18 112 21
132 28 245 13 207 2 484 -22 575 -2 8 -7 31 -10 50 -25 148 -73 289 -135 394
-196 332 -621 647 -1211 897 -79 33 -173 71 -209 84 -36 12 -102 37 -147 54
l-82 30 4 -27z"/>
<path d="M12948 15205 c-2 -2 -28 -5 -58 -9 -142 -16 -278 -56 -375 -111 -136
-76 -300 -276 -415 -505 -47 -94 -132 -311 -125 -319 9 -8 112 -1 196 14 211
37 362 129 632 385 43 41 84 77 89 79 13 4 -115 -183 -169 -249 -20 -25 -78
-87 -129 -138 -107 -107 -172 -143 -313 -172 -87 -18 -192 -33 -238 -34 -28 0
-22 -8 32 -45 166 -112 418 -165 591 -125 146 34 273 135 425 339 41 55 117
154 169 220 52 66 129 165 173 220 43 55 85 109 94 119 9 11 30 38 47 60 17
23 57 73 89 113 31 40 57 76 57 81 0 8 -160 37 -350 63 -73 10 -414 21 -422
14z"/>
<path d="M13825 13594 c-60 -13 -119 -26 -130 -28 -24 -5 -72 -16 -220 -51
-60 -15 -119 -29 -130 -31 -11 -2 -83 -20 -160 -40 -1256 -327 -2204 -762
-2875 -1318 -83 -68 -314 -294 -377 -368 -106 -122 -211 -274 -278 -401 -113
-212 -309 -806 -359 -1087 -3 -19 -8 -46 -11 -60 -10 -47 -54 -325 -60 -375
-3 -27 -8 -72 -11 -100 -2 -27 -7 -70 -9 -95 -28 -246 -27 -991 0 -1265 6 -60
14 -148 20 -212 7 -75 16 -143 19 -143 12 0 201 83 286 125 236 118 477 283
724 495 78 66 388 382 429 435 238 317 586 963 809 1500 27 66 56 134 63 151
8 16 49 120 91 230 98 256 95 250 88 184 -4 -30 -8 -64 -10 -75 -2 -10 -6 -37
-9 -60 -5 -34 -17 -106 -39 -235 -3 -14 -7 -41 -10 -60 -5 -28 -42 -210 -92
-450 -3 -14 -14 -59 -25 -101 -11 -42 -22 -87 -24 -100 -30 -154 -218 -715
-300 -896 -140 -306 -205 -403 -391 -589 -203 -201 -414 -366 -684 -533 -164
-102 -205 -125 -397 -223 -89 -46 -160 -84 -158 -86 9 -9 155 -36 320 -58 181
-25 545 -25 760 1 40 5 125 17 135 20 3 1 25 5 50 9 409 71 864 260 1215 505
71 49 236 204 305 286 103 122 238 336 315 500 43 90 135 315 139 340 1 5 17
56 34 111 46 144 101 375 128 529 2 17 22 98 44 180 22 83 42 159 45 170 4 20
39 148 110 410 32 118 119 441 301 1120 82 308 94 351 193 720 175 652 223
832 226 846 2 9 12 47 23 85 32 110 32 114 14 113 -10 0 -66 -12 -127 -25z"/>
<path d="M3654 11543 c4 -9 20 -68 37 -132 16 -64 37 -138 45 -166 8 -27 43
-160 79 -295 36 -135 97 -362 135 -505 260 -966 350 -1303 355 -1325 2 -8 21
-80 43 -160 22 -80 43 -158 47 -175 5 -16 9 -34 11 -40 10 -35 37 -132 39
-145 2 -8 10 -40 19 -71 9 -31 18 -65 21 -75 2 -11 26 -102 53 -204 67 -250
63 -232 44 -226 -65 20 -498 28 -662 13 -123 -12 -159 -16 -199 -22 -20 -4
-49 -8 -66 -10 -30 -4 -85 -13 -139 -21 -60 -10 -313 -65 -386 -85 -41 -11
-93 -25 -115 -30 -78 -19 -553 -166 -563 -174 -2 -2 228 -233 510 -513 916
-911 982 -977 1062 -1066 68 -75 126 -130 267 -251 45 -39 172 -121 244 -158
61 -31 226 -97 240 -96 3 0 31 -5 63 -12 65 -14 325 -18 422 -6 244 29 502
115 712 238 l68 40 37 -20 c157 -79 587 -201 803 -226 30 -4 66 -9 80 -11 71
-13 206 -19 390 -18 234 0 318 7 500 40 131 23 170 31 175 36 2 2 -53 32 -123
67 -70 35 -156 81 -192 101 -36 21 -83 48 -105 60 -22 12 -76 44 -120 72 -44
27 -89 55 -100 61 -10 7 -77 53 -147 103 -291 207 -539 441 -666 631 -86 128
-231 444 -310 678 -144 422 -269 938 -346 1430 -2 17 -7 51 -10 78 -14 113
-18 143 -24 152 -3 7 -2 7 5 0 6 -5 20 -37 33 -70 64 -175 230 -576 332 -800
96 -213 317 -642 388 -755 5 -8 28 -46 51 -85 23 -38 94 -148 158 -244 104
-156 134 -192 281 -341 91 -92 192 -190 225 -219 230 -203 496 -386 731 -504
105 -53 285 -129 291 -123 6 6 11 43 18 131 6 83 10 126 19 210 3 28 8 106 11
175 4 69 8 150 11 180 6 75 6 512 -1 635 -11 196 -21 331 -31 405 -2 14 -6 50
-9 80 -4 30 -13 98 -22 150 -8 52 -16 104 -18 115 -14 100 -74 371 -110 495
-9 30 -17 60 -19 65 -12 50 -79 247 -123 360 -29 77 -53 143 -53 147 0 25
-157 328 -180 348 -3 3 -28 37 -55 75 -27 39 -54 75 -60 81 -5 7 -26 31 -45
55 -73 92 -331 341 -462 447 -344 274 -808 547 -1273 747 -60 26 -128 55 -150
65 -160 69 -541 206 -780 280 -93 28 -189 58 -213 66 -71 23 -540 147 -601
159 -9 2 -36 8 -61 15 -25 7 -52 14 -62 15 -9 2 -111 24 -227 49 -116 25 -215
46 -222 46 -6 0 -8 -7 -5 -17z m861 -4632 c113 -85 404 -283 464 -317 18 -10
41 -23 50 -29 9 -5 50 -29 91 -52 56 -31 109 -74 205 -170 111 -110 187 -174
316 -266 l24 -17 -25 4 c-162 28 -348 80 -422 119 -28 15 -139 88 -154 102 -7
5 -24 19 -40 30 -109 78 -342 294 -490 455 -43 47 -178 206 -246 290 -12 14
-28 34 -37 45 -9 10 22 -10 69 -47 47 -36 135 -102 195 -147z"/>
<path d="M2135 10412 c-50 -5 -259 -32 -280 -36 -11 -2 -53 -9 -93 -16 -40 -8
-75 -16 -77 -19 -2 -4 91 -125 206 -271 236 -298 212 -267 377 -484 219 -286
309 -362 471 -400 58 -14 235 -14 295 -1 82 17 276 100 296 126 3 3 15 11 28
18 35 18 19 27 -60 35 -66 6 -94 9 -167 21 -46 8 -147 46 -193 73 -104 61
-206 169 -350 372 -113 159 -112 160 27 29 282 -267 462 -365 705 -385 41 -3
77 -7 80 -9 3 -1 13 0 22 4 16 5 12 20 -32 130 -28 68 -64 152 -82 185 -17 34
-38 75 -46 91 -66 131 -236 331 -342 402 -87 58 -227 104 -391 127 -85 13
-308 17 -394 8z"/>
<path d="M14697 9984 c-1 -1 -56 -4 -122 -7 -66 -3 -131 -8 -145 -11 -14 -3
-49 -11 -78 -17 -153 -31 -305 -111 -391 -205 -121 -134 -210 -266 -284 -423
-42 -91 -45 -98 -88 -214 l-29 -79 81 6 c184 14 340 66 464 154 70 50 182 140
226 182 57 54 122 113 143 130 19 15 19 15 0 -15 -64 -101 -175 -244 -252
-326 -100 -105 -181 -159 -282 -188 -75 -22 -237 -48 -304 -50 l-30 -1 35 -26
c44 -33 160 -92 227 -115 79 -27 167 -41 259 -41 107 1 174 15 251 55 115 60
164 109 374 382 51 66 98 127 105 135 93 113 464 593 461 596 -4 4 -78 19
-148 30 -19 3 -37 7 -41 9 -3 2 -39 7 -80 11 -40 3 -77 8 -80 10 -10 5 -266
22 -272 18z"/>
<path d="M13170 7668 c-124 -12 -191 -28 -280 -66 -88 -37 -235 -122 -305
-175 -176 -135 -332 -284 -449 -427 -33 -41 -66 -81 -73 -88 -7 -8 -27 -35
-45 -60 -17 -26 -34 -49 -37 -52 -12 -10 -51 -69 -53 -80 -5 -22 179 -67 317
-77 125 -10 286 -5 363 11 154 33 406 131 665 259 103 52 187 93 187 91 0 -1
-37 -33 -82 -70 -46 -38 -85 -71 -88 -74 -3 -3 -48 -37 -101 -77 -202 -153
-435 -279 -564 -307 -112 -24 -339 -15 -500 18 -71 15 -141 30 -153 32 l-24 5
23 -33 c46 -65 165 -181 249 -244 91 -69 259 -158 340 -179 3 -1 12 -4 20 -7
17 -7 92 -26 130 -34 65 -13 203 -16 266 -5 76 13 174 46 246 82 110 56 142
76 240 148 98 73 308 222 483 342 219 151 723 503 745 520 14 10 35 24 48 31
12 6 22 15 22 19 0 12 -302 171 -442 233 -150 65 -177 76 -308 123 -162 57
-314 98 -479 128 -88 16 -266 22 -361 13z"/>
<path d="M9720 5835 l-595 -1196 -305 1 c-168 1 -390 1 -493 1 l-188 -1 5 -42
c3 -24 12 -88 21 -143 9 -55 18 -111 20 -125 5 -31 12 -93 20 -185 4 -38 8
-80 10 -93 4 -25 14 -161 20 -272 9 -173 3 -618 -9 -705 -3 -16 -8 -70 -12
-120 -3 -49 -7 -97 -9 -105 -1 -8 -6 -40 -10 -70 -3 -30 -8 -66 -10 -80 -2
-14 -7 -45 -10 -70 -3 -25 -13 -79 -20 -120 -8 -41 -17 -86 -19 -100 -2 -14
-11 -55 -20 -93 -9 -37 -18 -79 -21 -95 -3 -15 -19 -76 -35 -137 -17 -60 -33
-118 -35 -129 -7 -30 -116 -348 -131 -381 -7 -16 -26 -64 -42 -105 -17 -41
-41 -101 -56 -133 -14 -31 -26 -59 -26 -62 -1 -5 -137 -273 -149 -295 -206
-358 -382 -611 -550 -793 -73 -79 -104 -117 -94 -118 8 -1 503 -1 3231 2
l1302 1 -55 76 c-239 335 -406 714 -585 1331 -12 41 -23 81 -25 90 -2 9 -11
41 -19 73 -8 31 -17 67 -20 80 -3 12 -12 49 -20 80 -9 32 -18 70 -21 85 -2 16
-16 78 -29 138 -14 61 -27 121 -29 135 -7 36 -48 242 -53 265 -2 11 -6 34 -9
50 -2 17 -18 111 -34 210 -17 99 -33 200 -36 225 -3 25 -7 56 -10 70 -3 14
-12 79 -20 145 -9 66 -18 135 -20 153 -3 18 -7 54 -10 80 -3 26 -7 63 -10 82
-3 19 -7 62 -10 95 -4 33 -8 76 -10 95 -2 19 -7 62 -10 95 -4 33 -8 71 -10 85
-2 14 -6 57 -10 95 -3 39 -8 86 -10 105 -4 32 -8 73 -20 223 -3 31 -7 83 -10
115 -3 31 -7 93 -10 137 -3 44 -7 98 -9 120 -5 45 -17 259 -31 545 -2 47 -7
130 -10 185 -15 237 -28 839 -29 1297 -1 219 -3 398 -6 398 -3 0 -273 -538
-600 -1195z"/>
</g>
</svg>
