<?xml version="1.0" encoding="UTF-8"?>
<svg width="200px" height="200px" viewBox="0 0 200 200" version="1.1" xmlns="http://www.w3.org/2000/svg" xmlns:xlink="http://www.w3.org/1999/xlink">
    <!-- Generator: Sketch 49.2 (51160) - http://www.bohemiancoding.com/sketch -->
    <title>002-library</title>
    <desc>Created with Sketch.</desc>
    <defs></defs>
    <g id="Page-1" stroke="none" stroke-width="1" fill="none" fill-rule="evenodd">
        <g id="002-library" fill-rule="nonzero">
            <circle id="Oval" fill="#FFD94F" cx="100" cy="100" r="100"></circle>
            <rect id="Rectangle-path" fill="#474F59" transform="translate(38.154131, 110.070591) rotate(-155.223659) translate(-38.154131, -110.070591) " x="32.0528224" y="72.6019516" width="12.202617" height="74.9372798"></rect>
            <rect id="Rectangle-path" fill="#FFFFFF" transform="translate(38.161149, 110.068992) rotate(-155.241666) translate(-38.161149, -110.068992) " x="32.0596625" y="80.5795491" width="12.2029726" height="58.9788859"></rect>
            <rect id="Rectangle-path" fill="#474F59" transform="translate(38.161013, 110.068538) rotate(-155.228861) translate(-38.161013, -110.068538) " x="32.0609368" y="85.6633504" width="12.2001525" height="48.8103757"></rect>
            <polygon id="Shape" fill="#232E38" points="48.3265625 146.639844 27.9882812 146.639844 59.3933594 78.6027344 79.7289062 78.6027344"></polygon>
            <polygon id="Shape" fill="#D9D8D7" points="68.6515625 73.4917969 48.3121094 73.4917969 59.3933594 78.6027344 79.7289062 78.6027344"></polygon>
            <rect id="Rectangle-path" fill="#F77B55" x="59.3933594" y="56.2101563" width="12.9160156" height="90.4257812"></rect>
            <g id="Group" transform="translate(59.375000, 66.406250)" fill="#FFFFFF">
                <rect id="Rectangle-path" x="0.018359375" y="5.30976562" width="12.9160156" height="7.74179688"></rect>
                <rect id="Rectangle-path" x="0.018359375" y="0.135546875" width="12.9160156" height="2.58046875"></rect>
                <rect id="Rectangle-path" x="0.018359375" y="56.9742187" width="12.9160156" height="7.7546875"></rect>
                <rect id="Rectangle-path" x="0.018359375" y="67.3226562" width="12.9160156" height="2.57929688"></rect>
            </g>
            <rect id="Rectangle-path" fill="#ADECF7" x="87.8066406" y="43.2890625" width="10.3355469" height="103.354687"></rect>
            <rect id="Rectangle-path" fill="#92DEEB" x="87.8066406" y="51.0414063" width="10.3355469" height="87.8453125"></rect>
            <rect id="Rectangle-path" fill="#76D0DE" x="98.1417969" y="51.0414063" width="20.3367187" height="95.6"></rect>
            <rect id="Rectangle-path" fill="#92DEEB" x="98.1417969" y="43.2890625" width="20.3367187" height="7.7546875"></rect>
            <rect id="Rectangle-path" fill="#FFFFFF" x="98.1417969" y="69.1226563" width="18.0902344" height="77.5097656"></rect>
            <rect id="Rectangle-path" fill="#353F49" x="98.1417969" y="77.9871094" width="18.0902344" height="59.7933594"></rect>
            <g id="Group" transform="translate(103.515625, 87.500000)" fill="#FFFFFF">
                <rect id="Rectangle-path" x="0.26484375" y="0.016015625" width="2.41015625" height="40.734375"></rect>
                <rect id="Rectangle-path" x="4.66484375" y="0.016015625" width="2.41015625" height="20.3640625"></rect>
            </g>
            <rect id="Rectangle-path" fill="#F77B55" x="116.232422" y="61.378125" width="18.0902344" height="85.2644531"></rect>
            <rect id="Rectangle-path" fill="#474F59" x="116.232422" y="61.378125" width="18.0902344" height="10.3355469"></rect>
            <rect id="Rectangle-path" fill="#FF916E" x="123.471094" y="82.0515625" width="3.61953125" height="51.6773437"></rect>
            <rect id="Rectangle-path" fill="#232E38" x="134.322656" y="61.378125" width="20.3355469" height="85.2644531"></rect>
            <rect id="Rectangle-path" fill="#FFFFFF" x="134.322656" y="66.5417969" width="10.3355469" height="80.103125"></rect>
            <rect id="Rectangle-path" fill="#CCCBCA" x="138.451562" y="80.7484375" width="2.065625" height="51.6773438"></rect>
            <rect id="Rectangle-path" fill="#D9D8D7" x="144.658203" y="66.5417969" width="20.3378906" height="80.103125"></rect>
            <rect id="Rectangle-path" fill="#92DEEB" x="144.658203" y="71.7160156" width="18.0902344" height="74.9289063"></rect>
            <rect id="Rectangle-path" fill="#ADECF7" x="144.658203" y="85.7933594" width="18.0902344" height="46.7742188"></rect>
            <g id="Group" transform="translate(144.531250, 78.515625)" fill="#FFFFFF">
                <rect id="Rectangle-path" x="0.126953125" y="58.1167969" width="18.0902344" height="3.0515625"></rect>
                <rect id="Rectangle-path" x="0.126953125" y="0.156640625" width="18.0902344" height="3.04921875"></rect>
            </g>
            <rect id="Rectangle-path" fill="#76D0DE" x="162.735547" y="71.7160156" width="20.3378906" height="74.9289063"></rect>
            <polygon id="Shape" fill="#353F49" points="72.3082031 51.0414063 87.8066406 51.0414063 87.8195313 146.639844 72.3136719 146.639844"></polygon>
            <rect id="Rectangle-path" fill="#CCCBCA" x="72.3097656" y="66.5433594" width="15.496875" height="69.7546875"></rect>
            <rect id="Rectangle-path" fill="#FFFFFF" x="72.3097656" y="74.5535156" width="15.5097656" height="53.7394531"></rect>
            <rect id="Rectangle-path" fill="#474F59" x="7" y="154.645312" width="166" height="3"></rect>
            <rect id="Rectangle-path" fill="#232E38" x="172.993359" y="154.645312" width="20" height="3"></rect>
            <rect id="Rectangle-path" fill="#656A73" x="0" y="146.645312" width="180" height="8"></rect>
            <rect id="Rectangle-path" fill="#353F49" x="180" y="146.645312" width="20" height="8"></rect>
        </g>
    </g>
</svg>