<?xml version="1.0" encoding="UTF-8"?>
<svg width="200px" height="200px" viewBox="0 0 200 200" version="1.1" xmlns="http://www.w3.org/2000/svg" xmlns:xlink="http://www.w3.org/1999/xlink">
    <!-- Generator: Sketch 49.2 (51160) - http://www.bohemiancoding.com/sketch -->
    <desc>Created with Sketch.</desc>
    <defs></defs>
    <g id="Page-1" stroke="none" stroke-width="1" fill="none" fill-rule="evenodd">
        <g id="003-idea" fill-rule="nonzero">
            <circle id="Oval" fill="#FFD94F" cx="100" cy="100" r="100"></circle>
            <g id="Group" transform="translate(39.453125, 26.562500)" fill="#FFFFFF">
                <path d="M4.13515625,4.08398437 L2.4640625,2.41171875 C3.3078125,1.56640625 4.36484375,0.934375 5.59960937,0.531640625 L6.33007812,2.78203125 C5.45390625,3.0671875 4.71445313,3.50585937 4.13515625,4.08398437 Z" id="Shape"></path>
                <path d="M119.274609,109.827344 C119.001172,108.077734 118.478516,106.103516 117.719922,103.958984 L119.950781,103.173047 C120.757422,105.453125 121.317187,107.567969 121.611328,109.462109 L119.274609,109.827344 Z M115.346875,98.2582031 C114.513281,96.496875 113.554688,94.6363281 112.494141,92.7316406 L114.561328,91.5792969 C115.647656,93.5316406 116.630859,95.4375 117.486328,97.2488281 L115.346875,98.2582031 Z M109.317188,87.3585937 C108.261719,85.6644531 107.110547,83.903125 105.900391,82.1226563 L107.856641,80.7921875 C109.085156,82.5972656 110.251562,84.3871094 111.325,86.1058594 L109.317188,87.3585937 Z M102.288672,77.0105469 C101.09375,75.3730469 99.8265625,73.690625 98.5195312,72.0066406 L100.387891,70.5574219 C101.707813,72.2582031 102.990625,73.9601562 104.198047,75.615625 L102.288672,77.0105469 Z M94.6113281,67.1046875 C93.3082031,65.5148438 91.9636719,63.9125 90.5789063,62.3007813 L92.3710938,60.7589844 C93.7699219,62.3859375 95.1273438,64.0027344 96.440625,65.6082031 L94.6113281,67.1046875 Z M86.4347656,57.59375 C85.0542969,56.059375 83.6375,54.5175781 82.1882813,52.9757813 L83.9121094,51.35625 C85.3726563,52.9109375 86.8,54.4632813 88.1933594,56.0105469 L86.4347656,57.59375 Z M77.8421875,48.4476563 C77.1144531,47.7058594 76.3789063,46.9636719 75.6371094,46.221875 C74.89375,45.4785156 74.1492188,44.740625 73.4046875,44.0117188 L75.0601563,42.3199219 C75.8097656,43.0554688 76.559375,43.7984375 77.3105469,44.5484375 C78.0578125,45.296875 78.796875,46.04375 79.53125,46.7910156 L77.8421875,48.4476563 Z M68.8785156,39.6671875 C67.3367188,38.2167969 65.7960938,36.8 64.2605469,35.4179688 L65.8425781,33.6617188 C67.3898438,35.0539063 68.9417969,36.4824219 70.496875,37.9429688 L68.8785156,39.6671875 Z M59.5519531,31.275 C57.9402344,29.890625 56.3390625,28.5460938 54.7480469,27.2425781 L56.2449219,25.4128906 C57.85,26.7277344 59.4667969,28.0839844 61.0925781,29.48125 L59.5519531,31.275 Z M49.8460937,23.3355469 C48.1621094,22.0285156 46.4796875,20.7613281 44.8421875,19.5664062 L46.2371094,17.6566406 C47.8925781,18.865625 49.5945313,20.146875 51.2953125,21.4667969 L49.8460937,23.3355469 Z M39.7273438,15.95625 C37.9570312,14.7496094 36.1957031,13.6015625 34.4925781,12.5394531 L35.7429688,10.5328125 C37.4734375,11.6113281 39.2617188,12.778125 41.0578125,14.0011719 L39.7273438,15.95625 Z M29.1210938,9.36523437 C27.2113281,8.30195312 25.3507813,7.34335937 23.5945313,6.51367187 L24.6023438,4.37578125 C26.40625,5.22734375 28.3144531,6.21054688 30.2707031,7.29960937 L29.1210938,9.36523437 Z M17.8902344,4.140625 C15.7457031,3.384375 13.7726563,2.86210937 12.0207031,2.58984375 L12.3859375,0.251953125 C14.2789063,0.547265625 16.3949219,1.1046875 18.6761719,1.91015625 L17.8902344,4.140625 Z" id="Shape"></path>
                <path d="M119.453906,119.4 L117.781641,117.726562 C118.360937,117.148438 118.798437,116.408984 119.084766,115.531641 L121.332422,116.262109 C120.932812,117.499609 120.300391,118.555078 119.453906,119.4 Z" id="Shape"></path>
                <path d="M2.465625,119.397656 C-3.38203125,113.558984 2.34570312,100.249219 8.18320312,90.1136719 C16.1898437,76.2039063 29.1210937,60.0207031 44.5949219,44.5484375 C77.3933594,11.7484375 110.271875,-6.76132812 119.455078,2.41054688 L117.782812,4.08398438 C110.684766,-3.01015625 80.2550781,12.23125 46.2679687,46.2207031 C30.9363281,61.5511719 18.1390625,77.5585938 10.2320312,91.2941406 C2.67851562,104.416797 0.456640625,114.050391 4.13671875,117.725 L2.465625,119.397656 Z" id="Shape"></path>
            </g>
            <path d="M100.414062,38.2605469 C73.2359375,38.265625 51.20625,60.2890625 51.20625,87.4671875 C51.20625,101.872266 57.3960937,114.812891 67.2476563,123.817969 C67.7148438,124.225781 68.1832031,124.625781 68.6566406,125.039844 C76.3507812,132.051562 81.1816406,142.133984 81.1816406,153.355859 L81.1816406,162.266797 L100.414062,162.266797 L119.629688,162.266797 L119.629688,153.355859 C119.629688,142.133984 124.465625,132.05 132.160156,125.039844 C132.628516,124.625781 133.098047,124.225781 133.573047,123.817969 C143.418359,114.812891 149.615625,101.872266 149.615625,87.4671875 C149.614062,60.2902344 127.588281,38.265625 100.414062,38.2605469 Z" id="Shape" fill="#C3F0F7"></path>
            <polygon id="Shape" fill="#FFFFFF" points="103.912109 107.28125 96.9046875 83.9238281 94.3394531 92.4929688 81.5921875 92.4929688 81.5921875 89.9832031 92.4722656 89.9832031 96.9007812 75.184375 103.913672 98.55625 106.489063 89.9832031 119.223047 89.9832031 119.223047 92.4929688 108.35625 92.4929688"></polygon>
            <g id="Group" transform="translate(77.734375, 87.109375)" fill="#353F49">
                <rect id="Rectangle-path" transform="translate(10.614385, 39.646630) rotate(-100.766073) translate(-10.614385, -39.646630) " x="-26.4761189" y="38.7065888" width="74.1810077" height="1.88008189"></rect>
                <rect id="Rectangle-path" transform="translate(34.746327, 39.642931) rotate(-169.233927) translate(-34.746327, -39.642931) " x="33.8057005" y="2.55242676" width="1.88125376" height="74.1810077"></rect>
                <path d="M45.2589844,4.128125 C45.2589844,6.20546875 43.5726562,7.88671875 41.4886719,7.88671875 C39.4097656,7.88671875 37.7234375,6.20546875 37.7234375,4.128125 C37.7234375,2.04414062 39.4097656,0.3578125 41.4886719,0.3578125 C43.5738281,0.3578125 45.2589844,2.04414063 45.2589844,4.128125 Z" id="Shape"></path>
                <path d="M7.61796875,4.128125 C7.61796875,6.20546875 5.93164063,7.88671875 3.8578125,7.88671875 C1.77929688,7.88671875 0.100390625,6.20546875 0.100390625,4.128125 C0.100390625,2.04414062 1.77929688,0.3578125 3.8578125,0.3578125 C5.9328125,0.3578125 7.61796875,2.04414063 7.61796875,4.128125 Z" id="Shape"></path>
                <rect id="Rectangle-path" x="1.19453125" y="75.1488281" width="42.9546875" height="22.6980469"></rect>
            </g>
            <g id="Group" transform="translate(76.953125, 165.234375)" fill="#474F59">
                <rect id="Rectangle-path" x="0.014453125" y="0.28828125" width="46.8644531" height="3.23085938"></rect>
                <rect id="Rectangle-path" x="0.014453125" y="6.765625" width="46.8644531" height="3.24765625"></rect>
                <rect id="Rectangle-path" x="0.014453125" y="13.2558594" width="46.8644531" height="3.24765625"></rect>
                <rect id="Rectangle-path" x="9.49609375" y="19.7332031" width="27.925" height="7.940625"></rect>
            </g>
            <g id="Group" transform="translate(39.453125, 28.906250)" fill="#FFFFFF">
                <path d="M112.686328,119.401953 C98.9003906,119.401953 71.7199219,102.053516 44.5945313,74.9257812 C11.7957031,42.1230469 -6.71015625,9.240625 2.465625,0.06640625 L4.13671875,1.73867188 C-2.95625,8.83164063 12.2800781,39.2601563 46.2671875,73.2546875 C80.2554688,107.244531 110.685156,122.475391 117.783203,115.38125 L119.455469,117.054688 C117.866797,118.644531 115.569922,119.401953 112.686328,119.401953 Z" id="Shape"></path>
                <path d="M119.084766,3.93359375 C118.798437,3.05625 118.359766,2.31796875 117.781641,1.73867187 L119.453906,0.06640625 C120.299219,0.91171875 120.932812,1.9671875 121.332812,3.203125 L119.084766,3.93359375 Z" id="Shape"></path>
                <path d="M12.4023438,119.213672 L12.0371094,116.876953 C13.7878906,116.603516 15.7621094,116.080859 17.9066406,115.323438 L18.6925781,117.554297 C16.4125,118.359375 14.2964844,118.918359 12.4023438,119.213672 Z M24.6164063,115.091016 L23.6085937,112.951563 C25.3671875,112.121875 27.228125,111.161719 29.1351562,110.098828 L30.2859375,112.166016 C28.33125,113.253906 26.4242187,114.238281 24.6164063,115.091016 Z M35.7585937,108.928516 L34.5082031,106.921875 C36.2101562,105.859766 37.9726562,104.710156 39.7429688,103.505078 L41.0734375,105.461328 C39.2773438,106.683594 37.4886719,107.85 35.7585937,108.928516 Z M46.2539062,101.807422 L44.8589844,99.8976563 C46.4976562,98.7015625 48.1804687,97.4332031 49.8640625,96.1273438 L51.3132812,97.9957031 C49.6113281,99.3144531 47.909375,100.596875 46.2539062,101.807422 Z M56.2628906,94.0472656 L54.7636719,92.2175781 C56.3535156,90.9144531 57.9570312,89.5710937 59.5675781,88.1851563 L61.109375,89.9785156 C59.4835937,91.3761719 57.8667969,92.7335938 56.2628906,94.0472656 Z M65.8589844,85.7984375 L64.2757812,84.0421875 C65.8101562,82.6601562 67.3507812,81.2433594 68.8925781,79.7929688 L70.5132813,81.5167969 C68.9597656,82.9789062 67.40625,84.4058594 65.8589844,85.7984375 Z M75.0785156,77.1375 L73.4230469,75.4484375 C74.1609375,74.7234375 74.9019531,73.9917969 75.6410156,73.2535156 C76.3867188,72.5078125 77.1261719,71.759375 77.8589844,71.0109375 L79.5492187,72.6664062 C78.8113281,73.4199219 78.0667969,74.1734375 77.3144531,74.9257812 C76.5675781,75.6707031 75.821875,76.4074219 75.0785156,77.1375 Z M83.9261719,68.1027344 L82.2023437,66.4832031 C83.6515625,64.9425781 85.0679688,63.4007813 86.4488281,61.8652344 L88.2074219,63.4484375 C86.8140625,64.9945312 85.3867187,66.5480469 83.9261719,68.1027344 Z M92.3867188,58.6988281 L90.5917969,57.1582031 C91.9777344,55.5453125 93.3222656,53.9441406 94.6242187,52.353125 L96.4539063,53.8511719 C95.1417969,55.4550781 93.784375,57.071875 92.3867188,58.6988281 Z M100.401172,48.9015625 L98.5339844,47.4523438 C99.8398438,45.7683594 101.107031,44.0859375 102.303125,42.4472656 L104.212891,43.8433594 C103.003516,45.4988281 101.721094,47.1996094 100.401172,48.9015625 Z M107.866797,38.6628906 L105.910547,37.3324219 C107.117188,35.5621094 108.265234,33.8007813 109.327344,32.0964844 L111.333984,33.3480469 C110.255078,35.078125 109.088672,36.8652344 107.866797,38.6628906 Z M114.56875,27.8742188 L112.501563,26.7246094 C113.564844,24.8136719 114.524609,22.953125 115.351953,21.196875 L117.491406,22.2046875 C116.642187,24.0097656 115.657813,25.9167969 114.56875,27.8742188 Z M119.957031,16.2808594 L117.726172,15.49375 C118.482422,13.3503906 119.003516,11.3777344 119.275781,9.62539063 L121.615234,9.98945313 C121.319922,11.8820313 120.760938,13.9996094 119.957031,16.2808594 Z" id="Shape"></path>
                <path d="M5.59960937,118.933594 C4.36484375,118.529688 3.309375,117.897656 2.4640625,117.053516 L4.1375,115.380078 C4.715625,115.959375 5.45507813,116.398047 6.33242187,116.685938 L5.59960937,118.933594 Z" id="Shape"></path>
            </g>
            <path d="M165.745703,34.8359375 C165.745703,37.9480469 163.220703,40.4785156 160.105859,40.4785156 C156.982031,40.4785156 154.458203,37.9480469 154.458203,34.8359375 C154.458203,31.7210937 156.982031,29.190625 160.105859,29.190625 C163.220703,29.1910156 165.745703,31.7210937 165.745703,34.8359375 Z" id="Shape" fill="#474F59"></path>
            <path d="M162.271094,29.6246094 C162.987109,30.5214844 163.418359,31.653125 163.418359,32.8957031 C163.418359,35.7964844 161.064844,38.1511719 158.166797,38.1511719 C156.924219,38.1511719 155.792578,37.7164062 154.888281,36.9949219 C155.744922,39.0402344 157.751563,40.4773438 160.107813,40.4773438 C163.222656,40.4773438 165.747656,37.946875 165.747656,34.8347656 C165.745703,32.4824219 164.312109,30.4683594 162.271094,29.6246094 Z" id="Shape" fill="#232E38"></path>
            <path d="M138.292969,140.592188 C138.292969,143.701953 135.761328,146.234766 132.654297,146.234766 C129.536719,146.234766 127.003906,143.701953 127.003906,140.592188 C127.003906,137.464453 129.536719,134.944531 132.654297,134.944531 C135.761328,134.944531 138.292969,137.464453 138.292969,140.592188 Z" id="Shape" fill="#474F59"></path>
            <path d="M134.811719,135.373047 C135.529297,136.272266 135.967969,137.401562 135.967969,138.649219 C135.967969,141.55 133.609375,143.905859 130.711328,143.905859 C129.466016,143.905859 128.337109,143.472266 127.442969,142.751172 C128.285547,144.79375 130.294531,146.233594 132.654687,146.233594 C135.761719,146.233594 138.293359,143.700781 138.293359,140.591016 C138.292969,138.241406 136.864453,136.223047 134.811719,135.373047 Z" id="Shape" fill="#232E38"></path>
        </g>
    </g>
</svg>