<?xml version="1.0" encoding="UTF-8"?>
<svg width="152px" height="240px" viewBox="0 0 152 240" version="1.1" xmlns="http://www.w3.org/2000/svg" xmlns:xlink="http://www.w3.org/1999/xlink">
    <!-- Generator: Sketch 49.2 (51160) - http://www.bohemiancoding.com/sketch -->
    <title>medal (1)</title>
    <desc>Created with Sketch.</desc>
    <defs></defs>
    <g id="Page-1" stroke="none" stroke-width="1" fill="none" fill-rule="evenodd">
        <g id="medal-(1)">
            <path d="M25.9049917,0.477755995 C25.8519077,0.477755995 25.7988237,0.530839994 25.7988237,0.530839994 L61.8959433,74.6361032 L62.1082793,74.6361032 L65.0809833,74.6361032 L68.2660232,74.6361032 L83.5542151,74.6361032 L86.526919,74.6361032 L89.711959,74.6361032 L88.225607,71.6633992 L88.172523,71.5572312 L86.739255,68.4783592 L79.0951591,52.7654954 L79.0420751,52.6593274 L77.6088071,49.5804554 L77.5557231,49.4742874 L75.9101191,46.1830795 L53.7210074,0.477755995 L50.4297994,0.477755995 L47.3509275,0.477755995 L32.0096516,0.477755995 L29.0369477,0.477755995 L25.9049917,0.477755995 Z" id="Shape" fill="#BBCE48" fill-rule="nonzero"></path>
            <polygon id="Shape" fill="#FFD05B" fill-rule="nonzero" points="86.526919 74.6361032 65.0809833 74.6361032 63.5946313 71.6633992 29.0369477 0.477755995 50.4297994 0.477755995 74.2114312 49.3681194 74.2645152 49.4742874 75.9101191 52.7654954 77.3964711 55.9505354 85.040567 71.6633992 85.093651 71.7695672"></polygon>
            <polygon id="Shape" fill="#729A40" fill-rule="nonzero" points="83.5542151 74.6361032 68.2660232 74.6361032 68.1598552 74.4237672 66.7796712 71.8757352 66.7265872 71.7695672 65.0809833 68.4783592 32.0096516 0.477755995 47.3509275 0.477755995 72.7250792 52.5531594 72.7781632 52.6593274 74.4237672 55.9505354 75.9101191 59.1355753 83.4480471 74.4237672"></polygon>
            <path d="M90.348967,100.965767 L61.4712713,100.965767 C60.6219273,100.965767 59.7725833,100.328759 59.5602473,99.4794149 L53.8271754,81.2185191 C52.9778314,78.6704871 53.4025034,75.9101191 55.1011914,73.7867592 C56.7998794,71.6633992 59.1355753,70.3893832 61.8959433,70.3893832 L90.136631,70.3893832 C92.8969989,70.3893832 95.2326949,71.6633992 96.9313829,73.7867592 C98.6300709,75.9101191 99.0547429,78.6704871 98.2053989,81.2185191 L92.6846629,99.4794149 C92.047655,100.328759 91.410647,100.965767 90.348967,100.965767 Z M62.9576233,96.7190469 L88.862615,96.7190469 L93.9586789,79.9445031 C94.3833509,78.6704871 94.1710149,77.3964711 93.3216709,76.3347911 C92.4723269,75.2731111 91.410647,74.6361032 89.924295,74.6361032 L61.8959433,74.6361032 C60.6219273,74.6361032 59.3479113,75.2731111 58.4985673,76.3347911 C57.6492233,77.3964711 57.4368873,78.6704871 57.8615593,79.9445031 L62.9576233,96.7190469 Z" id="Shape" fill="#828282" fill-rule="nonzero"></path>
            <path d="M147.679686,172.310662 C152.138742,167.851606 152.138742,160.844518 147.679686,156.385462 C144.494646,153.200422 143.432966,148.316694 145.34399,144.069974 C147.679686,138.336902 144.919318,131.754487 139.186246,129.418791 C134.939526,127.720103 132.179158,123.685719 132.179158,119.014327 C132.179158,112.856583 127.083095,107.760519 120.925351,107.760519 C116.466295,107.760519 112.219575,105.000151 110.520887,100.753431 C108.185191,95.0203589 101.602775,92.259991 95.8697029,94.5956869 C91.622983,96.2943749 86.951591,95.4450309 83.5542151,92.259991 C79.0951591,87.800935 72.0880712,87.800935 67.6290152,92.259991 C64.4439753,95.4450309 59.5602473,96.5067109 55.3135274,94.5956869 C49.5804554,92.259991 42.9980395,95.0203589 40.6623435,100.753431 C38.9636556,105.000151 34.9292716,107.760519 30.2578797,107.760519 C24.1001357,107.760519 19.0040718,112.856583 19.0040718,119.014327 C19.0040718,123.473383 16.2437038,127.720103 11.9969839,129.418791 C6.26391193,131.754487 3.50354396,138.336902 5.83923993,144.069974 C7.53792791,148.316694 6.68858392,152.988086 3.50354396,156.385462 C-0.955511989,160.844518 -0.955511989,167.851606 3.50354396,172.310662 C6.68858392,175.495702 7.75026391,180.37943 5.83923993,184.62615 C3.50354396,190.359222 6.26391193,196.941638 11.9969839,199.277334 C16.2437038,200.976022 19.0040718,205.010406 19.0040718,209.681798 C19.0040718,215.839542 24.1001357,220.935605 30.2578797,220.935605 C34.7169356,220.935605 38.9636556,223.695973 40.6623435,227.942693 C42.9980395,233.675765 49.5804554,236.436133 55.3135274,234.100437 C59.5602473,232.401749 64.2316393,233.251093 67.6290152,236.436133 C72.0880712,240.895189 79.0951591,240.895189 83.5542151,236.436133 C86.739255,233.251093 91.622983,232.189413 95.8697029,234.100437 C101.602775,236.436133 108.185191,233.675765 110.520887,227.942693 C112.219575,223.695973 116.253959,220.935605 120.925351,220.935605 C127.083095,220.935605 132.179158,215.839542 132.179158,209.681798 C132.179158,205.222742 134.939526,200.976022 139.186246,199.277334 C144.919318,196.941638 147.679686,190.359222 145.34399,184.62615 C143.645302,180.167094 144.494646,175.495702 147.679686,172.310662 Z" id="Shape" fill="#FFD05B" fill-rule="nonzero"></path>
            <circle id="Oval" fill="#F9B54C" fill-rule="nonzero" cx="75.9101191" cy="164.241894" r="58.8170713"></circle>
            <g id="Group" transform="translate(20.171920, 108.291359)" fill="#FFD05B" fill-rule="nonzero">
                <path d="M55.7381994,111.582567 C54.8888554,111.582567 54.2518474,111.582567 53.4025034,111.582567 L53.4025034,109.246871 C54.0395114,109.246871 54.8888554,109.246871 55.5258634,109.246871 L55.7381994,111.582567 Z M58.0738953,111.370231 L58.0738953,109.034535 C58.7109033,109.034535 59.5602473,109.034535 60.1972553,108.822199 L60.4095913,111.157895 C59.5602473,111.370231 58.9232393,111.370231 58.0738953,111.370231 Z M51.2791434,111.370231 C50.4297994,111.370231 49.7927914,111.157895 48.9434474,111.157895 L49.1557834,108.822199 C49.7927914,108.822199 50.6421354,109.034535 51.2791434,109.034535 L51.2791434,111.370231 Z M62.7452873,111.157895 L62.5329513,108.822199 C63.1699593,108.822199 64.0193033,108.609863 64.6563113,108.609863 L65.0809833,110.733223 C64.2316393,110.945559 63.3822953,110.945559 62.7452873,111.157895 Z M46.6077515,110.733223 C45.7584075,110.520887 45.1213995,110.520887 44.2720555,110.308551 L44.6967275,108.185191 C45.3337355,108.397527 46.1830795,108.397527 46.8200875,108.609863 L46.6077515,110.733223 Z M67.2043432,110.308551 L66.7796712,108.185191 C67.4166792,107.972855 68.2660232,107.972855 68.9030312,107.760519 L69.5400392,109.883879 C68.6906952,109.883879 67.8413512,110.096215 67.2043432,110.308551 Z M42.1486955,109.883879 C41.2993515,109.671543 40.6623435,109.459207 40.0253355,109.246871 L40.6623435,107.123511 C41.2993515,107.335847 42.1486955,107.548183 42.7857035,107.760519 L42.1486955,109.883879 Z M71.6633992,109.246871 L71.0263912,107.123511 C71.6633992,106.911175 72.5127432,106.698839 73.1497512,106.486503 L73.7867592,108.609863 C73.1497512,108.822199 72.3004072,109.034535 71.6633992,109.246871 Z M37.6896396,108.609863 C37.0526316,108.397527 36.2032876,108.185191 35.5662796,107.760519 L36.4156236,105.637159 C37.0526316,105.849495 37.6896396,106.061831 38.5389836,106.486503 L37.6896396,108.609863 Z M75.9101191,107.760519 L75.0607751,105.637159 C75.6977831,105.424823 76.3347911,105.000151 77.1841351,104.787815 L78.0334791,106.911175 C77.3964711,107.123511 76.7594631,107.335847 75.9101191,107.760519 Z M33.4429196,106.911175 C32.8059116,106.698839 31.9565676,106.274167 31.3195596,105.849495 L32.3812396,103.726135 C33.0182476,104.150807 33.6552556,104.363143 34.2922636,104.575479 L33.4429196,106.911175 Z M80.1568391,105.849495 L79.0951591,103.726135 C79.7321671,103.301463 80.3691751,103.089127 81.0061831,102.664455 L82.0678631,104.575479 C81.4308551,105.212487 80.7938471,105.424823 80.1568391,105.849495 Z M29.4085357,104.787815 C28.7715277,104.363143 28.1345197,104.150807 27.4975117,103.726135 L28.5591917,101.815111 C29.1961997,102.239783 29.8332077,102.452119 30.4702157,102.876791 L29.4085357,104.787815 Z M84.191223,103.726135 L83.1295431,101.815111 C83.766551,101.390439 84.403559,100.965767 85.040567,100.753431 L86.314583,102.664455 C85.465239,102.876791 84.828231,103.301463 84.191223,103.726135 Z M25.3741517,102.452119 C24.7371437,102.027447 24.1001357,101.602775 23.4631277,101.178103 L24.7371437,99.2670789 C25.3741517,99.6917509 26.0111597,100.116423 26.6481677,100.541095 L25.3741517,102.452119 Z M88.013271,101.178103 L86.739255,99.2670789 C87.376263,98.8424069 88.013271,98.4177349 88.437943,97.9930629 L89.924295,99.6917509 C89.287287,100.328759 88.650279,100.753431 88.013271,101.178103 Z M21.7644398,99.9040869 C21.1274318,99.4794149 20.4904238,99.0547429 20.0657518,98.4177349 L21.5521038,96.7190469 C22.1891117,97.1437189 22.6137837,97.5683909 23.2507917,98.2053989 L21.7644398,99.9040869 Z M91.622983,98.4177349 L90.136631,96.7190469 C90.773639,96.2943749 91.198311,95.6573669 91.835319,95.2326949 L93.3216709,96.9313829 C92.6846629,97.3560549 92.259991,97.7807269 91.622983,98.4177349 Z M18.1547278,96.9313829 C17.5177198,96.5067109 17.0930478,95.8697029 16.4560398,95.4450309 L17.9423918,93.7463429 C18.3670638,94.1710149 19.0040718,94.8080229 19.4287438,95.2326949 L18.1547278,96.9313829 Z M95.0203589,95.2326949 L93.3216709,93.5340069 C93.7463429,93.1093349 94.3833509,92.4723269 94.8080229,92.047655 L96.5067109,93.5340069 C96.0820389,94.1710149 95.4450309,94.5956869 95.0203589,95.2326949 Z M14.9696878,93.5340069 C14.5450158,92.8969989 13.9080078,92.4723269 13.4833358,91.835319 L15.1820238,90.348967 C15.6066958,90.985975 16.2437038,91.410647 16.6683758,92.047655 L14.9696878,93.5340069 Z M97.9930629,91.835319 L96.2943749,90.348967 C96.7190469,89.711959 97.1437189,89.287287 97.7807269,88.650279 L99.4794149,90.136631 C99.0547429,90.773639 98.6300709,91.198311 97.9930629,91.835319 Z M11.9969839,90.136631 C11.5723119,89.499623 11.1476399,88.862615 10.7229679,88.225607 L12.6339919,86.951591 C13.0586639,87.588599 13.4833358,88.225607 13.9080078,88.650279 L11.9969839,90.136631 Z M100.965767,88.225607 L99.0547429,86.951591 C99.4794149,86.314583 99.9040869,85.677575 100.328759,85.040567 L102.239783,86.314583 C101.815111,86.951591 101.390439,87.588599 100.965767,88.225607 Z M9.2366159,86.314583 C8.8119439,85.677575 8.3872719,85.040567 7.96259991,84.403559 L9.87362389,83.3418791 C10.2982959,83.978887 10.7229679,84.615895 11.1476399,85.252903 L9.2366159,86.314583 Z M103.513799,84.403559 L101.390439,83.3418791 C101.815111,82.7048711 102.027447,82.0678631 102.452119,81.4308551 L104.363143,82.4925351 C104.150807,83.1295431 103.726135,83.766551 103.513799,84.403559 Z M6.90091992,82.4925351 C6.47624793,81.8555271 6.26391193,81.2185191 5.83923993,80.3691751 L7.96259991,79.3074951 C8.3872719,79.9445031 8.5996079,80.5815111 9.0242799,81.2185191 L6.90091992,82.4925351 Z M105.637159,80.3691751 L103.513799,79.3074951 C103.938471,78.6704871 104.150807,78.0334791 104.363143,77.3964711 L106.486503,78.2458151 C106.274167,79.0951591 105.849495,79.7321671 105.637159,80.3691751 Z M4.98989594,78.4581511 C4.77755995,77.8211431 4.35288795,76.9717991 4.14055195,76.3347911 L6.26391193,75.4854471 C6.47624793,76.1224551 6.90091992,76.7594631 7.11325592,77.6088071 L4.98989594,78.4581511 Z M107.548183,76.1224551 L105.424823,75.2731111 C105.637159,74.6361032 105.849495,73.9990952 106.274167,73.1497512 L108.397527,73.7867592 C107.972855,74.6361032 107.760519,75.4854471 107.548183,76.1224551 Z M3.29120796,74.2114312 C3.07887197,73.5744232 2.86653597,72.7250792 2.65419997,72.0880712 L4.77755995,71.4510632 C4.98989594,72.0880712 5.20223194,72.9374152 5.41456794,73.5744232 L3.29120796,74.2114312 Z M109.034535,71.8757352 L106.911175,71.2387272 C107.123511,70.6017192 107.335847,69.7523752 107.548183,69.1153672 L109.671543,69.7523752 C109.459207,70.3893832 109.246871,71.0263912 109.034535,71.8757352 Z M2.01719198,69.7523752 C1.80485598,69.1153672 1.59251998,68.2660232 1.59251998,67.4166792 L3.71587996,66.9920072 C3.92821596,67.6290152 3.92821596,68.4783592 4.14055195,69.1153672 L2.01719198,69.7523752 Z M110.096215,67.4166792 L107.972855,66.9920072 C108.185191,66.3549992 108.185191,65.5056553 108.397527,64.8686473 L110.520887,65.2933193 C110.308551,65.9303273 110.308551,66.5673352 110.096215,67.4166792 Z M0.955511989,65.2933193 C0.743175992,64.4439753 0.743175992,63.8069673 0.530839994,62.9576233 L2.86653597,62.7452873 C2.86653597,63.3822953 3.07887197,64.2316393 3.29120796,64.8686473 L0.955511989,65.2933193 Z M110.733223,62.9576233 L108.397527,62.7452873 C108.397527,62.1082793 108.609863,61.2589353 108.609863,60.6219273 L110.945559,60.8342633 C110.945559,61.2589353 110.945559,62.1082793 110.733223,62.9576233 Z M0.530839994,60.6219273 C0.530839994,59.7725833 0.318503996,59.1355753 0.318503996,58.2862313 L2.65419997,58.2862313 C2.65419997,58.9232393 2.65419997,59.7725833 2.86653597,60.4095913 L0.530839994,60.6219273 Z M111.157895,58.2862313 L108.822199,58.2862313 C108.822199,57.6492233 108.822199,56.7998794 108.822199,56.1628714 L111.157895,55.9505354 L111.157895,56.1628714 C111.157895,56.7998794 111.157895,57.4368873 111.157895,58.2862313 Z M0.318503996,56.1628714 C0.318503996,55.3135274 0.318503996,54.6765194 0.318503996,53.8271754 L2.65419997,53.8271754 C2.65419997,54.4641834 2.65419997,55.3135274 2.65419997,55.9505354 L0.318503996,56.1628714 Z M109.034535,53.6148394 C109.034535,52.9778314 109.034535,52.1284874 108.822199,51.4914794 L111.157895,51.2791434 C111.157895,52.1284874 111.370231,52.7654954 111.370231,53.6148394 L109.034535,53.6148394 Z M2.65419997,51.7038154 L0.318503996,51.4914794 C0.318503996,50.6421354 0.530839994,50.0051274 0.530839994,49.1557834 L2.86653597,49.3681194 C2.86653597,50.2174634 2.65419997,51.0668074 2.65419997,51.7038154 Z M108.609863,49.1557834 C108.609863,48.5187754 108.397527,47.6694315 108.185191,47.0324235 L110.308551,46.6077515 C110.520887,47.4570955 110.520887,48.0941035 110.733223,48.9434474 L108.609863,49.1557834 Z M3.29120796,47.2447595 L1.16784799,46.8200875 C1.38018398,45.9707435 1.38018398,45.3337355 1.59251998,44.4843915 L3.71587996,44.9090635 C3.50354396,45.9707435 3.29120796,46.6077515 3.29120796,47.2447595 Z M107.760519,44.9090635 C107.548183,44.2720555 107.335847,43.4227115 107.335847,42.7857035 L109.459207,42.1486955 C109.671543,42.7857035 109.883879,43.6350475 109.883879,44.4843915 L107.760519,44.9090635 Z M4.14055195,42.9980395 L2.01719198,42.3610315 C2.22952797,41.5116875 2.44186397,40.8746795 2.65419997,40.2376715 L4.77755995,40.8746795 C4.35288795,41.5116875 4.35288795,42.3610315 4.14055195,42.9980395 Z M106.698839,40.6623435 C106.486503,40.0253355 106.274167,39.1759916 106.061831,38.5389836 L108.185191,37.9019756 C108.397527,38.5389836 108.609863,39.3883276 108.822199,40.0253355 L106.698839,40.6623435 Z M5.41456794,38.7513196 L3.29120796,38.1143116 C3.50354396,37.4773036 3.71587996,36.6279596 4.14055195,35.9909516 L6.26391193,36.8402956 C5.83923993,37.4773036 5.62690394,38.1143116 5.41456794,38.7513196 Z M105.212487,36.4156236 C105.000151,35.7786156 104.575479,35.1416076 104.363143,34.2922636 L106.486503,33.4429196 C106.698839,34.0799276 107.123511,34.9292716 107.335847,35.5662796 L105.212487,36.4156236 Z M6.90091992,34.7169356 L4.77755995,33.8675916 C4.98989594,33.2305836 5.41456794,32.3812396 5.83923993,31.7442316 L7.96259991,32.8059116 C7.53792791,33.4429196 7.11325592,34.0799276 6.90091992,34.7169356 Z M103.513799,32.3812396 C103.089127,31.7442316 102.876791,31.1072236 102.452119,30.4702157 L104.363143,29.4085357 C104.787815,30.0455437 105.000151,30.6825517 105.424823,31.5318956 L103.513799,32.3812396 Z M8.8119439,30.6825517 L6.90091992,29.6208717 C7.32559192,28.9838637 7.53792791,28.3468557 7.96259991,27.7098477 L9.87362389,28.7715277 C9.66128789,29.4085357 9.2366159,30.0455437 8.8119439,30.6825517 Z M101.390439,28.5591917 C100.965767,27.9221837 100.541095,27.2851757 100.116423,26.6481677 L102.027447,25.3741517 C102.452119,26.0111597 102.876791,26.6481677 103.301463,27.2851757 L101.390439,28.5591917 Z M11.1476399,26.8605037 L9.2366159,25.5864877 C9.66128789,24.9494797 10.0859599,24.3124717 10.5106319,23.6754637 L12.4216559,24.9494797 C11.9969839,25.7988237 11.5723119,26.4358317 11.1476399,26.8605037 Z M99.0547429,24.9494797 C98.6300709,24.3124717 98.2053989,23.6754637 97.7807269,23.2507917 L99.4794149,21.7644398 C99.9040869,22.4014477 100.328759,23.0384557 100.753431,23.6754637 L99.0547429,24.9494797 Z M13.6956718,23.4631277 L11.9969839,21.9767758 C12.4216559,21.3397678 12.8463279,20.7027598 13.4833358,20.2780878 L15.1820238,21.7644398 C14.5450158,22.1891117 14.1203438,22.8261197 13.6956718,23.4631277 Z M96.2943749,21.5521038 C95.8697029,20.9150958 95.2326949,20.4904238 94.8080229,19.8534158 L96.5067109,18.3670638 C96.9313829,19.0040718 97.5683909,19.4287438 97.9930629,20.0657518 L96.2943749,21.5521038 Z M16.4560398,20.0657518 L14.7573518,18.5793998 C15.1820238,17.9423918 15.8190318,17.5177198 16.2437038,16.8807118 L17.9423918,18.3670638 C17.5177198,19.0040718 16.8807118,19.4287438 16.4560398,20.0657518 Z M93.3216709,18.1547278 C92.8969989,17.7300558 92.259991,17.0930478 91.835319,16.6683758 L93.3216709,14.9696878 C93.9586789,15.3943598 94.3833509,16.0313678 95.0203589,16.4560398 L93.3216709,18.1547278 Z M19.6410798,16.8807118 L18.1547278,15.1820238 C18.7917358,14.7573518 19.2164078,14.1203438 19.8534158,13.6956718 L21.3397678,15.3943598 C20.7027598,15.8190318 20.0657518,16.4560398 19.6410798,16.8807118 Z M90.136631,15.1820238 C89.499623,14.7573518 89.074951,14.3326798 88.437943,13.6956718 L89.924295,11.9969839 C90.561303,12.4216559 91.198311,12.8463279 91.622983,13.4833358 L90.136631,15.1820238 Z M23.0384557,14.1203438 L21.5521038,12.4216559 C22.1891117,11.9969839 22.8261197,11.5723119 23.4631277,11.1476399 L24.7371437,13.0586639 C24.1001357,13.0586639 23.4631277,13.4833358 23.0384557,14.1203438 Z M86.526919,12.6339919 C85.889911,12.2093199 85.252903,11.7846479 84.615895,11.3599759 L85.889911,9.44895189 C86.526919,9.87362389 87.163927,10.2982959 87.800935,10.7229679 L86.526919,12.6339919 Z M26.4358317,11.5723119 L25.1618157,9.66128789 C25.7988237,9.2366159 26.4358317,8.8119439 27.0728397,8.3872719 L28.1345197,10.2982959 C27.7098477,10.7229679 27.0728397,11.1476399 26.4358317,11.5723119 Z M82.9172071,10.0859599 C82.2801991,9.66128789 81.6431911,9.44895189 81.0061831,9.0242799 L82.0678631,7.11325592 C82.7048711,7.53792791 83.3418791,7.75026391 83.978887,8.17493591 L82.9172071,10.0859599 Z M30.2578797,9.2366159 L29.1961997,7.32559192 C29.8332077,6.90091992 30.4702157,6.68858392 31.3195596,6.26391193 L32.3812396,8.3872719 C31.5318956,8.5996079 30.8948876,8.8119439 30.2578797,9.2366159 Z M78.8828231,7.96259991 C78.2458151,7.53792791 77.6088071,7.32559192 76.9717991,7.11325592 L77.8211431,4.98989594 C78.4581511,5.20223194 79.3074951,5.62690394 79.9445031,6.05157593 L78.8828231,7.96259991 Z M34.2922636,7.32559192 L33.4429196,5.20223194 C34.0799276,4.98989594 34.9292716,4.56522395 35.5662796,4.35288795 L36.4156236,6.47624793 C35.5662796,6.68858392 34.9292716,6.90091992 34.2922636,7.32559192 Z M74.8484391,6.26391193 C74.2114312,6.05157593 73.5744232,5.83923993 72.7250792,5.41456794 L73.3620872,3.29120796 C73.9990952,3.50354396 74.8484391,3.71587996 75.4854471,4.14055195 L74.8484391,6.26391193 Z M38.3266476,5.62690394 L37.6896396,3.50354396 C38.3266476,3.29120796 39.1759916,3.07887197 39.8129995,2.86653597 L40.4500075,4.98989594 C39.6006635,5.20223194 38.9636556,5.41456794 38.3266476,5.62690394 Z M70.8140552,4.98989594 C70.1770472,4.77755995 69.3277032,4.56522395 68.6906952,4.35288795 L69.3277032,2.22952797 C70.1770472,2.44186397 70.8140552,2.65419997 71.4510632,2.86653597 L70.8140552,4.98989594 Z M42.5733675,4.35288795 L41.9363595,2.22952797 C42.5733675,2.01719198 43.4227115,1.80485598 44.2720555,1.80485598 L44.6967275,3.92821596 C43.8473835,4.14055195 43.2103755,4.14055195 42.5733675,4.35288795 Z M66.5673352,3.92821596 C65.9303273,3.71587996 65.0809833,3.71587996 64.4439753,3.50354396 L64.8686473,1.38018398 C65.7179913,1.59251998 66.3549992,1.59251998 67.2043432,1.80485598 L66.5673352,3.92821596 Z M46.8200875,3.50354396 L46.3954155,1.38018398 C47.2447595,1.16784799 47.8817675,1.16784799 48.7311114,0.955511989 L48.9434474,3.29120796 C48.3064395,3.29120796 47.4570955,3.29120796 46.8200875,3.50354396 Z M62.1082793,3.07887197 C61.4712713,3.07887197 60.6219273,2.86653597 59.9849193,2.86653597 L60.1972553,0.530839994 C61.0465993,0.530839994 61.6836073,0.743175992 62.5329513,0.743175992 L62.1082793,3.07887197 Z M51.2791434,2.86653597 L51.0668074,0.530839994 C51.9161514,0.530839994 52.5531594,0.318503996 53.4025034,0.318503996 L53.4025034,2.65419997 C52.5531594,2.86653597 51.9161514,2.86653597 51.2791434,2.86653597 Z M57.8615593,2.86653597 C57.2245513,2.86653597 56.5875434,2.86653597 55.7381994,2.86653597 L55.5258634,1.38018398 L55.5258634,0.743175992 C56.1628714,0.743175992 57.0122154,0.743175992 57.6492233,0.743175992 L57.8615593,2.86653597 Z" id="Shape"></path>
                <circle id="Oval" cx="55.7381994" cy="55.9505354" r="50.5359674"></circle>
            </g>
            <path d="M126.021415,0.530839994 L89.924295,74.6361032 L62.1082793,74.6361032 L63.5946313,71.6633992 L65.0809833,68.4783592 L72.7250792,52.7654954 L72.7781632,52.6593274 L74.2114312,49.5804554 L74.2645152,49.4742874 L75.9101191,46.1830795 L98.0992309,0.477755995 L125.809079,0.477755995 C125.862163,0.477755995 125.968331,0.530839994 126.021415,0.530839994 Z" id="Shape" fill="#BBCE48" fill-rule="nonzero"></path>
            <polygon id="Shape" fill="#FFD05B" fill-rule="nonzero" points="122.783291 0.477755995 88.225607 71.4510632 88.172523 71.5572312 86.739255 74.4237672 65.2933193 74.4237672 66.7265872 71.7695672 66.7796712 71.6633992 74.4237672 55.9505354 75.9101191 52.7654954 77.5557231 49.4742874 77.6088071 49.3681194 101.390439 0.477755995"></polygon>
            <polygon id="Shape" fill="#BBCE48" fill-rule="nonzero" points="119.810587 0.477755995 86.739255 68.4783592 85.093651 71.7695672 85.040567 71.8757352 83.660383 74.4237672 83.5542151 74.6361032 68.2660232 74.6361032 68.3721912 74.4237672 75.9101191 59.1355753 77.3964711 55.9505354 79.0420751 52.6593274 79.0420751 52.6593274 79.0951591 52.5531594 104.469311 0.477755995"></polygon>
            <polygon id="Shape" fill="#F9B54C" fill-rule="nonzero" points="75.9101191 120.925351 88.437943 146.40567 116.466295 150.440054 96.0820389 170.187302 100.965767 198.215654 75.9101191 185.050822 50.8544714 198.215654 55.7381994 170.187302 35.3539436 150.440054 63.3822953 146.40567"></polygon>
            <path d="M29.0369477,0.477755995 L25.9049917,0.477755995" id="Shape"></path>
        </g>
    </g>
</svg>